<?xml version="1.0" encoding="UTF-8" standalone="no"?>
<!-- Generator: Adobe Illustrator 21.1.0, SVG Export Plug-In . SVG Version: 6.00 Build 0)  -->

<svg
   xmlns:dc="http://purl.org/dc/elements/1.1/"
   xmlns:cc="http://creativecommons.org/ns#"
   xmlns:rdf="http://www.w3.org/1999/02/22-rdf-syntax-ns#"
   xmlns:svg="http://www.w3.org/2000/svg"
   xmlns="http://www.w3.org/2000/svg"
   xmlns:sodipodi="http://sodipodi.sourceforge.net/DTD/sodipodi-0.dtd"
   xmlns:inkscape="http://www.inkscape.org/namespaces/inkscape"
   version="1.0"
   id="Ebene_1"
   x="0px"
   y="0px"
   width="410"
   height="96"
   viewBox="0 0 410 95.999998"
   enable-background="new 0 0 466.5 167.3"
   xml:space="preserve"
   sodipodi:docname="atari2600.svg"
   inkscape:version="0.92.4 (5da689c313, 2019-01-14)"><metadata
     id="metadata39"><rdf:RDF><cc:Work
         rdf:about=""><dc:format>image/svg+xml</dc:format><dc:type
           rdf:resource="http://purl.org/dc/dcmitype/StillImage" /><dc:title></dc:title></cc:Work></rdf:RDF></metadata><defs
     id="defs37" /><sodipodi:namedview
     pagecolor="#ffffff"
     bordercolor="#666666"
     borderopacity="1"
     objecttolerance="10"
     gridtolerance="10"
     guidetolerance="10"
     inkscape:pageopacity="0"
     inkscape:pageshadow="2"
     inkscape:window-width="1920"
     inkscape:window-height="1028"
     id="namedview35"
     showgrid="false"
     fit-margin-top="0"
     fit-margin-left="0"
     fit-margin-right="0"
     fit-margin-bottom="0"
     inkscape:zoom="2.340836"
     inkscape:cx="155.51106"
     inkscape:cy="15.337242"
     inkscape:window-x="0"
     inkscape:window-y="28"
     inkscape:window-maximized="1"
     inkscape:current-layer="g32"
     inkscape:pagecheckerboard="true"
     inkscape:snap-bbox="true"
     inkscape:bbox-paths="true"
     inkscape:bbox-nodes="true"
     inkscape:snap-bbox-edge-midpoints="true"
     inkscape:snap-bbox-midpoints="true" /><g
     id="g32"
     transform="translate(-15,-34.600002)"><path
       d="m 164.24096,42.523227 c 3.37056,-4.306828 10.48618,-5.149468 14.60577,-1.404401 1.68528,1.404401 2.90242,3.464188 3.5578,5.523976 7.67739,26.589982 15.54204,53.273595 23.21942,79.863578 -4.58771,0 -9.17541,0 -13.6695,0 -2.15341,-7.39651 -4.2132,-14.69939 -6.46024,-22.0959 -8.80091,0 -17.69544,0 -26.49635,0 -2.15342,7.39651 -4.30683,14.69939 -6.46025,22.0959 -4.5877,0 -9.08179,0 -13.66949,0 7.39651,-25.37284 14.69939,-50.745675 22.0959,-76.11851 1.02989,-2.715175 1.4044,-5.711229 3.27693,-7.864643 m 8.0519,16.291045 c -3.27694,11.047951 -6.46024,22.095901 -9.64355,33.143851 6.46024,0 12.82686,0 19.2871,0 -3.27694,-11.04795 -6.46024,-22.0959 -9.64355,-33.143851 z"
       id="path2"
       inkscape:connector-curvature="0"
       style="fill:#ffffff;stroke-width:0.93626696" /><path
       d="m 260.39557,43.084987 c 2.34067,-3.464188 7.022,-5.149468 11.04796,-4.025948 3.65143,0.84264 6.55387,4.025948 7.49014,7.677389 7.67739,26.589983 15.54203,53.273592 23.21942,79.863572 -4.58771,0 -9.17542,0 -13.66951,0 -2.05979,-7.3965 -4.21319,-14.69939 -6.36662,-22.0959 -8.80091,0 -17.60181,0 -26.49635,0 -2.05979,7.39651 -4.2132,14.6994 -6.46024,22.0959 -4.58771,0 -9.08179,0 -13.6695,0 7.39651,-25.56008 14.79302,-51.026549 22.18953,-76.586637 0.93626,-2.340668 1.21714,-4.962215 2.71517,-6.928376 m -1.02989,48.873136 c 6.46024,0 12.73323,0 19.19347,0 -3.18331,-11.04795 -6.46024,-22.0959 -9.54992,-33.143851 -3.37056,11.047951 -6.46024,22.095901 -9.64355,33.143851 z"
       id="path4"
       inkscape:connector-curvature="0"
       style="fill:#ffffff;stroke-width:0.93626696" /><path
       d="m 195.32502,38.965412 c 16.4783,0 33.05022,0 49.52853,0 0,4.494082 0,8.988163 0,13.388618 -6.08574,0 -12.17147,0 -18.25721,0 0,24.717448 0,49.4349 0,74.24597 -4.30683,0 -8.70728,0 -13.01411,0 0,-24.71744 0,-49.434895 0,-74.24597 -6.08573,0 -12.17147,0 -18.2572,0 0,-4.587708 0,-8.988163 -1e-5,-13.388618 z"
       id="path6"
       inkscape:connector-curvature="0"
       style="fill:#ffffff;stroke-width:0.93626696" /><path
       d="m 316.75884,39.433546 c 1.21715,-0.468134 2.62156,-0.56176 3.93232,-0.56176 5.14948,0 10.39257,0 15.63566,0 8.80091,0.187253 17.13369,5.617602 20.87876,13.482244 2.62154,5.149469 2.90242,11.141577 2.24704,16.759179 -0.46814,5.898482 -2.99606,11.796964 -7.3965,15.635659 -2.34067,2.153414 -5.33672,3.370561 -7.95828,5.336721 -1.4044,1.123521 -1.4044,3.183308 -0.74901,4.587709 6.92838,10.673442 14.13763,21.159632 21.15964,31.739452 -5.14947,0 -10.29894,0 -15.54203,0 -6.74113,-10.20531 -13.38862,-20.31699 -20.22337,-30.522305 -1.96616,-2.902428 -2.52792,-6.741122 -1.31077,-10.018057 0.93626,-2.527921 3.1833,-4.400455 5.6176,-5.336722 4.68133,-1.778907 9.36267,-4.587708 11.98422,-9.081789 2.05978,-3.276935 1.87253,-7.39651 1.02989,-11.141577 -1.12352,-4.774962 -5.71123,-8.426403 -10.48619,-8.332777 -3.37056,0 -6.74112,0 -10.11168,0 -1.49803,0 -2.99606,1.310774 -2.99606,2.808801 0,23.781182 0,47.655996 0,71.437176 -4.40045,0 -8.80091,0 -13.20136,0 0,-25.65372 0,-51.307436 0,-76.961151 0,-4.213201 3.1833,-8.426403 7.49012,-9.830803 z"
       id="path8"
       inkscape:connector-curvature="0"
       style="fill:#ffffff;stroke-width:0.93626696" /><path
       d="m 371.43684,38.965412 c 4.58771,0 9.26905,0 13.85676,0 0,29.21153 0,58.42306 0,87.634588 -4.58771,0 -9.26905,0 -13.85676,0 0,-29.305155 0,-58.516685 0,-87.634588 z"
       id="path10"
       inkscape:connector-curvature="0"
       style="fill:#ffffff;stroke-width:0.93626696" /><path
       d="m 54.042333,38.684532 c 2.247041,0 4.494082,0 6.647496,0 0,5.149469 0,10.48619 0,15.635659 0,4.306828 -0.09363,8.707283 -0.280881,13.014111 -0.28088,6.272989 -0.749013,12.545977 -1.68528,18.818966 -0.749014,4.213202 -2.153414,8.426403 -4.025948,12.358724 -2.996054,6.366618 -7.677389,11.703338 -13.014111,16.197418 -4.774962,4.21321 -10.392564,7.20926 -16.291046,9.26905 -3.370561,1.12352 -6.834748,2.05978 -10.392563,2.52792 0,-4.40046 0,-8.70728 0,-13.10774 4.213201,-0.65539 8.332776,-2.15341 12.077844,-4.11957 4.494082,-2.34067 8.52003,-5.52398 11.984217,-9.362673 3.557815,-3.932326 6.366616,-8.33278 8.426403,-13.201369 2.527921,-5.523975 3.838695,-11.422457 4.774962,-17.414565 1.12352,-7.583763 1.591654,-15.261152 1.778907,-22.844915 0,-2.527921 0,-5.149468 0,-7.771016 z"
       id="path12"
       inkscape:connector-curvature="0"
       style="fill:#ffffff;stroke-width:0.93626696" /><path
       d="m 63.311376,38.684532 c 4.119575,0 8.145523,0 12.265098,0 0,29.305157 0,58.516687 0,87.728218 -4.119575,0 -8.145523,0 -12.265098,0 -0.09363,-9.26904 0,-18.72534 0,-27.994384 0,-19.84886 0,-39.69772 0,-59.733834 z"
       id="path14"
       inkscape:connector-curvature="0"
       style="fill:#ffffff;stroke-width:0.93626696" /><path
       d="m 78.291648,38.684532 c 2.247041,0 4.400455,0 6.647495,0 -0.09363,8.988163 0.187254,17.8827 1.310772,26.777236 0.84264,6.834749 2.05979,13.856751 4.86859,20.223367 2.62155,6.179362 6.36662,11.984217 11.235205,16.665555 4.68134,4.49408 10.29894,7.86464 16.4783,9.8308 1.68528,0.56176 3.46419,1.0299 5.2431,1.21715 0,4.40046 0,8.70728 0,13.10774 -3.55782,-0.46814 -6.92838,-1.4044 -10.20531,-2.52792 -3.93232,-1.4044 -7.77102,-3.18331 -11.32883,-5.52398 -2.621555,-1.68528 -4.868595,-3.65144 -7.209265,-5.71123 -3.65144,-3.37056 -7.022,-7.30288 -9.549921,-11.79696 -1.966161,-3.464191 -3.370562,-7.115633 -4.494082,-10.860701 -1.029894,-3.838694 -1.4044,-7.677389 -1.872534,-11.60971 -0.749013,-8.426403 -1.12352,-16.946432 -1.029894,-25.372835 -0.09363,-4.774962 -0.09363,-9.549923 -0.09363,-14.418512 z"
       id="path16"
       inkscape:connector-curvature="0"
       style="fill:#ffffff;stroke-width:0.93626696" /><path
       d="m 54.042333,38.684532 c 0,2.621548 0,5.149469 0,7.771016 -0.187253,7.677389 -0.655387,15.261152 -1.778907,22.844915 -0.936267,5.898482 -2.247041,11.89059 -4.774962,17.414565 -2.153414,4.774962 -4.868588,9.269043 -8.426403,13.201369 -3.370561,3.745063 -7.396509,7.022003 -11.984217,9.362673 -3.838695,2.05978 -7.864643,3.46418 -12.077844,4.11957 0,4.40046 0,8.70728 0,13.10774 3.557815,-0.46814 7.022002,-1.4044 10.392563,-2.52792 5.898482,-2.05979 11.609711,-5.14947 16.291046,-9.26905 5.243095,-4.49408 10.018057,-9.8308 13.014111,-16.197418 1.778907,-3.932321 3.276934,-8.051896 4.025948,-12.358724 1.029894,-6.179362 1.4044,-12.452351 1.68528,-18.725339 0.187254,-4.306829 0.280881,-8.707283 0.280881,-13.014111 0,-5.149469 0,-10.486191 0,-15.635659 -2.247041,-0.09363 -4.494082,-0.09363 -6.647496,-0.09363"
       id="path18"
       inkscape:connector-curvature="0"
       style="fill:#ffffff;stroke-width:0.93626696" /><path
       d="m 63.311376,38.684532 c 0,19.942487 0,39.884974 0,59.82746 0,9.269048 0,18.725338 0,27.994388 4.119575,-0.0936 8.145523,0 12.265098,0 0,-29.305161 0,-58.610318 0,-87.728221 -4.119575,-0.09363 -8.145523,-0.09363 -12.265098,-0.09363"
       id="path20"
       inkscape:connector-curvature="0"
       style="fill:#ffffff;stroke-width:0.93626696" /><path
       d="m 78.291648,38.684532 c 0,4.774962 0,9.549924 0,14.324885 -0.09363,8.52003 0.187253,16.946432 1.029893,25.372835 0.468134,3.932322 0.842641,7.864643 1.872534,11.609711 1.123521,3.745068 2.527921,7.490136 4.494082,10.860697 2.527918,4.40046 5.804858,8.33278 9.549928,11.79697 2.24704,2.05978 4.5877,4.02594 7.209255,5.71123 3.55782,2.34066 7.39651,4.11957 11.32883,5.52397 3.27694,1.12352 6.74112,2.05979 10.20531,2.52792 0,-4.40045 0,-8.70728 0,-13.10774 -1.77891,-0.28088 -3.55781,-0.74901 -5.24309,-1.21714 -6.08574,-1.96616 -11.79697,-5.43035 -16.4783,-9.83081 C 97.391495,97.669352 93.646425,91.864497 91.024875,85.591508 88.309705,79.131266 87.092555,72.20289 86.156295,65.368141 85.126397,56.660858 84.845517,47.672695 84.939143,38.778159 c -2.24704,-0.09363 -4.494081,-0.09363 -6.647495,-0.09363"
       id="path22"
       inkscape:connector-curvature="0"
       style="fill:#ffffff;stroke-width:0.93626696" /></g><path
     d="m 406.30608,92 c -0.50138,0 -1.66429,-0.295457 -3.79517,-2.268153 -1.8165,-1.681212 -3.62603,-3.37535 -5.43259,-5.079441 -2.03835,-1.926927 -3.61312,-2.824237 -4.95709,-2.824237 -0.81673,0 -1.57377,0.325293 -2.25124,0.969921 -0.68043,0.64961 -1.03857,1.499164 -1.03857,2.46114 0,1.011708 0.35515,1.882167 1.05848,2.583494 0.47152,0.472533 1.02463,0.787884 1.65136,0.944067 v 3.148544 c -1.41561,-0.198958 -2.64021,-0.846571 -3.72453,-1.964731 -1.33104,-1.374814 -1.97965,-2.938644 -1.97965,-4.782008 0,-1.830428 0.64463,-3.334563 1.9707,-4.597965 1.33801,-1.277318 2.85408,-1.89708 4.62979,-1.89708 1.86825,0 3.76134,0.911236 5.62958,2.708842 2.06321,1.983626 4.03193,3.898624 5.90712,5.741988 l 1.6275,1.600625 0.0806,-10.051455 h 2.89487 V 90.6789 c 0,0.206923 -0.23975,0.483473 -0.65557,0.759035 C 407.35658,91.810984 406.81442,92 406.30607,92"
     id="path29"
     style="fill:#ffffff;fill-opacity:1;stroke-width:1.01867545"
     inkscape:connector-curvature="0" /><path
     d="m 401.09632,73.661845 c -0.42478,0 -1.6076,-0.206914 -4.76709,-1.591681 -2.50689,-1.096268 -4.99588,-2.266156 -7.39732,-3.479806 -1.78866,-0.901293 -2.66408,-1.357904 -3.09384,-1.587707 v -3.620073 l 8.93928,4.25973 v -1.531986 c 0,-2.187567 0.62572,-3.937421 1.912,-5.350038 1.2634,-1.386751 2.8322,-2.060231 4.79394,-2.060231 2.15375,0 3.90161,0.761022 5.34308,2.327833 1.46335,1.589691 2.17364,3.437031 2.17364,5.645488 0,1.994577 -0.76898,3.612122 -2.34973,4.945151 -1.62847,1.374814 -3.44597,2.04332 -5.55397,2.04332 m 0.56404,-11.721727 c -1.19375,0 -2.23033,0.416821 -3.08189,1.239521 -0.86347,0.832647 -1.3002,1.842371 -1.3002,3.001307 0,1.156961 0.4785,2.159714 1.42456,2.982418 0.90327,0.787883 1.87519,1.187786 2.88691,1.187786 1.27932,0 2.30695,-0.396918 3.05702,-1.177844 0.73715,-0.768978 1.11219,-1.787654 1.11219,-3.028166 0,-1.284285 -0.41782,-2.321866 -1.24151,-3.084877 -0.8038,-0.744111 -1.76577,-1.120145 -2.85708,-1.120145"
     id="path31"
     style="fill:#ffffff;fill-opacity:1;stroke-width:1.01867545"
     inkscape:connector-curvature="0" /><path
     d="m 397.57671,54.830279 c -3.35247,0 -6.11603,-1.144019 -8.44785,-3.496722 -2.33379,-2.356681 -3.46787,-5.041648 -3.46787,-8.206605 0,-3.095819 1.13408,-5.745468 3.46787,-8.102648 2.33281,-2.353199 4.9571,-3.498215 8.02506,-3.498215 3.04608,0 5.69225,1.033101 8.08972,3.155009 2.36266,2.092065 3.51065,4.739726 3.51065,8.093198 0,3.288312 -1.01767,6.070271 -3.11174,8.502557 -2.05426,2.3915 -4.69147,3.553426 -8.06584,3.553426 m -0.42279,-20.062634 c -2.13085,0 -4.05779,0.833146 -5.72905,2.477054 -1.67524,1.648384 -2.52381,3.579788 -2.52381,5.740495 0,2.449695 0.88935,4.527833 2.64418,6.178207 1.73991,1.633959 3.76929,2.462628 6.03147,2.462628 2.38852,0 4.37713,-0.866471 5.9121,-2.573548 1.50613,-1.677731 2.27014,-3.707125 2.27014,-6.031475 0,-2.249244 -0.8038,-4.206513 -2.38852,-5.817591 -1.59168,-1.617049 -3.68275,-2.43577 -6.21651,-2.43577"
     id="path33"
     style="fill:#ffffff;fill-opacity:1;stroke-width:1.01867545"
     inkscape:connector-curvature="0" /><path
     d="m 397.57671,27.480236 c -3.35347,0 -6.11702,-1.144019 -8.44785,-3.49722 -2.33379,-2.356184 -3.46787,-5.04115 -3.46787,-8.206107 0,-3.095818 1.13408,-5.745469 3.46787,-8.1026484 2.33281,-2.3532005 4.95809,-3.4972199 8.02506,-3.4972199 3.04608,0 5.69325,1.0321047 8.08972,3.1540138 2.36266,2.0920655 3.51065,4.7397255 3.51065,8.0931975 0,3.288312 -1.01767,6.070271 -3.11174,8.50405 -2.05426,2.390506 -4.69147,3.551934 -8.06584,3.551934 M 397.15392,7.4176032 c -2.13085,0 -4.05679,0.8331452 -5.72905,2.4775488 -1.67524,1.647887 -2.52381,3.579292 -2.52381,5.739997 0,2.449696 0.88935,4.527834 2.64418,6.178207 1.73991,1.63396 3.76929,2.462132 6.03147,2.462132 2.38852,0 4.37713,-0.865974 5.9121,-2.573052 1.50613,-1.67773 2.27014,-3.707123 2.27014,-6.031474 0,-2.249242 -0.8038,-4.206014 -2.38852,-5.817591 -1.59168,-1.6170481 -3.68275,-2.4357678 -6.21651,-2.4357678"
     id="path35"
     style="fill:#ffffff;fill-opacity:1;stroke-width:1.01867545"
     inkscape:connector-curvature="0" /></svg>