<?xml version="1.0" encoding="UTF-8" standalone="no"?>
<!-- Created with Inkscape (http://www.inkscape.org/) -->

<svg
   xmlns:ns="http://ns.adobe.com/SaveForWeb/1.0/"
   xmlns:dc="http://purl.org/dc/elements/1.1/"
   xmlns:cc="http://creativecommons.org/ns#"
   xmlns:rdf="http://www.w3.org/1999/02/22-rdf-syntax-ns#"
   xmlns:svg="http://www.w3.org/2000/svg"
   xmlns="http://www.w3.org/2000/svg"
   xmlns:sodipodi="http://sodipodi.sourceforge.net/DTD/sodipodi-0.dtd"
   xmlns:inkscape="http://www.inkscape.org/namespaces/inkscape"
   version="1.1"
   width="410"
   height="96"
   viewBox="0 0 410 96.000004"
   id="svg2"
   xml:space="preserve"
   inkscape:version="0.92.4 (5da689c313, 2019-01-14)"
   sodipodi:docname="dragon32.svg"><sodipodi:namedview
     pagecolor="#ffffff"
     bordercolor="#666666"
     borderopacity="1"
     objecttolerance="10"
     gridtolerance="10"
     guidetolerance="10"
     inkscape:pageopacity="0"
     inkscape:pageshadow="2"
     inkscape:window-width="1920"
     inkscape:window-height="1028"
     id="namedview18"
     showgrid="false"
     fit-margin-top="0"
     fit-margin-left="0"
     fit-margin-right="0"
     fit-margin-bottom="0"
     inkscape:zoom="1.8045977"
     inkscape:cx="31.744708"
     inkscape:cy="29.52244"
     inkscape:window-x="0"
     inkscape:window-y="28"
     inkscape:window-maximized="1"
     inkscape:current-layer="svg2"
     inkscape:pagecheckerboard="true" /><defs
     id="defs28" /><metadata
     id="metadata7"><rdf:RDF><cc:Work
         rdf:about=""><dc:format>image/svg+xml</dc:format><dc:type
           rdf:resource="http://purl.org/dc/dcmitype/StillImage" /><dc:title></dc:title></cc:Work></rdf:RDF><ns:sfw><ns:slices /><ns:sliceSourceBounds
         bottomLeftOrigin="true"
         height="120.809"
         width="990.562"
         x="-202.828"
         y="383.641" /></ns:sfw><ns:sfw><ns:slices /><ns:sliceSourceBounds
         bottomLeftOrigin="true"
         height="120.81"
         width="990.562"
         x="381.274"
         y="83.733" /></ns:sfw></metadata><linearGradient
     x1="895.85522"
     y1="-429.6785"
     x2="1304.7458"
     y2="-429.6785"
     id="path21_1_"
     gradientUnits="userSpaceOnUse"
     gradientTransform="matrix(0.67196365,0,0,-0.67196365,-442.04051,-248.75067)"><stop
       id="stop6"
       style="stop-color:#f50019;stop-opacity:1"
       offset="0" /><stop
       id="stop8"
       style="stop-color:#f66d19;stop-opacity:1"
       offset="0.27610001" /><stop
       id="stop10"
       style="stop-color:#fbfa35;stop-opacity:1"
       offset="0.47850001" /><stop
       id="stop12"
       style="stop-color:#74b719;stop-opacity:1"
       offset="0.68099999" /><stop
       id="stop14"
       style="stop-color:#17710a;stop-opacity:1"
       offset="0.79140002" /><stop
       id="stop16"
       style="stop-color:#226887;stop-opacity:1"
       offset="0.88340002" /><stop
       id="stop18"
       style="stop-color:#3262d9;stop-opacity:1"
       offset="1" /></linearGradient><path
     d="m 118.78593,29.139127 h 17.76678 c 11.71335,0 15.84708,8.661554 15.84708,17.520953 0,10.77802 -5.70895,17.619607 -17.96353,17.619607 h -15.64978 v -35.14056 z m 10.82709,26.133448 h 4.23292 c 6.7424,0 7.72678,-5.463133 7.72678,-8.760205 0,-2.21458 -0.68896,-8.36721 -8.51438,-8.36721 h -3.44532 z m 26.47685,-26.133448 h 20.62181 c 6.15153,0 11.46696,3.396266 11.46696,10.040005 0,3.64209 -1.67333,7.480948 -5.26582,8.809804 2.95312,1.132627 4.77311,4.380104 5.16717,8.760207 0.14718,1.72239 0.19623,5.905727 1.18061,7.530007 h -10.82708 c -0.54179,-1.771451 -0.73855,-3.591958 -0.88626,-5.413543 -0.29543,-3.346667 -0.59139,-6.840507 -4.87283,-6.840507 h -5.7591 v 12.255126 h -10.82707 v -35.141099 0 z m 10.82706,15.35489 h 5.65991 c 2.01781,0 4.77418,-0.345016 4.77418,-3.493841 0,-2.21404 -1.23021,-3.493839 -5.36503,-3.493839 h -5.06906 z m 37.35408,-15.35489 h 10.58123 l 12.79585,35.140023 h -11.22062 l -1.47601,-5.020006 h -11.17265 l -1.57522,5.020006 h -10.87666 z m 8.51382,22.589475 -3.14988,-10.827077 h -0.0986 l -3.39574,10.827077 z m 42.02852,8.958053 c -2.4119,3.099767 -6.15154,4.428617 -9.98987,4.428617 -10.38556,0 -16.78294,-8.071246 -16.78294,-18.061657 0,-13.386135 9.40065,-18.750616 17.32419,-18.750616 8.95697,0 14.61689,4.872292 16.19157,13.140311 h -10.38503 c -0.39299,-2.55906 -2.55851,-4.380104 -5.11757,-4.380104 -7.43135,0 -7.18553,7.825425 -7.18553,10.236773 0,3.296534 1.32886,9.055628 7.923,9.055628 2.51,0 5.06905,-1.279799 5.61029,-3.887916 h -4.77309 V 44.93715 h 14.37106 v 19.342 h -6.84106 z M 285.12851,28.30246 c 10.68044,0 17.81583,7.677176 17.81583,18.406675 0,10.729503 -7.13592,18.406676 -17.81583,18.406676 -10.67989,0 -17.81637,-7.677173 -17.81637,-18.406676 0,-10.72896 7.13702,-18.406675 17.81637,-18.406675 z m 0,28.052608 c 2.75584,0 6.98877,-1.821045 6.98877,-9.647009 0,-7.825425 -4.23293,-9.646471 -6.98877,-9.646471 -2.75581,0 -6.98876,1.821046 -6.98876,9.646471 0,7.825964 4.23348,9.647009 6.98876,9.647009 z M 307.5692,29.139127 h 11.07343 l 10.23678,18.800213 h 0.0987 V 29.139127 h 10.23674 V 64.27915 h -10.5322 L 317.90463,45.085399 h -0.0986 V 64.27915 h -10.23678 z"
     id="path21"
     style="fill:#ffffff;fill-opacity:1;stroke:none;stroke-width:0.8022601"
     inkscape:connector-curvature="0" /><path
     d="m 349.35135,41.442771 c 0.0501,-4.035087 1.67334,-6.988759 4.28146,-8.956974 2.60865,-1.9197 6.15208,-2.85448 9.99094,-2.85448 9.94028,0 13.23896,5.905725 13.23896,8.809802 0,7.184986 -4.52782,7.184986 -4.52782,7.333777 v 0.09865 c 0,0.393535 5.61085,0.393535 5.61085,8.022193 0,4.183335 -3.14989,10.778561 -14.37104,10.778561 -15.40341,0 -15.45355,-10.827619 -15.20772,-13.387216 h 9.35159 c -0.0496,1.821044 0.39298,3.200037 1.32939,4.084682 0.93425,1.132088 2.36229,1.525623 4.08468,1.525623 2.80489,0 4.57633,-1.033434 4.57633,-3.838317 0,-3.002192 -2.31322,-3.543437 -4.57633,-3.543437 -1.42697,0 -2.117,0.14717 -2.85447,0.245825 v -6.693877 c 0.73747,0.0496 1.52507,0.196768 2.85447,0.196768 2.06687,0 4.67553,-0.442593 4.67553,-3.100304 0,-2.166602 -2.4604,-3.002192 -4.47931,-3.002192 -2.65771,0 -4.8227,1.426973 -4.7251,4.281452 z m 30.66019,3.002189 c -0.54179,-9.400644 5.31489,-14.813643 14.51929,-14.813643 8.31708,0 13.977,3.493838 13.977,10.778018 0,8.760206 -8.56345,11.516033 -15.01096,15.453544 v 0.0496 H 409 v 8.367213 h -29.67688 c -0.19677,-3.297613 0.7876,-6.152633 2.45988,-8.465328 2.85447,-3.987107 7.77634,-6.594683 12.15645,-9.252395 1.77146,-1.08303 4.62593,-2.460944 4.62593,-4.971485 0,-3.100844 -1.82104,-4.183336 -4.13374,-4.183336 -3.9375,0 -5.26637,2.85448 -5.16771,7.037816 h -9.25239 v 0 z"
     id="path23"
     style="fill:#ffffff;fill-opacity:1;stroke:none;stroke-width:0.8022601"
     inkscape:connector-curvature="0" /><path
     d="M 51.486835,48.121551 H 46.157939 L 58.843255,26.151492 c 2.44692,-4.260964 7.01518,-6.907356 11.92467,-6.907356 h 26.21324 l -2.66418,4.614608 h -23.54906 c -3.26634,0 -6.30466,1.763902 -7.9257,4.594661 z m 14.27456,-17.987803 c 1.02642,-1.793551 2.94504,-2.90785 5.00707,-2.90785 h 21.60401 l 1.15258,-1.99571 h -22.75659 c -2.77524,0 -5.35748,1.499208 -6.73701,3.908939 l -10.9597,18.982424 h 2.30408 z m 2.01888,8.475567 h 18.02017 l 3.11595,-5.396827 0.94824,-1.643145 1.71647,-2.972002 h -20.81211 c -1.57144,0 -3.03399,0.849607 -3.81675,2.217276 l -9.99204,17.306395 h 5.32891 z m -40.94655,0 c -0.0031,0.03774 -0.0057,0.05498 -0.004,0.05498 -0.04202,0.142319 -0.236121,0.551489 -0.915374,1.691124 -1.435595,2.409732 -2.904078,5.421086 -2.904616,9.482048 0,7.581219 6.167727,13.749478 13.749479,13.749478 h 52.352621 l -5.43457,9.413047 h 5.32891 l 4.26851,-7.393618 c 0.40055,-0.674397 0.61186,-1.448529 0.61186,-2.238298 0,-2.423744 -1.97144,-4.395195 -4.3952,-4.395195 H 36.759672 c -5.037255,0 -9.134872,-4.09816 -9.134872,-9.134875 0,-2.769842 0.901361,-4.84965 2.255011,-7.119217 1.258779,-2.113231 1.575759,-2.84262 1.57522,-4.327813 0,-2.423208 -1.97145,-4.394658 -4.394659,-4.394658 H 11.597433 l 2.663649,4.614607 h 12.572643 z m 62.65679,16.995879 H 36.758906 c -3.179551,0 -5.767179,-2.58763 -5.767179,-5.76772 5.37e-4,-1.756894 0.483022,-3.219443 1.779537,-5.395209 1.39408,-2.33911 2.050694,-3.698695 2.050694,-6.052358 0,-4.279294 -3.48198,-7.761814 -7.762353,-7.761814 H 5.794674 L 5.043188,29.327808 0,31.608157 7.804399,34.110072 6.946167,32.623264 h 20.113438 c 3.180088,0 5.766638,2.587629 5.766638,5.766643 5.48e-4,1.790315 -0.397844,2.72941 -1.768749,5.029706 -1.483033,2.487898 -2.060397,4.287378 -2.060397,6.417322 0,4.280372 3.482519,7.76289 7.762347,7.76289 h 52.731611 c 3.18009,0 5.76719,2.58763 5.76719,5.767182 0,1.036132 -0.27819,2.052857 -0.80972,2.949363 l -3.85827,6.682552 h 2.30352 l 3.2766,-5.674454 c 0.70836,-1.194625 1.08358,-2.562835 1.08358,-3.957461 0,-4.279833 -3.48253,-7.761813 -7.76344,-7.761813 z M 41.69373,65.084007 H 36.365376 L 31.79443,73 h 5.328902 z m -0.681945,7.915454 4.570406,-7.915993 h -2.303535 l -4.570399,7.915993 z m 11.48315,-7.915454 H 47.16603 L 42.595632,73 h 5.328363 z M 89.490515,49.618066 H 36.985323 c 0.02798,-0.336933 0.173592,-0.844215 0.928317,-2.111616 1.640451,-2.751513 2.894914,-5.170947 2.894914,-9.116543 0,-7.58122 -6.16719,-13.749484 -13.749489,-13.749484 h -0.361188 l -3.040463,3.041006 -3.040472,-3.041006 H 6.194683 l 2.664716,4.615148 h 18.199128 c 5.037255,0 9.134333,4.098159 9.134333,9.134336 5.39e-4,2.787631 -0.847451,4.41083 -2.24423,6.754253 -1.170364,1.964443 -1.585462,3.192489 -1.585462,4.693314 0,2.423208 1.971989,4.395199 4.395198,4.395199 h 52.731609 c 5.03725,0 9.13488,4.09762 9.13488,9.134334 0,1.636133 -0.43828,3.24155 -1.26796,4.644256 l -2.87981,4.987659 h 5.32891 l 1.536405,-2.662023 c 1.24098,-2.108383 1.89707,-4.517573 1.89707,-6.97043 C 103.24,55.786329 97.072275,49.618066 89.490515,49.618066 Z M 28.215955,24.054973 23.657414,19.49697 19.099412,24.054973 h 2.116464 l 2.441538,-2.441538 2.442069,2.441538 z"
     id="path24"
     style="display:inline;fill:#ffffff;fill-opacity:1;stroke:none;stroke-width:0.8022601"
     inkscape:connector-curvature="0" /></svg>