<?xml version="1.0" encoding="UTF-8" standalone="no"?>
<!-- Generator: Adobe Illustrator 13.0.0, SVG Export Plug-In . SVG Version: 6.00 Build 14948)  -->

<svg
   xmlns:dc="http://purl.org/dc/elements/1.1/"
   xmlns:cc="http://creativecommons.org/ns#"
   xmlns:rdf="http://www.w3.org/1999/02/22-rdf-syntax-ns#"
   xmlns:svg="http://www.w3.org/2000/svg"
   xmlns="http://www.w3.org/2000/svg"
   xmlns:sodipodi="http://sodipodi.sourceforge.net/DTD/sodipodi-0.dtd"
   xmlns:inkscape="http://www.inkscape.org/namespaces/inkscape"
   version="1.1"
   id="svg2"
   x="0px"
   y="0px"
   width="410"
   height="96"
   viewBox="0 0 410 96.000001"
   enable-background="new 0 0 566.93 118.865"
   xml:space="preserve"
   sodipodi:docname="macintosh.svg"
   inkscape:version="0.92.4 (5da689c313, 2019-01-14)"><metadata
     id="metadata45"><rdf:RDF><cc:Work
         rdf:about=""><dc:format>image/svg+xml</dc:format><dc:type
           rdf:resource="http://purl.org/dc/dcmitype/StillImage" /><dc:title></dc:title></cc:Work></rdf:RDF></metadata><defs
     id="defs43" /><sodipodi:namedview
     pagecolor="#ffffff"
     bordercolor="#666666"
     borderopacity="1"
     objecttolerance="10"
     gridtolerance="10"
     guidetolerance="10"
     inkscape:pageopacity="0"
     inkscape:pageshadow="2"
     inkscape:window-width="1920"
     inkscape:window-height="1028"
     id="namedview41"
     showgrid="false"
     inkscape:pagecheckerboard="true"
     fit-margin-top="0"
     fit-margin-left="0"
     fit-margin-right="0"
     fit-margin-bottom="0"
     inkscape:zoom="1.9261637"
     inkscape:cx="-38.391555"
     inkscape:cy="-47.202504"
     inkscape:window-x="0"
     inkscape:window-y="28"
     inkscape:window-maximized="1"
     inkscape:current-layer="g38" /><g
     id="layer1"
     transform="translate(3.1882674e-4,-22.863999)" /><g
     id="layer5"
     transform="translate(3.1882674e-4,-22.863999)" /><g
     id="g38"
     transform="translate(3.1882674e-4,-22.863999)"
     style="display:inline"><path
       d="m 128.1543,101.90112 c 0,-1.12543 1.0302,-1.40607 3.46864,-1.68742 3.00188,-0.28208 3.18729,-1.59365 3.18729,-5.90709 0,-10.126731 -0.65434,-28.692052 -1.03021,-38.725001 -0.0938,-1.40607 -0.0938,-1.875722 -0.46893,-1.875722 -0.37514,0 -0.46965,0.563438 -0.8448,1.406791 -1.78193,4.689306 -4.68714,13.876737 -11.90722,36.943069 -2.62602,8.719223 -2.34466,10.501883 -4.12587,10.501883 -1.12544,0 -1.40607,-0.75101 -2.34465,-4.68931 -3.0935,-11.625869 -10.31359,-35.348704 -12.65824,-42.661856 -0.28208,-0.844075 -0.46821,-1.313005 -0.93859,-1.313005 -0.3737,0 -0.3737,0.750289 -0.56055,2.062573 -0.6565,8.812287 -1.21777,23.909686 -1.21777,32.067634 0,6.187724 -0.0959,11.720374 3.09349,12.189304 1.68743,0.28281 4.12587,0.37587 4.12587,1.68815 0,0.74957 -0.56199,1.31229 -1.87716,1.31229 -1.87428,0 -3.37342,-0.37587 -6.93801,-0.37587 -3.28107,0 -5.15535,0.37587 -6.46836,0.37587 -0.9393,0 -1.49985,-0.18757 -1.49985,-1.31229 0,-1.40534 1.40607,-1.21921 2.99971,-1.59364 2.7198,-0.56271 3.09422,-2.72052 3.37486,-7.315315 0.56271,-10.031506 1.59364,-31.972405 1.59364,-39.755209 0.0938,-5.063007 0,-6.000146 -3.18729,-6.469798 -1.59364,-0.186851 -3.09349,-0.374423 -3.09349,-1.499857 0,-1.313005 1.21777,-1.40607 2.5315,-1.406791 1.96879,0 4.59408,0.281358 6.65809,0.281358 1.59364,0 4.03064,-0.281358 5.53194,-0.280637 1.03092,0 1.40607,0.280637 1.87572,1.687429 3.47009,11.438298 6.94017,22.877317 10.31503,34.223272 0.74885,2.720518 1.31228,4.876877 1.96879,4.876877 0.56127,0 1.03092,-1.312284 1.87355,-4.034245 3.5646,-11.437577 7.12775,-22.876596 10.69018,-34.223272 0.55983,-1.781215 1.12471,-2.531504 2.15636,-2.532225 1.40535,0 3.75,0.281358 5.53193,0.281358 1.87573,0 4.59264,-0.281358 6.56287,-0.280637 1.03309,0 1.96878,0.374423 1.96878,1.312284 0,1.21922 -1.21777,1.5013 -3.93829,1.687429 -1.68743,0.187572 -2.15564,1.406791 -2.15564,5.625723 0,9.282661 1.12616,31.222838 1.40679,42.756366 0,3.47009 0.84263,4.78237 2.71908,4.97066 2.34465,0.56128 3.37558,0.75101 3.37558,1.78194 0,1.03165 -0.84336,1.2185 -2.1542,1.2185 -1.96878,0 -4.22109,-0.37587 -8.53309,-0.37587 -3.75072,0 -6.84422,0.37587 -8.90824,0.37587 -1.21922,0 -2.15564,-0.37587 -2.15564,-1.2185 v -0.0916 z"
       id="path4"
       inkscape:connector-curvature="0"
       style="fill:#ffffff;fill-opacity:1;stroke:none;stroke-width:0.72143161" /><path
       d="m 172.87873,68.240569 c 0,-4.406504 -1.03309,-6.189162 -3.9383,-6.189162 -4.50101,0 -6.56286,3.3763 -8.06488,7.970377 -0.6565,1.968786 -1.78122,3.562429 -3.18729,4.50029 -1.03236,0.750289 -2.34465,1.312284 -3.75,1.312284 -1.78193,0 -2.43844,-0.75101 -2.43844,-2.437717 0,-5.43743 8.06489,-13.969802 19.69076,-13.969802 3.47008,0 6.18916,0.468209 7.78064,1.875722 1.5958,1.21922 1.97095,3.000434 1.97095,5.907082 V 94.02526 c 0,2.34465 0.74884,4.03208 2.62457,4.03208 1.5013,0 2.34465,-0.84336 2.81358,-1.68743 0.37587,-0.84408 0.74885,-1.78122 1.31084,-1.78122 0.56272,0 0.75101,0.46749 0.75101,1.59365 0,2.06113 -3.18728,7.59306 -8.6276,7.59306 -3.93829,0 -5.06301,-3.18728 -5.81402,-5.06372 -0.28208,-0.75029 -0.56055,-1.31229 -1.0302,-1.31229 -0.75101,0 -2.25087,1.78266 -4.59552,3.47081 -2.15636,1.68815 -5.06373,3.18728 -8.81373,3.18728 -4.4065,0 -7.87659,-2.99899 -7.87659,-8.43858 0,-4.968501 3.47009,-8.34408 11.06388,-13.031942 3.00187,-1.968787 5.24985,-3.281793 6.93945,-4.406505 2.5315,-1.499134 3.188,-2.344652 3.188,-4.499568 V 68.24129 h 0.003 z m -12.75419,25.690179 c 0,3.470812 1.97095,5.251302 4.6893,5.251302 2.06258,0 4.03208,-1.21922 5.81474,-3.00116 1.68743,-1.6867 2.25015,-2.999709 2.25015,-5.343641 v -9.564018 c 0,-1.126155 -0.1883,-1.406792 -0.65651,-1.406792 -0.46676,0 -0.93713,0.187572 -2.15635,0.938583 -1.96879,1.312284 -3.84451,2.811419 -5.43816,4.406504 -2.62456,2.437717 -4.50173,5.249857 -4.50173,8.626157 z"
       id="path6"
       inkscape:connector-curvature="0"
       style="fill:#ffffff;fill-opacity:1;stroke:none;stroke-width:0.72143161" /><path
       d="m 187.41052,83.148953 c 0,-13.689165 8.90752,-23.722114 20.25347,-23.722114 2.53223,0 5.90709,0.468209 8.06417,1.781215 1.96878,1.125433 2.15563,1.499856 2.25014,3.750723 v 3.3763 c 0,0.843353 -0.0945,2.249423 -0.2828,3.093498 -0.18829,1.68815 -0.8448,2.250867 -2.06185,2.250867 -1.68815,0 -2.15636,-2.436996 -3.9383,-6.375291 -1.31156,-3.094942 -2.53294,-4.688584 -5.24985,-4.688584 -5.43743,0 -10.22052,7.12558 -10.22052,17.157086 0,13.315463 5.06517,19.222547 11.34523,19.222547 3.37918,0 5.90708,-1.40607 7.7828,-4.12587 1.12544,-1.687428 1.87645,-4.030638 2.62746,-4.030638 0.55983,0 0.93714,0.561274 0.93714,1.312284 0,4.405784 -4.68715,11.907954 -14.15738,11.907954 -10.40881,0 -17.34682,-8.53237 -17.34682,-20.816191 z"
       id="path8"
       inkscape:connector-curvature="0"
       style="fill:#ffffff;fill-opacity:1;stroke:none;stroke-width:0.72143161" /><path
       d="m 225.38524,70.958923 c 0,-2.999712 -0.6565,-3.750723 -3.56387,-4.219653 -1.12471,-0.187572 -1.59148,-0.468209 -1.59148,-1.125433 0,-0.844075 0.84263,-1.218498 2.99971,-1.87428 2.99827,-0.845518 5.62573,-2.251588 7.59379,-3.377021 0.93642,-0.561274 1.49986,-0.937861 1.87645,-0.937861 0.55983,0 0.74812,0.375866 0.74812,1.40607 v 4.407226 30.193359 c 0,3.18872 -0.0303,4.79102 1.18098,5.15535 1.65641,0.50211 2.34466,0.56343 2.34466,1.50202 0,0.84263 -0.37587,1.12615 -1.49914,1.12615 -1.96879,0 -1.93199,-0.37586 -6.05714,-0.37586 -4.50029,0 -4.36971,0.37586 -6.14948,0.37586 -0.75029,0 -1.40751,-0.37586 -1.40751,-1.12615 0,-0.93859 0.65722,-1.22283 1.87788,-1.50202 1.4912,-0.3398 1.64919,-1.12544 1.64919,-4.87616 z m 4.03208,-17.439166 c -2.43988,0 -4.68858,-1.970229 -4.68858,-5.532659 0,-3.468643 2.06257,-5.625723 4.78309,-5.625723 2.62529,0 4.68714,2.062573 4.68714,5.531937 0,3.656216 -2.06185,5.626445 -4.68714,5.626445 z"
       id="path10"
       inkscape:connector-curvature="0"
       style="fill:#ffffff;fill-opacity:1;stroke:none;stroke-width:0.72143161" /><path
       d="m 244.51183,70.958923 c 0,-3.187285 -0.37586,-3.562429 -2.71835,-3.843787 -1.68743,-0.187573 -2.25087,-0.28208 -2.25087,-1.032369 0,-0.937861 0.93714,-1.125433 2.90593,-1.781215 3.37486,-1.219219 6.00159,-2.719075 7.40694,-3.844508 0.84479,-0.655782 1.31373,-1.031648 1.78482,-1.031648 0.55983,0 0.74885,0.750289 0.74885,1.593643 v 3.751444 c 0,1.312284 0.0938,1.593642 0.37586,1.593642 0.8448,0 2.34393,-1.593642 4.40434,-3.187284 2.1578,-1.593643 5.06517,-3.281793 8.53237,-3.281793 3.18801,0 6.18916,1.031647 8.34336,3.281793 1.97023,2.062573 3.09566,5.063728 3.09566,9.00058 V 96.08783 c 0,3.28179 0.83181,4.31344 2.99106,4.59335 0,0 1.38803,0.46893 1.38803,1.4068 0,0.84335 -0.65722,1.12687 -1.68815,1.12687 -1.12687,0 -2.40886,-0.37586 -6.81536,-0.37586 -4.21893,0 -4.67055,0.37586 -6.16896,0.37586 -1.03381,0 -1.49986,-0.28208 -1.49986,-1.21922 0,-0.65578 0.66949,-0.97682 1.59364,-1.21922 0.86572,-0.22581 2.13688,-1.21777 2.13688,-3.84378 V 73.116725 c 0,-2.251588 -0.46604,-4.220375 -1.59364,-5.720952 -1.31156,-1.686707 -3.28179,-2.62529 -5.62572,-2.62529 -2.43988,0 -4.78165,0.938583 -6.56359,2.532225 -1.68743,1.593642 -2.62673,3.469364 -2.62673,5.71951 V 96.9319 c 0,2.43772 0.45594,3.44773 2.72052,3.84379 0.39606,0.0693 0.8282,0.27054 0.8282,1.11317 0,0.93858 -0.6565,1.2185 -1.40751,1.2185 -1.12543,0 -0.82748,-0.27054 -6.35798,-0.27054 -4.78309,0 -4.85812,0.37587 -6.35797,0.37587 -1.12544,0 -1.78266,-0.37587 -1.78266,-1.21922 0,-0.84336 0.75389,-1.28704 1.68887,-1.40679 2.02939,-0.25539 2.5113,-1.49914 2.5113,-5.24986 V 70.958923 Z"
       id="path12"
       inkscape:connector-curvature="0"
       style="fill:#ffffff;fill-opacity:1;stroke:none;stroke-width:0.72143161" /><path
       d="m 294.18673,93.744619 c 0,3.654771 1.03237,5.248411 3.28323,5.248411 1.78194,0 2.90593,-1.21849 3.65622,-2.34321 0.84335,-1.12687 1.40535,-2.25158 2.15636,-2.25158 0.55983,0 0.93714,0.28208 0.93714,0.93858 0,1.40607 -2.53295,8.72066 -9.84538,8.72066 -2.71835,0 -4.78093,-0.74956 -6.18628,-2.25014 -1.49913,-1.68815 -2.06185,-3.9383 -2.06185,-7.50145 V 65.426986 c 0,-1.032369 -0.46893,-1.407513 -1.12759,-1.500578 -0.65434,-0.09451 -1.49986,-0.09451 -2.24799,-0.09451 -0.84551,0 -1.59652,-0.09307 -1.59652,-1.125434 0,-0.656503 0.56271,-1.312284 1.7841,-2.437717 2.9052,-2.250867 5.34436,-4.781649 8.53165,-10.407372 0.84479,-1.593643 1.12543,-2.157081 1.78193,-2.157081 0.65434,0 0.93714,0.375866 0.93714,1.968787 v 8.908237 c 0,1.406792 0.46821,1.968787 1.87861,1.968787 h 5.06301 c 1.59364,0 1.96878,0.375145 1.96878,1.68815 0,1.500578 -0.37586,1.968787 -2.15635,1.968787 -1.59365,0 -3.28108,-0.09451 -4.87472,-0.09451 -1.50202,0 -1.87861,0.375866 -1.87861,2.062573 z"
       id="path14"
       inkscape:connector-curvature="0"
       style="fill:#ffffff;fill-opacity:1;stroke:none;stroke-width:0.72143161" /><path
       d="m 321.84858,104.05748 c -10.8763,0 -18.37991,-10.126732 -18.37991,-22.316762 0,-12.002457 7.22008,-22.316043 18.47153,-22.316043 11.43902,0 18.47154,10.408093 18.47154,22.222257 0,12.282373 -7.50073,22.409828 -18.47154,22.409828 h -0.0916 z m 0.3737,-2.62456 c 6.47124,0 9.47023,-9.84466 9.47023,-18.752898 0,-10.408815 -3.28179,-20.627893 -9.93844,-20.627893 -6.46907,0 -9.56257,9.376446 -9.56257,18.753614 0,10.406651 3.37558,20.627897 9.937,20.627897 h 0.0938 z"
       id="path16"
       inkscape:connector-curvature="0"
       style="display:inline;fill:#ffffff;fill-opacity:1;stroke:none;stroke-width:0.72143161" /><path
       d="m 341.15553,71.334068 c 0,-7.875869 6.84422,-11.907229 14.90839,-11.907229 2.99899,0 6.37745,0.561274 8.15939,1.499856 0.46604,0.281359 0.65722,0.937862 0.74884,2.250146 0.0945,0.844075 0.0945,1.875722 0.0945,3.282513 v 2.437718 c -0.0945,1.500577 -0.28064,2.344652 -1.12615,2.344652 -1.21778,0 -1.40463,-1.781936 -2.90665,-4.970663 -1.12544,-2.437718 -2.7198,-4.31344 -5.71879,-4.31344 -3.65694,0 -6.56719,2.532225 -6.56719,6.000868 0,4.499569 4.50173,6.657371 9.19104,9.375725 4.59407,2.719797 9.37572,6.000147 9.37572,12.752746 0,9.09365 -7.31459,13.9698 -16.12688,13.9698 -2.81358,0 -5.53194,-0.46821 -7.4091,-1.12543 -0.65506,-0.18829 -1.31157,-0.37515 -1.78338,-0.75101 -0.46605,-0.28136 -0.84263,-0.74957 -0.93642,-2.62529 -0.0938,-1.31301 -0.0938,-3.0935 -0.0938,-5.53266 0,-3.750723 0.27992,-4.780927 1.21778,-4.780927 1.31301,0 1.40463,1.499856 2.81286,5.438147 1.40535,3.65622 3.56243,6.75044 7.40911,6.75044 4.21965,0 7.21936,-2.81214 7.21936,-7.03252 0,-5.531933 -4.40722,-7.971093 -8.72139,-10.596383 -4.68714,-2.626732 -9.75159,-5.625724 -9.75159,-12.37688 v -0.09379 h 0.004 v 0.0036 z"
       id="path18"
       inkscape:connector-curvature="0"
       style="display:inline;fill:#ffffff;fill-opacity:1;stroke:none;stroke-width:0.72143161" /><path
       d="m 370.93262,47.143023 c 0,-2.719075 -0.37442,-3.374857 -2.90593,-3.656936 -1.59364,-0.375866 -2.15563,-0.468931 -2.15563,-1.313006 0,-0.937861 0.65722,-1.031647 2.62745,-1.593642 3.75,-1.125433 6.09466,-1.968787 7.59451,-2.812862 1.21778,-0.563438 1.78122,-0.844075 2.34465,-0.844075 0.55911,0 0.6529,0.374423 0.6529,1.687429 v 26.629483 c 0,0.561995 0.18974,0.843353 0.56344,0.843353 0.37586,0 0.84263,-0.28208 1.21777,-0.656503 2.34466,-2.155637 5.99943,-5.531937 11.43758,-5.531937 7.03179,0 11.15766,4.780927 11.34596,12.189308 V 96.08639 c 0,3.18872 0.84623,4.4065 3.09566,4.68786 1.49985,0.18829 2.2487,0.46893 2.2487,1.313 0,0.84408 -0.65506,1.12616 -1.40535,1.12616 -0.84335,0 -3.65621,-0.37587 -7.77992,-0.37587 -4.50173,0 -6.18916,0.37587 -7.50289,0.37587 -1.03092,0 -1.59364,-0.37587 -1.59364,-1.2185 0,-0.84263 0.65651,-1.03237 1.68743,-1.2185 2.34465,-0.37514 3.09566,-1.21777 3.09566,-3.84378 V 73.116725 c 0,-2.344653 -0.37586,-4.406504 -1.49913,-5.814017 -1.31301,-1.781215 -3.28396,-2.626733 -5.8169,-2.626733 -2.43628,0 -4.78093,0.938583 -6.56215,2.532225 -1.68887,1.594364 -2.53438,3.470808 -2.53438,5.81546 v 23.62833 c 0,2.43627 0.84551,3.65621 3.65693,4.12442 1.40752,0.28425 1.78122,0.46893 1.78122,1.31301 0,0.84407 -0.65434,1.12687 -1.40463,1.12687 -1.12543,0 -2.53367,-0.37586 -8.25174,-0.37586 -4.59335,0 -6.09321,0.37586 -7.68901,0.37586 -0.84264,0 -1.49914,-0.2828 -1.49914,-1.21921 0,-0.84336 0.84552,-1.31157 1.78194,-1.40608 2.99899,-0.28135 3.47008,-1.40607 3.47008,-5.24985 z"
       id="path20"
       inkscape:connector-curvature="0"
       style="display:inline;fill:#ffffff;fill-opacity:1;stroke:none;stroke-width:0.72143161" /><g
       id="g36"
       style="fill:#ffffff;fill-opacity:1;stroke:none"
       transform="matrix(0.72143159,0,0,0.72143159,-8.8815056e-5,27.111754)"><path
         d="M 66.344,21.192 C 70.774,16.333 73.079,9.51 73.399,0.334 L 73.41,0.001 73.086,0.067 C 57.533,3.249 49.5,12.996 49.213,29.038 l -0.006,0.312 0.307,-0.048 c 7.408,-1.161 12.914,-3.814 16.83,-8.11 z"
         id="path22"
         inkscape:connector-curvature="0"
         style="fill:#ffffff;fill-opacity:1;stroke:none" /><path
         d="m 12.824,103.702 0.285,0.412 c 2.572,3.707 5.52,7.314 8.761,10.725 2.47,2.596 6.403,4.025 11.076,4.025 3.424,0 6.976,-0.809 9.269,-2.104 4.738,-2.681 7.252,-2.687 9.084,-2.688 0.371,0 0.715,-0.002 1.043,-0.021 l 0.303,-0.021 c 0.396,-0.024 0.806,-0.052 1.268,-0.052 1.625,0 4.057,0.318 8.471,2.813 3.082,1.29 6.068,1.944 8.881,1.944 v 0 c 7.658,0 14.371,-4.789 20.521,-14.633 L 92.038,103.7 H 12.824 Z"
         id="path24"
         inkscape:connector-curvature="0"
         style="fill:#ffffff;fill-opacity:1;stroke:none" /><path
         d="m 92.947,42.269 c 1.023,-1.02 2.126,-2.024 3.313,-3.015 l 0.197,-0.165 -0.164,-0.201 C 90.524,31.77 82.621,27.93 73.441,27.786 l -0.42,-0.003 c -4.651,0 -8.764,0.872 -11.896,2.521 -4.059,2.138 -7.079,2.613 -7.108,2.617 -0.051,0.007 -0.383,0.02 -1.295,0.02 -1.104,0 -2.061,-0.018 -2.176,-0.035 L 50.474,32.898 C 49.173,32.729 45.853,32.184 43.165,30.75 39.509,28.801 35.436,27.771 31.39,27.771 l -0.267,10e-4 C 20.42,27.893 11.471,33.108 5.908,42.269 Z"
         id="path26"
         inkscape:connector-curvature="0"
         style="fill:#ffffff;fill-opacity:1;stroke:none" /><path
         d="m 83.973,57.487 c 1.052,-5.094 3.895,-10.039 8.531,-14.771 l 0.438,-0.447 H 5.909 l -0.075,0.127 c -2.668,4.426 -4.435,9.545 -5.273,15.09 z"
         id="path28"
         inkscape:connector-curvature="0"
         style="fill:#ffffff;fill-opacity:1;stroke:none" /><path
         d="M 86.01,72.521 C 83.906,68.197 82.874,63.202 83.92,57.8 l 0.059,-0.313 H 0.569 L 0.536,57.713 C -0.17,62.521 -0.17,67.495 0.483,72.521 Z"
         id="path30"
         inkscape:connector-curvature="0"
         style="fill:#ffffff;fill-opacity:1;stroke:none" /><path
         d="m 4.58,88.291 h 95.323 l 0.558,-1.206 -0.23,-0.115 C 95.668,84.711 89.553,79.767 86.072,72.667 L 86,72.521 H 0.478 l 0.042,0.297 c 0.58,4.348 1.771,9.632 4.06,15.473 z"
         id="path32"
         inkscape:connector-curvature="0"
         style="fill:#ffffff;fill-opacity:1;stroke:none" /><path
         d="m 12.827,103.702 h 79.201 c 3.026,-4.898 5.517,-10.297 7.707,-15.039 L 99.907,88.29 H 4.594 l 0.144,0.361 c 2.085,5.205 4.789,10.233 8.089,15.051 z"
         id="path34"
         inkscape:connector-curvature="0"
         style="fill:#ffffff;fill-opacity:1;stroke:none" /></g></g></svg>