<?xml version="1.0" encoding="UTF-8" standalone="no"?>
<!-- Generator: Adobe Illustrator 16.0.0, SVG Export Plug-In . SVG Version: 6.00 Build 0)  -->

<svg
   xmlns:dc="http://purl.org/dc/elements/1.1/"
   xmlns:cc="http://creativecommons.org/ns#"
   xmlns:rdf="http://www.w3.org/1999/02/22-rdf-syntax-ns#"
   xmlns:svg="http://www.w3.org/2000/svg"
   xmlns="http://www.w3.org/2000/svg"
   xmlns:sodipodi="http://sodipodi.sourceforge.net/DTD/sodipodi-0.dtd"
   xmlns:inkscape="http://www.inkscape.org/namespaces/inkscape"
   version="1.1"
   id="Layer_1"
   x="0px"
   y="0px"
   width="410"
   height="96"
   viewBox="0 0 410 95.999998"
   enable-background="new 0 0 467 62"
   xml:space="preserve"
   sodipodi:docname="megacd.svg"
   inkscape:version="0.92.4 (5da689c313, 2019-01-14)"><metadata
   id="metadata71"><rdf:RDF><cc:Work
       rdf:about=""><dc:format>image/svg+xml</dc:format><dc:type
         rdf:resource="http://purl.org/dc/dcmitype/StillImage" /><dc:title></dc:title></cc:Work></rdf:RDF></metadata><defs
   id="defs69" /><sodipodi:namedview
   pagecolor="#ffffff"
   bordercolor="#666666"
   borderopacity="1"
   objecttolerance="10"
   gridtolerance="10"
   guidetolerance="10"
   inkscape:pageopacity="0"
   inkscape:pageshadow="2"
   inkscape:window-width="1920"
   inkscape:window-height="1028"
   id="namedview67"
   showgrid="false"
   inkscape:pagecheckerboard="true"
   inkscape:zoom="4.6766595"
   inkscape:cx="44.48452"
   inkscape:cy="58.578167"
   inkscape:window-x="0"
   inkscape:window-y="28"
   inkscape:window-maximized="1"
   inkscape:current-layer="Layer_1"
   fit-margin-top="0"
   fit-margin-left="0"
   fit-margin-right="0"
   fit-margin-bottom="0"
   viewbox-width="80.16"
   scale-x="1.00497"
   inkscape:lockguides="false" />



<path
   style="fill:#ffffff;fill-opacity:1;stroke:none;stroke-width:1.13648009;stroke-miterlimit:4;stroke-dasharray:none;stroke-opacity:1"
   d="M 105.01032,25.547543 C 94.423378,25.025473 79.1043,31.835321 65.326752,44.148511 46.120241,61.311645 37.190953,82.658199 45.389519,91.831872 53.585815,101.00552 75.806342,94.531481 95.012858,77.368351 100.2202,72.715609 104.66054,67.755242 108.22,62.81608 L 89.028576,76.626983 115.1543,50.763207 c 0.0819,-0.193203 0.16245,-0.388374 0.23973,-0.581576 L 89.028576,70.109973 115.86016,42.186318 89.028576,62.678464 114.74588,35.509507 89.028576,56.476661 113.78698,28.579632 c -2.24456,-1.870083 -5.24767,-2.858078 -8.77666,-3.032089 z M 64.345652,47.420333 H 85.987605 V 62.105779 H 77.437367 V 54.7897 l -8.816598,-0.102044 v 22.143608 h 8.816598 v -6.08639 h 8.550238 V 84.205072 H 64.412241 c -2.153028,0 -4.168572,-2.132449 -4.168572,-4.173027 V 51.642226 c 0,-3.051939 1.45347,-4.221829 4.101983,-4.221829 z"
   id="path38"
   inkscape:connector-curvature="0" />

<path
   style="fill:#ffffff;fill-opacity:1;stroke:none;stroke-width:1.13648009;stroke-miterlimit:4;stroke-dasharray:none;stroke-opacity:1"
   d="m 166.98401,0.50056468 c -10.51586,0.083668 -25.14128,6.83243392 -38.34733,18.63207632 -5.20735,4.652751 -9.64769,9.610839 -13.20714,14.552253 l 19.18699,-13.810876 -26.12129,25.863804 c -0.0819,0.195473 -0.16245,0.388346 -0.23973,0.581557 l 26.36545,-19.92392 -26.83602,27.923665 26.83159,-20.501037 -25.71287,27.168975 25.71287,-20.962713 -24.75397,27.897021 c 8.9782,7.480302 30.09016,0.846415 48.46022,-15.568898 C 177.5293,35.189356 186.45186,13.84055 178.25558,4.6691578 175.69425,1.8023854 171.76394,0.46255878 166.98401,0.50056468 Z M 138.17246,12.460253 h 21.57981 c 2.08288,0.23761 4.16412,2.003505 4.16412,4.217407 v 28.398672 c 0,2.082897 -2.16118,4.128612 -4.16412,4.164146 l -21.57981,-0.03543 z m 17.37128,7.262836 -8.79441,0.102045 v 22.019305 h 8.79441 z"
   id="path42"
   inkscape:connector-curvature="0" />
<g
   id="g46"
   style="fill:#da0000;fill-opacity:1;stroke:none"
   transform="matrix(0.8945011,0,0,0.8945011,-11.515489,48.988137)">
	
</g>
<g
   id="g58"
   style="fill:#ffffff;fill-opacity:1;stroke:none"
   transform="matrix(2.2729601,0,0,2.2729601,-32.521513,-21.487632)">
	<path
   d="m 19.633,11.192 c 0.313,-0.467 0.78,-0.939 1.387,-0.919 1.149,-0.032 2.299,0 3.451,-0.009 -0.008,0.386 -0.018,0.771 -0.031,1.156 0.468,-0.518 0.973,-1.174 1.749,-1.146 1.591,-0.029 3.182,0 4.773,-0.009 0,3.111 0.002,6.224 0,9.336 -1.076,0.002 -2.154,0 -3.229,0 -0.006,-2.226 0.001,-4.451 -0.006,-6.676 -0.604,-0.053 -0.894,0.522 -1.167,0.955 -1.17,1.909 -2.407,3.781 -3.518,5.724 -1.132,0.022 -2.261,0.02 -3.393,-0.002 1.358,-2.291 2.815,-4.521 4.209,-6.791 -0.712,0.042 -1.629,-0.195 -2.158,0.421 -1.345,2.111 -2.645,4.253 -3.978,6.372 -1.139,-0.004 -2.276,0.002 -3.414,-0.004 1.773,-2.805 3.554,-5.602 5.325,-8.408 z"
   id="path48"
   inkscape:connector-curvature="0"
   style="fill:#ffffff;fill-opacity:1;stroke:none" />
	<path
   d="m 32.342,11.402 c 0.43,-0.554 1.292,-1.228 2.133,-1.143 2.385,-0.006 4.771,-0.006 7.156,0.003 0.002,0.692 0.005,1.382 -0.016,2.075 -1.777,0.054 -3.559,-0.025 -5.334,0.039 -0.652,0.247 -0.793,1.076 -1.212,1.577 2.227,0.014 4.453,-0.007 6.68,0.009 -0.441,0.601 -0.858,1.22 -1.277,1.835 -1.811,0.014 -3.622,-0.02 -5.43,0.018 0.009,0.584 0.012,1.169 0.014,1.757 2.193,0.004 4.386,-0.009 6.58,0.007 -0.005,0.678 -0.007,1.358 0.006,2.035 -3.314,0.018 -6.629,0.007 -9.943,0.007 -0.005,-1.903 -0.007,-3.806 -0.002,-5.711 -0.076,-0.936 0.188,-1.785 0.645,-2.508 z"
   id="path50"
   inkscape:connector-curvature="0"
   style="fill:#ffffff;fill-opacity:1;stroke:none" />
	<path
   d="m 43.122,11.125 c 0.287,-0.408 1.099,-0.902 1.674,-0.867 2.562,-0.01 5.124,0 7.683,-0.002 0.004,0.7 -0.007,1.398 -0.034,2.096 -1.665,0.011 -3.328,-0.016 -4.991,0.011 -1.139,-0.063 -1.598,1.194 -1.946,2.057 -0.045,1.399 -0.278,1.42 -0.085,3.147 1.88,0.119 2.321,0.07 4.657,0.035 0.12,-0.491 0.047,-1.006 0.072,-1.508 -0.806,-0.132 -0.632,-0.077 -2.196,-0.122 0.39,-0.665 0.764,-1.342 1.136,-2.019 1.333,0.006 2.667,-0.011 4,0.013 -0.005,1.551 0.008,3.102 0,4.653 0.01,0.325 -0.133,0.625 -0.231,0.93 -3.062,0.127 -6.129,0.026 -9.193,0.053 -0.802,0.132 -1.342,-0.727 -1.271,-1.441 0.022,-1.697 -0.039,-3.398 0.027,-5.092 -0.033,-0.793 0.299,-1.316 0.698,-1.944 z"
   id="path52"
   inkscape:connector-curvature="0"
   style="fill:#ffffff;fill-opacity:1;stroke:none" />
	<g
   id="g56"
   style="fill:#ffffff;fill-opacity:1;stroke:none">
		<path
   d="m 53.966,10.267 c 1.726,-0.023 3.454,-0.005 5.18,-0.014 0.925,-0.092 1.595,0.698 2.048,1.398 1.631,2.669 3.339,5.294 4.95,7.974 -1.176,-0.004 -2.353,0.001 -3.529,-0.004 -0.453,-0.596 -0.791,-1.322 -1.408,-1.762 -1.042,-0.041 -2.084,-0.002 -3.124,-0.011 -0.32,-0.491 -0.634,-0.984 -0.919,-1.495 0.029,1.084 0.018,2.169 0.018,3.253 -1.073,0 -2.145,0.011 -3.216,-0.009 -0.002,-3.11 -0.002,-6.221 0,-9.33 z m 3.282,2.014 c -0.019,1.17 0.004,2.34 -0.019,3.51 0.946,0.021 1.89,0.002 2.833,0.026 -0.607,-0.943 -1.109,-1.952 -1.726,-2.891 -0.251,-0.372 -0.672,-0.54 -1.088,-0.645 z"
   id="path54"
   inkscape:connector-curvature="0"
   style="fill:#ffffff;fill-opacity:1;stroke:none" />
	</g>
</g>

</svg>