<?xml version="1.0" encoding="UTF-8" standalone="no"?>
<!-- Generator: Adobe Illustrator 21.1.0, SVG Export Plug-In . SVG Version: 6.00 Build 0)  -->

<svg
   xmlns:dc="http://purl.org/dc/elements/1.1/"
   xmlns:cc="http://creativecommons.org/ns#"
   xmlns:rdf="http://www.w3.org/1999/02/22-rdf-syntax-ns#"
   xmlns:svg="http://www.w3.org/2000/svg"
   xmlns="http://www.w3.org/2000/svg"
   xmlns:sodipodi="http://sodipodi.sourceforge.net/DTD/sodipodi-0.dtd"
   xmlns:inkscape="http://www.inkscape.org/namespaces/inkscape"
   version="1.0"
   id="Capa_1"
   x="0px"
   y="0px"
   width="410"
   height="96"
   viewBox="0 0 410.00001 96.000001"
   enable-background="new 0 0 452.9 132.9"
   xml:space="preserve"
   sodipodi:docname="mega32x.svg"
   inkscape:version="0.92.4 (5da689c313, 2019-01-14)"><metadata
     id="metadata239"><rdf:RDF><cc:Work
         rdf:about=""><dc:format>image/svg+xml</dc:format><dc:type
           rdf:resource="http://purl.org/dc/dcmitype/StillImage" /><dc:title></dc:title></cc:Work></rdf:RDF></metadata><defs
     id="defs237"><linearGradient
       id="rect7344_1_"
       gradientUnits="userSpaceOnUse"
       x1="284.85349"
       y1="-415.7005"
       x2="284.85349"
       y2="-480.57599"
       gradientTransform="matrix(0.64499644,0,0,-0.64499644,41.689583,-262.71811)"><stop
         offset="0"
         style="stop-color:#F1F3F2"
         id="stop36" /><stop
         offset="0.1937"
         style="stop-color:#A4B5D3"
         id="stop38" /><stop
         offset="0.5858"
         style="stop-color:#F1F3F2"
         id="stop40" /><stop
         offset="0.6"
         style="stop-color:#5878B5"
         id="stop42" /><stop
         offset="1"
         style="stop-color:#F1F3F2"
         id="stop44" /></linearGradient></defs><sodipodi:namedview
     pagecolor="#ffffff"
     bordercolor="#666666"
     borderopacity="1"
     objecttolerance="10"
     gridtolerance="10"
     guidetolerance="10"
     inkscape:pageopacity="0"
     inkscape:pageshadow="2"
     inkscape:window-width="1920"
     inkscape:window-height="1028"
     id="namedview235"
     showgrid="false"
     fit-margin-top="0"
     fit-margin-left="0"
     fit-margin-right="0"
     fit-margin-bottom="0"
     inkscape:zoom="2.4111283"
     inkscape:cx="153.42677"
     inkscape:cy="149.98987"
     inkscape:window-x="0"
     inkscape:window-y="28"
     inkscape:window-maximized="1"
     inkscape:current-layer="g232"
     inkscape:pagecheckerboard="true"
     inkscape:snap-bbox="true"
     inkscape:bbox-paths="true"
     inkscape:bbox-nodes="true"
     inkscape:snap-bbox-midpoints="true"
     inkscape:snap-bbox-edge-midpoints="true" /><g
     id="g232"
     transform="translate(-76.8,-22.499998)"><path
       d="m 241.92998,118.13305 c -1.10087,-1.19261 -4.03651,-1.28435 -4.49521,-1.28435 -20.54951,0 -41.19075,0 -61.74026,0 -2.11,0 -2.38521,0.18348 -2.20174,-2.29347 0.36696,-4.21999 2.01826,-8.43997 5.13738,-11.46736 0.64217,-0.64217 0.82565,-0.82565 2.11,-2.01825 5.87128,-5.22912 17.52212,-9.540847 17.52212,-9.540847 0,0 9.72432,-3.669555 15.22865,-5.779549 2.38522,-1.009127 4.86216,-2.018255 7.0639,-3.669555 7.88954,-6.146505 3.85303,-12.476487 -6.69694,-13.944309 -7.24737,-1.100866 -14.03605,0.733911 -20.18255,4.770422 -0.82565,0.550433 -1.55956,1.100866 -2.20174,1.651299 -1.37608,1.192606 -2.56868,2.568689 -2.8439,4.036511 -0.0917,0.82565 0,1.376083 0,1.559561 0,0.366955 0.18348,1.100866 -0.0917,1.376083 -0.36696,0.275217 -1.1926,0 -1.55956,-0.275217 -3.21086,-3.027383 -6.23824,-5.963027 -9.54084,-8.99041 -0.18348,-0.183477 -0.55044,-0.642172 -0.55044,-0.642172 0,0 -0.27521,-0.366955 -0.27521,-0.642172 0,-0.275216 0.27521,-0.642172 0.64217,-0.733911 1.74304,-0.275216 2.56869,-0.366955 3.57781,-1.192605 2.84391,-2.018255 5.68782,-3.853033 8.89868,-5.412594 4.12825,-2.018255 8.62345,-3.21086 13.21039,-3.853033 3.57782,-0.366955 13.94431,-2.109994 26.05384,3.3026 3.21087,1.376083 5.87129,3.486077 7.98129,6.146505 1.1926,1.651299 5.87128,10.733448 -3.57782,18.072558 -3.3026,2.660427 -7.43085,4.311727 -11.46736,5.779549 -3.48608,1.192606 -5.96303,2.109994 -11.65084,3.761294 -4.21998,1.284344 -7.43085,2.201733 -12.38474,4.678682 -3.94478,1.83478 -6.6052,4.12825 -6.6052,4.12825 0,0 -1.28435,1.00913 -1.10087,1.74304 0.18348,0.64217 1.28434,0.64217 1.92652,0.64217 15.22865,0 30.36556,0 45.59422,0 1.6513,0 3.11912,-0.0917 4.21999,-1.37608 0.18347,-0.18348 0.64217,-0.27522 0.82565,-0.18348 0.18347,0.0917 0.27521,0.55044 0.27521,0.73391 0,3.57782 0,7.15564 0,10.73345 0,0.27522 -0.0917,0.36696 -0.27521,0.55043 0.0917,0 -0.55044,0 -0.82565,-0.36695 z"
       id="path224"
       inkscape:connector-curvature="0"
       style="fill:#ffffff;stroke-width:0.91738874" /><path
       d="m 128.63246,117.67435 c -2.38521,-0.0917 -5.04563,-0.36695 -7.52258,-0.82565 -9.9078,-1.74303 -14.67822,-4.12824 -17.52213,-5.22911 -1.28434,-0.55043 -2.66043,-1.10087 -4.03651,-0.55043 -0.18348,0.0917 -0.27522,0.0917 -0.55043,0.0917 -1.00913,0 -1.19261,-0.27521 -0.82565,-1.1926 0.36695,-1.00913 1.10086,-1.92652 1.6513,-2.93564 1.55956,-2.56869 3.11912,-5.04564 4.67868,-7.614333 0.0917,-0.09174 0.0917,-0.183478 0.18348,-0.275217 0.27521,-0.550433 0.64217,-1.009128 1.37608,-1.009128 0.64217,0.09174 0.82565,0.642172 1.00913,1.192606 0.27522,1.192602 1.00913,2.018252 1.92652,2.660432 2.10999,1.74303 4.77042,2.8439 7.24737,3.76129 3.3026,1.19261 6.88041,1.92652 10.45823,2.38521 4.12825,0.64217 8.43997,0.73391 12.56822,0.55044 3.57782,-0.18348 7.0639,-0.82565 10.45824,-2.11 2.01825,-0.73391 3.57781,-2.20173 4.86216,-3.94477 1.6513,-2.20174 1.00912,-5.412596 -1.28435,-7.155635 -3.02738,-2.385211 -6.6052,-3.3026 -10.36649,-3.944772 -3.3026,-0.550433 -6.78868,-0.550433 -10.09128,-0.366955 -1.6513,0 -5.41259,0.183478 -6.78867,1.559561 -0.55044,0.366955 -1.00913,0.550433 -1.19261,0.275216 -0.27522,-0.458694 -0.27522,-0.733911 -0.27522,-1.100866 0,-3.3026 0,-6.605199 0,-9.81606 0,-1.100866 0.55044,-1.376083 1.37609,-0.82565 1.10086,0.733911 2.20173,1.100867 3.48607,1.192606 2.01826,0.183477 8.7152,0 9.9078,-0.09174 3.66956,-0.366956 3.3026,-0.366956 5.4126,-1.009128 2.20173,-0.642172 4.31172,-2.109994 5.59607,-3.577816 0,0 0,0 0.0917,-0.09174 1.6513,-1.926516 1.10086,-4.03651 -0.36696,-5.596071 -1.37608,-1.559561 -3.11912,-2.385211 -5.13738,-3.027383 -3.21086,-1.009128 -6.60519,-1.559561 -9.81606,-1.284344 -6.05476,0.275216 -12.01779,1.192605 -17.52212,3.944771 -1.28434,0.642172 -2.38521,1.559561 -3.57782,2.201733 -1.00912,0.642172 -1.55956,1.743039 -1.55956,2.935644 0,0.642172 0.0917,1.376083 -0.64217,1.6513 -0.73391,0.275217 -1.1926,-0.366956 -1.6513,-0.82565 -2.8439,-2.843905 -5.59607,-5.68781 -8.43998,-8.531715 -0.0917,-0.183478 -0.27521,-0.275217 -0.36695,-0.550434 -0.27522,-0.550433 -0.0917,-1.009127 0.55043,-1.100866 0.73391,-0.09174 1.55956,0 2.11,-0.183478 1.00912,-0.275216 1.92651,-0.82565 2.93564,-1.284344 2.38521,-1.192605 4.9539,-2.568689 7.52259,-3.669555 4.03651,-1.743039 8.43997,-2.568689 12.65996,-3.119122 4.12825,-0.550433 11.5591,-0.733911 16.78822,0.09174 3.57781,0.550433 7.06389,1.284344 10.45823,2.660427 2.93564,1.284345 5.77955,2.843906 7.88954,5.229116 1.6513,1.834778 2.66043,3.761294 3.02738,6.054766 0.27522,2.201733 0,4.311727 -1.10086,6.51346 -0.64217,1.376083 -1.74304,2.293472 -3.11912,3.210861 -2.84391,1.6513 -4.31173,2.018255 -4.77042,2.201733 -0.55044,0.275217 -0.55044,0.733911 0,1.100866 0.55043,0.366956 1.10086,0.366956 1.65129,0.642173 3.3026,1.100866 6.05477,2.843905 8.53172,5.412593 1.74304,1.834778 2.84391,3.944772 3.11912,6.605199 0.27522,2.568689 -0.18348,4.953899 -1.37608,7.155639 -0.82565,1.83477 -2.29347,3.02738 -3.85303,4.12825 -3.11913,2.20173 -6.6052,3.85303 -10.3665,4.9539 -2.8439,0.82565 -5.59607,1.37608 -8.43997,1.74303 -9.63259,1.46783 -14.67822,0.82565 -16.9717,0.73391 z"
       id="path226"
       inkscape:connector-curvature="0"
       style="fill:#ffffff;stroke-width:0.91738874" /><path
       d="m 262.47948,59.603645 c 3.21086,0 6.51346,0 9.72432,0 0.27522,0 0.64218,0 1.00913,0 0.73391,0.09174 0.82565,0.366955 0.36696,1.009127 -0.82565,1.100867 -0.73391,1.192606 0.0917,2.109994 l 0.0917,0.09174 c 4.4952,4.678683 8.99041,9.082149 13.57735,13.760832 0.18348,0.183477 0.36695,0.366955 0.64217,0.642172 0.36696,0.275216 1.00913,0.275216 1.37608,0 0.18348,-0.183478 0.36696,-0.366956 0.64218,-0.642172 4.4952,-4.495205 8.89867,-8.99041 13.39387,-13.485615 0.18348,-0.183478 0.27522,-0.275217 0.36696,-0.550433 0.64217,-0.733911 0.55043,-1.009128 0,-1.834778 -0.55044,-0.642172 -0.55044,-1.100866 0.55043,-1.100866 0.18348,0 0.36696,0 0.64217,0 6.6052,0 13.2104,0 19.72386,0 0.36696,0 0.82565,0 1.19261,0.09174 0.18347,0 0.27521,0.275217 0.36695,0.366956 0,0.183478 -0.0917,0.550433 -0.18348,0.550433 -0.36695,0.183478 -1.00912,0.366956 -1.37608,0.550434 -1.83478,0.366955 -3.3026,1.284344 -4.77042,2.660427 -5.68781,5.779549 -11.46736,11.559098 -17.24691,17.430386 -1.37608,1.559561 -2.93564,2.935644 -4.21999,4.311727 -0.82565,1.009128 -0.82565,1.376084 0,2.293472 1.6513,1.6513 3.21086,3.210861 4.86216,4.862161 1.19261,1.192605 2.20174,2.38521 3.48608,3.669555 3.11912,3.21086 6.23824,6.238243 9.44911,9.540843 2.10999,2.10999 4.12824,4.21999 6.23824,6.51346 1.1926,1.28434 2.56869,2.10999 4.21999,2.56869 0.64217,0.0917 1.1926,0.36695 1.83477,0.64217 0.0917,0.0917 0.27522,0.27522 0.27522,0.55043 0,0.27522 -0.18348,0.36696 -0.36695,0.36696 -0.27522,0.0917 -0.64218,0.0917 -1.00913,0.0917 -6.78868,0 -13.39388,0 -20.18255,0 -0.27522,0 -0.55044,0 -0.82565,-0.0917 -0.36696,-0.0917 -0.55044,-0.36696 -0.27522,-0.82565 0.18348,-0.27522 0.55043,-0.73391 0.55043,-1.19261 0,-0.36695 -0.36695,-0.73391 -0.73391,-1.10086 -5.22911,-5.4126 -10.45823,-10.64171 -15.68735,-15.870828 -0.18347,-0.183478 -0.36695,-0.366955 -0.55043,-0.550433 -1.19261,-1.100867 -1.6513,-1.192606 -2.66043,0 -3.3026,3.302601 -6.69694,6.696941 -9.9078,9.907801 -2.10999,2.10999 -4.21998,4.31172 -6.23824,6.69693 -0.73391,0.82565 -0.73391,0.82565 -0.18348,2.01826 0.27522,0.64217 0.18348,0.82565 -0.55043,1.00913 -0.27522,0 -0.64217,0 -1.00913,0 -6.51346,0 -12.93518,0 -19.44864,0 -0.55043,0 -1.6513,0.0917 -1.6513,-0.55044 -0.0917,-0.73391 0.73391,-0.73391 1.28434,-0.82565 2.29348,-0.55043 4.12825,-1.92651 5.77955,-3.66955 5.4126,-5.50433 10.73345,-10.82519 16.14605,-16.32952 1.74303,-1.743038 3.21086,-3.486077 4.9539,-5.137377 0.64217,-0.642172 1.28434,-1.284344 1.92651,-1.926516 1.37608,-1.376083 1.37608,-1.743039 0.0917,-3.027383 -3.94477,-3.944772 -7.88954,-7.889543 -11.74258,-12.017793 -3.21086,-3.21086 -6.51346,-6.51346 -9.54084,-9.724321 -1.1926,-1.284344 -2.66043,-2.018255 -4.21999,-2.38521 -0.27521,-0.09174 -0.64217,-0.183478 -1.00912,-0.183478 -0.36696,-0.09174 -1.00913,-0.183478 -0.82565,-0.82565 0.0917,-0.642172 0.55043,-0.642172 1.10086,-0.642172 0.27522,0 0.55044,0 0.82565,0 3.11912,0.183478 6.51346,0.183478 9.63258,0.183478 z"
       id="path228"
       inkscape:connector-curvature="0"
       style="display:inline;fill:#ffffff;stroke-width:0.91738874" /><path
       style="display:inline;fill:#ffffff;stroke-width:0.91738874"
       d="M 76.8,22.999833 V 51.071571 H 351.282 V 22.999833 Z m 213.41831,6.126079 h 7.17964 l 2.62674,3.934738 h -7.18143 z m 21.80052,0 h 7.17786 l -2.62496,3.934738 h -7.17964 z M 83.28085,29.462765 h 31.90255 c 1.7633,0.03373 3.18578,1.634007 3.18578,3.599676 H 115.1834 83.28085 Z m 38.74355,0 h 23.09419 v 3.599676 H 122.0244 Z m 29.61625,0 h 0.0197 24.04921 v 3.599676 h -20.80609 -3.26282 -3.22341 c 0,-1.981054 1.44234,-3.587841 3.22341,-3.599676 z m 30.51571,0 h 19.30817 c 0.0319,-0.0012 0.0594,0 0.0932,0 1.78815,0 3.2431,1.613297 3.2431,3.599676 h -3.33807 -16.04355 -3.26283 -3.20548 c 0,-1.973362 1.4327,-3.577778 3.20548,-3.599676 z m 37.82616,0 h 23.78761 c 1.77041,0.02367 3.2037,1.626907 3.2037,3.599676 h -3.2037 -23.78761 z m 34.22828,0 h 20.20764 c 1.77157,0.02189 3.20369,1.626314 3.20369,3.599676 h -1.21841 -5.26602 -1.53734 -11.90276 -3.4868 -2.97972 c 0,-1.891114 1.31228,-3.433221 2.97972,-3.579966 z m 27.25469,0 h 6.4683 v 3.599676 h -6.4683 z m 40.24326,0 h 23.0924 v 3.599676 h -23.0924 z m -44.51485,4.796582 h 0.43002 v 1.931533 c 0,1.934898 -1.19779,3.58938 -2.88654,4.275175 l 4.46151,4.479437 h -7.74225 l -3.28074,-3.298657 h -9.03592 v -4.19992 h 9.4104 1.42445 c 0.63313,0 1.14328,-0.494452 1.16108,-1.123443 0.002,-0.01242 0,-0.02521 0,-0.03763 v -2.024706 z m -193.91305,0.0018 h 6.40918 v 10.68431 h -6.40918 z m 14.26432,0 h 6.42889 v 10.684354 h -6.42889 z m 14.28224,0 h 6.48622 v 10.684354 h -6.48622 z m 10.19699,0 5.88598,0.0018 h 0.60024 c 0,0.794078 0.62861,1.442378 1.42447,1.442378 h 14.06005 v 3.298658 h -15.48452 v 0.899471 c 0,0.793992 0.62861,1.444084 1.42447,1.444084 h 15.1835 v 3.597884 H 126.468 c -2.39525,0 -4.35718,-1.706684 -4.4436,-3.843357 z m 26.39284,0 h 6.48444 v 5.921816 c 0,0.647925 0.51314,1.162862 1.16107,1.162862 h 11.88484 c 0.64852,0 1.16286,-0.514346 1.16286,-1.162862 0,-0.648519 -0.51434,-1.18078 -1.16286,-1.18078 h -8.00386 v -3.298658 h 11.07854 c 0.0248,-0.0012 0.0504,0 0.0752,0 2.55205,0 4.61024,2.078481 4.61024,4.629947 0,2.44969 -1.90334,4.435516 -4.31102,4.592319 v 0.01792 h -18.94978 v -0.01792 c -2.15914,-0.17988 -3.87096,-1.750421 -4.01178,-3.710766 h -0.0179 z m 30.53543,0 h 6.46652 v 10.684354 h -6.46652 z m 19.36192,0 h 6.48622 v 10.684354 h -6.48622 v -3.296866 h -11.75225 v -4.199964 h 11.75225 z m 21.66793,0 h 6.46652 v 10.684354 h -6.46652 z m 20.50687,0 h 6.48622 v 6.692279 c 0,2.091114 -1.79396,3.800787 -4.06732,3.974157 v 0.01792 h -15.55978 v -3.597895 h 11.97802 c 0.64911,0 1.16286,-0.514344 1.16286,-1.162861 z m 10.7399,0 h 6.46831 v 10.684354 h -6.46831 z m 30.2362,0 h 6.4683 v 10.684354 h -6.4683 z m 12.16436,0 h 7.17605 l 3.89891,5.848353 3.8989,-5.848353 h 7.17965 l -7.12232,10.684354 h -0.73103 -6.44681 -0.73105 z m 28.0789,0 6.46831,0.0018 c 0,0.794078 0.64771,1.442378 1.44238,1.442378 h 14.04034 v 3.298658 h -15.48272 v 0.899471 c 0,0.794079 0.64771,1.444171 1.44238,1.444171 h 15.1835 v 3.597884 h -18.65237 c -2.39467,0 -4.35485,-1.706685 -4.44182,-3.843357 z"
       id="path230"
       inkscape:connector-curvature="0" /></g></svg>