<?xml version="1.0" encoding="UTF-8" standalone="no"?>
<!-- Generator: Adobe Illustrator 16.0.3, SVG Export Plug-In . SVG Version: 6.00 Build 0)  -->

<svg
   xmlns:dc="http://purl.org/dc/elements/1.1/"
   xmlns:cc="http://creativecommons.org/ns#"
   xmlns:rdf="http://www.w3.org/1999/02/22-rdf-syntax-ns#"
   xmlns:svg="http://www.w3.org/2000/svg"
   xmlns="http://www.w3.org/2000/svg"
   xmlns:sodipodi="http://sodipodi.sourceforge.net/DTD/sodipodi-0.dtd"
   xmlns:inkscape="http://www.inkscape.org/namespaces/inkscape"
   version="1.1"
   id="Ebene_1"
   x="0px"
   y="0px"
   width="410"
   height="96"
   viewBox="0 0 409.99999 95.999999"
   enable-background="new 0 0 566.929 180.921"
   xml:space="preserve"
   sodipodi:docname="odyssey2.svg"
   inkscape:version="0.92.4 (5da689c313, 2019-01-14)"><metadata
   id="metadata34"><rdf:RDF><cc:Work
       rdf:about=""><dc:format>image/svg+xml</dc:format><dc:type
         rdf:resource="http://purl.org/dc/dcmitype/StillImage" /><dc:title></dc:title></cc:Work></rdf:RDF></metadata><defs
   id="defs32" /><sodipodi:namedview
   pagecolor="#ffffff"
   bordercolor="#666666"
   borderopacity="1"
   objecttolerance="10"
   gridtolerance="10"
   guidetolerance="10"
   inkscape:pageopacity="0"
   inkscape:pageshadow="2"
   inkscape:window-width="1920"
   inkscape:window-height="1028"
   id="namedview30"
   showgrid="false"
   inkscape:pagecheckerboard="true"
   fit-margin-top="0"
   fit-margin-left="0"
   fit-margin-right="0"
   fit-margin-bottom="0"
   inkscape:zoom="1.3620058"
   inkscape:cx="158.19237"
   inkscape:cy="101.12128"
   inkscape:window-x="0"
   inkscape:window-y="28"
   inkscape:window-maximized="1"
   inkscape:current-layer="g27" />
<g
   id="g27"
   transform="translate(0.00136117,-84.920008)">
	<path
   d="m 242.5155,127.72104 -48.0368,52.93599 H 80.649355 l -1.9207,-1.83839 c -5.39111,-5.16136 -10.78433,-10.31958 -16.17491,-15.47989 l -29.32415,-28.0678 -27.2416895,-26.0693 c -1.29996,-1.23312 -2.74746,-2.59223 -3.82558,-3.98546 -4.36832,-5.603377 -0.82729,-12.980578 6.66789,-12.980578 h 13.7667995 12.35092 c 0.94639,0 1.81689,-0.04567 2.77276,0.04987 1.48175,0.148038 2.80753,0.573777 4.01316,1.19165 1.3163,-0.776935 2.9419,-1.236796 4.81517,-1.236796 h 22.37014 c 0.37413,0 0.75352,-0.0231 1.12765,-0.03412 2.46923,-0.07402 4.53799,0.345421 6.30745,1.173801 1.24517,-0.720764 2.80016,-1.139678 4.64076,-1.139678 h 11.01776 0.31669 l 0.31669,0.02887 c 1.11027,0.103417 2.16309,0.398966 3.09682,0.870901 1.18878,-0.579551 2.58833,-0.899773 4.10644,-0.899773 h 7.542085 c 2.39388,0 4.28243,-0.11864 6.53035,1.021038 0.0817,0.04305 0.16335,0.08557 0.24344,0.12914 1.30365,-0.730214 2.88236,-1.149654 4.71295,-1.149654 h 26.77271 c 2.56092,0 4.72822,0.0094 6.93873,1.326563 1.50389,-0.843603 3.25332,-1.326563 5.15504,-1.326563 h 25.5597 c 2.49717,0 4.70609,0.04357 6.74007,1.299791 1.62509,-0.82733 3.44882,-1.299791 5.35581,-1.299791 h 26.98507 c 2.49242,0 4.81148,0.05197 6.78961,1.259894 0.60335,-0.321273 1.2441,-0.589525 1.93703,-0.790583 1.92965,-0.564852 3.59793,-0.469311 5.55551,-0.469311 h 9.12869 c 1.63826,0 3.1864,0.283476 4.49216,1.008965 1.07232,-0.561177 2.28586,-0.88245 3.55578,-0.986916 l 0.27664,-0.02205 h 0.2777 12.09694 c 1.11552,0 2.20365,0.170611 3.20168,0.519707 0.15966,-0.728639 0.44368,-1.469876 0.86365,-2.205339 l 0.33039,-0.577976 0.45053,-0.499758 c 1.92069,-2.138669 3.97892,-3.935592 7.12685,-3.78598 h 9.62981 c 2.66368,0 5.3126,0.517081 7.42036,2.18749 4.46791,3.540301 4.33618,9.620862 1.26465,13.931276 -1.19773,1.6788 -2.98775,3.04316 -4.99854,3.95554 -0.27454,1.36278 -1.01805,2.70719 -2.29904,3.84897 -0.74509,0.66565 -1.47174,1.35334 -2.20577,2.03473 -2.02028,1.88249 -3.86878,2.22319 -6.51138,2.22319 h -12.60648 c -1.49756,0 -2.87973,-0.17271 -4.16599,-0.75122 l -9.15134,9.24185 c -3.03201,3.08936 -6.43129,5.32777 -11.0536,5.35822 l -0.0474,5.3e-4 c -0.40838,-0.001 -0.81887,-0.001 -1.2283,-0.001"
   id="path2"
   style="fill:none;stroke:#ffffff;stroke-width:0.52594632;stroke-opacity:1"
   inkscape:connector-curvature="0" />
	<path
   d="m 43.568135,104.75291 c -4.8489,-6.558625 -6.00543,-5.887191 -8.82049,-5.887191 H 22.375735 8.5849455 c -2.10826,0 -2.57699,1.578291 -1.40885,3.147611 0.65719,0.89102 2.07026,2.32996 3.1993395,3.45218 l 27.2997,27.38046 h 26.90909 c -6.13106,-8.10524 -13.09666,-17.38074 -21.01609,-28.09306 z m 3.91247,21.38084 c -0.82134,0.0121 -2.16896,0.0417 -2.97658,0.029 -0.91636,-0.0148 -1.17607,-0.22223 -1.74563,-0.85566 l -12.4817,-13.89055 c -0.56111,-0.62498 -0.49513,-1.33548 0.54106,-1.33654 l 3.84174,-0.004 c 0.5173,-5.2e-4 0.76592,0.0523 1.72187,1.20827 l 11.23701,13.58123 c 0.63554,0.7675 0.21273,1.26421 -0.13777,1.26791 z"
   id="path4"
   style="fill:#ffffff;fill-opacity:1;stroke-width:0.52785683"
   inkscape:connector-curvature="0" />
	<path
   d="m 46.368945,98.869414 h 13.78603 8.62307 c 2.81189,0 5.53458,-0.978647 8.8131,5.879796 l 13.4329,28.09729 h -23.77045 l -12.50176,-17.28361 c -0.51519,-0.71261 -0.58434,-0.80604 -0.90369,-1.34762 -0.27871,-0.47191 0.0718,-1.00663 0.81765,-1.05308 3.03518,-0.029 6.06982,-0.0581 9.10447,-0.0871 1.49067,0.0269 2.01536,0.0443 2.85096,1.43261 2.39488,3.54878 4.53851,7.22319 6.9334,10.7725 0.4756,0.87941 1.17026,0.91583 2.60761,0.93325 1.66011,0.0201 2.65301,-0.18211 1.63319,-1.88551 l -7.87615,-13.1563 c -1.18399,-1.97788 -4.67523,-1.6448 -5.19306,-1.6448 h -11.77173 c -1.38827,0 -2.44768,0.0834 -3.31917,-1.05835 l -4.68578,-6.45886 c -1.14387,-1.57829 -0.68991,-3.140216 1.41941,-3.140216 z"
   id="path6"
   style="fill:#ffffff;fill-opacity:1;stroke-width:0.52785683"
   inkscape:connector-curvature="0" />
	<path
   d="m 80.874415,98.869414 c 3.5852,0 7.45122,0 11.0359,0 0.57009,0.05542 0.89261,0.234368 0.96756,0.538942 1.64428,4.082974 2.88632,8.165944 4.53165,12.248914 0.3051,0.78757 0.57959,1.1407 1.00979,1.05941 0.91478,0.006 1.672255,0.0116 2.587565,0.0185 0.83612,-0.0333 1.06732,-0.50199 0.78756,-1.40515 -1.0668,-3.88186 -2.248675,-7.53199 -3.316005,-11.414379 -0.28662,-0.957532 0.29613,-1.047268 1.28428,-1.047268 h 7.555745 c 3.78262,0 4.39441,-0.552138 5.80273,5.879797 1.11167,5.07693 2.1299,10.15491 3.24157,15.23289 0.26287,1.6807 -0.41912,3.04257 -2.27295,2.99295 l -3.534,-0.0121 2.69946,9.88412 h -13.0898 l -3.974765,-9.85984 c -1.52867,0.001 -2.32943,0.002 -3.8581,0.002 -2.30304,-0.0169 -3.44427,-1.51548 -4.39652,-3.55723 l -8.27944,-17.42138 c -0.75167,-1.58252 -0.89102,-3.140222 1.21777,-3.140222 z"
   id="path8"
   style="fill:#ffffff;fill-opacity:1;stroke-width:0.52785683"
   inkscape:connector-curvature="0" />
	<path
   d="m 118.82416,98.869414 h 14.50603 12.31279 c 2.81189,0 4.83886,-0.283987 4.50156,3.861276 l -0.31091,3.83699 c -0.0517,0.62815 -0.10715,1.19031 -0.2692,1.78468 -0.35367,1.29747 -1.56193,1.49331 -2.90691,1.51389 h -15.20017 c -0.68991,0 -0.919,0.0391 -0.92111,0.51203 l -0.0137,2.35793 c -0.003,0.53525 0.37214,0.46346 1.22727,0.46346 h 11.62604 c 0.85091,0 1.68017,-0.0401 2.51577,0.16047 1.55876,0.37372 2.39911,1.29061 2.83142,2.46456 0.35947,0.97865 0.2122,1.78521 0.12933,2.80609 l -1.15495,14.21518 h -26.10465 l -0.82663,-4.74754 c -0.1441,-0.8261 0.1098,-1.3434 1.11325,-1.3434 h 13.75912 c 2.38855,-0.34521 2.46773,-1.9953 2.2265,-3.83382 H 123.1832 c -1.50439,0.0681 -2.47248,-0.39273 -3.117,-1.13648 -0.597,-0.68779 -0.63237,-1.32281 -0.78281,-2.1906 l -2.88738,-16.57787 c -0.42439,-2.43448 0.31989,-4.146846 2.42815,-4.146846 z"
   id="path10"
   style="fill:#ffffff;fill-opacity:1;stroke-width:0.52785683"
   inkscape:connector-curvature="0" />
	<path
   d="m 157.7594,98.869414 h 13.61396 11.99027 c 2.73852,0 4.7639,-0.277653 3.43529,3.759926 l -1.34762,4.08719 c -0.20428,0.61232 -0.39695,1.15865 -0.69994,1.73771 -0.66193,1.26316 -1.88497,1.45372 -3.20039,1.47377 h -13.54481 c -0.67091,0 -0.9,0.038 -1.02299,0.4983 l -0.69307,2.59706 c -0.13777,0.52046 0.2502,0.45131 1.0821,0.45131 h 10.06465 c 0.82715,0 1.64427,-0.038 2.40861,0.15625 1.42363,0.36369 2.01958,1.2563 2.15155,2.39964 0.10926,0.95278 -0.23121,1.73823 -0.56164,2.73166 l -5.01887,14.08322 h -25.02041 l 0.54475,-4.58075 c 0.0633,-0.80445 0.43442,-1.30855 1.41465,-1.30803 h 10.35444 c 2.40861,-0.33677 2.89213,-1.94356 3.10855,-3.733 h -9.35468 c -3.36456,0.14991 -4.93968,-2.07289 -4.72115,-5.03153 l 1.12592,-15.28673 c 0.17525,-2.36902 1.838,-4.03758 3.89083,-4.03758 h 0.001 v 0.0016 z"
   id="path12"
   style="fill:#ffffff;fill-opacity:1;stroke-width:0.52785683"
   inkscape:connector-curvature="0" />
	<path
   d="m 195.47952,98.869414 h 14.3746 12.65748 c 2.89107,0 5.10649,-0.277653 2.6092,3.759926 l -2.52897,4.08719 c -0.38164,0.61232 -0.73319,1.15865 -1.20932,1.73771 -1.04357,1.26316 -2.38749,1.45372 -3.78051,1.47377 h -10.79942 c -0.70944,0 -1.63636,-0.067 -1.61577,0.33203 l 0.10821,2.15576 c 0.0227,0.4529 0.49038,0.80287 1.36979,0.80287 h 5.8893 l 4.11992,0.028 c 0.90633,0.006 1.28269,0.83191 0.85566,1.54557 l -1.63214,2.73219 -3.82432,5.90882 c -0.16152,0.008 -0.32305,0.0132 -0.48615,0.0153 h -11.54371 c -0.73688,0 -1.70445,-0.067 -1.67541,0.44552 l 0.1119,2.04227 c 0.0264,0.45238 0.50886,0.80287 1.41994,0.80287 h 6.44988 l 3.56831,0.0238 -3.93623,6.08197 h -26.21337 c 2.51946,-6.3459 2.42392,-6.74865 10.50858,-29.93898 0.82609,-2.36797 3.03465,-4.036524 5.20255,-4.036524 z"
   id="path14"
   style="fill:#ffffff;fill-opacity:1;stroke-width:0.52785683"
   inkscape:connector-curvature="0" />
	<path
   d="m 266.69955,98.869414 c -3.93623,0 -8.18072,0 -12.11695,0 -0.64874,0.05542 -1.08053,0.234368 -1.28956,0.538942 -3.53294,4.082974 -6.62618,8.165944 -10.15807,12.248914 -0.66933,0.78757 -1.11959,1.1407 -1.55665,1.05941 -1.00821,0.006 -1.84117,0.0116 -2.84937,0.0185 -0.90317,-0.0333 -0.95701,-0.50199 -0.26921,-1.40515 2.81453,-3.88186 5.65704,-7.53199 8.47052,-11.414379 0.71947,-0.957532 0.12088,-1.047268 -0.96598,-1.047268 h -9.14459 c -4.14949,0 -4.58761,-0.552138 -8.85691,5.879797 -3.36826,5.07693 -6.63516,10.15491 -10.00447,15.23289 -1.00082,1.6807 -0.82768,3.04257 1.22779,2.99295 l 4.73435,-0.0121 -7.14665,9.88412 h 14.3709 l 8.5365,-9.85984 c 1.67858,0.001 2.55799,0.002 4.23499,0.002 2.5353,-0.0169 4.42397,-1.51548 6.33323,-3.55723 l 16.4628,-17.42191 c 1.49172,-1.58199 2.30304,-3.139692 -0.0127,-3.139692 z"
   id="path16"
   style="fill:#ffffff;fill-opacity:1;stroke-width:0.52785683"
   inkscape:connector-curvature="0" />
	<path
   d="m 285.25108,105.74633 c -0.78334,0.73214 -1.54768,1.4875 -2.31465,2.23653 -0.61021,0.59754 -1.07736,0.46557 -1.93829,0.46557 h -12.62739 c -0.75273,0 -1.25683,-0.0449 -1.52973,-0.26076 -0.40012,-0.31513 -0.30933,-0.89841 0.20903,-1.42046 1.96099,-2.08187 3.92514,-4.16427 5.8856,-6.2456 0.93695,-0.861467 1.81055,-1.746683 3.59629,-2.326269 1.09161,-0.353665 2.05864,-0.436538 3.18878,-0.436538 h 5.20203 c 1.28481,0.120351 2.46615,-2.402276 1.09478,-2.882626 h -8.51856 c -1.12064,0.07971 -1.44052,-0.319354 -0.9607,-1.201402 0.92375,-1.077884 1.46586,-1.736649 1.92299,-1.681752 h 9.882 c 0.99818,0 2.42392,0.104516 3.23946,0.782284 1.74774,1.447911 1.21777,4.14262 0.0333,5.884548 -1.02352,1.501225 -3.30967,2.545855 -5.04843,2.604975 h -6.79299 c -1.66011,0.12035 -3.82062,3.54086 -0.82979,3.58045 h 5.95792 c 0.85671,5.3e-4 0.87836,0.40645 0.34839,0.90105"
   id="path18"
   style="fill:#ffffff;fill-opacity:1;stroke-width:0.52785683"
   inkscape:connector-curvature="0" />
	
		<linearGradient
   id="SVGID_1_"
   gradientUnits="userSpaceOnUse"
   x1="426.18311"
   y1="1339.6851"
   x2="426.18311"
   y2="1431.8866"
   gradientTransform="translate(-172.1245,-1255.0713)">
		<stop
   offset="0"
   style="stop-color:#F57E25"
   id="stop20" />
		<stop
   offset="1"
   style="stop-color:#FCD660"
   id="stop22" />
	</linearGradient>
	<path
   d="m 62.639075,130.27214 c 7.75157,10.24676 16.11494,21.20084 21.43468,28.24456 5.95264,7.88882 10.92241,14.47911 15.12626,20.04748 h -15.9455 c -4.66572,-4.68051 -10.01766,-10.0467 -16.20309,-16.25219 l -31.94273,-32.03985 z m 170.463445,0.31144 -14.46856,-0.31091 -34.91984,48.29256 h 7.84184 z m -52.33278,-0.31144 c -2.1204,5.33611 -7.08754,17.45306 -19.33434,48.29256 h 14.95946 l 30.8564,-47.68183 z m -3.76098,0.91056 -25.43056,0.12721 -5.61745,47.25479 h 14.1682 z m -29.19893,0.27976 -26.40868,0.28293 8.15222,46.81984 h 14.42686 z m -35.03755,-0.38533 H 99.452335 l 19.145895,47.48757 h 7.14296 l -12.48698,-45.71767 z m -22.979195,-0.80499 h -24.40177 l 34.929875,48.29256 h 12.56035 L 91.024575,132.84703"
   id="path25"
   style="fill:#ffffff;fill-opacity:1;stroke-width:0.52785683"
   inkscape:connector-curvature="0" />
</g>
</svg>