<?xml version="1.0" encoding="UTF-8" standalone="no"?>
<!-- Generator: Adobe Illustrator 21.1.0, SVG Export Plug-In . SVG Version: 6.00 Build 0)  -->

<svg
   xmlns:dc="http://purl.org/dc/elements/1.1/"
   xmlns:cc="http://creativecommons.org/ns#"
   xmlns:rdf="http://www.w3.org/1999/02/22-rdf-syntax-ns#"
   xmlns:svg="http://www.w3.org/2000/svg"
   xmlns="http://www.w3.org/2000/svg"
   xmlns:sodipodi="http://sodipodi.sourceforge.net/DTD/sodipodi-0.dtd"
   xmlns:inkscape="http://www.inkscape.org/namespaces/inkscape"
   version="1.0"
   id="Layer_1"
   inkscape:version="0.92.4 (5da689c313, 2019-01-14)"
   sodipodi:docname="pc.svg"
   x="0px"
   y="0px"
   width="410"
   height="96"
   viewBox="0 0 410 96.000003"
   enable-background="new 0 0 340 96.2"
   xml:space="preserve"><metadata
   id="metadata24"><rdf:RDF><cc:Work
       rdf:about=""><dc:format>image/svg+xml</dc:format><dc:type
         rdf:resource="http://purl.org/dc/dcmitype/StillImage" /><dc:title></dc:title></cc:Work></rdf:RDF></metadata><defs
   id="defs22" />
<sodipodi:namedview
   bordercolor="#666666"
   borderopacity="1"
   fit-margin-bottom="0"
   fit-margin-left="0"
   fit-margin-right="0"
   fit-margin-top="0"
   gridtolerance="10"
   guidetolerance="10"
   id="namedview35"
   inkscape:current-layer="Layer_1"
   inkscape:cx="4.2580783"
   inkscape:cy="-30.375813"
   inkscape:pageopacity="0"
   inkscape:pageshadow="2"
   inkscape:window-height="1028"
   inkscape:window-maximized="1"
   inkscape:window-width="1920"
   inkscape:window-x="0"
   inkscape:window-y="28"
   inkscape:zoom="1.6266286"
   objecttolerance="10"
   pagecolor="#ffffff"
   showgrid="false"
   inkscape:pagecheckerboard="true">
	</sodipodi:namedview>
<g
   id="g19"
   transform="matrix(0.85405554,0,0,0.85405554,-4.3556833,7.8939695)">
	<path
   d="m 95.9,92.1 c -6.6,0 -13,0 -19.6,0 0,-21.3 0,-42.5 0,-63.6 -0.1,0 -0.2,-0.1 -0.4,-0.1 -0.2,0.4 -0.4,0.9 -0.5,1.3 -5.2,20 -10.4,40 -15.4,60 -0.5,1.9 -1.2,2.6 -3.2,2.6 -4.3,-0.2 -8.6,-0.1 -12.8,0 -1.5,0 -2.1,-0.4 -2.4,-1.9 C 36.8,70.1 31.9,49.8 27,29.5 26.9,29 26.7,28.6 26.3,28.1 c 0,21.2 0,42.3 0,63.8 -7.2,0 -14.1,0 -21.2,0 0,-28.8 0,-57.8 0,-86.9 0.7,0 1.3,-0.1 1.9,-0.1 9.8,0 19.7,0 29.5,-0.1 1.9,0 2.5,0.6 2.9,2.4 3.7,16.2 7.5,32.4 11.2,48.5 0.1,0.3 0.2,0.6 0.5,1.6 1.3,-5.4 2.5,-10.1 3.7,-14.8 2.9,-11.9 5.8,-23.8 8.8,-35.7 0.3,-1 0.4,-2 2,-1.9 C 75.5,5 85.4,5 95.3,5 95.5,5 95.7,5.1 96.1,5.2 95.9,34 95.9,63 95.9,92.1 Z"
   id="path3"
   inkscape:connector-curvature="0"
   style="fill:#ffffff" />
	<path
   d="m 169.7,28.9 c -7.9,0 -15.7,0 -23.6,0 -0.2,-0.5 -0.3,-0.9 -0.5,-1.4 -2.4,-7.2 -9.8,-10.4 -16.7,-7 -4.2,2 -4.9,6.6 -1.3,9.5 1.5,1.2 3.4,2 5.3,2.5 7,2.1 14.2,3.8 21.1,6.1 9.6,3.3 16,9.9 17.8,20.3 2.9,16 -9.1,32.1 -25.3,34 -8.1,0.9 -16.2,1.1 -24.3,-0.4 -7.1,-1.3 -12.5,-5 -16.5,-10.8 -3.8,-5.5 -5.7,-11.7 -6.6,-18.4 8.1,0 16,0 24,0 0.3,1.3 0.6,2.6 1,3.9 2.5,8.4 11.5,12.1 19.2,8 5.7,-3 6.4,-10.6 1.2,-14.3 -2,-1.4 -4.5,-2.5 -6.9,-3.1 -7.6,-1.9 -15.1,-4.2 -22.1,-7.9 -9.2,-4.9 -13.8,-12.6 -13.2,-22.8 0.5,-10 6.1,-16.9 15.1,-21.1 5.8,-2.7 12,-3.5 18.3,-3.2 6,0.3 12,0.6 17.6,2.8 10.1,3.9 15.6,11.3 16.4,22.1 0.1,0.4 0,0.7 0,1.2 z"
   id="path5"
   inkscape:connector-curvature="0"
   style="fill:#ffffff" />
	<path
   d="m 188.1,4.5 c 3,0 5.8,0 8.5,0 8.4,-0.2 16.8,-0.6 25.2,-0.5 4.2,0.1 8.4,1.3 12.6,2 0.5,0.1 1,0.4 1.7,0.8 -0.5,0.6 -0.8,1.1 -1.2,1.4 -3.9,3.5 -7.1,7.6 -9.6,12.2 -0.7,1.2 -1.4,1.7 -2.8,1.7 -5.5,-0.1 -10.9,0 -16.6,0 0,1.2 0,1.9 0,2.6 0,16.1 0.1,32.2 0.1,48.4 0,1.7 0.4,2.5 2.2,2.5 7.1,0.1 14.2,0.4 21.3,0.1 1.9,-0.1 4,-1.8 5.6,-3.2 4.5,-4.1 6.4,-9.5 7,-15.4 0.6,-6.2 1,-12.5 1.9,-18.7 1,-7.2 5.3,-12.1 12.1,-15.3 0.7,1.3 1.5,2.6 2.2,3.9 4.5,9.5 4.9,19.5 3.9,29.7 -1.1,10.2 -5.6,18.6 -12.6,25.8 -6,6.2 -13.8,8.6 -22,10 -3.1,0.5 -6.4,0.6 -9.6,0.5 -9.3,-0.2 -18.5,-0.6 -27.8,-0.9 -1.5,0 -2.1,-0.4 -2.1,-2.1 0,-27.8 0,-55.6 0,-83.5 -0.1,-0.5 -0.1,-1 0,-2 z"
   id="path7"
   inkscape:connector-curvature="0"
   style="fill:#ffffff" />
	<path
   d="m 265.5,64.5 c 5.6,0 11.1,0 16.6,0.1 0.4,0 1.1,0.7 1.1,1.2 1.2,7 6.8,12.4 15.8,12.6 3.8,0.1 7.7,-0.4 11.5,-0.7 1,-0.1 2,-0.4 2.9,-0.8 3.5,-1.4 6.1,-3.7 6.3,-7.6 0.2,-3.9 -1.8,-6.9 -5.3,-8.6 -1.4,-0.7 -1.7,-1.5 -1.7,-2.9 0.3,-5 0.5,-10 0.7,-14.9 0.3,-0.1 0.5,-0.2 0.7,-0.2 6.8,1.5 13,4.1 18,9.2 6.1,6.3 7.3,18.6 2.8,27.3 -3.3,6.4 -8.8,10.1 -15.2,12.4 -13.1,4.7 -26.2,4.5 -38.9,-1.2 -10.1,-4.7 -16.1,-15 -15.3,-25.9 z"
   id="path9"
   inkscape:connector-curvature="0"
   style="fill:#ffffff" />
	<path
   d="m 334.7,30.8 c -5.9,0 -11.6,0 -17.4,0 -1.3,-4.9 -3.8,-9 -8.7,-11 -7.4,-3 -14.7,-2.6 -21.2,2.4 -3.3,2.5 -3.8,5 -2.2,8.8 2.7,6.7 5,13.4 3.1,20.8 -0.1,0.4 -0.2,0.8 -0.4,1.4 -6.7,-2 -12.9,-4.7 -17.1,-10.4 -4,-5.3 -4.4,-11.7 -3.4,-18 1.3,-9 6.3,-15.4 14.6,-19 13.3,-5.6 26.6,-5.7 39.3,1.4 8.3,4.6 12.2,12.5 13.5,21.7 0,0.6 -0.1,1.2 -0.1,1.9 z"
   id="path11"
   inkscape:connector-curvature="0"
   style="fill:#ffffff" />
	<path
   d="m 278.2,3.5 c -5,3.9 -8.3,8.5 -11.4,13.5 -0.4,0.6 -1.6,1.1 -2.4,1.2 -10.5,0.5 -18.2,5.1 -22,15.1 -1.4,3.6 -1.7,7.6 -2.3,11.5 -0.7,5 -1.1,10.1 -1.8,15.1 -0.5,4.3 -2.5,7.8 -5.7,10.7 -0.6,0.6 -1.4,1.1 -2.1,1.5 -3.6,1.9 -4.4,1.6 -5.9,-2.1 -3.9,-9.9 -4.3,-20.1 -3.1,-30.6 1.4,-13 7.6,-23.3 17.9,-31.2 8,-6.1 17.4,-7.5 27.2,-6.7 4,0.4 7.8,1.4 11.6,2 z"
   id="path13"
   inkscape:connector-curvature="0"
   style="fill:#ffffff" />
	<path
   d="m 310.9,45.5 c 0.1,11.3 -2.4,20.3 -6.4,28.8 -0.3,0.6 -1.1,1.4 -1.8,1.4 -4.1,0.2 -8.1,-0.4 -11.7,-2.6 -3.3,-2 -3.9,-4 -2.5,-7.6 2.1,-5.2 3.1,-10.5 3.2,-16.1 0.1,-6.3 -1,-12.3 -3.4,-18.2 -1.7,-4.2 -0.5,-7.2 3.9,-8.4 3.4,-0.9 7,-1 10.6,-1.2 0.7,0 1.7,0.9 2.2,1.6 3.8,6.6 5.8,15.1 5.9,22.3 z"
   id="path15"
   inkscape:connector-curvature="0"
   style="fill:#ffffff" />
	<path
   d="m 279.7,93.2 c -11.9,3.1 -23,1.9 -34.4,-1.9 1.5,-1.4 2.9,-2.6 4.1,-3.9 2.7,-2.9 5.3,-5.9 7.8,-9 0.8,-1 1.5,-1.6 2.8,-1.3 0.2,0 0.4,0 0.6,0 2.8,-0.3 4.6,0.5 6.1,3.4 2.3,4.7 6.6,7.9 10.8,11 0.6,0.5 1.2,1 2.2,1.7 z"
   id="path17"
   inkscape:connector-curvature="0"
   style="fill:#ffffff" />
</g>
</svg>