<?xml version="1.0" encoding="UTF-8" standalone="no"?>
<!-- Generator: Adobe Illustrator 15.1.0, SVG Export Plug-In  -->

<svg
   xmlns:dc="http://purl.org/dc/elements/1.1/"
   xmlns:cc="http://creativecommons.org/ns#"
   xmlns:rdf="http://www.w3.org/1999/02/22-rdf-syntax-ns#"
   xmlns:svg="http://www.w3.org/2000/svg"
   xmlns="http://www.w3.org/2000/svg"
   xmlns:sodipodi="http://sodipodi.sourceforge.net/DTD/sodipodi-0.dtd"
   xmlns:inkscape="http://www.inkscape.org/namespaces/inkscape"
   version="1.1"
   x="0px"
   y="0px"
   width="410"
   height="96"
   viewBox="-14.625 -9 410.00001 96.000003"
   enable-background="new -14.625 -9 1386 180"
   xml:space="preserve"
   id="svg36"
   sodipodi:docname="pc88.svg"
   inkscape:version="0.92.4 (5da689c313, 2019-01-14)"><metadata
     id="metadata40"><rdf:RDF><cc:Work
         rdf:about=""><dc:format>image/svg+xml</dc:format><dc:type
           rdf:resource="http://purl.org/dc/dcmitype/StillImage" /><dc:title></dc:title></cc:Work></rdf:RDF></metadata><sodipodi:namedview
     pagecolor="#ffffff"
     bordercolor="#666666"
     borderopacity="1"
     objecttolerance="10"
     gridtolerance="10"
     guidetolerance="10"
     inkscape:pageopacity="0"
     inkscape:pageshadow="2"
     inkscape:window-width="1920"
     inkscape:window-height="1028"
     id="namedview38"
     showgrid="false"
     inkscape:pagecheckerboard="true"
     fit-margin-top="0"
     fit-margin-left="0"
     fit-margin-right="0"
     fit-margin-bottom="0"
     inkscape:zoom="0.78787879"
     inkscape:cx="598.46301"
     inkscape:cy="7.3152119"
     inkscape:window-x="0"
     inkscape:window-y="28"
     inkscape:window-maximized="1"
     inkscape:current-layer="svg36" /><defs
     id="defs2" /><path
     d="m 119.94158,15.236166 c 10.55098,-1.366034 19.73562,6.93223 16.50678,17.707426 -0.50487,1.685107 -3.39393,5.287344 -3.39393,5.287344 0,0 4.41208,4.082196 4.89474,6.717614 2.01288,10.993713 -6.28388,17.470297 -14.70611,17.707125 -8.9208,0.251535 -18.73788,-5.786813 -16.80694,-17.106802 0.26114,-1.530824 1.28259,-2.989608 1.80096,-3.901799 0.52229,-0.919395 2.98091,-3.416138 2.98091,-3.416138 0,0 -3.27206,-5.197896 -3.58123,-7.388174 -1.12891,-8.000203 3.64276,-14.485191 12.30482,-15.606596 z m -2.10083,13.21491 c 0,5.770604 8.70378,5.695563 8.70378,0.290556 0,-6.113688 -8.70378,-6.188729 -8.70378,-0.290556 z m 4.49912,25.200655 c 6.80736,0 6.84368,-10.203988 -0.11646,-10.203988 -6.98206,0 -6.80046,10.203988 0.11646,10.203988 z"
     id="path4"
     inkscape:connector-curvature="0"
     style="clip-rule:evenodd;fill:#ffffff;fill-opacity:1;fill-rule:evenodd;stroke-width:0.30016145" /><path
     d="m 86.17252,15.236166 c 10.55097,-1.366034 19.73561,6.93223 16.50677,17.707426 -0.50487,1.685107 -3.39392,5.287344 -3.39392,5.287344 0,0 4.41207,4.082196 4.89473,6.717614 2.01288,10.993713 -6.28388,17.470297 -14.70611,17.707125 -8.9208,0.251535 -18.73788,-5.786813 -16.80694,-17.106802 0.26114,-1.530824 1.28259,-2.989608 1.80097,-3.901799 0.52228,-0.919395 2.9809,-3.416138 2.9809,-3.416138 0,0 -3.27206,-5.197896 -3.58122,-7.388174 -1.12921,-8.000203 3.64246,-14.485191 12.30482,-15.606596 z m -2.10113,13.21491 c 0,5.770604 8.70378,5.695563 8.70378,0.290556 0,-6.113688 -8.70378,-6.188729 -8.70378,-0.290556 z m 4.49912,25.200655 c 6.80736,0 6.84368,-10.203988 -0.11647,-10.203988 -6.98205,0 -6.80046,10.203988 0.11647,10.203988 z"
     id="path6"
     inkscape:connector-curvature="0"
     style="clip-rule:evenodd;fill:#ffffff;fill-opacity:1;fill-rule:evenodd;stroke-width:0.30016145" /><path
     d="m 156.55678,15.236166 c 5.32936,-0.543292 9.99867,1.407459 12.60528,3.9018 7.8222,7.484526 9.09099,32.024226 -0.30017,40.216533 -3.85437,3.362108 -11.9152,5.104546 -18.00758,2.10113 -5.86216,-2.890255 -9.30681,-10.601102 -9.90413,-19.508394 -0.935,-13.948202 3.08506,-25.434781 15.6066,-26.711069 z m 1.80066,38.415565 c 9.39386,-0.202309 9.00605,-31.516653 -1.5008,-28.811598 -7.46142,1.921034 -7.32995,29.002201 1.5008,28.811598 z"
     id="path8"
     inkscape:connector-curvature="0"
     style="clip-rule:evenodd;fill:#ffffff;fill-opacity:1;fill-rule:evenodd;stroke-width:0.30016145" /><path
     d="m 193.70446,14.90779 c 5.32936,-0.543292 9.99868,1.407458 12.60528,3.9018 7.82251,7.484526 9.09099,32.024226 -0.30016,40.216532 -3.85438,3.362109 -11.91521,5.104546 -18.00759,2.10113 -5.86215,-2.890254 -9.30681,-10.601102 -9.90413,-19.508393 -0.935,-13.948203 3.08476,-25.434782 15.6066,-26.711069 z m 1.80067,38.415565 c 9.39415,-0.202309 9.00604,-31.516653 -1.50051,-28.811598 -7.46171,1.921033 -7.33024,29.0022 1.50051,28.811598 z"
     id="path10"
     inkscape:connector-curvature="0"
     style="clip-rule:evenodd;fill:#ffffff;fill-opacity:1;fill-rule:evenodd;stroke-width:0.30016145" /><path
     d="m 45.21068,15.61407 v 9.297802 C 19.71557,18.058285 19.88666,59.280359 44.8685,52.452886 v 9.303805 C 6.19269,71.436894 6.0216,6.7019762 45.21068,15.61407 Z"
     id="path12"
     inkscape:connector-curvature="0"
     style="clip-rule:evenodd;fill:#ffffff;fill-opacity:1;fill-rule:evenodd;stroke-width:0.30016145" /><path
     d="m -2.5417,43.521882 0.0324,-9.280392 c 4.50543,0 7.20298,-1.56174 7.20298,-4.828997 0,-2.701453 -0.44634,-5.362685 -9.56375,-5.362685 l 0.0375,38.607367 H -14.625 l 0.11106,-47.950794 9.45658,9.01e-4 c 18.15977,0.06183 20.29842,7.353056 20.29842,14.405049 0,10.133751 -7.09131,14.409551 -17.78276,14.409551 z"
     id="path14"
     inkscape:connector-curvature="0"
     style="clip-rule:evenodd;fill:#ffffff;fill-opacity:1;fill-rule:evenodd;stroke-width:0.30016145" /><polygon
     points="846.265,11.764 846.265,41.76 776.273,41.76 776.273,11.683 "
     id="polygon16"
     style="clip-rule:evenodd;fill:#ffffff;fill-opacity:1;fill-rule:evenodd"
     transform="matrix(0.30016146,0,0,0.30016146,-14.625,14.706381)" /><path
     d="m 377.34834,62.317393 h -9.94285 c -1.1256,-4.75876 -7.69104,-13.31036 -7.69104,-13.31036 l -10.94538,11.300779 c -1.97777,1.977763 -5.59381,2.00928 -9.31611,2.00928 h -3.12168 v -8.47746 l 2.10083,0.0045 c 2.26021,0 4.25178,-0.187901 5.97591,-1.911729 l 19.13169,-20.130628 c 2.0363,-2.036295 0.93921,-4.934354 -2.56968,-4.934354 l -24.63905,0.05613 v -8.685772 h 24.80834 c 12.00646,0 15.54806,12.820196 11.17411,17.472999 l -6.22865,6.521608 c 0,3e-4 10.66324,15.284221 11.26356,20.085004 z"
     id="path18"
     inkscape:connector-curvature="0"
     style="clip-rule:evenodd;fill:#ffffff;fill-opacity:1;fill-rule:evenodd;stroke-width:0.30016145" /><polygon
     points="958.25,11.683 958.25,81.754 926.255,81.754 926.255,11.683 "
     id="polygon20"
     style="clip-rule:evenodd;fill:#ffffff;fill-opacity:1;fill-rule:evenodd"
     transform="matrix(0.30016146,0,0,0.30016146,-14.625,14.706381)" /><path
     d="m 297.01463,18.213169 v 27.377126 c 0,9.229965 -6.93823,16.165195 -15.53036,16.165195 h -18.08322 v -9.003643 l 16.81054,-0.03272 c 4.6495,0 7.23869,-2.470329 7.23899,-7.466517 0,-5.029505 0.0369,-27.039444 0.0369,-27.039444 z"
     id="path22"
     inkscape:connector-curvature="0"
     style="clip-rule:evenodd;fill:#ffffff;fill-opacity:1;fill-rule:evenodd;stroke-width:0.30016145" /><path
     d="m 258.18424,20.639374 v 24.833558 c 0,9.455086 -8.62964,16.282558 -16.3588,16.282558 h -23.44321 v -9.603966 l 23.36817,-0.01531 c 3.97714,0 6.97936,-2.160862 6.97936,-6.518606 l 0.0369,-24.978236 z"
     id="path24"
     inkscape:connector-curvature="0"
     style="clip-rule:evenodd;fill:#ffffff;fill-opacity:1;fill-rule:evenodd;stroke-width:0.30016145" /><polygon
     points="846.265,87.756 776.273,87.754 776.273,57.933 846.265,57.891 "
     id="polygon26"
     style="clip-rule:evenodd;fill:#ffffff;fill-opacity:1;fill-rule:evenodd"
     transform="matrix(0.30016146,0,0,0.30016146,-14.625,14.706381)" /><rect
     x="45.510853"
     y="35.644444"
     width="23.409592"
     height="7.2029743"
     id="rect28"
     style="clip-rule:evenodd;fill:#ffffff;fill-opacity:1;fill-rule:evenodd;stroke-width:0.30016145" /><polygon
     points="1176.224,70.756 1176.224,99.752 1051.239,99.752 1051.239,70.756 "
     id="polygon30"
     style="clip-rule:evenodd;fill:#ffffff;fill-opacity:1;fill-rule:evenodd"
     transform="matrix(0.30016146,0,0,0.30016146,-14.625,14.706381)" /><circle
     cx="380.59943"
     cy="21.944477"
     r="3.9117041"
     id="circle32"
     style="clip-rule:evenodd;fill:#ffffff;fill-opacity:1;fill-rule:evenodd;stroke-width:0.30016145" /><circle
     cx="390.46332"
     cy="21.944477"
     r="3.9117041"
     id="circle34"
     style="clip-rule:evenodd;fill:#ffffff;fill-opacity:1;fill-rule:evenodd;stroke-width:0.30016145" /></svg>