<?xml version="1.0" encoding="UTF-8" standalone="no"?>
<!-- Generator: Adobe Illustrator 21.1.0, SVG Export Plug-In . SVG Version: 6.00 Build 0)  -->

<svg
   xmlns:dc="http://purl.org/dc/elements/1.1/"
   xmlns:cc="http://creativecommons.org/ns#"
   xmlns:rdf="http://www.w3.org/1999/02/22-rdf-syntax-ns#"
   xmlns:svg="http://www.w3.org/2000/svg"
   xmlns="http://www.w3.org/2000/svg"
   xmlns:sodipodi="http://sodipodi.sourceforge.net/DTD/sodipodi-0.dtd"
   xmlns:inkscape="http://www.inkscape.org/namespaces/inkscape"
   version="1.0"
   id="Capa_1"
   x="0px"
   y="0px"
   width="410"
   height="96"
   viewBox="0 0 410 95.999993"
   enable-background="new 0 0 445.5 111.3"
   xml:space="preserve"
   sodipodi:docname="scummvm.svg"
   inkscape:version="0.92.4 (5da689c313, 2019-01-14)"><metadata
     id="metadata222"><rdf:RDF><cc:Work
         rdf:about=""><dc:format>image/svg+xml</dc:format><dc:type
           rdf:resource="http://purl.org/dc/dcmitype/StillImage" /><dc:title></dc:title></cc:Work></rdf:RDF></metadata><defs
     id="defs220" /><sodipodi:namedview
     pagecolor="#ffffff"
     bordercolor="#666666"
     borderopacity="1"
     objecttolerance="10"
     gridtolerance="10"
     guidetolerance="10"
     inkscape:pageopacity="0"
     inkscape:pageshadow="2"
     inkscape:window-width="1920"
     inkscape:window-height="1028"
     id="namedview218"
     showgrid="false"
     fit-margin-top="0"
     fit-margin-left="0"
     fit-margin-right="0"
     fit-margin-bottom="0"
     inkscape:zoom="0.61279461"
     inkscape:cx="-76.029926"
     inkscape:cy="55.887498"
     inkscape:window-x="0"
     inkscape:window-y="28"
     inkscape:window-maximized="1"
     inkscape:current-layer="Capa_1"
     inkscape:pagecheckerboard="true" /><path
     d="m 348.48029,12.192211 c -1.2017,-1.373371 -2.83258,-2.2317274 -4.63513,-2.4033988 L 332.68653,8.84462 c -2.91842,-0.2575069 -6.0085,1.373371 -7.38187,3.94844 0,0 -14.9354,27.295739 -22.05976,40.256923 C 299.38229,38.8871 291.48541,9.4454696 291.48541,9.4454696 290.71289,6.4412216 287.96615,4.2094942 284.9619,3.8661516 L 272.6874,2.6644524 c -2.06005,-0.1716713 -3.94844,0.5150139 -5.32181,1.8025488 -0.25751,-0.9441923 -0.77252,-1.8025488 -1.45921,-2.4892341 -1.28753,-1.20169917 -3.00424,-1.71671307 -4.72096,-1.37337047 L 246.6792,3.5228089 c -2.23173,0.4291783 -3.86261,2.2317275 -4.20595,4.4634546 0,0 -2.74674,19.7422015 -4.72096,34.5917695 C 230.37042,29.445178 220.49932,11.934704 220.49932,11.934704 219.38346,9.9604836 217.0659,8.84462 214.83417,9.359634 l -16.22294,3.347591 c -1.71671,0.343342 -3.09008,1.459206 -3.77677,3.090083 -0.68668,1.545042 -0.60085,3.347591 0.25751,4.806797 l 11.58781,19.484694 c -1.11586,0.171671 -2.14589,0.343343 -3.17592,0.686685 -1.03003,0.257507 -2.14589,1.2017 -3.34759,1.2017 -0.85835,0 -2.14589,-0.772521 -3.34759,-1.030028 -1.2017,-0.343343 -2.48923,-0.60085 -3.77677,-0.60085 -1.37337,0 -2.91841,0.686685 -4.29178,0.60085 -1.54504,-0.08584 -3.00425,-1.030028 -4.72096,-1.030028 -3.69094,-0.171672 -8.32606,-0.343343 -11.41614,0.944192 -1.11587,0.429178 -2.57507,2.57507 -3.77677,2.57507 -1.03003,0 -2.83258,-1.630878 -3.77677,-1.97422 -4.37762,-1.630878 -9.09858,-1.888385 -13.39036,-0.772521 -1.2017,0.343342 -2.74675,1.37337 -4.12012,1.37337 -0.94419,0 -2.06005,-0.772521 -3.17592,-1.030028 -1.20169,-0.343342 -2.57507,-0.600849 -3.77676,-0.600849 -1.54505,0 -3.17592,0.686685 -4.54929,0.600849 -1.45921,-0.08584 -3.00425,-1.030028 -4.54929,-1.030028 -2.1459,-0.08584 -4.72097,0.08584 -6.95269,0.171672 -1.2017,0.08583 -2.66091,0.600849 -3.77677,0.429178 -1.2017,-0.171671 -2.31756,-1.37337 -3.34759,-1.630877 -3.17592,-0.944193 -11.93116,-0.60085 -14.76373,0.343342 -0.9442,0.257507 -2.48924,1.716713 -3.69094,1.802549 -1.11586,0.08584 -2.57507,-0.944192 -3.94844,-1.030028 -3.51926,-0.343343 -11.50197,-0.257507 -13.99121,0.772521 -1.11586,0.429178 -2.57507,2.918412 -3.77677,2.918412 -0.68668,0 -1.80255,-1.201699 -2.57507,-1.630877 C 68.570211,38.28625 58.012425,38.028743 51.40308,41.118827 49.514695,41.977184 48.22716,43.522225 46.081269,44.037239 47.797982,36.226195 42.390336,33.479454 37.240196,30.475206 33.635099,28.41515 29.343316,27.127615 25.223204,26.784272 14.322076,26.011751 6.33936,30.904384 3.335112,37.771236 0.76004204,43.43639 1.618398,50.989928 4.279304,55.539217 c 0.600849,1.030028 2.832576,3.004248 2.746741,4.377619 0,0.772521 -1.030028,1.545042 -1.630878,2.317563 -1.802548,2.060055 -4.205947,4.463454 -4.97846796,6.866852 -1.63087704,4.54929 1.88838496,8.240223 4.29178296,10.47195 4.720961,4.377619 11.931157,7.725209 20.943901,7.12436 6.008496,-0.429178 10.815292,-2.403399 14.42039,-5.15014 0.944192,-0.686685 2.660905,-3.004248 3.690933,-3.004248 1.201699,0 2.57507,2.317563 3.519262,3.004248 6.781017,5.321811 19.742201,6.781017 27.381572,1.630878 1.71672,-1.115864 2.91842,-2.746741 4.72096,-3.690933 4.12012,4.549289 10.30028,8.49773 18.5405,7.725209 1.45921,-0.08584 3.00425,-0.944192 4.72097,-0.944192 1.28753,0 2.48923,0.600849 3.69093,0.77252 3.34759,0.343343 7.29603,0.257507 10.81529,-0.171671 1.28754,-0.171671 2.74674,-1.115863 4.12011,-1.201699 0.77252,-0.08584 1.71672,0.257507 2.57507,0.343343 3.09009,0.171671 6.78102,0.08584 9.69943,-0.171672 1.11587,-0.08584 2.31756,-0.686685 3.34759,-0.600849 1.11587,0.08583 2.31757,0.858356 3.51926,1.030028 3.09009,0.600849 8.24023,0.77252 11.41615,0.429178 2.14589,-0.171671 3.8626,-1.630878 5.49348,-1.802549 3.51926,-0.343343 7.81104,1.630878 11.84532,1.201699 1.11586,-0.08584 2.31756,-0.858356 3.34759,-0.944192 1.03003,0 2.31756,0.686685 3.51926,0.772521 3.26176,0.257507 7.38187,0.171671 10.47195,-0.171671 1.11587,-0.08584 2.14589,-0.686686 3.17592,-0.60085 1.11586,0.08584 2.14589,0.858357 3.17592,1.030028 1.71671,0.343343 3.69093,0.343343 5.66515,0.343343 3.17592,0 6.09434,0.343342 8.32606,-0.343343 1.03003,-0.343343 1.88839,-1.201699 3.00425,-1.373371 1.88839,-0.257507 4.03428,0.515014 5.92266,0.772521 2.14589,0.257507 4.37762,0.772521 6.35184,0.429179 4.37762,-0.60085 5.57932,-4.978469 6.18017,-9.69943 l 6.69518,11.330307 c 1.11586,1.888385 3.34759,2.918412 5.57932,2.489234 l 9.69943,-1.802549 c 2.14589,-0.429178 3.8626,-2.145891 4.20594,-4.291783 l 0.17167,-1.030027 c 0.25751,0.944192 0.68669,1.888384 1.28754,2.660905 1.11586,1.459206 2.83258,2.403398 4.72096,2.57507 l 9.8711,0.858356 c 3.69093,0.343343 6.95269,-2.317562 7.4677,-5.92266 0,0 1.37337,-10.042772 2.74674,-19.999708 3.34759,11.501978 6.69518,23.003956 6.69518,23.003956 0.85836,2.918412 3.51927,5.150139 6.52351,5.493482 l 6.60935,0.686685 c 2.91841,0.343343 6.0085,-1.287535 7.4677,-3.776769 0,0 5.92266,-10.214443 11.75949,-20.428886 -0.85836,9.527758 -1.63088,19.141351 -1.63088,19.141351 0,0.171672 0,0.429179 0,0.60085 0,3.519262 2.66091,6.52351 6.18017,6.866853 l 11.84532,1.201699 c 1.80255,0.171671 3.6051,-0.343343 5.0643,-1.545042 1.45921,-1.201699 2.31756,-2.832577 2.48924,-4.635125 L 350.197,17.599857 c 0,-2.231727 -0.51501,-4.034276 -1.71671,-5.407646 z M 39.901102,72.448842 c -1.030028,1.888384 -2.403399,3.34759 -4.120112,4.54929 -1.716713,1.201699 -3.605097,2.060055 -5.750989,2.660905 -2.145891,0.60085 -4.291783,0.858357 -6.437674,0.858357 -4.291783,0 -7.896881,-0.772521 -10.815293,-2.403399 C 9.858622,76.483118 7.197716,74.079719 4.880153,70.9038 l 4.978469,-6.266003 c 0.429178,-0.60085 1.287535,-0.60085 1.716713,-0.08584 0,0 0.60085,0.60085 1.545042,1.373371 0.944192,0.772521 2.060056,1.459206 3.175919,2.060056 1.115864,0.600849 2.317563,1.030028 3.519262,1.459206 1.201699,0.343342 2.317563,0.600849 3.347591,0.600849 1.030027,0 1.802548,-0.171671 2.317562,-0.600849 0.515014,-0.343343 0.772521,-1.115864 0.772521,-2.060056 0,-0.858357 -0.515014,-1.716713 -1.459206,-2.489234 C 23.849834,64.122779 22.648135,63.264422 21.188928,62.406066 19.729722,61.547709 18.18468,60.603517 16.553803,59.573489 14.922926,58.543461 13.377884,57.427598 11.918678,56.054227 10.459471,54.680857 9.257772,53.135815 8.31358,51.419102 7.369387,49.702389 6.854374,47.642333 6.854374,45.32477 c 0,-2.231727 0.429178,-4.205947 1.287534,-5.92266 0.858357,-1.716713 1.974221,-3.090084 3.433427,-4.205947 1.459206,-1.115864 3.090084,-1.97422 4.978468,-2.57507 1.888384,-0.60085 3.862605,-0.858357 6.008496,-0.858357 3.776769,0 7.12436,0.686686 10.042772,2.060056 3.004248,1.373371 5.836825,3.433426 8.49773,6.094332 l -4.034276,6.266003 c -0.429178,0.600849 -1.201699,0.772521 -1.716713,0.257507 0,0 -1.030028,-0.858357 -2.145892,-1.630878 -1.115863,-0.686685 -2.231727,-1.37337 -3.261754,-1.888384 -1.115864,-0.515014 -2.060056,-0.858357 -3.004248,-1.115864 -0.944193,-0.257507 -1.716714,-0.343342 -2.489235,-0.343342 -0.858356,0 -1.459206,0.171671 -1.888384,0.600849 -0.429178,0.429179 -0.60085,0.944192 -0.60085,1.630878 0,0.858356 0.515014,1.630877 1.459207,2.317562 0.944192,0.686686 2.145891,1.459207 3.605097,2.231728 1.459206,0.77252 3.004248,1.630877 4.635126,2.575069 1.630877,0.944192 3.175919,2.145892 4.635125,3.433427 1.459206,1.37337 2.660905,3.004248 3.605098,4.892632 0.944192,1.888384 1.459206,4.120111 1.459206,6.781017 0.08584,2.489234 -0.429178,4.720961 -1.459206,6.52351 z m 18.36883,-5.15014 c 1.115864,1.373371 2.660906,2.060056 4.463454,2.060056 0.515014,0 1.030028,-0.08584 1.716714,-0.343342 0.600849,-0.257507 1.201699,-0.60085 1.802548,-1.030028 0.60085,-0.429179 1.115864,-0.944193 1.545042,-1.545042 0.429179,-0.60085 0.772521,-1.287535 0.944192,-2.060056 l 8.240228,2.317563 c 0.68668,0.171671 1.11586,0.944192 0.94419,1.630877 0,0 -0.94419,3.004248 -1.97422,4.635126 -1.03003,1.716713 -2.23173,3.090083 -3.69094,4.120111 -1.373366,1.115864 -2.918408,1.888385 -4.635121,2.403399 -1.716713,0.515014 -3.433426,0.772521 -5.150139,0.772521 -3.090084,0 -5.836825,-0.515014 -8.068552,-1.459207 -2.231727,-0.944192 -4.120112,-2.317562 -5.579318,-3.94844 -1.459206,-1.630877 -2.57507,-3.605097 -3.261755,-5.750989 -0.686685,-2.145891 -1.030028,-4.463454 -1.030028,-6.952688 0,-2.832577 0.343343,-5.321811 1.115864,-7.553538 0.772521,-2.231727 1.888384,-4.205947 3.433426,-5.836825 1.459206,-1.630877 3.347591,-2.832576 5.493482,-3.690933 2.231727,-0.858356 4.720961,-1.287535 7.467702,-1.287535 4.54929,0 8.240223,1.2017 10.901129,3.519262 2.74674,2.403399 4.46345,5.493482 5.40765,9.356087 l -8.497734,2.145891 c -0.686685,0.171672 -1.545042,-0.257507 -1.802549,-0.944192 0,0 -0.429178,-1.030028 -1.37337,-1.97422 -0.944193,-0.944192 -2.403399,-1.459206 -4.377619,-1.459206 -0.686685,0 -1.287535,0.171671 -1.97422,0.429178 -0.686685,0.343343 -1.287535,0.772521 -1.802549,1.287535 -0.515014,0.60085 -0.944192,1.287535 -1.287535,2.231727 -0.343342,0.858357 -0.515014,1.97422 -0.515014,3.175919 -0.171671,2.489234 0.429179,4.377619 1.545042,5.750989 z m 48.153798,13.819541 c -0.77252,0 -1.37337,-0.600849 -1.37337,-1.287535 0,-0.429178 0.34335,-1.630877 -0.2575,-1.802549 -0.42918,-0.171671 -0.9442,0.515014 -1.2017,0.772521 -0.68669,0.515014 -1.37337,0.944193 -2.14589,1.287535 -0.77252,0.343343 -1.54505,0.686686 -2.4034,0.858357 -0.85836,0.171671 -1.63088,0.343342 -2.48924,0.343342 -2.74674,0 -5.15014,-0.343342 -7.12436,-1.115863 -1.97422,-0.772521 -3.60509,-1.888385 -4.89263,-3.261755 -1.28753,-1.373371 -2.23172,-3.090084 -2.83257,-5.150139 -0.60085,-2.060056 -0.9442,-4.291783 -0.9442,-6.781017 0,-1.802549 0.0858,-3.776769 0.25751,-6.008496 0.17167,-2.231727 0.34334,-4.377619 0.60085,-6.351839 0.25751,-2.317563 0.51501,-4.635125 0.85836,-7.038524 l 12.01699,-0.08584 c 0.77252,0 1.28753,0.60085 1.11586,1.287535 0,0 -0.51501,2.832577 -0.77252,5.15014 -0.25751,1.97422 -0.42918,4.120111 -0.68668,6.437674 -0.25751,2.403398 -0.34335,4.635126 -0.34335,7.038524 0,1.37337 0.42918,2.489234 1.2017,3.433426 0.77252,0.944192 1.97422,1.459206 3.6051,1.459206 1.45921,0 2.74674,-0.515014 3.8626,-1.459206 1.11587,-0.944192 1.63088,-2.231727 1.63088,-3.862604 0,-2.145892 0,-4.034276 0,-5.579318 0,-1.545042 -0.0858,-3.090084 -0.17167,-4.635126 -0.0858,-1.459206 -0.17167,-3.090083 -0.25751,-4.720961 -0.0858,-1.630877 -0.2575,-3.605097 -0.34334,-5.836824 L 114.83563,43.9514 c 0.77252,0 1.37337,0.600849 1.37337,1.287535 0,0 0.17167,5.32181 0.25751,8.326058 0.0858,3.004248 0.2575,5.922661 0.34334,8.841073 0.0858,2.918412 0.25751,5.836825 0.34334,8.841073 0.0858,3.004248 0.25751,6.180167 0.34334,9.613593 z m 63.60423,-9.098579 c -0.34335,2.660905 -0.77252,5.493482 -1.28754,8.411894 l -11.58781,-1.545042 c -0.77252,-0.08584 -1.2017,-0.772521 -1.03003,-1.459206 0,0 1.37337,-6.094332 1.80255,-8.926908 0.42918,-2.832577 0.68668,-5.15014 0.68668,-6.952689 0,-1.888384 -0.2575,-3.261755 -0.77252,-4.120111 -0.51501,-0.772521 -1.28753,-1.201699 -2.23172,-1.201699 -1.54505,0 -2.57507,1.115863 -2.91842,3.261755 -0.34334,2.145891 -0.60085,5.493482 -0.60085,9.956936 0,0.600849 0,1.37337 0,2.403398 0,0.944192 0.0858,1.97422 0.0858,3.090084 0,1.030028 0.0858,2.145891 0.17167,3.175919 0.0858,1.030028 0.17167,1.888385 0.25751,2.57507 l -11.41614,-0.257507 c -0.77253,0 -1.28754,-0.60085 -1.28754,-1.373371 0,0 0,-1.115863 0.0858,-2.145891 0.0858,-1.030028 0.0858,-2.060056 0.0858,-3.175919 0,-1.115864 0,-2.489234 0,-4.034276 0,-1.545042 0,-3.519262 0,-5.922661 0,-0.944192 0,-1.888384 -0.0858,-2.832576 -0.0858,-0.944192 -0.17168,-1.716713 -0.42918,-2.403399 -0.17167,-0.686685 -0.51502,-1.287534 -0.77252,-1.716713 -0.34335,-0.429178 -0.77252,-0.600849 -1.28754,-0.600849 -1.2017,0 -1.97422,0.343342 -2.31756,1.030028 -0.34334,0.686685 -0.51501,1.37337 -0.51501,1.97422 l -0.42918,19.141351 c 0,0.772521 -0.60085,1.373371 -1.37337,1.373371 l -9.78527,0.171671 c -0.77252,0 -1.37337,-0.60085 -1.37337,-1.287535 0,0 0,-5.493482 0,-8.49773 0,-3.004248 0,-5.836825 0,-8.49773 0,-2.660905 -0.0858,-5.321811 -0.17167,-7.89688 -0.0858,-2.57507 -0.17167,-5.321811 -0.34334,-8.154388 l 10.04277,-0.257507 c 0.77252,0 1.37337,0.60085 1.45921,1.287535 0,0.171671 0.0858,0.429178 0.0858,0.60085 0,0.257507 0.0858,0.600849 0.0858,0.858356 0,0.257507 0,0.686685 0.34334,0.772521 0.34334,0 0.42918,-0.257507 0.68668,-0.429178 0.51502,-0.429178 0.9442,-0.858357 1.45921,-1.201699 0.60085,-0.429179 1.37337,-0.772521 2.14589,-1.115864 0.77252,-0.257507 1.63088,-0.429178 2.48924,-0.429178 1.80254,0 3.26175,0.429178 4.37761,1.201699 0.68669,0.429178 1.28754,1.030028 1.71672,1.716713 0.17167,0.257507 0.2575,0.429178 0.60085,0.515014 0.0858,0 0.17167,0 0.2575,0 0.34335,-0.08584 0.60085,-0.429178 0.77253,-0.686685 0.34334,-0.343343 0.68668,-0.60085 1.03002,-0.858357 0.42918,-0.257507 0.85836,-0.600849 1.28754,-0.858356 1.63088,-0.944193 3.51926,-1.459206 5.75099,-1.459206 3.00424,0 5.40764,0.429178 7.29603,1.37337 1.88838,0.944192 3.34759,2.231727 4.37762,3.862605 1.03002,1.630877 1.80255,3.605097 2.23172,5.92266 0.42918,2.317563 0.60085,4.806797 0.60085,7.553538 0.25751,2.746741 0.0858,5.32181 -0.2575,8.068552 z m 159.82599,-56.73737 c 0.42918,-0.772521 1.45921,-1.287535 2.31756,-1.201699 l 3.69094,0.343343 -3.77677,11.330306 h -7.89688 z m -57.7674,-7.3818662 12.2745,1.2016992 c 0.85836,0.085836 1.71671,0.8583566 1.97422,1.630878 l 3.43343,12.617841 h -14.24872 -0.34334 l -0.0858,0.343343 -1.80255,5.750989 h -5.92266 l 3.00425,-20.2572154 c 0,-0.7725208 0.85836,-1.3733704 1.71671,-1.2875348 z M 250.62764,50.818256 v -9.184415 l 1.2017,-1.201699 0.17167,-0.171672 v -0.171671 -2.231727 h 4.63512 l -2.23172,12.961184 z m -3.17592,-40.600265 c 0.0858,-0.858357 0.85836,-1.7167136 1.71671,-1.8883849 l 4.29178,-0.8583566 V 10.81884 l -1.11586,0.944192 -0.17167,0.171672 v 0.171671 2.403398 l -1.11586,1.2017 -0.0858,0.171671 v 0.171671 7.296031 l -1.45921,1.201699 h -4.12011 z m -47.12378,8.926908 c -0.42918,-0.772521 -0.0858,-1.459206 0.77252,-1.630878 l 13.13286,-2.746741 c 0.85836,-0.171671 1.88838,0.257507 2.31756,1.030028 l 2.74674,4.892633 h -2.91841 -0.25751 l -0.17167,0.171671 -0.85835,1.115864 h -4.37762 -0.34335 v 0.429178 5.750989 h -4.54929 z m 10.47195,10.042772 h 0.42918 v -0.429179 -5.750989 h 4.20595 0.25751 l 0.17167,-0.171671 0.85835,-1.115863 h 3.17592 l 14.16289,25.149847 -6.60935,5.493482 c -1.63088,-5.150139 -4.54929,-9.012744 -9.18441,-10.901128 -1.71672,-0.686686 -3.6051,-1.115864 -5.40765,-1.373371 l -6.43768,-10.815293 z m 12.017,42.831993 c -0.0858,0.77252 -0.17168,1.545041 -0.34335,2.317562 -0.17167,0.944192 -0.2575,1.802549 -0.34334,2.746741 -0.0858,0.60085 -0.0858,1.201699 -0.17167,1.802549 -0.0858,0.429178 -0.0858,0.944192 -0.34334,1.287535 -0.34335,0.343343 -0.77253,0.171671 -1.11587,0.08584 -0.60085,-0.08584 -1.2017,-0.171672 -1.80255,-0.257507 -1.03002,-0.08584 -1.97422,-0.257507 -3.00424,-0.343343 -1.54505,-0.171671 -3.17592,-0.429178 -4.72097,-0.60085 -0.34334,0 -0.60085,-0.08584 -0.94419,-0.08584 -0.77252,-0.08584 -1.2017,-0.772521 -1.03003,-1.459206 0,0 1.37337,-6.094332 1.80255,-8.926909 0.42918,-2.832576 0.68669,-5.150139 0.68669,-6.952688 0,-1.888384 -0.25751,-3.261755 -0.77252,-4.120112 -0.51502,-0.77252 -1.28754,-1.201699 -2.23173,-1.201699 -1.54504,0 -2.57507,1.115864 -2.91841,3.261755 -0.34334,2.145892 -0.60085,5.493482 -0.60085,9.956936 0,0.60085 0,1.373371 0,2.403399 0,0.944192 0.0858,1.97422 0.0858,3.090084 0,1.030027 0.0858,2.145891 0.17168,3.175919 0,0.600849 0.17167,1.115863 0.17167,1.716713 0,0.343343 0.0858,0.772521 -0.34335,0.858357 -0.51501,0.08583 -1.2017,0 -1.80254,0 -0.9442,0 -1.88839,0 -2.74675,-0.08584 -0.94419,0 -1.97422,0 -2.91841,-0.08584 -0.77252,0 -1.63088,0 -2.4034,-0.08584 -0.34334,0 -0.77252,0 -1.11586,0 0,0 0,0 0,0 -0.77252,0 -1.28753,-0.60085 -1.28753,-1.373371 0,0 0,-1.115864 0.0858,-2.145891 0.0858,-1.030028 0.0858,-2.060056 0.0858,-3.17592 0,-1.115863 0,-2.489234 0,-4.034276 0,-1.545041 0,-3.519262 0,-5.92266 0,-0.944192 0,-1.888384 -0.0858,-2.832577 -0.0858,-0.944192 -0.17167,-1.716713 -0.42918,-2.403398 -0.17167,-0.686685 -0.51501,-1.287535 -0.77252,-1.716713 -0.34334,-0.429178 -0.77252,-0.60085 -1.28753,-0.60085 -1.2017,0 -1.97422,0.343343 -2.31757,1.030028 -0.34334,0.686685 -0.51501,1.373371 -0.51501,1.97422 l -0.42918,19.141352 c 0,0.772521 -0.60085,1.37337 -1.37337,1.37337 l -9.78526,0.171672 c -0.77252,0 -1.37337,-0.60085 -1.37337,-1.287535 0,0 0,-5.493482 0,-8.49773 0,-3.004248 0,-5.836825 0,-8.49773 0,-2.660906 -0.0858,-5.321811 -0.17168,-7.896881 -0.0858,-2.575069 -0.17167,-5.321811 -0.34334,-8.154387 l 10.04277,-0.257507 c 0.77252,0 1.37337,0.600849 1.45921,1.287535 0,0.343342 0.0858,0.772521 0.0858,1.115863 0,0.257507 0,0.60085 0.0858,0.858357 0,0.171671 0.17167,0.429178 0.34334,0.429178 0.17168,0 0.34335,-0.08584 0.42918,-0.171671 0.0858,-0.08584 0.17167,-0.171672 0.17167,-0.257507 0.42918,-0.515014 0.9442,-0.944192 1.54505,-1.373371 0.60084,-0.429178 1.37337,-0.772521 2.14589,-1.115863 0.77252,-0.257507 1.63087,-0.429179 2.48923,-0.429179 1.80255,0 3.26176,0.429179 4.37762,1.2017 0.60085,0.429178 1.2017,0.944192 1.63088,1.545041 0.17167,0.257507 0.42918,0.60085 0.77252,0.686686 0.42918,0.08584 0.77252,-0.515014 1.03003,-0.772521 0.34334,-0.343343 0.68668,-0.60085 1.03002,-0.858357 0.42918,-0.257507 0.77252,-0.515014 1.2017,-0.772521 1.63088,-0.944192 3.51926,-1.459206 5.75099,-1.459206 0.25751,0 0.60085,0 0.85836,0 v 0 c 0.25751,0 0.60085,0 0.85835,0.08584 0.0858,0 0.0858,0 0.17168,0 0.2575,0 0.51501,0 0.68668,0.08584 0.0858,0 0.17167,0 0.25751,0 0.25751,0 0.42918,0.08584 0.60085,0.08584 0.0858,0 0.17167,0 0.2575,0.08584 0.17168,0 0.34335,0.08583 0.51502,0.08583 0.0858,0 0.25751,0.08584 0.34334,0.08584 0.17167,0 0.34334,0.08584 0.51502,0.08584 0.0858,0 0.2575,0.08584 0.34334,0.08584 0.17167,0 0.2575,0.08584 0.42918,0.08584 0.17167,0.08584 0.2575,0.08584 0.42917,0.171671 0.0858,0 0.17168,0.08584 0.25751,0.08584 0.25751,0.08584 0.42918,0.171671 0.68669,0.343343 0.17167,0.08584 0.34334,0.171671 0.51501,0.257507 0.0858,0.08583 0.25751,0.08583 0.34334,0.171671 v 0 c 1.45921,0.858357 2.66091,1.97422 3.51927,3.433426 1.03002,1.545042 1.71671,3.433427 2.14589,5.579318 v 0 c 0,0.08584 0,0.171671 0.0858,0.343343 0.42918,2.317562 0.60085,4.806796 0.60085,7.553537 0,0.686686 0,1.287535 0,1.974221 0,0 0,0 0,0 0,0.686685 -0.0858,1.287534 -0.0858,1.97422 v 0 c 0.17167,1.37337 0,2.660905 -0.17167,4.034276 z m 26.43738,9.356086 c -0.17167,0.858357 -0.94419,1.630878 -1.80255,1.802549 l -6.69518,1.287535 c -0.85836,0.171671 -1.88839,-0.343343 -2.31757,-1.030028 l -4.72096,-7.896881 9.44193,-3.519261 0.34334,-0.08584 v -0.343343 -4.205947 l 2.31756,-1.802549 h 3.34759 0.17167 l 0.0858,-0.08584 2.83258,-2.231728 z m 3.34759,-19.484694 -3.51926,2.746741 h -3.34759 -0.17168 l -0.0858,0.08584 -2.66091,2.060055 -0.17167,0.171672 v 0.257507 4.120111 l -9.27025,3.433427 -4.46345,-7.553538 c 0.2575,-5.064304 -0.0858,-9.785265 -1.2017,-13.819541 l 6.78101,-5.665153 5.49349,9.8711 c 0.42917,0.772521 0.85835,0.686685 0.94419,-0.171671 l 4.37762,-31.845029 h 4.37762 0.17167 l 0.17167,-0.08584 1.71671,-1.459206 0.17167,-0.171671 v -0.257507 -7.381866 l 1.11587,-1.2017 0.0858,-0.171671 v -0.171671 -2.403399 l 1.11587,-0.944192 0.17167,-0.171671 V 10.990511 7.2995782 l 6.18016,-1.2016992 c 0.85836,-0.1716713 1.37337,0.3433426 1.28754,1.2016992 l -5.0643,29.6991368 h -5.23598 -0.42918 v 0.429179 2.489234 l -1.2017,1.201699 -0.17167,0.171671 v 0.171672 9.8711 0.429178 h 0.42918 4.12011 z m 19.99971,20.343051 c -0.0858,0.858356 -0.9442,1.459206 -1.80255,1.37337 l -9.8711,-0.858356 c -0.85836,-0.08584 -1.45921,-0.858357 -1.28754,-1.716714 l 1.45921,-10.042771 12.87535,1.545041 z m 1.4592,-10.557786 -12.87535,-1.545042 0.9442,-6.180167 h 4.03427 l 2.14589,1.201699 0.0858,0.08584 h 0.0858 6.43768 z m 5.15014,-32.531714 c -0.25751,-0.858357 -0.51501,-0.772521 -0.68668,0.08584 l -3.51927,25.064011 h -6.43767 l -2.14589,-1.201699 -0.0858,-0.08583 h -0.0858 -4.03428 l 4.89263,-32.61755 h 6.35184 0.34335 l 0.0858,-0.343343 1.80255,-5.750989 h 14.16288 l 6.86686,25.321519 h -6.69519 -0.42917 v 0.429178 17.081296 h -2.31757 z m 59.14077,49.784681 c -0.0858,0.858357 -0.85836,1.459206 -1.71671,1.37337 l -5.75099,-0.600849 0.60085,-8.240223 3.00424,-0.429179 h 0.25751 l 0.0858,-0.257506 0.77252,-1.545042 h 3.6051 z m 0.94419,-10.557786 h -4.03427 -0.25751 l -0.0858,0.257507 -0.77252,1.545042 -3.09008,0.429178 -0.34334,0.08584 v 0.343342 l -0.60085,8.583566 -5.23598,-0.515014 c -0.85836,-0.08584 -1.4592,-0.858356 -1.4592,-1.716713 l 2.14589,-24.463162 h 6.43767 0.42918 V 62.491906 47.556501 l 2.6609,-9.613593 h 7.81105 z m 3.69093,-41.372787 h -8.24022 -0.34334 l -0.0858,0.343343 -2.74674,10.042772 v 0.08584 0.08583 14.506226 h -5.92266 l 1.37337,-15.879596 c 0.0858,-0.858357 -0.2575,-0.944192 -0.68668,-0.171672 l -22.91812,39.74191 c -0.42918,0.772521 -1.45921,1.287534 -2.31757,1.201699 l -6.60934,-0.686685 c -0.85836,-0.08584 -1.71671,-0.858357 -1.97422,-1.630878 l -4.89263,-16.566282 h 2.48923 0.42918 V 67.642045 50.560749 h 6.43767 l 4.03428,15.107076 c 0.25751,0.858356 0.77252,0.858356 1.11586,0.171671 l 21.45892,-39.141059 h 8.75523 0.34335 l 0.0858,-0.343343 3.94844,-11.845321 6.52351,0.60085 c 0.85836,0.08584 1.45921,0.858357 1.37337,1.716713 z"
     id="path215"
     inkscape:connector-curvature="0"
     style="fill:#ffffff;stroke-width:0.8583566" /></svg>