<?xml version="1.0" encoding="UTF-8" standalone="no"?>
<svg
   xmlns:dc="http://purl.org/dc/elements/1.1/"
   xmlns:cc="http://creativecommons.org/ns#"
   xmlns:rdf="http://www.w3.org/1999/02/22-rdf-syntax-ns#"
   xmlns:svg="http://www.w3.org/2000/svg"
   xmlns="http://www.w3.org/2000/svg"
   xmlns:sodipodi="http://sodipodi.sourceforge.net/DTD/sodipodi-0.dtd"
   xmlns:inkscape="http://www.inkscape.org/namespaces/inkscape"
   id="svg8"
   version="1.1"
   viewBox="0 0 108.47916 25.400001"
   height="96"
   width="410"
   sodipodi:docname="shmups.svg"
   inkscape:version="0.92.4 (5da689c313, 2019-01-14)">
  <sodipodi:namedview
     pagecolor="#ffffff"
     bordercolor="#666666"
     borderopacity="1"
     objecttolerance="10"
     gridtolerance="10"
     guidetolerance="10"
     inkscape:pageopacity="0"
     inkscape:pageshadow="2"
     inkscape:window-width="1920"
     inkscape:window-height="1028"
     id="namedview11"
     showgrid="false"
     inkscape:zoom="1.0425"
     inkscape:cx="37.410072"
     inkscape:cy="71.16307"
     inkscape:window-x="0"
     inkscape:window-y="28"
     inkscape:window-maximized="1"
     inkscape:current-layer="svg8"
     inkscape:pagecheckerboard="true" />
  <defs
     id="defs2" />
  <metadata
     id="metadata5">
    <rdf:RDF>
      <cc:Work
         rdf:about="">
        <dc:format>image/svg+xml</dc:format>
        <dc:type
           rdf:resource="http://purl.org/dc/dcmitype/StillImage" />
        <dc:title></dc:title>
      </cc:Work>
    </rdf:RDF>
  </metadata>
  <path
     inkscape:connector-curvature="0"
     id="path1050"
     d="m 68.274288,3.3076889 c 0,4.1959713 0,8.3919511 0,12.5879221 1.17235,0.986035 2.344601,1.972206 3.51687,2.958345 1.115387,-0.955222 2.230422,-1.910849 3.345651,-2.866253 0,2.362689 0,4.72538 0,7.08807 1.141265,0.78677 1.97659,2.39336 3.55033,2.023133 0.466549,-0.809786 0.06992,-2.48275 0.201523,-3.627481 0,-1.744982 0,-3.489964 0,-5.234954 1.507782,-1.112065 3.015563,-2.224107 4.523311,-3.336204 C 80.821304,11.350209 78.068366,9.8931016 75.577647,8.285232 75.457694,7.1826985 74.013868,6.6555637 73.365582,5.7826872 72.379807,4.7306674 71.646891,4.3927087 70.843222,3.4998144 69.986911,2.5866398 69.130599,1.6734571 68.274288,0.76027449 c 0,0.84914601 0,1.69826841 0,2.54741441 z"
     style="font-style:normal;font-variant:normal;font-weight:normal;font-stretch:normal;font-size:medium;line-height:1.25;font-family:'Fujita Ray';-inkscape-font-specification:'Fujita Ray';letter-spacing:0px;word-spacing:0px;opacity:1;fill:none;fill-opacity:1;stroke:#ffffff;stroke-width:0.49678126;stroke-opacity:1" />
  <path
     inkscape:connector-curvature="0"
     style="font-style:normal;font-variant:normal;font-weight:normal;font-stretch:normal;font-size:medium;line-height:1.25;font-family:Arwing;-inkscape-font-specification:Arwing;letter-spacing:0px;word-spacing:0px;opacity:1;fill:#ffffff;fill-opacity:1;stroke:none;stroke-width:0.33414963"
     d="m 42.107583,4.7405333 0.0047,2.7052516 -9.970436,0.00803 c -1.446819,0 -2.978912,0.5434639 -3.335417,1.5913497 l -0.0067,-1.5913497 h -4.499704 c -1.639716,0 -2.356006,0.3994433 -2.713127,1.3721071 -0.0043,-1.1845289 0.04212,-1.3567558 0.04212,-1.3567558 l -1.99204,-0.00938 H 5.236928 C 5.383073,9.7129819 4.934517,12.041249 5.476241,14.249488 4.380258,14.4735 2.546585,13.59114 2.360455,15.179572 1.573736,17.068487 0.786793,18.957449 0,20.846325 c 3.739124,-0.08111 7.499279,0.15189 11.227613,-0.09564 0.7585,-0.004 1.794494,0.162822 2.804836,0.08227 2.012507,-0.03641 7.741758,0.01288 9.752771,0.02592 2.362477,-0.0101 3.653129,-0.588357 4.060439,-1.668495 v 1.644494 c 0,0 2.710073,3.2e-5 4.123813,-0.01057 3.44669,0.01057 4.333299,0.102768 5.281011,-1.633866 v 1.644488 l 6.190636,0.01137 c 0.0021,-2.248799 0.0032,-6.749562 0.0032,-6.749562 l 1.99086,1.585054 v 5.151138 l 2.265595,0.0024 h 0.953708 l 4.20883,3.108709 3.914412,-3.108709 h 0.368021 l 0.793903,1.486648 0.783276,-1.488613 h 10.169175 c -0.931496,-2.146123 -2.794603,-6.438248 -2.794603,-6.438248 l -1.058013,-0.0016 -0.0019,-2.618272 c 0,0 10e-7,-2.8856429 0,-4.3284883 h -5.99659 L 57.875518,10.037082 56.840333,7.4542436 c 0,0 -6.166695,0.038319 -9.587454,-0.00803 C 45.554874,6.51225 43.824402,5.6395564 42.107659,4.740954 Z m 1.660623,3.3952403 0.692747,0.3597653 1.978264,1.0694221 v 4.597712 L 43.765843,12.03759 c 0.01161,0.0064 0.0023,-3.9018164 0.0023,-3.9018164 z m -7.48757,1.3984928 h 6.803091 v 2.6198376 h -2.018414 v 6.749952 h -2.95362 v -6.803471 h -1.831057 z m 10.809212,0 h 5.426647 v 2.4860086 h -2.60646 v 1.269776 h 1.764143 v 1.871203 h -1.831056 v 1.323302 h 2.726902 v 4.718162 l -2.884345,-2.31205 h -2.595831 z m 6.082394,0 h 2.71352 l 2.004636,4.2906946 2.05856,-4.2906946 h 2.713127 v 6.9487156 h 1.752726 l 1.045026,2.407686 h -5.56441 v -4.143477 l -1.951498,4.063191 -1.897968,-4.063191 v 4.170245 l -2.873719,2.293939 z M 6.891648,9.5476223 h 5.760819 V 12.100562 H 9.565021 v 0.695092 c 0.579191,0.0089 1.091499,0.12029 1.537032,0.334175 0.187123,0.08911 0.369686,0.209464 0.547898,0.360942 0.187126,0.142573 0.352193,0.320659 0.494764,0.534512 0.142571,0.21386 0.253975,0.467971 0.33417,0.762015 0.08911,0.294059 0.133433,0.632344 0.133433,1.015514 -0.02673,0.579182 -0.138134,1.096356 -0.334171,1.550805 -0.08911,0.196037 -0.200512,0.387542 -0.334172,0.574667 -0.13366,0.178205 -0.298334,0.342888 -0.49437,0.494365 -0.187123,0.142574 -0.414405,0.258444 -0.681724,0.347562 -0.26732,0.0891 -0.574704,0.133821 -0.92222,0.133821 H 2.661957 l 1.069034,-2.566279 h 5.03186 c 0.222766,0.0089 0.419139,-0.0089 0.588442,-0.05358 0.15148,-0.04444 0.284852,-0.115687 0.40069,-0.213725 0.12475,-0.106927 0.187356,-0.272006 0.187356,-0.494771 0.0089,-0.124742 -0.02687,-0.236152 -0.107061,-0.334159 C 9.760992,15.152405 9.645116,15.067834 9.484725,14.987644 9.324333,14.907469 9.083634,14.853783 8.762851,14.827039 8.415335,14.809232 8.107952,14.724637 7.840632,14.573167 7.608955,14.457329 7.395089,14.265823 7.199054,13.998508 7.00302,13.731176 6.900559,13.361592 6.891648,12.889312 Z m 6.377206,0 h 2.940631 v 3.3149537 h 1.53703 V 9.5476223 h 2.940238 v 9.3429827 h -2.940238 v -3.034306 h -1.53703 v 3.034306 h -2.940631 z m 11.274845,0 h 3.622356 v 4.8921297 c 0.0089,0.837602 -0.111438,1.581658 -0.360937,2.232136 -0.106926,0.276228 -0.249637,0.547844 -0.427848,0.815168 -0.169302,0.267308 -0.387249,0.508007 -0.654567,0.721868 -0.267321,0.204948 -0.588122,0.369623 -0.962367,0.494365 -0.365337,0.12475 -0.793071,0.182896 -1.283156,0.173984 h -3.140977 v -5.293226 c 0.01783,-0.739572 0.142251,-1.403144 0.373926,-1.991246 0.09802,-0.2495 0.222838,-0.494676 0.37432,-0.735264 0.151481,-0.24058 0.338513,-0.454441 0.561281,-0.641574 0.231677,-0.196029 0.503679,-0.3517593 0.815553,-0.4676055 0.311873,-0.124742 0.672526,-0.1918234 1.082416,-0.2007352 z m 7.492291,0 h 3.622356 v 4.8921297 c 0.0089,0.837602 -0.111436,1.581658 -0.360936,2.232136 -0.106927,0.276228 -0.249636,0.547844 -0.42785,0.815168 -0.169302,0.267308 -0.38764,0.508007 -0.65496,0.721868 -0.267318,0.204948 -0.587726,0.369623 -0.961974,0.494365 -0.365335,0.12475 -0.793069,0.182896 -1.283154,0.173984 H 28.8281 v -5.293226 c 0.01783,-0.739572 0.142647,-1.403144 0.374321,-1.991246 0.09802,-0.2495 0.222837,-0.494676 0.37432,-0.735264 0.15148,-0.24058 0.338523,-0.454441 0.56128,-0.641574 0.231678,-0.196029 0.503679,-0.3517593 0.815552,-0.4676055 0.311875,-0.124742 0.672528,-0.1918234 1.082417,-0.2007352 z m -8.133869,2.5930787 v 4.276925 h 1.497276 v -4.276925 z m 7.492292,0 v 4.276925 h 1.497277 v -4.276925 z"
     id="path1135" />
  <path
     inkscape:connector-curvature="0"
     id="path828"
     style="font-style:normal;font-variant:normal;font-weight:normal;font-stretch:normal;font-size:medium;line-height:1.25;font-family:'Fujita Ray';-inkscape-font-specification:'Fujita Ray';letter-spacing:0px;word-spacing:0px;fill:#ffffff;fill-opacity:1;stroke:none;stroke-width:0.49678126;stroke-opacity:1"
     d="m 74.559787,14.582333 -0.0097,0.572457 -2.77499,2.377183 -2.50331,-2.10551 V 3.3077127 l 1.756199,1.8726415 v 9.4213688 l 0.708302,0.543353 0.931464,-0.873243 V 6.5193181 l 1.892039,1.7659139 z" />
  <path
     inkscape:connector-curvature="0"
     id="path830"
     style="font-style:normal;font-variant:normal;font-weight:normal;font-stretch:normal;font-size:medium;line-height:1.25;font-family:'Fujita Ray';-inkscape-font-specification:'Fujita Ray';letter-spacing:0px;word-spacing:0px;fill:#ffffff;fill-opacity:1;stroke:none;stroke-width:0.49678126;stroke-opacity:1"
     d="m 77.608943,12.059699 v 1.290477 l -1.465122,0.970271 -0.0097,-4.4729779 5.433543,3.1534039 -3.696748,2.726478 v 8.363784 h -0.03876 L 76.134159,22.616299 V 15.13548 l 3.124287,-2.095787 -1.503931,-0.902363 q -0.04852,-0.04849 -0.145532,-0.07767 z" />
</svg>
