<?xml version="1.0" encoding="UTF-8" standalone="no"?>
<svg
   xmlns:dc="http://purl.org/dc/elements/1.1/"
   xmlns:cc="http://creativecommons.org/ns#"
   xmlns:rdf="http://www.w3.org/1999/02/22-rdf-syntax-ns#"
   xmlns:svg="http://www.w3.org/2000/svg"
   xmlns="http://www.w3.org/2000/svg"
   xmlns:sodipodi="http://sodipodi.sourceforge.net/DTD/sodipodi-0.dtd"
   xmlns:inkscape="http://www.inkscape.org/namespaces/inkscape"
   width="410"
   height="96"
   viewBox="0 0 108.47916 25.400001"
   version="1.1"
   id="svg8"
   sodipodi:docname="sports.svg"
   inkscape:version="0.92.4 (5da689c313, 2019-01-14)">
  <sodipodi:namedview
     pagecolor="#ffffff"
     bordercolor="#666666"
     borderopacity="1"
     objecttolerance="10"
     gridtolerance="10"
     guidetolerance="10"
     inkscape:pageopacity="0"
     inkscape:pageshadow="2"
     inkscape:window-width="1920"
     inkscape:window-height="1028"
     id="namedview9"
     showgrid="false"
     inkscape:pagecheckerboard="true"
     inkscape:zoom="0.655"
     inkscape:cx="36.641221"
     inkscape:cy="75"
     inkscape:window-x="0"
     inkscape:window-y="28"
     inkscape:window-maximized="1"
     inkscape:current-layer="svg8" />
  <defs
     id="defs2" />
  <metadata
     id="metadata5">
    <rdf:RDF>
      <cc:Work
         rdf:about="">
        <dc:format>image/svg+xml</dc:format>
        <dc:type
           rdf:resource="http://purl.org/dc/dcmitype/StillImage" />
        <dc:title></dc:title>
      </cc:Work>
    </rdf:RDF>
  </metadata>
  <path
     id="path835"
     d="m 22.068175,0.13233632 c -0.929972,0 -1.612151,0.1126555 -2.046137,0.3380985 -0.41332,0.2135775 -0.619847,0.56959368 -0.619847,1.06794548 v 3.2925792 3.2571492 3.3637753 3.346229 c 0,0.901761 0.847198,1.358393 2.541812,1.370277 h 2.105523 a 5.6147275,5.6147275 0 0 1 2.885308,-1.584203 V 8.9778948 1.4847303 C 26.914164,0.58295192 26.077347,0.13233632 24.424066,0.13233632 Z m -19.559093,0.017545 c -0.743977,0 -1.332763,0.1186679 -1.76675,0.3559823 C 0.308346,0.73130652 0.091105,1.0518954 0.091105,1.4671829 v 3.4882846 c 0,0.2017151 0.01038,0.3678576 0.03104,0.4983745 0.04133,0.1305213 0.165518,0.2849628 0.372178,0.4629452 0.20666,0.1779822 0.526996,0.4032882 0.960982,0.6761964 0.454653,0.2729049 1.094987,0.6526566 1.921627,1.1391423 0.289325,0.1661155 0.506566,0.3025059 0.651228,0.4092946 0.144662,0.094927 0.247757,0.2015599 0.309755,0.3202147 0.08266,0.1067888 0.124171,0.2435161 0.124171,0.4096323 v 0.6761969 l 0.03104,4.9834086 H 3.098223 V 9.5653494 H 0.029356 v 5.2503096 h 0.06175 v 0.284786 c 0,0.308504 0.227281,0.563561 0.681933,0.765276 0.454652,0.20171 0.981852,0.302669 1.581167,0.302669 h 2.789816 c 0.743977,0 1.333101,-0.112655 1.767087,-0.338099 0.433987,-0.225442 0.65089,-0.545685 0.65089,-0.960981 v -0.890123 l 0.06208,-4.6631937 c 0,-0.415292 -0.02075,-0.7415564 -0.06208,-0.9788661 C 7.541333,8.0998181 7.448278,7.8805247 7.28295,7.678814 7.138287,7.4770988 6.890253,7.2634945 6.538931,7.038047 6.187609,6.8126034 5.69154,6.5100707 5.050893,6.1303774 4.575575,5.8337358 4.203691,5.6020715 3.935033,5.4359598 3.687041,5.2698396 3.500932,5.1274362 3.376935,5.0087817 3.252936,4.8782603 3.180635,4.7539086 3.159972,4.6352537 3.139302,4.5047369 3.129262,4.3325771 3.129262,4.1189957 L 3.159972,1.7519695 H 4.585924 V 4.4216646 H 7.561999 V 1.2357117 C 7.561999,0.92721232 7.334718,0.67215002 6.880066,0.47043482 6.425414,0.25685342 5.898214,0.14988252 5.2989,0.14988252 Z m 6.903011,0 V 16.168389 h 2.945032 V 8.9778948 c 0.454653,0 0.857666,0.00601 1.208989,0.017885 0.371989,0 0.733494,-0.00601 1.084817,-0.017885 0.599315,-0.011864 1.116137,-0.1305386 1.550123,-0.3559822 0.454653,-0.225443 0.681933,-0.4982192 0.681933,-0.8185893 0.04133,-2.1595204 0.04133,-4.33105 0,-6.5142991 0,-0.30850338 -0.186109,-0.56958258 -0.558098,-0.78315938 -0.351323,-0.2254306 -0.795509,-0.3440985 -1.332822,-0.3559823 z m 19.97986,0 V 11.060471 14.624677 a 5.6147275,5.6147275 0 0 1 2.713223,1.543712 h 0.324939 V 7.4473417 h 1.487699 V 8.5328333 16.16839 h 3.007119 v -0.605 -7.0305567 -0.3023316 c 0.04133,-0.7356576 -0.537415,-1.2638337 -1.736045,-1.5842039 0.185994,-0.059327 0.382146,-0.1128148 0.588805,-0.1602761 0.20666,-0.047463 0.39277,-0.1066281 0.558099,-0.1778223 0.165327,-0.071194 0.299552,-0.1540919 0.402883,-0.2490183 0.10333,-0.1067886 0.155216,-0.2435162 0.155216,-0.4096322 l 0.03104,-4.342641 c 0,-0.35595998 -0.196487,-0.63475788 -0.589141,-0.83647308 -0.371989,-0.2135814 -0.971151,-0.3205523 -1.797792,-0.3205523 h -2.201015 z m 9.990099,0 V 1.7519683 h 2.231719 V 16.168389 h 3.038162 V 1.7519682 h 2.138928 V 0.14988122 Z m 11.7447,0 c -0.743975,0 -1.3331,0.1186679 -1.767086,0.3559823 -0.433987,0.2254429 -0.65089,0.54603178 -0.65089,0.96131928 v 3.4882846 c 0,0.2017151 0.01038,0.3678576 0.03104,0.4983745 0.04133,0.1305213 0.165182,0.2849628 0.371842,0.4629452 0.20666,0.1779822 0.526997,0.4032882 0.960983,0.6761964 0.454652,0.2729049 1.095322,0.6526566 1.921964,1.1391423 0.289324,0.1661155 0.506566,0.3025059 0.651227,0.4092946 0.144663,0.094927 0.247757,0.2015599 0.309755,0.3202147 0.08266,0.1067888 0.124172,0.2435161 0.124172,0.4096323 v 0.6761969 l 0.03104,4.9834086 H 51.715554 V 9.5653494 h -3.068867 v 5.2503096 h 0.06209 v 0.284786 c 0,0.308504 0.22728,0.563561 0.681931,0.765276 0.454653,0.20171 0.981852,0.302669 1.581168,0.302669 h 2.789816 c 0.743978,0 1.332764,-0.112655 1.766751,-0.338099 0.433987,-0.225442 0.651228,-0.545685 0.651228,-0.960981 v -0.890123 l 0.06175,-4.6631937 c 0,-0.415292 -0.02042,-0.7415564 -0.06175,-0.9788661 C 56.159005,8.0998181 56.06595,7.8805247 55.900621,7.678814 55.755959,7.4770988 55.507924,7.2634945 55.156601,7.038047 54.80528,6.8126034 54.309211,6.5100707 53.668563,6.1303774 53.193245,5.8337358 52.821362,5.6020715 52.552705,5.4359598 52.304711,5.2698396 52.118602,5.1274362 51.994606,5.0087817 c -0.124,-0.1305214 -0.1963,-0.2548731 -0.216963,-0.373528 -0.02067,-0.1305168 -0.03104,-0.3026766 -0.03104,-0.516258 l 0.03104,-2.3670262 h 1.425952 V 4.4216646 H 56.17967 V 1.2357117 c 0,-0.30849938 -0.22728,-0.56356168 -0.681934,-0.76527688 -0.454651,-0.2135814 -0.981849,-0.3205523 -1.581163,-0.3205523 z M 12.48096,1.7519683 h 1.333161 V 7.4473405 H 12.48096 Z m 10.021141,0 h 1.332823 V 14.513328 h -1.332823 z m 9.989762,0 h 1.333159 v 4.0399722 h -1.333159 z"
     style="font-style:normal;font-variant:normal;font-weight:normal;font-stretch:normal;font-size:medium;line-height:1.25;font-family:Sacco;-inkscape-font-specification:Sacco;text-align:center;letter-spacing:0px;word-spacing:0px;text-anchor:middle;fill:#ffffff;fill-opacity:1;stroke:none;stroke-width:0.58722234"
     inkscape:connector-curvature="0" />
  <path
     id="path815"
     d="m 33.07141,20.075798 a 4.9977247,4.9977247 0 0 1 -4.997724,4.997725 4.9977247,4.9977247 0 0 1 -4.997725,-4.997725 4.9977247,4.9977247 0 0 1 4.997725,-4.997725 4.9977247,4.9977247 0 0 1 4.997724,4.997725 z"
     style="opacity:1;fill:none;fill-opacity:1;stroke:#fffff5;stroke-width:0.6529544;stroke-miterlimit:4;stroke-dasharray:none;stroke-opacity:1"
     inkscape:connector-curvature="0" />
  <path
     id="path825"
     d="m 0,17.583207 v 0.67856 l 22.573972,2.916013 a 5.6147275,5.6147275 0 0 1 -0.115061,-1.102024 5.6147275,5.6147275 0 0 1 0.591165,-2.492549 z m 33.101925,0 a 5.6147275,5.6147275 0 0 1 0.586442,2.492549 5.6147275,5.6147275 0 0 1 -0.100216,1.037238 l 22.559127,-2.789479 v -0.740308 z"
     style="fill:#ffffff;fill-opacity:1;stroke:none;stroke-width:0.17276084px;stroke-linecap:butt;stroke-linejoin:miter;stroke-opacity:1"
     inkscape:connector-curvature="0" />
  <path
     id="path861"
     d="m 30.048096,20.075798 a 1.9744099,1.9744099 0 0 1 -1.97441,1.97441 1.9744099,1.9744099 0 0 1 -1.97441,-1.97441 1.9744099,1.9744099 0 0 1 1.97441,-1.974409 1.9744099,1.9744099 0 0 1 1.97441,1.974409 z"
     style="opacity:1;fill:#ffffff;fill-opacity:1;stroke:none;stroke-width:0.6529544;stroke-miterlimit:4;stroke-dasharray:none;stroke-opacity:1"
     inkscape:connector-curvature="0" />
</svg>
