<?xml version="1.0" encoding="UTF-8" standalone="no"?>
<!-- Generator: Adobe Illustrator 21.1.0, SVG Export Plug-In . SVG Version: 6.00 Build 0)  -->

<svg
   xmlns:dc="http://purl.org/dc/elements/1.1/"
   xmlns:cc="http://creativecommons.org/ns#"
   xmlns:rdf="http://www.w3.org/1999/02/22-rdf-syntax-ns#"
   xmlns:svg="http://www.w3.org/2000/svg"
   xmlns="http://www.w3.org/2000/svg"
   xmlns:sodipodi="http://sodipodi.sourceforge.net/DTD/sodipodi-0.dtd"
   xmlns:inkscape="http://www.inkscape.org/namespaces/inkscape"
   version="1.0"
   id="Layer_1"
   inkscape:version="0.92.4 (5da689c313, 2019-01-14)"
   sodipodi:docname="steam.svg"
   x="0px"
   y="0px"
   width="410"
   height="96"
   viewBox="0 0 410 96"
   enable-background="new 0 0 397 134.5"
   xml:space="preserve"><metadata
   id="metadata36"><rdf:RDF><cc:Work
       rdf:about=""><dc:format>image/svg+xml</dc:format><dc:type
         rdf:resource="http://purl.org/dc/dcmitype/StillImage" /><dc:title></dc:title></cc:Work></rdf:RDF></metadata><defs
   id="defs34" />
<sodipodi:namedview
   bordercolor="#666666"
   borderopacity="1"
   fit-margin-bottom="0"
   fit-margin-left="0"
   fit-margin-right="0"
   fit-margin-top="0"
   gridtolerance="10"
   guidetolerance="10"
   id="namedview35"
   inkscape:current-layer="Layer_1"
   inkscape:cx="-258.76887"
   inkscape:cy="48.05"
   inkscape:pageopacity="0"
   inkscape:pageshadow="2"
   inkscape:window-height="1028"
   inkscape:window-maximized="1"
   inkscape:window-width="1920"
   inkscape:window-x="0"
   inkscape:window-y="28"
   inkscape:zoom="0.57510005"
   objecttolerance="10"
   pagecolor="#ffffff"
   showgrid="false"
   inkscape:pagecheckerboard="true">
	</sodipodi:namedview>
<g
   id="g31"
   transform="matrix(0.74697399,0,0,0.74697399,-1.5406339,-2.0827784)">
	<path
   d="M 4.5,84.9 C 13,115 42,134.4 72.2,130.9 110.3,126.4 135.7,89.8 126.7,52.5 117.1,12.9 73.2,-7.8 37.3,10.6 16.9,20.9 5.6,37.9 2.3,60.4 c -0.2,1.7 0.4,2.2 1.8,2.8 10.1,4.2 20.2,8.4 30.4,12.6 0.9,0.4 2.2,0.1 3.3,-0.2 2.5,-0.6 5,-1.3 7.4,-2.1 1.2,-0.4 2.6,-0.9 3.3,-1.8 4.4,-6.2 8.7,-12.5 13,-18.9 0.6,-0.9 1,-2.2 1,-3.3 0.8,-12.2 10.8,-21.9 23,-22.3 12.1,-0.4 22.8,8.8 24.4,20.8 1.6,12.5 -6.3,24.5 -18.5,26.5 -5.2,0.8 -9,3.1 -12.9,6 -4,2.9 -8.1,5.7 -12.1,8.8 -1,0.8 -1.9,2.2 -2,3.5 -1.1,9.2 -7.4,15.8 -16,16.8 -8.5,1 -15.9,-4.1 -19.1,-12.8 C 29,96.1 28.6,95.1 28,94.9 20.2,91.4 12.6,88.3 4.5,84.9 Z"
   id="path3"
   inkscape:connector-curvature="0"
   style="fill:#ffffff" />
	<path
   d="m 385.7,90.6 c 3.3,0 6.2,0 9,0 0,-15.5 0,-30.9 0,-46.4 -2.7,0 -5.2,-0.1 -7.7,0.1 -0.8,0.1 -1.8,0.9 -2.1,1.6 -1.3,2.5 -2.4,5.2 -3.5,7.8 -3.5,7.9 -7,15.8 -10.7,24 -0.6,-1.1 -1,-1.9 -1.4,-2.7 -4.4,-9.5 -8.8,-19 -13.2,-28.5 -0.4,-0.8 -1.2,-2 -1.8,-2 -2.7,-0.2 -5.4,-0.1 -8.1,-0.1 0,15.7 0,31.1 0,46.3 3.1,0 6,0 9.1,0 0,-9.1 0,-17.9 0,-27.5 0.5,1 0.7,1.2 0.9,1.5 3.5,7.6 7.1,15.2 10.4,22.8 0.9,2 2.1,2.1 3.9,2.1 1.7,0 2.8,-0.2 3.6,-2.1 3.2,-7.2 6.6,-14.4 9.9,-21.6 0.4,-0.8 0.9,-1.6 1.3,-2.4 0.2,0.1 0.3,0.1 0.5,0.2 -0.1,8.9 -0.1,17.8 -0.1,26.9 z"
   id="path5"
   inkscape:connector-curvature="0"
   style="fill:#ffffff" />
	<path
   d="m 251.8,44.4 c 0,15.6 0,30.9 0,46.3 10.4,0 20.5,0 30.8,0 0,-2.8 0,-5.4 0,-8.3 -7.1,0 -14.1,0 -21,0 0,-3.8 0,-7.2 0,-10.9 6.1,0 12.1,0 18,0 0,-2.9 0,-5.5 0,-8.4 -6.1,0 -12.1,0 -18.1,0 0,-3.5 0,-6.8 0,-10.4 7.1,0 14,0 21,0 0,-2.9 0,-5.5 0,-8.2 -10.2,-0.1 -20.4,-0.1 -30.7,-0.1 z"
   id="path7"
   inkscape:connector-curvature="0"
   style="fill:#ffffff" />
	<path
   d="m 164.5,80 c -0.7,2.1 -1.7,4.6 -2.7,7.4 1.4,0.7 2.6,1.4 3.9,1.9 7.8,2.8 15.6,3.8 23.3,-0.1 5,-2.5 7.2,-7 7.2,-12.5 0,-5.3 -2.9,-8.7 -7.6,-10.8 -2.3,-1 -4.8,-1.9 -7.2,-2.8 -2.2,-0.9 -4.6,-1.6 -6.5,-2.9 -1.1,-0.7 -2.2,-2.6 -2,-3.8 0.2,-1.4 1.5,-2.8 2.7,-3.8 0.9,-0.7 2.5,-0.9 3.7,-0.7 3.9,0.7 7.8,1.6 12,2.6 0.9,-1.7 2.3,-4 3.6,-6.3 -6.5,-4.7 -17.3,-6.1 -24.2,-3 -4.9,2.1 -7.7,5.8 -8,11.3 -0.3,5.5 2.1,9.4 6.9,11.8 2.6,1.3 5.5,2.2 8.2,3.3 2,0.8 4,1.4 5.8,2.5 3.3,1.9 3.2,5.8 -0.2,7.4 -1.7,0.8 -3.8,1.4 -5.6,1.1 -4.4,-0.7 -8.6,-1.7 -13.3,-2.6 z"
   id="path9"
   inkscape:connector-curvature="0"
   style="fill:#ffffff" />
	<path
   d="m 203.3,44.4 c 0,2.7 0,5.4 0,8.3 4.7,0 9.2,0 14,0 0,12.8 0,25.3 0,37.9 3.3,0 6.4,0 9.8,0 0,-12.8 0,-25.3 0,-38.2 4.8,0 9.3,0 13.7,0 0,-2.8 0,-5.4 0,-8.1 -12.5,0.1 -24.9,0.1 -37.5,0.1 z"
   id="path11"
   inkscape:connector-curvature="0"
   style="fill:#ffffff" />
	<path
   d="m 34.2,97.4 c 4.1,7.2 11.8,9.5 18.3,6 C 59,99.9 61.4,91.9 58.1,85.3 55.4,79.6 47.4,76.1 42,79 c 2.7,1.1 5.2,2.1 7.7,3.3 5,2.4 7.2,8.1 5,13 -2.1,5 -7.7,7.2 -12.9,5.1 -2.4,-0.9 -4.7,-1.9 -7.6,-3 z"
   id="path13"
   inkscape:connector-curvature="0"
   style="fill:#ffffff" />
	<path
   d="m 4.5,84.9 c 8.1,3.4 15.7,6.5 23.3,9.7 0.6,0.3 1,1.2 1.3,1.9 3.1,8.7 10.6,13.7 19.1,12.8 8.7,-1 14.9,-7.6 16,-16.8 0.2,-1.2 1.1,-2.7 2,-3.5 3.9,-3 8,-5.9 12.1,-8.8 3.9,-2.9 7.8,-5.2 12.9,-6 12.2,-2 20.1,-14 18.5,-26.5 -1.5,-12 -12.3,-21.2 -24.4,-20.8 -12.2,0.4 -22.2,10.2 -23,22.3 -0.1,1.1 -0.4,2.4 -1,3.3 -4.2,6.4 -8.5,12.7 -13,18.9 -0.7,0.9 -2.1,1.4 -3.3,1.8 -2.4,0.8 -4.9,1.5 -7.4,2.1 -1.1,0.3 -2.4,0.6 -3.3,0.2 C 24.2,71.4 14.1,67.1 3.9,62.9 2.5,62.3 1.9,61.7 2.1,60.1 5.4,37.6 16.7,20.6 37,10.2 72.9,-8.1 116.8,12.5 126.4,52.1 135.5,89.4 110,126 71.9,130.5 42,134.4 13,115 4.5,84.9 Z"
   id="path15"
   inkscape:connector-curvature="0"
   style="fill:#ffffff" />
	<path
   d="m 385.7,90.6 c 0,-9.1 0,-18 0,-26.9 -0.2,-0.1 -0.3,-0.1 -0.5,-0.2 -0.4,0.8 -0.9,1.6 -1.3,2.4 -3.3,7.2 -6.7,14.3 -9.9,21.6 -0.8,1.8 -1.9,2.1 -3.6,2.1 -1.8,0 -3,-0.1 -3.9,-2.1 -3.4,-7.7 -6.9,-15.2 -10.4,-22.8 -0.1,-0.3 -0.3,-0.6 -0.9,-1.5 0,9.6 0,18.5 0,27.5 -3.1,0 -6,0 -9.1,0 0,-15.3 0,-30.6 0,-46.3 2.7,0 5.4,-0.1 8.1,0.1 0.7,0.1 1.5,1.2 1.8,2 4.5,9.5 8.8,19 13.2,28.5 0.4,0.8 0.8,1.6 1.4,2.7 3.7,-8.2 7.2,-16.1 10.7,-24 1.2,-2.6 2.2,-5.3 3.5,-7.8 0.4,-0.7 1.4,-1.5 2.1,-1.6 2.5,-0.2 4.9,-0.1 7.7,-0.1 0,15.5 0,30.8 0,46.4 -2.7,0 -5.6,0 -8.9,0 z"
   id="path17"
   inkscape:connector-curvature="0"
   style="fill:#ffffff" />
	<path
   d="m 335.9,90.8 c -3.2,0 -6.2,0 -9.2,0 -0.5,0 -1,-0.6 -1.4,-1 -0.2,-0.2 -0.3,-0.7 -0.4,-1 -0.9,-2.3 -1.2,-5.4 -2.9,-6.6 -1.6,-1.1 -4.6,-0.3 -7,-0.3 -1.7,0 -3.3,0 -5,0 -5.7,0 -5.9,-0.1 -7.3,5.4 -0.8,3 -2.2,4 -5.1,3.6 -1.9,-0.2 -3.8,0 -6.1,0 0.2,-0.9 0.4,-1.6 0.6,-2.2 5.2,-14 10.4,-27.9 15.5,-41.9 0.7,-2 1.7,-2.6 3.8,-2.6 7,0.1 7,0 9.5,6.6 4.8,12.7 9.7,25.4 14.5,38.1 0.1,0.5 0.2,1.1 0.5,1.9 z M 313.3,55.4 c -2.2,6.5 -4.1,12.4 -6.2,18.4 4.4,0 8.3,0 12.5,0 -2,-6 -4,-11.9 -6.3,-18.4 z"
   id="path19"
   inkscape:connector-curvature="0"
   style="fill:#ffffff" />
	<path
   d="m 251.8,44.4 c 10.4,0 20.5,0 30.8,0 0,2.7 0,5.3 0,8.2 -7,0 -14,0 -21,0 0,3.6 0,6.9 0,10.4 6,0 12,0 18.1,0 0,2.9 0,5.5 0,8.4 -6,0 -11.9,0 -18,0 0,3.7 0,7.2 0,10.9 6.9,0 13.9,0 21,0 0,2.9 0,5.5 0,8.3 -10.3,0 -20.4,0 -30.8,0 -0.1,-15.3 -0.1,-30.7 -0.1,-46.2 z"
   id="path21"
   inkscape:connector-curvature="0"
   style="fill:#ffffff" />
	<path
   d="m 164.5,80 c 4.7,0.9 8.9,1.9 13.2,2.4 1.8,0.2 3.9,-0.3 5.6,-1.1 3.4,-1.6 3.4,-5.5 0.2,-7.4 -1.8,-1 -3.9,-1.7 -5.8,-2.5 -2.7,-1.1 -5.6,-2 -8.2,-3.3 -4.8,-2.4 -7.2,-6.3 -6.9,-11.8 0.3,-5.5 3.1,-9.1 8,-11.3 6.9,-3 17.8,-1.7 24.2,3 -1.3,2.3 -2.6,4.7 -3.6,6.3 -4.3,-0.9 -8.1,-1.9 -12,-2.6 -1.2,-0.2 -2.8,0 -3.7,0.7 -1.2,0.9 -2.5,2.4 -2.7,3.8 -0.1,1.2 0.9,3 2,3.8 2,1.3 4.3,2 6.5,2.9 2.4,1 4.8,1.8 7.2,2.8 4.7,2.1 7.6,5.5 7.6,10.8 0,5.5 -2.2,9.9 -7.2,12.5 -7.7,3.9 -15.5,3 -23.3,0.1 -1.3,-0.5 -2.4,-1.2 -3.9,-1.9 1.1,-2.6 2.1,-5.1 2.8,-7.2 z"
   id="path23"
   inkscape:connector-curvature="0"
   style="fill:#ffffff" />
	<path
   d="m 203.3,44.4 c 12.6,0 24.9,0 37.5,0 0,2.7 0,5.2 0,8.1 -4.5,0 -8.9,0 -13.7,0 0,12.9 0,25.4 0,38.2 -3.4,0 -6.5,0 -9.8,0 0,-12.6 0,-25.1 0,-37.9 -4.8,0 -9.3,0 -14,0 0,-3.1 0,-5.7 0,-8.4 z"
   id="path25"
   inkscape:connector-curvature="0"
   style="fill:#ffffff" />
	<path
   d="M 102,51.1 C 102,60 94.9,67.2 86.1,67.1 77.3,67.1 70.2,59.8 70.3,50.9 70.4,42.2 77.4,35 86.1,35 94.8,35.1 102,42.3 102,51.1 Z m -4,0.1 c 0,-6.7 -5.2,-12 -11.8,-12 -6.6,0 -12,5.2 -12,11.8 0,6.6 5.3,12 11.8,12.1 6.6,0 12,-5.3 12,-11.9 z"
   id="path27"
   inkscape:connector-curvature="0"
   style="fill:#ffffff" />
	<path
   d="m 34.2,97.4 c 2.9,1.2 5.2,2.2 7.6,3.1 5.2,2 10.8,-0.2 12.9,-5.1 2.2,-5 0,-10.6 -5,-13 -2.5,-1.2 -5,-2.1 -7.7,-3.3 5.4,-2.9 13.4,0.6 16.2,6.3 3.2,6.6 0.8,14.6 -5.6,18.1 -6.6,3.4 -14.2,1 -18.4,-6.1 z"
   id="path29"
   inkscape:connector-curvature="0"
   style="fill:#ffffff" />
</g>
</svg>