<?xml version="1.0" encoding="UTF-8" standalone="no"?>
<!-- Created with Inkscape (http://www.inkscape.org/) -->

<svg
   xmlns:dc="http://purl.org/dc/elements/1.1/"
   xmlns:cc="http://creativecommons.org/ns#"
   xmlns:rdf="http://www.w3.org/1999/02/22-rdf-syntax-ns#"
   xmlns:svg="http://www.w3.org/2000/svg"
   xmlns="http://www.w3.org/2000/svg"
   xmlns:sodipodi="http://sodipodi.sourceforge.net/DTD/sodipodi-0.dtd"
   xmlns:inkscape="http://www.inkscape.org/namespaces/inkscape"
   version="1.0"
   width="410"
   height="96"
   id="svg1354"
   sodipodi:docname="wii.svg"
   inkscape:version="0.92.4 (5da689c313, 2019-01-14)">
  <metadata
     id="metadata8">
    <rdf:RDF>
      <cc:Work
         rdf:about="">
        <dc:format>image/svg+xml</dc:format>
        <dc:type
           rdf:resource="http://purl.org/dc/dcmitype/StillImage" />
        <dc:title></dc:title>
      </cc:Work>
    </rdf:RDF>
  </metadata>
  <sodipodi:namedview
     pagecolor="#ffffff"
     bordercolor="#666666"
     borderopacity="1"
     objecttolerance="10"
     gridtolerance="10"
     guidetolerance="10"
     inkscape:pageopacity="0"
     inkscape:pageshadow="2"
     inkscape:window-width="1920"
     inkscape:window-height="1028"
     id="namedview6"
     showgrid="false"
     inkscape:pagecheckerboard="true"
     fit-margin-top="0"
     fit-margin-left="0"
     fit-margin-right="0"
     fit-margin-bottom="0"
     inkscape:zoom="1.1030303"
     inkscape:cx="89.738116"
     inkscape:cy="-6.9859669"
     inkscape:window-x="0"
     inkscape:window-y="28"
     inkscape:window-maximized="1"
     inkscape:current-layer="svg1354" />
  <defs
     id="defs1357" />
  <path
     d="m 32.73006,95.660372 c -4.15182,-1.13997 -8.19907,-4.98689 -9.96949,-9.47602 C 21.5738,83.175122 17.28535,68.077772 2.25396,13.991374 L 0,5.8810841 l 10.17049,-0.0595 c 5.59377,-0.0327 10.24208,0.0187 10.32958,0.11422 0.0875,0.0956 3.89525,14.8350099 8.46167,32.7543399 l 8.30259,32.580608 3.94642,-15.103508 c 9.3716,-35.86645 10.96337,-41.65039 12.14611,-44.13463 1.59382,-3.3476899 4.37932,-5.7398199 7.68689,-6.6013299 1.74273,-0.45392 5.75883,-0.45876 7.48549,-0.009 3.64501,0.94941 6.49397,3.57756 8.06243,7.4375599 0.95646,2.35386 3.01484,9.93169 10.70186,39.3984 2.58955,9.926528 4.78281,18.227698 4.87393,18.447048 0.10313,0.24829 3.31286,-11.930448 8.5044,-32.268398 l 8.33875,-32.6671999 10.33059,-10e-4 c 8.16535,-0.001 10.30988,0.0584 10.23178,0.28417 -0.0543,0.15706 -2.2541,8.0474599 -4.88836,17.5342099 -12.58879,45.336058 -16.9712,60.560818 -18.20539,63.246598 -2.09643,4.56214 -5.61936,7.73224 -9.80417,8.82224 -1.74806,0.45532 -5.54881,0.45954 -7.28197,0.008 -2.41363,-0.62867 -3.79421,-1.45967 -5.86492,-3.53019 -1.61732,-1.61717 -2.13356,-2.3224 -3.01703,-4.12138 -1.44436,-2.94111 -2.83658,-7.73799 -11.70313,-40.322978 -2.08563,-7.66479 -3.8496,-14.09019 -3.91994,-14.27867 -0.0703,-0.18848 -2.22239,7.30612 -4.78234,16.65466 -5.62647,20.546948 -8.59033,31.161518 -9.51133,34.063188 -1.99076,6.27207 -5.61045,10.28746 -10.38287,11.51794 -1.72101,0.44373 -5.88832,0.45164 -7.48147,0.0142 z M 139.73832,64.138082 V 32.953454 h 9.70949 9.7095 v 31.184628 31.18462 h -9.7095 -9.70949 z m 39.06645,0 V 32.953454 h 9.7095 9.7095 v 31.184628 31.18462 h -9.7095 -9.7095 z M 146.70631,22.192174 c -4.40036,-0.89156 -8.04408,-4.65875 -8.79139,-9.08929 -0.91043,-5.3976599 2.6888,-10.8272899 8.114,-12.24036994 2.7687,-0.72116 6.31512,-0.34662 8.84187,0.93378004 1.51328,0.76684 3.81257,2.96756 4.58692,4.39029 2.65934,4.8860899 1.084,11.2608499 -3.51155,14.2098099 -2.54806,1.63508 -6.36839,2.37757 -9.23985,1.79578 z m 39.06645,0 c -5.69844,-1.15457 -9.73193,-6.83338 -8.81162,-12.4060499 0.70594,-4.2746 3.95033,-7.83384 8.13423,-8.92361004 2.76616,-0.72049 6.31521,-0.34658 8.83631,0.93096004 1.51872,0.76959 3.6617,2.81496 4.51876,4.31294 2.75249,4.8108699 1.18584,11.3229799 -3.43783,14.2899799 -2.54806,1.63508 -6.36838,2.37757 -9.23985,1.79578 z"
     style="fill:#ffffff;fill-opacity:1;stroke:none;stroke-width:0.22845879"
     id="path1372"
     inkscape:connector-curvature="0"
     sodipodi:nodetypes="csscscscsssssscscscssccccscssccccccccccccccccccccssscssssssssss" />
  <path
     d=""
     style="fill:#000000;stroke-width:0.22845879"
     id="path1363"
     inkscape:connector-curvature="0" />
</svg>
