<?xml version="1.0" encoding="UTF-8" standalone="no"?>
<!-- Generator: Adobe Illustrator 21.1.0, SVG Export Plug-In . SVG Version: 6.00 Build 0)  -->

<svg
   xmlns:dc="http://purl.org/dc/elements/1.1/"
   xmlns:cc="http://creativecommons.org/ns#"
   xmlns:rdf="http://www.w3.org/1999/02/22-rdf-syntax-ns#"
   xmlns:svg="http://www.w3.org/2000/svg"
   xmlns="http://www.w3.org/2000/svg"
   xmlns:sodipodi="http://sodipodi.sourceforge.net/DTD/sodipodi-0.dtd"
   xmlns:inkscape="http://www.inkscape.org/namespaces/inkscape"
   version="1.1"
   id="svg1354"
   inkscape:version="0.92.4 (5da689c313, 2019-01-14)"
   sodipodi:docname="wiiu.svg"
   x="0px"
   y="0px"
   width="410"
   height="96"
   viewBox="0 0 410 96"
   enable-background="new 0 0 1409 418"
   xml:space="preserve"><metadata
   id="metadata16"><rdf:RDF><cc:Work
       rdf:about=""><dc:format>image/svg+xml</dc:format><dc:type
         rdf:resource="http://purl.org/dc/dcmitype/StillImage" /><dc:title></dc:title></cc:Work></rdf:RDF></metadata><defs
   id="defs14" /><sodipodi:namedview
   pagecolor="#ffffff"
   bordercolor="#666666"
   borderopacity="1"
   objecttolerance="10"
   gridtolerance="10"
   guidetolerance="10"
   inkscape:pageopacity="0"
   inkscape:pageshadow="2"
   inkscape:window-width="1920"
   inkscape:window-height="1028"
   id="namedview12"
   showgrid="false"
   inkscape:pagecheckerboard="true"
   inkscape:zoom="0.18594748"
   inkscape:cx="129.0687"
   inkscape:cy="209"
   inkscape:window-x="0"
   inkscape:window-y="28"
   inkscape:window-maximized="1"
   inkscape:current-layer="svg1354" />
<g
   id="Capa_x0020_1"
   transform="matrix(0.23045259,0,0,0.23045259,-1.336625,-1.4584003)">
	<g
   id="_56610944">
		<path
   id="_56666168"
   d="m 1132.4,151.5 c 0,95.1 112.3,81.6 112.3,15 V 8.9 h -112.3 z"
   inkscape:connector-curvature="0"
   style="fill:#ffffff" />
		<path
   id="_56603080"
   d="m 977.5,251.4 c 0,47 32.4,75 80,75 h 269.9 c 40.2,0 72.6,-27.6 72.6,-67.6 V 61.5 c 0,-24 -17.8,-50 -40,-50 h -62.6 v 162.3 c 0,123.3 -214.9,122.3 -214.9,2.6 V 8.9 h -47.6 c -31,0 -57.6,19.6 -57.6,50 z"
   inkscape:connector-curvature="0"
   style="fill:#ffffff" />
		<path
   id="_56604928"
   d="m 603.9,55.7 c 0,25.6 21.6,47.2 48.6,47.2 28.4,0 50.6,-21 50.6,-47.2 0,-26.4 -22.2,-47.2 -50.6,-47.2 -27,-0.2 -48.6,20.8 -48.6,47.2 z"
   inkscape:connector-curvature="0"
   style="fill:#ffffff" />
		<path
   id="_56605920"
   d="M 695.7,420.1 V 149.5 h -83.6 v 270.7 z"
   inkscape:connector-curvature="0"
   style="fill:#ffffff" />
		<path
   id="_56605848"
   d="m 773.4,55.7 c 0,25.6 22.2,47.2 49.4,47.2 27.6,0 50,-21 50,-47.2 0,-26.4 -22.2,-47.2 -50,-47.2 -27.2,-0.2 -49.4,20.8 -49.4,47.2 z"
   inkscape:connector-curvature="0"
   style="fill:#ffffff" />
		<path
   id="_56607936"
   d="M 865.2,420.1 V 149.5 h -83.8 v 270.7 z"
   inkscape:connector-curvature="0"
   style="fill:#ffffff" />
		<path
   id="_56607472"
   d="m 479,31.3 -73,286.8 c 0,0 -56,-215.3 -65.6,-246.5 -8.8,-30.4 -27.6,-43.8 -54,-43.8 -27,0 -45.2,13.6 -54.8,43.8 -8.8,31 -64.8,246.5 -64.8,246.5 L 93.6,31.3 H 5.8 c 0,0 84.4,305.8 95.9,341.6 8.8,27.6 30.4,50 61.4,50 36.4,0 53.4,-26.4 60.8,-50 8.2,-24.4 62.8,-226.1 62.8,-226.1 0,0 54.8,201.9 62.2,226.1 8.2,23.6 25,50 60.8,50 31.8,0 52.6,-22.2 62.2,-50 11.4,-35.8 95.9,-341.6 95.9,-341.6 z"
   inkscape:connector-curvature="0"
   style="fill:#ffffff" />
	</g>
</g>
</svg>