<?xml version="1.0" encoding="UTF-8" standalone="no"?>
<!-- Generator: Adobe Illustrator 13.0.0, SVG Export Plug-In . SVG Version: 6.00 Build 14948)  -->

<svg
   xmlns:ns="&amp;#38;ns_sfw;"
   xmlns:dc="http://purl.org/dc/elements/1.1/"
   xmlns:cc="http://creativecommons.org/ns#"
   xmlns:rdf="http://www.w3.org/1999/02/22-rdf-syntax-ns#"
   xmlns:svg="http://www.w3.org/2000/svg"
   xmlns="http://www.w3.org/2000/svg"
   xmlns:sodipodi="http://sodipodi.sourceforge.net/DTD/sodipodi-0.dtd"
   xmlns:inkscape="http://www.inkscape.org/namespaces/inkscape"
   version="1.2"
   id="Ebene_1"
   x="0px"
   y="0px"
   width="410"
   height="96"
   viewBox="0 0 409.99999 95.999999"
   xml:space="preserve"
   sodipodi:docname="zmachine.svg"
   inkscape:version="0.92.4 (5da689c313, 2019-01-14)"><defs
     id="defs30" /><sodipodi:namedview
     pagecolor="#ffffff"
     bordercolor="#666666"
     borderopacity="1"
     objecttolerance="10"
     gridtolerance="10"
     guidetolerance="10"
     inkscape:pageopacity="0"
     inkscape:pageshadow="2"
     inkscape:window-width="1920"
     inkscape:window-height="1028"
     id="namedview28"
     showgrid="false"
     fit-margin-top="0"
     fit-margin-left="0"
     fit-margin-right="0"
     fit-margin-bottom="0"
     inkscape:pagecheckerboard="true"
     inkscape:zoom="1.9261671"
     inkscape:cx="245.00799"
     inkscape:cy="62.413725"
     inkscape:window-x="0"
     inkscape:window-y="28"
     inkscape:window-maximized="1"
     inkscape:current-layer="Ebene_1_1_" /><metadata
     id="metadata2"><ns:sfw><ns:slices /><ns:sliceSourceBounds
         x="677.036"
         y="490.276"
         width="566.927"
         height="89.618"
         bottomLeftOrigin="true" /></ns:sfw><rdf:RDF><cc:Work
         rdf:about=""><dc:format>image/svg+xml</dc:format><dc:type
           rdf:resource="http://purl.org/dc/dcmitype/StillImage" /><dc:title></dc:title></cc:Work></rdf:RDF></metadata><g
     id="Ebene_1_1_"
     transform="translate(0,-2.444002)"><g
       id="g6"
       style="fill:#ffffff;fill-opacity:1;stroke:none"
       transform="matrix(0.75555782,0,0,0.75555782,0,6.063868)"><path
         d="m 12,98.442 c -6.627,0 -12,-5.373 -12,-12 V 31.906 c 0,-6.628 5.373,-12 12,-12 6.627,0 12,5.371 12,12 v 54.535 c 0,6.628 -5.373,12.001 -12,12.001 z"
         id="path4"
         inkscape:connector-curvature="0"
         style="fill:#ffffff;fill-opacity:1;stroke:none" /></g><path
       d="m 132.0224,42.356332 h -27.36857 v -4.932281 h 27.36857 c 4.50615,0 8.15927,-3.653122 8.15927,-8.159269 0,-4.506902 -3.65312,-8.160024 -8.15927,-8.160024 H 94.680466 c -4.50691,0 -8.16003,3.653122 -8.16003,8.160024 0,0.153378 0,42.111015 0,42.111015 0,5.007082 4.05961,9.066694 9.0667,9.066694 5.007084,0 9.066694,-4.059612 9.066694,-9.066694 V 58.67487 h 27.36857 c 4.50615,0 8.15927,-3.653122 8.15927,-8.160024 7.5e-4,-4.505392 -3.65237,-8.158514 -8.15927,-8.158514 z"
       id="path8"
       inkscape:connector-curvature="0"
       style="fill:#ffffff;fill-opacity:1;stroke:none;stroke-width:0.75555784" /><path
       d="M 408.65025,68.7253 396.91266,27.789178 c -0.6936,-2.423074 -2.31805,-4.324813 -4.37241,-5.435483 -1.25423,-0.786536 -2.73437,-1.248182 -4.32406,-1.248182 h -43.0668 c -0.28182,0 -0.56062,0.01436 -0.83489,0.04231 -4.61419,0.423113 -8.2318,4.297613 -8.2318,9.024383 v 41.204346 c 0,5.007081 4.0581,9.066693 9.06669,9.066693 5.00709,0 9.0667,-4.059612 9.0667,-9.066693 V 37.424051 h 4.01503 v 33.953257 c 0,5.007082 4.05961,9.066694 9.0667,9.066694 5.00557,0 9.06518,-4.059612 9.06518,-9.066694 V 37.424051 h 4.56432 l 10.40101,36.268286 c 1.13334,3.953834 4.73811,6.531042 8.65643,6.531042 0.82205,0 1.65694,-0.112578 2.48805,-0.351334 4.78268,-1.37436 7.54953,-6.363308 6.17744,-11.146745 z"
       id="path10"
       inkscape:connector-curvature="0"
       style="fill:#ffffff;fill-opacity:1;stroke:none;stroke-width:0.75555784" /><path
       d="m 189.27328,21.104758 h -30.78973 c -8.56652,0 -15.57583,7.008554 -15.57583,15.575068 v 28.18684 c 0,8.566515 7.00931,15.575069 15.57583,15.575069 h 30.78973 c 8.56727,0 15.57583,-7.008554 15.57583,-15.575069 V 36.680582 c 0,-8.566515 -7.00856,-15.575824 -15.57583,-15.575824 z m -2.00223,40.685277 c 0,0.997336 -0.816,1.813339 -1.81333,1.813339 h -23.15936 c -0.99734,0 -1.81334,-0.816003 -1.81334,-1.813339 V 39.756458 c 0,-0.995825 0.816,-1.811828 1.81334,-1.811828 h 23.15936 c 0.99733,0 1.81333,0.816003 1.81333,1.811828 z"
       id="path12"
       inkscape:connector-curvature="0"
       style="fill:#ffffff;fill-opacity:1;stroke:none;stroke-width:0.75555784" /><path
       d="m 316.82202,21.104758 h -30.79049 c -8.56501,0 -15.57583,7.008554 -15.57583,15.575068 v 28.18684 c 0,8.566515 7.01082,15.575069 15.57583,15.575069 h 30.79049 c 8.56651,0 15.57431,-7.008554 15.57431,-15.575069 V 36.680582 c 0,-8.566515 -7.0078,-15.575824 -15.57431,-15.575824 z m -2.00298,40.685277 c 0,0.997336 -0.81601,1.813339 -1.81183,1.813339 h -23.15936 c -0.99734,0 -1.81334,-0.816003 -1.81334,-1.813339 V 39.756458 c 0,-0.995825 0.816,-1.811828 1.81334,-1.811828 h 23.15936 c 0.99582,0 1.81183,0.816003 1.81183,1.811828 z"
       id="path14"
       inkscape:connector-curvature="0"
       style="fill:#ffffff;fill-opacity:1;stroke:none;stroke-width:0.75555784" /><path
       d="M 79.684146,21.104758 H 26.24959 c -2.270451,0 -4.11099,1.840538 -4.11099,4.110234 v 46.160805 c 0,5.007082 4.059612,9.066694 9.066694,9.066694 5.007082,0 8.961672,-4.059612 8.961672,-9.066694 V 39.748902 c 0,-0.995825 0.816,-1.811827 1.81334,-1.811827 h 21.80162 c 0.99734,0 1.87983,0.816002 1.87983,1.811827 v 31.626139 c 0,5.007082 4.05961,9.066694 9.06669,9.066694 5.00708,0 9.06669,-4.059612 9.06669,-9.066694 V 37.031161 25.215748 c 0,-2.270452 -1.84053,-4.11099 -4.11099,-4.11099 z"
       id="path16"
       inkscape:connector-curvature="0"
       style="fill:#ffffff;fill-opacity:1;stroke:none;stroke-width:0.75555784" /><path
       d="m 260.69919,63.604129 h -32.41343 c -0.99734,0 -1.81334,-0.816002 -1.81334,-1.813338 V 39.756458 c 0,-0.995825 0.816,-1.811828 1.81334,-1.811828 h 32.41343 c 4.64819,0 8.42069,-3.768722 8.42069,-8.420692 0,-4.648947 -3.77024,-8.419936 -8.42069,-8.419936 h -11.74515 -23.08607 -1.93725 c -8.52194,0 -15.49422,6.972288 -15.49422,15.494224 v 28.349285 c 0,8.51967 6.97228,15.494224 15.49422,15.494224 h 1.93725 23.08607 11.74515 c 4.64819,0 8.42069,-3.768722 8.42069,-8.421447 0,-4.649703 -3.77024,-8.416159 -8.42069,-8.416159 z"
       id="path18"
       inkscape:connector-curvature="0"
       style="fill:#ffffff;fill-opacity:1;stroke:none;stroke-width:0.75555784" /></g></svg>