<?xml version="1.0" encoding="UTF-8" standalone="no"?>
<!-- Generator: Adobe Illustrator 21.1.0, SVG Export Plug-In . SVG Version: 6.00 Build 0)  -->

<svg
   xmlns:dc="http://purl.org/dc/elements/1.1/"
   xmlns:cc="http://creativecommons.org/ns#"
   xmlns:rdf="http://www.w3.org/1999/02/22-rdf-syntax-ns#"
   xmlns:svg="http://www.w3.org/2000/svg"
   xmlns="http://www.w3.org/2000/svg"
   xmlns:sodipodi="http://sodipodi.sourceforge.net/DTD/sodipodi-0.dtd"
   xmlns:inkscape="http://www.inkscape.org/namespaces/inkscape"
   version="1.0"
   id="Ebene_1"
   x="0px"
   y="0px"
   width="410"
   height="96"
   viewBox="0 0 410 95.999998"
   enable-background="new 0 0 466.5 167.3"
   xml:space="preserve"
   sodipodi:docname="atari7800.svg"
   inkscape:version="0.92.4 (5da689c313, 2019-01-14)"><metadata
     id="metadata39"><rdf:RDF><cc:Work
         rdf:about=""><dc:format>image/svg+xml</dc:format><dc:type
           rdf:resource="http://purl.org/dc/dcmitype/StillImage" /><dc:title></dc:title></cc:Work></rdf:RDF></metadata><defs
     id="defs37" /><sodipodi:namedview
     pagecolor="#ffffff"
     bordercolor="#666666"
     borderopacity="1"
     objecttolerance="10"
     gridtolerance="10"
     guidetolerance="10"
     inkscape:pageopacity="0"
     inkscape:pageshadow="2"
     inkscape:window-width="1920"
     inkscape:window-height="1028"
     id="namedview35"
     showgrid="false"
     fit-margin-top="0"
     fit-margin-left="0"
     fit-margin-right="0"
     fit-margin-bottom="0"
     inkscape:zoom="1"
     inkscape:cx="334.27268"
     inkscape:cy="75.158465"
     inkscape:window-x="0"
     inkscape:window-y="28"
     inkscape:window-maximized="1"
     inkscape:current-layer="g32"
     inkscape:pagecheckerboard="true"
     inkscape:snap-bbox="true"
     inkscape:bbox-paths="true"
     inkscape:bbox-nodes="true"
     inkscape:snap-bbox-edge-midpoints="true"
     inkscape:snap-bbox-midpoints="true" /><g
     id="g32"
     transform="translate(-15,-34.600006)"><path
       d="m 164.32334,42.47682 c 3.37243,-4.309206 10.49198,-5.152311 14.61383,-1.405176 1.68621,1.405176 2.90403,3.4661 3.55978,5.527024 7.68163,26.604661 15.55061,53.302998 23.23224,79.907662 -4.59024,0 -9.18048,0 -13.67705,0 -2.1546,-7.40059 -4.21552,-14.7075 -6.4638,-22.1081 -8.80577,0 -17.70522,0 -26.51099,0 -2.1546,7.4006 -4.3092,14.70751 -6.4638,22.1081 -4.59024,0 -9.08681,0 -13.67705,0 7.40059,-25.38684 14.70751,-50.773685 22.1081,-76.160526 1.03046,-2.716673 1.40518,-5.714382 3.27874,-7.868984 m 8.05634,16.300038 c -3.27874,11.054049 -6.4638,22.108098 -9.64887,33.162147 6.46381,0 12.83394,0 19.29775,0 -3.27875,-11.054049 -6.46381,-22.108098 -9.64888,-33.162147 z"
       id="path2"
       inkscape:connector-curvature="0"
       style="fill:#ffffff;stroke-width:0.93678379" /><path
       d="m 260.53104,43.03889 c 2.34196,-3.4661 7.02588,-5.152311 11.05405,-4.02817 3.65346,0.843105 6.55749,4.02817 7.49427,7.681627 7.68163,26.60466 15.55061,53.302999 23.23224,79.907663 -4.59024,0 -9.18048,0 -13.67704,0 -2.06093,-7.40059 -4.21553,-14.70751 -6.37013,-22.1081 -8.80577,0 -17.61154,0 -26.51099,0 -2.06092,7.40059 -4.21552,14.70751 -6.4638,22.1081 -4.59025,0 -9.08681,0 -13.67705,0 7.40059,-25.5742 14.80119,-51.054722 22.20178,-76.62892 0.93678,-2.341959 1.21782,-4.964954 2.71667,-6.9322 m -1.03046,48.900115 c 6.46381,0 12.74026,0 19.20407,0 -3.18507,-11.054049 -6.46381,-22.108098 -9.5552,-33.162147 -3.37242,11.054049 -6.46381,22.108098 -9.64887,33.162147 z"
       id="path4"
       inkscape:connector-curvature="0"
       style="fill:#ffffff;stroke-width:0.93678379" /><path
       d="m 195.42457,38.917041 c 16.48739,0 33.06846,0 49.55586,0 0,4.496562 0,8.993125 0,13.396009 -6.0891,0 -12.17819,0 -18.26728,0 0,24.731092 0,49.46219 0,74.28696 -4.30921,0 -8.71209,0 -13.0213,0 0,-24.73109 0,-49.462189 0,-74.28696 -6.08909,0 -12.17819,0 -18.26728,0 0,-4.590241 0,-8.993125 0,-13.396009 z"
       id="path6"
       inkscape:connector-curvature="0"
       style="fill:#ffffff;stroke-width:0.93678379" /><path
       d="m 316.92543,39.385433 c 1.21782,-0.468392 2.62299,-0.56207 3.93449,-0.56207 5.15231,0 10.3983,0 15.64429,0 8.80577,0.187357 17.14314,5.620703 20.89028,13.489687 2.62299,5.152311 2.90403,11.147727 2.24828,16.76843 -0.46839,5.901738 -2.99771,11.803476 -7.40059,15.64429 -2.34196,2.154602 -5.33967,3.372421 -7.96267,5.339667 -1.40517,1.124141 -1.40517,3.185065 -0.74942,4.590241 6.9322,10.679342 14.14543,21.171322 21.17131,31.756972 -5.15231,0 -10.30462,0 -15.55061,0 -6.74484,-10.21094 -13.39601,-20.32821 -20.23453,-30.539153 -1.96725,-2.90403 -2.52932,-6.744844 -1.3115,-10.023587 0.93679,-2.529316 3.18507,-4.402884 5.6207,-5.339668 4.68392,-1.779889 9.36784,-4.59024 11.99084,-9.086803 2.06092,-3.278743 1.87357,-7.400592 1.03046,-11.147727 -1.12414,-4.777597 -5.71438,-8.431054 -10.49198,-8.337376 -3.37242,0 -6.74484,0 -10.11726,0 -1.49886,0 -2.99771,1.311497 -2.99771,2.810352 0,23.794308 0,47.682302 0,71.476612 -4.40289,0 -8.80577,0 -13.20865,0 0,-25.66788 0,-51.33576 0,-77.003637 0,-4.215527 3.18506,-8.431054 7.49427,-9.83623 z"
       id="path8"
       inkscape:connector-curvature="0"
       style="fill:#ffffff;stroke-width:0.93678379" /><path
       d="m 371.6336,38.917041 c 4.59024,0 9.27416,0 13.8644,0 0,29.227655 0,58.45531 0,87.682969 -4.59024,0 -9.27416,0 -13.8644,0 0,-29.321337 0,-58.548992 0,-87.682969 z"
       id="path10"
       inkscape:connector-curvature="0"
       style="fill:#ffffff;stroke-width:0.93678379" /><path
       d="m 54.063885,38.636006 c 2.248281,0 4.496562,0 6.651165,0 0,5.152311 0,10.491979 0,15.64429 0,4.309205 -0.09368,8.712089 -0.281035,13.021295 -0.281036,6.276451 -0.749427,12.552903 -1.686211,18.829354 -0.749427,4.215527 -2.154603,8.431055 -4.028171,12.365547 -2.997708,6.370138 -7.681627,11.709798 -13.021295,16.206368 -4.777597,4.21552 -10.3983,7.21323 -16.300038,9.27416 -3.372422,1.12414 -6.838522,2.06092 -10.3983,2.52931 0,-4.40288 0,-8.71209 0,-13.11497 4.215527,-0.65575 8.337376,-2.1546 12.084511,-4.12185 4.496562,-2.34196 8.524733,-5.52703 11.990833,-9.367844 3.559778,-3.934491 6.37013,-8.337375 8.431054,-13.20865 2.529316,-5.527025 3.840814,-11.428763 4.777597,-17.424179 1.124141,-7.587949 1.592533,-15.269576 1.77989,-22.857525 0,-2.529317 0,-5.152311 0,-7.775306 z"
       id="path12"
       inkscape:connector-curvature="0"
       style="fill:#ffffff;stroke-width:0.93678379" /><path
       d="m 63.338044,38.636006 c 4.121849,0 8.15002,0 12.271868,0 0,29.321333 0,58.548988 0,87.776644 -4.121848,0 -8.150019,0 -12.271868,0 -0.09368,-9.27416 0,-18.73567 0,-28.009837 0,-19.859817 0,-39.719633 0,-59.766807 z"
       id="path14"
       inkscape:connector-curvature="0"
       style="fill:#ffffff;stroke-width:0.93678379" /><path
       d="m 78.326585,38.636006 c 2.248282,0 4.402884,0 6.651166,0 -0.09368,8.993125 0.187356,17.892571 1.311495,26.792017 0.84311,6.838522 2.06093,13.8644 4.87128,20.23453 2.62299,6.182774 6.37013,11.990833 11.241404,16.674757 4.68392,4.49656 10.30463,7.86898 16.4874,9.83623 1.68621,0.56207 3.4661,1.03046 5.24599,1.21782 0,4.40288 0,8.71209 0,13.11497 -3.55978,-0.46839 -6.9322,-1.40517 -10.21095,-2.52931 -3.93449,-1.40518 -7.7753,-3.18507 -11.33508,-5.52703 -2.622994,-1.68621 -4.871284,-3.65346 -7.213244,-5.71438 -3.65345,-3.37242 -7.02587,-7.30691 -9.55519,-11.80348 C 83.85361,97.466029 82.448434,93.812573 81.324294,90.065437 80.293831,86.224624 79.919118,82.38381 79.450726,78.449318 78.701299,70.018264 78.326585,61.493531 78.420264,53.062477 c -0.09368,-4.777598 -0.09368,-9.555195 -0.09368,-14.426471 z"
       id="path16"
       inkscape:connector-curvature="0"
       style="fill:#ffffff;stroke-width:0.93678379" /><path
       d="m 54.063885,38.636006 c 0,2.622995 0,5.152311 0,7.775306 -0.187357,7.681627 -0.655749,15.269576 -1.77989,22.857525 -0.936783,5.901738 -2.248281,11.897154 -4.777597,17.424179 -2.154603,4.777597 -4.871276,9.274159 -8.431054,13.20865 -3.372422,3.747144 -7.400592,7.025884 -11.990833,9.367844 -3.840814,2.06092 -7.868984,3.4661 -12.084511,4.12185 0,4.40288 0,8.71209 0,13.11497 3.559778,-0.46839 7.025878,-1.40517 10.3983,-2.52931 5.901738,-2.06093 11.616119,-5.15232 16.300038,-9.27416 5.24599,-4.49657 10.023587,-9.83623 13.021295,-16.206368 1.77989,-3.934492 3.278744,-8.056341 4.028171,-12.365547 1.030462,-6.182773 1.405175,-12.459224 1.686211,-18.735676 0.187356,-4.309205 0.281035,-8.712089 0.281035,-13.021295 0,-5.152311 0,-10.491979 0,-15.64429 -2.248281,-0.09368 -4.496563,-0.09368 -6.651165,-0.09368"
       id="path18"
       inkscape:connector-curvature="0"
       style="fill:#ffffff;stroke-width:0.93678379" /><path
       d="m 63.338044,38.636006 c 0,19.953495 0,39.90699 0,59.860486 0,9.274168 0,18.735678 0,28.009838 4.121849,-0.0937 8.15002,0 12.271868,0 0,-29.321336 0,-58.642669 0,-87.776646 -4.121848,-0.09368 -8.150019,-0.09368 -12.271868,-0.09368"
       id="path20"
       inkscape:connector-curvature="0"
       style="fill:#ffffff;stroke-width:0.93678379" /><path
       d="m 78.326585,38.636006 c 0,4.777597 0,9.555195 0,14.332792 -0.09368,8.524733 0.187357,16.955787 1.030463,25.386842 0.468392,3.934492 0.843105,7.868984 1.873567,11.616119 1.124141,3.747135 2.529317,7.49427 4.496563,10.866701 2.529318,4.40288 5.808058,8.33737 9.555198,11.80347 2.24828,2.06093 4.59024,4.02817 7.213234,5.71438 3.55978,2.34196 7.40059,4.12185 11.33509,5.52703 3.27874,1.12414 6.74484,2.06092 10.21094,2.52931 0,-4.40288 0,-8.71209 0,-13.11497 -1.77989,-0.28104 -3.55978,-0.74943 -5.24599,-1.21782 -6.08909,-1.96725 -11.80348,-5.43335 -16.48739,-9.83623 -4.871284,-4.590244 -8.618424,-10.398303 -11.241414,-16.674755 -2.71667,-6.463808 -3.93449,-13.396009 -4.871277,-20.23453 -1.030462,-8.71209 -1.311497,-17.705214 -1.217818,-26.604661 -2.248282,-0.09368 -4.496563,-0.09368 -6.651166,-0.09368"
       id="path22"
       inkscape:connector-curvature="0"
       style="fill:#ffffff;stroke-width:0.93678379" /></g><path
     d="m 396.89605,55.021563 c -1.04836,-1.620189 -2.66855,-2.763852 -4.47935,-2.763852 -4.38404,0 -6.38545,4.574652 -6.38545,8.863389 0,4.288736 2.00141,8.863387 6.38545,8.863387 1.90611,0 3.5263,-1.048357 4.47935,-2.763851 1.04836,2.382631 2.95446,3.716904 5.3371,3.716904 4.38403,0 6.67136,-4.955873 6.67136,-9.911746 0,-4.860567 -2.28733,-9.911746 -6.67136,-9.911746 -2.28733,0.285916 -4.19343,1.620189 -5.3371,3.907515 z m -2.76385,6.290147 c 0,1.048357 -0.76244,2.00141 -1.62019,2.00141 -0.85775,0 -1.62019,-0.857747 -1.62019,-2.00141 0,-1.048358 0.76244,-2.001411 1.62019,-2.001411 0.95305,-0.0953 1.62019,0.857748 1.62019,2.001411 z m 5.623,0 c 0,-1.238968 0.76245,-2.192021 1.81081,-2.192021 0.95305,0 1.71549,1.048358 1.71549,2.192021 0,1.238969 -0.76244,2.192021 -1.71549,2.192021 -1.04836,-0.09531 -1.81081,-1.048358 -1.81081,-2.192021 z"
     id="path41"
     inkscape:connector-curvature="0"
     style="fill:#ffffff;stroke-width:0.95305252" /><path
     d="m 389.74816,30.528115 c -2.47794,1.810799 -3.71691,4.574652 -3.71691,7.81503 0,3.240378 1.33427,5.908925 3.71691,7.81503 2.00141,1.524885 4.86057,2.382632 7.81502,2.382632 5.71832,0 11.43664,-3.145074 11.43664,-10.197662 0,-7.052588 -5.81363,-10.197662 -11.43664,-10.197662 -2.95445,0 -5.71831,0.857748 -7.81502,2.382632 z m 12.48499,7.719724 c 0,2.477937 -3.14508,2.763853 -4.66997,2.763853 -1.52487,0 -4.66995,-0.285916 -4.66995,-2.763853 0,-2.477936 3.14508,-2.763852 4.66995,-2.763852 1.52489,0.09531 4.66997,0.381222 4.66997,2.763852 z"
     id="path43"
     inkscape:connector-curvature="0"
     style="fill:#ffffff;stroke-width:0.95305252" /><path
     d="m 389.74816,6.5111936 c -2.47794,1.8107997 -3.71691,4.5746514 -3.71691,7.8150294 0,3.240378 1.33427,5.908925 3.71691,7.81503 2.00141,1.524884 4.86057,2.382631 7.81502,2.382631 5.71832,0 11.43664,-3.145073 11.43664,-10.197661 0,-6.9572821 -5.81363,-10.1976607 -11.43664,-10.1976607 -2.95445,0.095305 -5.71831,0.9530526 -7.81502,2.3826313 z m 12.48499,7.8150294 c 0,2.477936 -3.14508,2.763852 -4.66997,2.763852 -1.52487,0 -4.66995,-0.285916 -4.66995,-2.763852 0,-2.477936 3.14508,-2.763852 4.66995,-2.763852 1.52489,0 4.66997,0.285916 4.66997,2.763852 z"
     id="path45"
     inkscape:connector-curvature="0"
     style="fill:#ffffff;stroke-width:0.95305252" /><polygon
     transform="matrix(0.95305247,0,0,0.95305247,-7.2935155,-25.797288)"
     points="420.4,123.6 420.4,113.6 436.7,121.1 436.7,112.6 413,102.5 413,123.6 "
     id="polygon47"
     style="fill:#ffffff" /></svg>