<?xml version="1.0" encoding="UTF-8" standalone="no"?>
<!-- Generator: Adobe Illustrator 21.1.0, SVG Export Plug-In . SVG Version: 6.00 Build 0)  -->

<svg
   xmlns:dc="http://purl.org/dc/elements/1.1/"
   xmlns:cc="http://creativecommons.org/ns#"
   xmlns:rdf="http://www.w3.org/1999/02/22-rdf-syntax-ns#"
   xmlns:svg="http://www.w3.org/2000/svg"
   xmlns="http://www.w3.org/2000/svg"
   xmlns:sodipodi="http://sodipodi.sourceforge.net/DTD/sodipodi-0.dtd"
   xmlns:inkscape="http://www.inkscape.org/namespaces/inkscape"
   version="1.0"
   id="Ebene_1"
   x="0px"
   y="0px"
   width="410"
   height="96"
   viewBox="0 0 409.99999 96.000002"
   enable-background="new 0 0 319.1 123.1"
   xml:space="preserve"
   sodipodi:docname="colecovision.svg"
   inkscape:version="0.92.4 (5da689c313, 2019-01-14)"><metadata
     id="metadata9"><rdf:RDF><cc:Work
         rdf:about=""><dc:format>image/svg+xml</dc:format><dc:type
           rdf:resource="http://purl.org/dc/dcmitype/StillImage" /><dc:title></dc:title></cc:Work></rdf:RDF></metadata><defs
     id="defs7" /><sodipodi:namedview
     pagecolor="#ffffff"
     bordercolor="#666666"
     borderopacity="1"
     objecttolerance="10"
     gridtolerance="10"
     guidetolerance="10"
     inkscape:pageopacity="0"
     inkscape:pageshadow="2"
     inkscape:window-width="1920"
     inkscape:window-height="1028"
     id="namedview5"
     showgrid="false"
     fit-margin-top="0"
     fit-margin-left="0"
     fit-margin-right="0"
     fit-margin-bottom="0"
     inkscape:zoom="0.85553117"
     inkscape:cx="-178.95422"
     inkscape:cy="44.750003"
     inkscape:window-x="0"
     inkscape:window-y="28"
     inkscape:window-maximized="1"
     inkscape:current-layer="Ebene_1"
     inkscape:pagecheckerboard="true" /><path
     d="m 149,49.400002 v 12.5 h -35.6 c -4,0 -3.8,4 0,4 0,0 15.6,0 23.4,0 18.3,0 18.2,27.1 0,27.1 -12.3,0 -36.8,0 -36.8,0 v -12 c 0,0 23.4,0 35.1,0 4.2,0 3.9,-4 0,-4 -7.3,0 -21.8,0 -21.8,0 -18.8,0 -18.7,-27.5 0,-27.5 12,-0.1 35.7,-0.1 35.7,-0.1 z m 81.6,0 h 41.6 c 7.4,0 14.1,5.8 14.1,13.7 v 29.9 h -14.9 v -25.8 c 0,-4.3 -2.6,-5.2 -5.6,-5.3 h -20.2 v 31.1 h -14.9 z m -39.1,12.2 c -4,0 -5.6,2.5 -5.6,5.6 v 8.1 c 0,3.3 2.9,5.6 5.6,5.6 h 16.6 c 2,0 5.3,-1.3 5.3,-5.6 v -8.1 c 0,-2.7 -1.6,-5.7 -5.3,-5.7 z m -5.7,-12.2 h 27.9 c 8.9,0 14.6,6 14.6,13.4 v 16.1 c 0,11.4 -9.9,14.1 -14.6,14.1 h -27.9 c -10.5,0 -14.9,-8.4 -14.9,-14.1 v -16.1 c -0.1,-9.3 8.3,-13.4 14.9,-13.4 z m -32.7,0 H 168 v 43.6 h -14.9 z m -71.9,0 h 14.9 v 43.6 H 81.2 Z m -67.9,0 h 16.5 l 16.2,28.3 19,-28.3 h 13.7 l -25.8,43.6 H 39.3 Z M 146.6,3.4000015 h 47.3 V 14.300002 h -32.7 v 4 h 32.7 v 10.9 h -32.7 c 0,4 3,5.6 6.1,5.6 H 194 v 11.7 h -34.3 c -7.7,0 -13,-6.4 -13,-13.4 V 3.4000015 Z m -37.9,0 h 14.6 V 29.200002 c 0,3.7 2.8,5.7 6.1,5.6 h 15.8 v 11.7 h -22.6 c -6.4,0 -13.7,-2.9 -13.7,-13.4 z m 134,0 H 210 c -9.4,0 -13.3,8.6000005 -13.4,13.4000005 v 16.1 c 0,10.5 8.6,14.2 13.4,14.1 h 32.7 v -12.1 h -25.1 c -1.8,0 -6.1,-1.3 -6.1,-5.3 v -8.5 c 0,-4 3.1,-5.6 6.1,-5.6 h 25.1 z m 23.5,12.1000005 c -4,0 -5.6,2.5 -5.6,5.6 v 8.1 c 0,3.3 2.9,5.6 5.6,5.6 h 16.6 c 2,0 5.3,-1.3 5.3,-5.6 v -8 c 0,-2.7 -1.6,-5.7 -5.3,-5.7 z M 260.5,3.4000015 h 27.9 c 8.9,0 14.6,6.0000005 14.6,13.4000005 v 16.1 c 0,11.4 -9.9,14.1 -14.6,14.1 h -27.9 c -10.5,0 -14.9,-8.4 -14.9,-14.1 v -16.2 c 0,-9.3 8.3,-13.3000005 14.9,-13.3000005 z M 69,15.500002 c -4,0 -5.6,2.5 -5.6,5.6 v 8.1 c 0,3.3 2.9,5.6 5.6,5.6 h 16.6 c 2,0 5.3,-1.3 5.3,-5.6 v -8 c 0,-2.7 -1.6,-5.7 -5.3,-5.7 z M 63.4,3.4000015 h 27.9 c 8.9,0 14.6,6.0000005 14.6,13.4000005 v 16.1 c 0,11.4 -9.9,14.1 -14.6,14.1 H 63.4 c -10.5,0 -14.6,-8.4 -14.6,-14.1 v -16.2 c 0,-9.3 8,-13.3000005 14.6,-13.3000005 z m -17.4,0 H 13.3 C 3.9,3.4000015 0,12.000002 0,16.700002 v 16.1 c 0,10.5 8.6,14.2 13.4,14.1 h 32.7 v -12 H 20.6 c -1.8,0 -6,-1.3 -6,-5.3 v -8.5 c 0,-4 3.1,-5.6 6.1,-5.6 h 25.4 z"
     id="path2"
     inkscape:connector-curvature="0"
     style="fill:#ffffff" /></svg>