<?xml version="1.0" encoding="UTF-8" standalone="no"?>
<!-- Generator: Adobe Illustrator 21.1.0, SVG Export Plug-In . SVG Version: 6.00 Build 0)  -->

<svg
   xmlns:dc="http://purl.org/dc/elements/1.1/"
   xmlns:cc="http://creativecommons.org/ns#"
   xmlns:rdf="http://www.w3.org/1999/02/22-rdf-syntax-ns#"
   xmlns:svg="http://www.w3.org/2000/svg"
   xmlns="http://www.w3.org/2000/svg"
   xmlns:sodipodi="http://sodipodi.sourceforge.net/DTD/sodipodi-0.dtd"
   xmlns:inkscape="http://www.inkscape.org/namespaces/inkscape"
   version="1.0"
   id="Capa_1"
   x="0px"
   y="0px"
   width="410"
   height="96"
   viewBox="0 0 409.99999 96"
   enable-background="new 0 0 253.6 25"
   xml:space="preserve"
   sodipodi:docname="fba.svg"
   inkscape:version="0.92.4 (5da689c313, 2019-01-14)"><metadata
   id="metadata39"><rdf:RDF><cc:Work
       rdf:about=""><dc:format>image/svg+xml</dc:format><dc:type
         rdf:resource="http://purl.org/dc/dcmitype/StillImage" /><dc:title></dc:title></cc:Work></rdf:RDF></metadata><defs
   id="defs37" /><sodipodi:namedview
   pagecolor="#ffffff"
   bordercolor="#666666"
   borderopacity="1"
   objecttolerance="10"
   gridtolerance="10"
   guidetolerance="10"
   inkscape:pageopacity="0"
   inkscape:pageshadow="2"
   inkscape:window-width="1920"
   inkscape:window-height="1028"
   id="namedview35"
   showgrid="false"
   inkscape:pagecheckerboard="true"
   inkscape:zoom="1.033123"
   inkscape:cx="23.230535"
   inkscape:cy="12.5"
   inkscape:window-x="0"
   inkscape:window-y="28"
   inkscape:window-maximized="1"
   inkscape:current-layer="Capa_1" />
<path
   d="m 27.7,38.7 c -0.9,-1.9 -2.2,-3.3 -4.2,-3.8 -7.8,0 -15.7,0 -23.5,0 0,1 0,2 0,3 0.1,0 0.2,0.1 0.3,0.1 6,2.1 12,4.1 18,6.2 0.2,0.1 0.4,0.1 0.6,0.1 3,0 5.9,0 8.9,0 0.1,0 0.2,0 0.4,0 0,-1.3 0,-2.5 0,-3.7 -0.1,-0.7 -0.2,-1.3 -0.5,-1.9 z"
   id="path2"
   inkscape:connector-curvature="0"
   style="fill:#ffffff" />
<path
   d="m 16.7,52.4 c 0,-2.5 0,-5 0,-7.5 0,-0.2 0,-0.3 -0.2,-0.4 -2.3,-0.8 -4.6,-1.6 -6.9,-2.4 -0.1,0 -0.1,0 -0.2,0 0,0.2 0,0.3 0,0.5 0,3.8 0,7.5 0,11.3 0,0.3 -0.1,0.4 -0.3,0.5 -0.9,0.5 -1.9,1 -2.8,1.4 -0.3,0.1 -0.4,0.3 -0.4,0.5 0,1 0,1.9 0,2.9 0,0.1 0,0.2 0,0.4 4.5,0 9,0 13.5,0 0,-2.3 0,-4.5 0,-6.8 -0.9,0 -1.8,0 -2.7,0 0,-0.2 0,-0.3 0,-0.4 z"
   id="path4"
   inkscape:connector-curvature="0"
   style="fill:#ffffff" />
<path
   d="m 18,51.6 c 3.4,0 6.8,0 10.1,0 0,-2 0,-4 0,-6 -3.4,0 -6.8,0 -10.1,0 0,1.9 0,3.9 0,6 z"
   id="path6"
   inkscape:connector-curvature="0"
   style="fill:#ffffff" />
<path
   d="m 34.5,34.9 h -5 c -0.2,0 -0.4,0.1 -0.4,0.4 v 23.9 c 0,0.2 0.1,0.4 0.4,0.4 h 5 c 0.2,0 0.4,-0.1 0.4,-0.4 V 35.3 c 0,-0.3 -0.1,-0.4 -0.4,-0.4 z"
   id="path8"
   inkscape:connector-curvature="0"
   style="fill:#ffffff" />
<path
   d="m 51.4,34.9 h -4.3 c -0.2,0 -0.4,0.1 -0.4,0.4 V 49 H 46.5 L 42.7,35.3 c 0,-0.3 -0.2,-0.4 -0.5,-0.4 H 37 c -0.2,0 -0.4,0.1 -0.4,0.4 v 23.9 c 0,0.2 0.1,0.4 0.4,0.4 h 4.3 c 0.2,0 0.4,-0.1 0.4,-0.4 V 45.5 h 0.2 l 3.9,13.7 c 0.1,0.2 0.2,0.4 0.5,0.4 h 5.2 c 0.2,0 0.4,-0.1 0.4,-0.4 V 35.3 C 51.7,35 51.6,34.9 51.4,34.9 Z"
   id="path10"
   inkscape:connector-curvature="0"
   style="fill:#ffffff" />
<path
   d="M 64.2,35.3 C 64.2,35 64,34.9 63.8,34.9 h -5.6 c -0.3,0 -0.4,0.1 -0.4,0.4 l -5.4,23.9 c 0,0.2 0.1,0.4 0.3,0.4 h 5 c 0.3,0 0.4,-0.1 0.4,-0.4 l 0.7,-3.9 h 4.4 l 0.7,3.9 c 0,0.2 0.2,0.4 0.4,0.4 h 5 c 0.2,0 0.4,-0.1 0.3,-0.4 z M 59.5,51 61,43 v 0 l 1.3,8 z"
   id="path12"
   inkscape:connector-curvature="0"
   style="fill:#ffffff" />
<path
   d="m 81.1,54.4 h -5 c -0.1,0 -0.2,-0.1 -0.2,-0.2 V 35.3 c 0,-0.2 -0.1,-0.4 -0.4,-0.4 h -5 c -0.2,0 -0.4,0.1 -0.4,0.4 v 23.9 c 0,0.2 0.1,0.4 0.4,0.4 h 10.6 c 0.2,0 0.4,-0.1 0.4,-0.4 v -4.4 c 0,-0.2 -0.1,-0.4 -0.4,-0.4 z"
   id="path14"
   inkscape:connector-curvature="0"
   style="fill:#ffffff" />
<path
   d="m 100.2,46.8 v 0 c 1.8,-0.9 2.9,-2.4 2.9,-5.5 0,-4.2 -2.1,-6.4 -6.9,-6.4 H 89 c -0.2,0 -0.4,0.1 -0.4,0.4 v 23.9 c 0,0.2 0.1,0.4 0.4,0.4 h 7 c 4.8,0 7.4,-1.9 7.4,-7.2 0,-3.5 -1.3,-5.1 -3.2,-5.6 z m -5.8,-7.1 c 0,-0.1 0.1,-0.2 0.2,-0.2 h 0.8 c 1.5,0 2,0.6 2,2.6 0,2.1 -0.5,2.7 -2,2.7 h -0.8 c -0.1,0 -0.2,-0.1 -0.2,-0.2 z m 1,15.3 h -0.8 c -0.1,0 -0.2,-0.1 -0.2,-0.2 v -5.5 c 0,-0.1 0.1,-0.2 0.2,-0.2 h 0.8 c 1.6,0 2.2,0.6 2.2,2.9 0,2.3 -0.6,3 -2.2,3 z"
   id="path16"
   inkscape:connector-curvature="0"
   style="fill:#ffffff" />
<path
   d="m 118.6,34.9 h -5 c -0.2,0 -0.4,0.1 -0.4,0.4 v 17.8 c 0,1.1 -0.5,1.7 -1.5,1.7 -0.9,0 -1.5,-0.6 -1.5,-1.7 V 35.3 c 0,-0.2 -0.1,-0.4 -0.4,-0.4 h -5 c -0.2,0 -0.4,0.1 -0.4,0.4 v 17.2 c 0,5 2.8,7.5 7.3,7.5 4.4,0 7.3,-2.5 7.3,-7.5 V 35.3 c 0,-0.3 -0.1,-0.4 -0.4,-0.4 z"
   id="path18"
   inkscape:connector-curvature="0"
   style="fill:#ffffff" />
<path
   d="m 132.8,48.9 c 1.6,-1.2 2.6,-3.2 2.6,-6.2 0,-5.6 -3,-7.8 -7.4,-7.8 h -7 c -0.2,0 -0.4,0.1 -0.4,0.4 v 23.9 c 0,0.2 0.1,0.4 0.4,0.4 h 5 c 0.2,0 0.4,-0.1 0.4,-0.4 v -8.6 c 0,-0.1 0.1,-0.2 0.2,-0.2 h 0.8 l 2.5,8.9 c 0.1,0.2 0.2,0.3 0.5,0.3 h 5.4 c 0.2,0 0.3,-0.2 0.2,-0.4 z m -5.3,-3.3 h -0.8 c -0.1,0 -0.2,-0.1 -0.2,-0.2 V 40 c 0,-0.1 0.1,-0.2 0.2,-0.2 h 0.8 c 1.5,0 2.1,0.7 2.1,2.9 0,2.2 -0.7,2.9 -2.1,2.9 z"
   id="path20"
   inkscape:connector-curvature="0"
   style="fill:#ffffff" />
<path
   d="m 151.6,34.9 h -4.3 c -0.2,0 -0.4,0.1 -0.4,0.4 V 49 h -0.2 L 143,35.3 c -0.1,-0.2 -0.2,-0.4 -0.5,-0.4 h -5.3 c -0.2,0 -0.4,0.1 -0.4,0.4 v 23.9 c 0,0.2 0.1,0.4 0.4,0.4 h 4.3 c 0.2,0 0.4,-0.1 0.4,-0.4 V 45.5 h 0.2 l 3.9,13.7 c 0.1,0.2 0.2,0.4 0.5,0.4 h 5.2 c 0.2,0 0.4,-0.1 0.4,-0.4 V 35.3 C 152,35 151.8,34.9 151.6,34.9 Z"
   id="path22"
   inkscape:connector-curvature="0"
   style="fill:#ffffff" />
<path
   d="m 170.6,35.3 c 0,-0.2 -0.2,-0.4 -0.4,-0.4 h -5.6 c -0.3,0 -0.4,0.1 -0.4,0.4 l -5.4,23.9 c 0,0.2 0.1,0.4 0.3,0.4 h 5 c 0.3,0 0.4,-0.1 0.4,-0.4 l 0.7,-3.9 h 4.4 l 0.7,3.9 c 0,0.2 0.2,0.4 0.4,0.4 h 5 c 0.2,0 0.4,-0.1 0.3,-0.4 z m -4.8,15.7 1.5,-8 h 0.1 l 1.3,8 z"
   id="path24"
   inkscape:connector-curvature="0"
   style="fill:#ffffff" />
<path
   d="m 187.5,54.4 h -5 c -0.1,0 -0.2,-0.1 -0.2,-0.2 V 35.3 c 0,-0.2 -0.1,-0.4 -0.4,-0.4 h -5 c -0.2,0 -0.4,0.1 -0.4,0.4 v 23.9 c 0,0.2 0.1,0.4 0.4,0.4 h 10.6 c 0.2,0 0.4,-0.1 0.4,-0.4 v -4.4 c -0.1,-0.2 -0.2,-0.4 -0.4,-0.4 z"
   id="path26"
   inkscape:connector-curvature="0"
   style="fill:#ffffff" />
<path
   d="m 197,34.9 h -6.8 c -0.2,0 -0.4,0.1 -0.4,0.4 v 23.9 c 0,0.2 0.1,0.4 0.4,0.4 h 5 c 0.2,0 0.4,-0.1 0.4,-0.4 V 51 c 0,-0.1 0.1,-0.2 0.2,-0.2 h 1.2 c 4.4,0 7.5,-2.3 7.5,-7.9 0.1,-5.6 -2.8,-8 -7.5,-8 z m -0.3,11 h -0.8 c -0.1,0 -0.2,-0.1 -0.2,-0.2 V 40 c 0,-0.1 0.1,-0.2 0.2,-0.2 h 0.8 c 1.5,0 2.1,0.7 2.1,3.1 0,2.4 -0.6,3 -2.1,3 z"
   id="path28"
   inkscape:connector-curvature="0"
   style="fill:#ffffff" />
<path
   d="m 220,34.9 h -5 c -0.2,0 -0.4,0.1 -0.4,0.4 v 8.9 c 0,0.1 -0.1,0.2 -0.2,0.2 h -2.7 c -0.1,0 -0.2,-0.1 -0.2,-0.2 v -8.9 c 0,-0.2 -0.1,-0.4 -0.4,-0.4 h -5 c -0.2,0 -0.4,0.1 -0.4,0.4 v 23.9 c 0,0.2 0.1,0.4 0.4,0.4 h 5 c 0.2,0 0.4,-0.1 0.4,-0.4 v -9.5 c 0,-0.1 0.1,-0.2 0.2,-0.2 h 2.7 c 0.1,0 0.2,0.1 0.2,0.2 v 9.5 c 0,0.2 0.1,0.4 0.4,0.4 h 5 c 0.2,0 0.4,-0.1 0.4,-0.4 V 35.3 c 0,-0.3 -0.2,-0.4 -0.4,-0.4 z"
   id="path30"
   inkscape:connector-curvature="0"
   style="fill:#ffffff" />
<path
   d="m 232.4,34.9 h -2.4 -3.2 c -0.3,0 -0.4,0.1 -0.4,0.4 L 221,59.2 c 0,0.2 0.1,0.4 0.3,0.4 h 5 c 0.3,0 0.4,-0.1 0.4,-0.4 l 0.7,-3.9 h 4.4 l 0.7,3.9 c 0,0.2 0.2,0.4 0.4,0.4 h 5 c 0.2,0 0.4,-0.1 0.3,-0.4 l -3.1,-13.9 -4.8,1.6 0.7,4.1 h -2.9 l 1.5,-8 h 0.1 l 0.5,2.9 4.7,-1.6 v 0 l 0.4,-0.1 c 0,0 12,-4.1 18,-6.2 0.1,0 0.2,-0.1 0.3,-0.1 0,-1 0,-2 0,-3 -7.1,0 -14.1,0 -21.2,0 z"
   id="path32"
   inkscape:connector-curvature="0"
   style="fill:#ffffff" />
</svg>