<?xml version="1.0" encoding="UTF-8" standalone="no"?>
<!-- Created with Inkscape (http://www.inkscape.org/) -->

<svg
   xmlns:dc="http://purl.org/dc/elements/1.1/"
   xmlns:cc="http://creativecommons.org/ns#"
   xmlns:rdf="http://www.w3.org/1999/02/22-rdf-syntax-ns#"
   xmlns:svg="http://www.w3.org/2000/svg"
   xmlns="http://www.w3.org/2000/svg"
   xmlns:sodipodi="http://sodipodi.sourceforge.net/DTD/sodipodi-0.dtd"
   xmlns:inkscape="http://www.inkscape.org/namespaces/inkscape"
   width="410"
   height="96"
   viewBox="0 0 108.47916 25.400001"
   version="1.1"
   id="svg8"
   inkscape:version="0.92.4 (5da689c313, 2019-01-14)"
   sodipodi:docname="fighting.svg">
  <defs
     id="defs2" />
  <sodipodi:namedview
     id="base"
     pagecolor="#ffffff"
     bordercolor="#666666"
     borderopacity="1.0"
     inkscape:pageopacity="0.0"
     inkscape:pageshadow="2"
     inkscape:zoom="1.4"
     inkscape:cx="80.918281"
     inkscape:cy="93.000354"
     inkscape:document-units="mm"
     inkscape:current-layer="layer1"
     showgrid="false"
     inkscape:window-width="1920"
     inkscape:window-height="1028"
     inkscape:window-x="0"
     inkscape:window-y="28"
     inkscape:window-maximized="1"
     inkscape:snap-global="false"
     units="px"
     inkscape:pagecheckerboard="true" />
  <metadata
     id="metadata5">
    <rdf:RDF>
      <cc:Work
         rdf:about="">
        <dc:format>image/svg+xml</dc:format>
        <dc:type
           rdf:resource="http://purl.org/dc/dcmitype/StillImage" />
        <dc:title></dc:title>
      </cc:Work>
    </rdf:RDF>
  </metadata>
  <g
     inkscape:label="Calque 1"
     inkscape:groupmode="layer"
     id="layer1"
     transform="translate(0,-271.59998)">
    <path
       style="fill:#ffffff;fill-opacity:1;stroke:none;stroke-width:0.25251856;stroke-linecap:butt;stroke-linejoin:miter;stroke-miterlimit:4;stroke-dasharray:none;stroke-opacity:1"
       d="m 2.37543,282.15818 24.409503,-6.74401 -2.07508,1.58361 1.03754,0.43686 c 0,0 -0.273037,0.35496 -0.627983,0.65529 0,0 0.333701,0.73251 -0.04993,1.09683 -0.480158,0.22917 -12.864726,3.38097 -12.864726,3.38097 l -0.491467,1.63823 3.221837,-0.79181 c 0,0 -0.409557,0.7372 -0.655289,1.01023 -0.245734,0.27304 0.464162,0.49147 0.354948,0.79182 -0.109216,0.30034 -0.436859,0.10921 -0.464163,0.40955 -0.0273,0.30034 0.104531,0.89771 0.104531,0.89771 l -3.435582,0.6859 -1.037541,3.76792 -0.573376,-0.0274 -0.327645,-0.49146 c 0,0 -0.709896,0.7099 -0.928326,0.7372 -0.218429,0.0273 -0.191125,-0.24574 -0.436858,-0.24574 -0.245734,0 -0.245734,0.30035 -0.245734,0.30035 l -0.273037,-0.0273 0.7372,-3.38566 -1.99317,0.39687 c 0,0 -0.163822,-0.20575 -0.05461,-0.36956 0.109214,-0.16383 1.010236,-0.6826 1.119451,-0.87372 0.109215,-0.19113 -0.354948,-0.27304 -0.218428,-0.46417 0.136518,-0.19112 0.436858,-0.43685 0.491466,-0.57337 0.05461,-0.13652 -1.242318,-0.31399 -1.02389,-0.36861 0.218431,-0.0546 2.525592,-0.64163 2.525592,-0.64163 L 8.955614,283.33215 0,285.51645 2.266207,283.98743 c 0,0 0.123838,-0.46416 0.123838,-0.60067 0,-0.13652 -0.806429,-0.21843 -0.806429,-0.21843 0.02731,-0.30035 0.51877,-0.40956 0.655288,-0.62799 0.136519,-0.21843 0.136519,-0.38225 0.136519,-0.38225 z"
       id="path826"
       inkscape:connector-curvature="0"
       sodipodi:nodetypes="cccccccccsscccccccscccccccccccccscscc" />
    <path
       style="fill:#ffffff;fill-opacity:1;stroke:none;stroke-width:0.25251856;stroke-linecap:butt;stroke-linejoin:miter;stroke-miterlimit:4;stroke-dasharray:none;stroke-opacity:1"
       d="m 15.961574,282.53959 0.546074,0.0546 c 0,0 0.354948,-0.3413 0.587029,-0.40956 0.232083,-0.0682 0.709898,-0.0274 0.709898,-0.0274 l -2.389074,8.10921 -0.50512,0.0137 c 0,0 -0.163822,-0.25938 -0.259385,-0.25938 -0.09556,0 -0.15017,0.32764 -0.15017,0.32764 l -0.737199,0.041 z"
       id="path847"
       inkscape:connector-curvature="0" />
    <path
       style="fill:#ffffff;fill-opacity:1;stroke:none;stroke-width:0.25251856;stroke-linecap:butt;stroke-linejoin:miter;stroke-miterlimit:4;stroke-dasharray:none;stroke-opacity:1"
       d="m 20.246481,281.69752 4.345765,-1.10418 c 0,0 0.0056,6e-4 -0.05226,0.15541 -0.05792,0.15446 -0.444052,0.21237 -0.521279,0.40545 -0.07723,0.19306 0.193065,0.36682 0.07723,0.50196 -0.115841,0.13515 -0.23168,1.21632 -0.347521,1.39009 -0.115839,0.17376 -2.799461,0.40543 -3.011834,0.57919 -0.212374,0.17377 -0.926718,0.79157 -1.119785,1.06187 -0.193066,0.27028 -0.733651,2.31679 -0.733651,2.47124 0,0.15445 0.270292,0.48267 0.482666,0.54059 0.212372,0.0579 1.447996,-0.21238 1.447996,-0.21238 l -0.02261,-0.89375 -1.116473,0.17941 0.2896,-2.08511 4.015779,-0.80075 c 0,0 -0.362343,1.86144 -0.516795,2.05451 -0.154454,0.19306 -0.725655,0.51328 -0.725655,0.51328 l -0.842667,3.11656 c 0,0 -3.872233,0.53397 -4.131618,0.47936 -0.546073,-0.58704 -0.65077,-0.90273 -0.69738,-1.27093 -0.01931,-0.34089 0.02822,-0.93685 0.137488,-1.48039 0.124837,-0.62103 1.03222,-3.36792 1.205978,-3.6189 0.673455,-1.21904 0.668678,-1.40897 1.837038,-1.98253 z"
       id="path849"
       inkscape:connector-curvature="0"
       sodipodi:nodetypes="cccccsscssccccccccccscc" />
    <path
       style="fill:#ffffff;fill-opacity:1;stroke:none;stroke-width:0.25251856;stroke-linecap:butt;stroke-linejoin:miter;stroke-miterlimit:4;stroke-dasharray:none;stroke-opacity:1"
       d="m 25.775605,280.27877 1.627411,-0.41344 -0.893759,3.47051 1.77621,-0.27029 1.216317,-3.71584 1.731942,-0.45206 -2.60074,9.74752 -2.002235,0.27497 0.785917,-2.91998 -1.660369,-0.0193 -0.744962,3.14933 -2.131726,0.29993 z"
       id="path851"
       inkscape:connector-curvature="0"
       sodipodi:nodetypes="ccccccccccccc" />
    <path
       style="fill:#ffffff;fill-opacity:1;stroke:none;stroke-width:0.25251856;stroke-linecap:butt;stroke-linejoin:miter;stroke-miterlimit:4;stroke-dasharray:none;stroke-opacity:1"
       d="m 32.432942,277.44183 -4.363299,1.02325 c 0,0 0,0 -0.17376,-0.21237 0,0 0.212373,-0.25098 0.17376,-0.34752 -0.03861,-0.0965 -0.482666,-0.13514 -0.482666,-0.13514 -0.03454,-0.18996 0.791571,-1.83414 0.888105,-1.94997 0.09653,-0.11584 0.02828,-0.89045 0.02828,-0.89045 l 11.459173,-3.16394 c 0,0 0.21237,-0.0965 0.173758,0.0387 -0.03861,0.13514 -0.559895,0.5985 -0.579198,0.69504 -0.01934,0.0965 0.270293,0.11584 0.270293,0.23168 0,0.11584 -0.793918,0.64979 -0.871145,0.78494 -0.07722,0.13515 0.71669,-0.18644 0.735999,-0.0706 0.01928,0.11584 -0.888104,0.81087 -0.907412,0.92671 -0.01929,0.11585 1.042558,0.65644 0.984638,0.75297 -0.05792,0.0965 -0.675733,-0.0965 -0.75296,-0.0193 -0.07723,0.0772 0.308905,0.57919 0.231681,0.63712 -0.07723,0.0579 -4.421218,1.15838 -4.421218,1.15838 l -3.706874,12.27903 -0.366827,-0.21237 -0.212374,0.27029 -0.193065,-0.27029 -0.173759,0.71434 -0.444054,-0.55989 -0.559892,0.67573 z"
       id="path853"
       inkscape:connector-curvature="0"
       sodipodi:nodetypes="ccccscccccsccccccccccccccc" />
    <path
       inkscape:connector-curvature="0"
       id="path917"
       d="m 35.279212,277.86288 0.62798,-0.27304 c 0,0 0.409559,0.15017 0.641642,0.0819 0.308112,0.0997 0.926809,-0.25433 1.064841,-0.38225 l -3.20599,10.51192 c -0.329529,-0.28559 -0.188215,-0.21714 -0.73469,0.14811 0,0 -0.232651,-0.14964 -0.328214,-0.14964 -0.09556,0 -0.328212,0.1448 -0.328212,0.1448 l -0.752226,0.1707 z"
       style="fill:#ffffff;fill-opacity:1;stroke:none;stroke-width:0.25251856;stroke-linecap:butt;stroke-linejoin:miter;stroke-miterlimit:4;stroke-dasharray:none;stroke-opacity:1"
       sodipodi:nodetypes="ccccccsccc" />
    <path
       style="fill:#ffffff;fill-opacity:1;stroke:none;stroke-width:0.25251856;stroke-linecap:butt;stroke-linejoin:miter;stroke-miterlimit:4;stroke-dasharray:none;stroke-opacity:1"
       d="m 35.528951,287.68765 c 1.010125,-3.81385 2.167786,-7.37071 3.05801,-10.73036 l 0.368599,0.19113 0.32082,-0.36177 0.344706,0.0375 0.412971,-0.24915 c -0.05461,0.35494 -0.109219,0.7099 -0.163824,1.06485 0,0 1.454921,-1.49952 3.073608,-1.31567 1.517699,0.17238 2.917218,2.01927 3.217558,2.70186 0.08191,1.20136 -1.540321,7.73324 -1.540321,7.73324 l -0.491465,-0.003 -0.409556,-0.41296 -0.273039,0.34813 -0.614333,0.2389 -0.587032,-0.0887 1.601951,-7.33145 c 0,0 -0.937225,-1.09629 -1.706483,-1.07849 -0.769253,0.0178 -2.129686,1.48804 -2.129686,1.48804 l -2.107067,7.41336 -0.5529,-0.30716 -0.634814,0.48464 -0.607503,-0.0341 z"
       id="path923"
       inkscape:connector-curvature="0"
       sodipodi:nodetypes="cccccccscccccccczcccccc" />
    <path
       style="fill:#ffffff;fill-opacity:1;stroke:none;stroke-width:0.25251856;stroke-linecap:butt;stroke-linejoin:miter;stroke-miterlimit:4;stroke-dasharray:none;stroke-opacity:1"
       d="m 57.350171,272.87008 -7.614773,1.9363 c -1.406638,0.53772 -2.753875,1.9508 -2.999017,5.14012 -0.245142,3.18932 1.477421,4.18921 3.150223,4.99659 0.836402,0.40372 2.292339,0.61171 3.201868,0.42322 0.909534,-0.1885 0.985739,-0.23461 0.795109,0.27947 -1.499318,3.10275 -3.58819,4.68822 -4.947895,5.52757 -1.303719,0.78615 -5.613781,1.65962 -5.539547,1.96195 0.07423,0.30233 1.458414,0.638 1.458414,0.638 l -0.314641,0.56558 0.348565,0.25467 -0.02017,0.79165 0.814686,0.18449 -0.01531,0.60081 0.589322,0.45175 1.15273,-0.21641 -0.394923,0.4815 c 0,0 0.700821,0.37312 2.409795,-0.23883 1.708972,-0.61195 5.223738,-4.56488 6.276772,-6.23142 1.05303,-1.66654 1.948779,-5.7405 1.948779,-5.7405 l 1.645357,-0.2583 -1.100107,-0.76575 0.583209,-1.4598 -0.62278,-0.20719 0.04598,-0.73618 -1.176462,0.0793 -0.800692,-3.9536 2.528041,-0.59087 -0.197545,-0.82443 0.420372,-0.42639 -0.720162,-0.67401 -0.0098,-0.68276 -0.733381,-0.15518 0.645043,-0.66646 z m -3.990927,4.94367 1.0209,3.88873 c 0,0 -2.232108,0.445 -3.242732,-0.0636 -1.181867,-0.60949 -1.296837,-2.15728 -0.79466,-2.917 0.581354,-0.83496 2.088605,-0.87382 3.016493,-0.90811 z"
       id="path958"
       inkscape:connector-curvature="0" />
  </g>
</svg>
