<?xml version="1.0" encoding="UTF-8" standalone="no"?>
<!-- Generator: Adobe Illustrator 16.0.3, SVG Export Plug-In . SVG Version: 6.00 Build 0)  -->

<svg
   xmlns:osb="http://www.openswatchbook.org/uri/2009/osb"
   xmlns:dc="http://purl.org/dc/elements/1.1/"
   xmlns:cc="http://creativecommons.org/ns#"
   xmlns:rdf="http://www.w3.org/1999/02/22-rdf-syntax-ns#"
   xmlns:svg="http://www.w3.org/2000/svg"
   xmlns="http://www.w3.org/2000/svg"
   xmlns:sodipodi="http://sodipodi.sourceforge.net/DTD/sodipodi-0.dtd"
   xmlns:inkscape="http://www.inkscape.org/namespaces/inkscape"
   version="1.1"
   id="TEXT"
   x="0px"
   y="0px"
   width="410"
   height="96"
   viewBox="0 -0.001 409.99998 96.000001"
   enable-background="new 0 -0.001 566.929 157.78"
   xml:space="preserve"
   sodipodi:docname="mame.svg"
   inkscape:version="0.92.4 (5da689c313, 2019-01-14)"><metadata
     id="metadata339"><rdf:RDF><cc:Work
         rdf:about=""><dc:format>image/svg+xml</dc:format><dc:type
           rdf:resource="http://purl.org/dc/dcmitype/StillImage" /><dc:title></dc:title></cc:Work></rdf:RDF></metadata><defs
     id="defs337"><linearGradient
       id="linearGradient5174"
       osb:paint="solid"><stop
         style="stop-color:#ffffff;stop-opacity:1;"
         offset="0"
         id="stop5172" /></linearGradient></defs><sodipodi:namedview
     pagecolor="#ffffff"
     bordercolor="#666666"
     borderopacity="1"
     objecttolerance="10"
     gridtolerance="10"
     guidetolerance="10"
     inkscape:pageopacity="0"
     inkscape:pageshadow="2"
     inkscape:window-width="1920"
     inkscape:window-height="1028"
     id="namedview335"
     showgrid="false"
     inkscape:pagecheckerboard="true"
     fit-margin-top="0"
     fit-margin-left="0"
     fit-margin-right="0"
     fit-margin-bottom="0"
     inkscape:zoom="1.9261669"
     inkscape:cx="92.66135"
     inkscape:cy="11.564249"
     inkscape:window-x="0"
     inkscape:window-y="28"
     inkscape:window-maximized="1"
     inkscape:current-layer="TEXT"
     showguides="true" /><linearGradient
     id="SVGID_1_"
     gradientUnits="userSpaceOnUse"
     x1="558.12842"
     y1="955.59772"
     x2="11.77"
     y2="955.59772"
     gradientTransform="translate(-0.1797,-875.4102)"><stop
       offset="0"
       style="stop-color:#013A67"
       id="stop2" /><stop
       offset="1"
       style="stop-color:#6CD1FF"
       id="stop4" /></linearGradient><polygon
     points="251.667,8.077 177.937,82.94 168.255,82.987 167.12,11.089 127.342,51.15 116.278,51.717 116.697,8.939 11.591,114.895 46.209,114.328 91.598,70.276 100.303,70.276 99.883,114.54 136.035,77.543 144.679,77.543 144.679,115.23 104.892,154.73 143.019,154.165 218.036,78.299 228.14,78.299 228.14,115.57 274.897,115.854 320.115,70.353 328.843,69.786 328.708,112.799 364.839,76.667 373.375,76.667 373.941,113.102 373.203,114.998 482.378,114.998 503.279,93.815 435.398,92.661 434.781,82.809 445.357,71.67 470.968,71.667 493.216,49.133 479.769,48.565 479.769,39.082 491.191,27.662 536.777,27.946 557.949,5.927 479.951,5.642 406.662,79.217 396.4,79.784 396.686,9.001 355.481,51.055 345.625,52.224 345.625,9.374 261.264,92.842 250.775,93.958 "
     id="polygon7"
     style="opacity:1;fill:#ffffff;fill-opacity:1;fill-rule:evenodd;stroke:#ffffff;stroke-opacity:1"
     transform="matrix(0.60031824,0,0,0.60031824,0.30015912,0.7998859)" /><linearGradient
     id="SVGID_2_"
     gradientUnits="userSpaceOnUse"
     x1="64.709503"
     y1="938.78912"
     x2="60.764999"
     y2="934.84479"
     gradientTransform="translate(-0.1797,-875.4102)"><stop
       offset="0"
       style="stop-color:#08406F"
       id="stop9" /><stop
       offset="1"
       style="stop-color:#60C5F5"
       id="stop11" /></linearGradient><path
     d="M 69.151859,8.7318909 8.4506791,69.433071 l -6.88625,2.58917 c 0,0 -0.3626,0.0234 -0.16269,-0.26714 0,0 70.3933199,-70.4125271 70.5205799,-70.5199841 0.12727,-0.108658 0.28035,-0.01681 0.28035,-0.01681 z"
     id="path14"
     style="opacity:1;fill:#ffffff;fill-opacity:1;fill-rule:evenodd;stroke:#ffffff;stroke-width:0.60031825;stroke-opacity:1"
     inkscape:connector-curvature="0" /><linearGradient
     id="SVGID_3_"
     gradientUnits="userSpaceOnUse"
     x1="123.2954"
     y1="1013.9102"
     x2="119.6701"
     y2="1010.2849"
     gradientTransform="translate(-0.1797,-875.4102)"><stop
       offset="0"
       style="stop-color:#08406F"
       id="stop16" /><stop
       offset="1"
       style="stop-color:#60C5F5"
       id="stop18" /></linearGradient><path
     d="m 87.834959,70.314941 -22.52274,22.52454 -6.64252,2.67562 c 0,0 -0.34578,0.039 -0.14168,-0.24433 l 26.37138,-26.26333 z"
     id="path21"
     style="opacity:1;fill:#ffffff;fill-opacity:1;fill-rule:evenodd;stroke:#ffffff;stroke-width:0.60031825;stroke-opacity:1"
     inkscape:connector-curvature="0" /><linearGradient
     id="SVGID_4_"
     gradientUnits="userSpaceOnUse"
     x1="25.7236"
     y1="994.05078"
     x2="25.7236"
     y2="989.73828"
     gradientTransform="translate(-0.1797,-875.4102)"><stop
       offset="0"
       style="stop-color:#08406F"
       id="stop23" /><stop
       offset="1"
       style="stop-color:#60C5F5"
       id="stop25" /></linearGradient><polygon
     points="48.982,118.641 2.106,118.641 13.603,114.328 46.209,114.328 "
     id="polygon28"
     style="opacity:1;fill:#ffffff;fill-opacity:1;fill-rule:evenodd;stroke:#ffffff;stroke-opacity:1"
     transform="matrix(0.60031824,0,0,0.60031824,0.30015912,0.7998859)" /><linearGradient
     id="SVGID_5_"
     gradientUnits="userSpaceOnUse"
     x1="121.1855"
     y1="1033.1816"
     x2="121.1855"
     y2="1028.7246"
     gradientTransform="translate(-0.1797,-875.4102)"><stop
       offset="0"
       style="stop-color:#08406F"
       id="stop30" /><stop
       offset="1"
       style="stop-color:#60C5F5"
       id="stop32" /></linearGradient><polygon
     points="144.781,157.771 97.23,157.771 108.296,153.314 142.168,153.314 "
     id="polygon35"
     style="opacity:1;fill:#ffffff;fill-opacity:1;fill-rule:evenodd;stroke:#ffffff;stroke-opacity:1"
     transform="matrix(0.60031824,0,0,0.60031824,0.30015912,0.7998859)" /><linearGradient
     id="SVGID_6_"
     gradientUnits="userSpaceOnUse"
     x1="427.69379"
     y1="994.02338"
     x2="427.69379"
     y2="989.55658"
     gradientTransform="translate(-0.1797,-875.4102)"><stop
       offset="0"
       style="stop-color:#08406F"
       id="stop37" /><stop
       offset="1"
       style="stop-color:#60C5F5"
       id="stop39" /></linearGradient><polygon
     points="484.787,118.613 370.242,118.584 374.052,114.148 481.529,114.146 "
     id="polygon42"
     style="opacity:1;fill:#ffffff;fill-opacity:1;fill-rule:evenodd;stroke:#ffffff;stroke-opacity:1"
     transform="matrix(0.60031824,0,0,0.60031824,0.30015912,0.7998859)" /><linearGradient
     id="SVGID_7_"
     gradientUnits="userSpaceOnUse"
     x1="251.0645"
     y1="994.89447"
     x2="251.0645"
     y2="990.41602"
     gradientTransform="translate(-0.1797,-875.4102)"><stop
       offset="0"
       style="stop-color:#08406F"
       id="stop44" /><stop
       offset="1"
       style="stop-color:#60C5F5"
       id="stop46" /></linearGradient><path
     d="m 166.62012,72.528311 -30.93259,-0.0174 c -0.19991,0.003 -0.48626,-0.2011 -0.48626,-0.2011 l 2.73805,-2.47031 h 27.04674 z"
     id="path49"
     style="opacity:1;fill:#ffffff;fill-opacity:1;fill-rule:evenodd;stroke:#ffffff;stroke-width:0.60031825;stroke-opacity:1"
     inkscape:connector-curvature="0" /><linearGradient
     id="SVGID_8_"
     gradientUnits="userSpaceOnUse"
     x1="522.28082"
     y1="882.1875"
     x2="522.28082"
     y2="877.32422"
     gradientTransform="translate(-0.1797,-875.4102)"><stop
       offset="0"
       style="stop-color:#08406F"
       id="stop51" /><stop
       offset="1"
       style="stop-color:#60C5F5"
       id="stop53" /></linearGradient><path
     d="m 286.88128,1.9482949 h 53.21941 c 0.47125,0 0.47125,0.1879 0.47125,0.1879 l -6.34657,2.731448 h -45.12232 z"
     id="path56"
     style="opacity:1;fill:#ffffff;fill-opacity:1;fill-rule:evenodd;stroke:#ffffff;stroke-width:0.60031825;stroke-opacity:1"
     inkscape:connector-curvature="0" /><linearGradient
     id="SVGID_9_"
     gradientUnits="userSpaceOnUse"
     x1="515.01318"
     y1="906.71478"
     x2="515.01318"
     y2="902.50488"
     gradientTransform="translate(-0.1797,-875.4102)"><stop
       offset="0"
       style="stop-color:#08406F"
       id="stop58" /><stop
       offset="1"
       style="stop-color:#60C5F5"
       id="stop60" /></linearGradient><polygon
     points="539.042,31.304 492.697,31.304 490.625,27.094 535.927,27.094 "
     id="polygon63"
     style="opacity:1;fill:#ffffff;fill-opacity:1;fill-rule:evenodd;stroke:#ffffff;stroke-opacity:1"
     transform="matrix(0.60031824,0,0,0.60031824,0.30015912,0.7998859)" /><linearGradient
     id="SVGID_10_"
     gradientUnits="userSpaceOnUse"
     x1="459.3696"
     y1="950.23053"
     x2="459.3696"
     y2="946.51172"
     gradientTransform="translate(-0.1797,-875.4102)"><stop
       offset="0"
       style="stop-color:#08406F"
       id="stop65" /><stop
       offset="1"
       style="stop-color:#60C5F5"
       id="stop67" /></linearGradient><polygon
     points="473.589,74.82 448.91,74.82 444.791,71.102 470.402,71.1 "
     id="polygon70"
     style="opacity:1;fill:#ffffff;fill-opacity:1;fill-rule:evenodd;stroke:#ffffff;stroke-opacity:1"
     transform="matrix(0.60031824,0,0,0.60031824,0.30015912,0.7998859)" /><linearGradient
     id="SVGID_11_"
     gradientUnits="userSpaceOnUse"
     x1="490.16061"
     y1="925.11133"
     x2="490.16061"
     y2="919.55658"
     gradientTransform="translate(-0.1797,-875.4102)"><stop
       offset="0"
       style="stop-color:#08406F"
       id="stop72" /><stop
       offset="1"
       style="stop-color:#60C5F5"
       id="stop74" /></linearGradient><path
     d="m 295.53666,30.635703 h -8.15232 l -0.71618,-3.330566 h 15.28831 c 0.20771,-0.02581 0.26474,0.08765 0.26474,0.08765 z"
     id="path77"
     style="opacity:1;fill:#ffffff;fill-opacity:1;fill-rule:evenodd;stroke:#ffffff;stroke-width:0.60031825;stroke-opacity:1"
     inkscape:connector-curvature="0" /><linearGradient
     id="SVGID_12_"
     gradientUnits="userSpaceOnUse"
     x1="74.389198"
     y1="968.8252"
     x2="70.846001"
     y2="965.28198"
     gradientTransform="translate(-0.1797,-875.4102)"><stop
       offset="0"
       style="stop-color:#08406F"
       id="stop79" /><stop
       offset="1"
       style="stop-color:#60C5F5"
       id="stop81" /></linearGradient><path
     d="m 58.454179,43.202761 -28.74924,28.82068 -1.66468,-2.58917 27.97543,-27.83376 c 1.20064,-1.38853 2.80649,-1.03915 2.80649,-1.03915 z"
     id="path84"
     style="opacity:1;fill:#ffffff;fill-opacity:1;fill-rule:evenodd;stroke:#ffffff;stroke-width:0.60031825;stroke-opacity:1"
     inkscape:connector-curvature="0" /><linearGradient
     id="SVGID_13_"
     gradientUnits="userSpaceOnUse"
     x1="120.2554"
     y1="904.36908"
     x2="114.8892"
     y2="904.36908"
     gradientTransform="translate(-0.1797,-875.4102)"><stop
       offset="0"
       style="stop-color:#08406F"
       id="stop86" /><stop
       offset="1"
       style="stop-color:#60C5F5"
       id="stop88" /></linearGradient><path
     d="M 69.162659,31.817729 V 8.7198849 l 3.03941,-7.503378 c 0,0 0.1819,0.04502 0.1819,0.342782 0,0.295957 0,32.2052721 0,32.2052721 l -0.1891,1.387336 c 0,6e-4 -2.69903,0.01501 -3.03221,-3.334168 z"
     id="path91"
     style="opacity:1;fill:#ffffff;fill-opacity:1;fill-rule:evenodd;stroke:#ffffff;stroke-width:0.60031825;stroke-opacity:1"
     inkscape:connector-curvature="0" /><linearGradient
     id="SVGID_14_"
     gradientUnits="userSpaceOnUse"
     x1="173.0811"
     y1="919.96088"
     x2="166.4209"
     y2="919.96088"
     gradientTransform="translate(-0.1797,-875.4102)"><stop
       offset="0"
       style="stop-color:#08406F"
       id="stop93" /><stop
       offset="1"
       style="stop-color:#60C5F5"
       id="stop95" /></linearGradient><path
     d="m 104.09638,54.133961 c 0,0 -3.92548,1.17062 -3.97471,-3.37679 -0.048,-4.39013 -0.008,-41.5966521 -0.008,-41.5966521 l 3.13006,-8.342023 c 0,0 0.10926,-0.01621 0.10926,0.435231 l -0.0102,49.1018341 z"
     id="path98"
     style="opacity:1;fill:#ffffff;fill-opacity:1;fill-rule:evenodd;stroke:#ffffff;stroke-width:0.60031825;stroke-opacity:1"
     inkscape:connector-curvature="0" /><linearGradient
     id="SVGID_15_"
     gradientUnits="userSpaceOnUse"
     x1="255.9883"
     y1="925.21582"
     x2="249.9951"
     y2="925.21582"
     gradientTransform="translate(-0.1797,-875.4102)"><stop
       offset="0"
       style="stop-color:#08406F"
       id="stop100" /><stop
       offset="1"
       style="stop-color:#60C5F5"
       id="stop102" /></linearGradient><path
     d="m 153.86696,60.177361 c 0,0 -3.53527,0.34639 -3.57789,-3.65474 l -0.0198,-48.0632741 2.79208,-7.246442 c 0,0 0.34998,0.09185 0.34998,0.544489 l -0.01,54.7130071 z"
     id="path105"
     style="opacity:1;fill:#ffffff;fill-opacity:1;fill-rule:evenodd;stroke:#ffffff;stroke-width:0.60031825;stroke-opacity:1"
     inkscape:connector-curvature="0" /><linearGradient
     id="SVGID_16_"
     gradientUnits="userSpaceOnUse"
     x1="349.27689"
     y1="904.625"
     x2="343.57571"
     y2="904.625"
     gradientTransform="translate(-0.1797,-875.4102)"><stop
       offset="0"
       style="stop-color:#08406F"
       id="stop107" /><stop
       offset="1"
       style="stop-color:#60C5F5"
       id="stop109" /></linearGradient><path
     d="m 209.86945,35.273161 c 0,0 -2.92235,0.271344 -3.42241,-2.739252 V 8.6874679 l 2.6372,-7.292066 c 0,0 0.33797,0.08044 0.33797,0.531882 V 31.74329 Z"
     id="path112"
     style="opacity:1;fill:#ffffff;fill-opacity:1;fill-rule:evenodd;stroke:#ffffff;stroke-width:0.60031825;stroke-opacity:1"
     inkscape:connector-curvature="0" /><linearGradient
     id="SVGID_17_"
     gradientUnits="userSpaceOnUse"
     x1="400.96039"
     y1="918.44629"
     x2="395.1636"
     y2="918.44629"
     gradientTransform="translate(-0.1797,-875.4102)"><stop
       offset="0"
       style="stop-color:#08406F"
       id="stop114" /><stop
       offset="1"
       style="stop-color:#60C5F5"
       id="stop116" /></linearGradient><path
     d="m 240.8963,52.026841 c 0,0 -2.96437,0.38601 -3.48005,-2.62519 V 8.7565039 l 2.91155,-7.530392 c 0,0 0.16088,0.13267 0.16088,1.025344 V 48.611631 Z"
     id="path119"
     style="opacity:1;fill:#ffffff;fill-opacity:1;fill-rule:evenodd;stroke:#ffffff;stroke-width:0.60031825;stroke-opacity:1"
     inkscape:connector-curvature="0" /><linearGradient
     id="SVGID_18_"
     gradientUnits="userSpaceOnUse"
     x1="101.7651"
     y1="968.93848"
     x2="96.654297"
     y2="968.93848"
     gradientTransform="translate(-0.1797,-875.4102)"><stop
       offset="0"
       style="stop-color:#08406F"
       id="stop121" /><stop
       offset="1"
       style="stop-color:#60C5F5"
       id="stop123" /></linearGradient><path
     d="m 58.986669,73.330341 c 0,0 -0.50007,-0.0414 -0.48566,-0.68977 -6e-4,-0.55049 -0.0468,-29.43721 -0.0468,-29.43721 0,0 -0.73118,-0.9467 0.368,-2.6414 0.32837,0.0786 2.09811,0.43643 2.4619,2.55496 v 24.23484 z"
     id="path126"
     style="opacity:1;fill:#ffffff;fill-opacity:1;fill-rule:evenodd;stroke:#ffffff;stroke-width:0.60031825;stroke-opacity:1"
     inkscape:connector-curvature="0" /><linearGradient
     id="SVGID_19_"
     gradientUnits="userSpaceOnUse"
     x1="121.2485"
     y1="973.83789"
     x2="117.6964"
     y2="970.28583"
     gradientTransform="translate(-0.1797,-875.4102)"><stop
       offset="0"
       style="stop-color:#08406F"
       id="stop128" /><stop
       offset="1"
       style="stop-color:#60C5F5"
       id="stop130" /></linearGradient><path
     d="m 84.850779,47.983701 c 0,0 -24.90661,24.94202 -25.14313,25.17615 -0.20771,0.22752 -0.72158,0.16929 -0.72158,0.16929 l 2.29741,-5.98098 21.64688,-21.66428 c 0,0 0.80443,-1.03675 2.29982,-0.98272 z"
     id="path133"
     style="opacity:1;fill:#ffffff;fill-opacity:1;fill-rule:evenodd;stroke:#ffffff;stroke-width:0.60031825;stroke-opacity:1"
     inkscape:connector-curvature="0" /><linearGradient
     id="SVGID_20_"
     gradientUnits="userSpaceOnUse"
     x1="553.43597"
     y1="892.5"
     x2="549.76727"
     y2="888.83112"
     gradientTransform="translate(-0.1797,-875.4102)"><stop
       offset="0"
       style="stop-color:#08406F"
       id="stop135" /><stop
       offset="1"
       style="stop-color:#60C5F5"
       id="stop137" /></linearGradient><path
     d="m 340.44587,2.9844439 -16.54837,16.6078051 -1.86999,-2.527941 12.19366,-12.2008681 6.35257,-2.726645 c 0,6e-4 0.20951,0.508469 -0.12787,0.847649 z"
     id="path140"
     style="opacity:1;fill:#ffffff;fill-opacity:1;fill-rule:evenodd;stroke:#ffffff;stroke-width:0.60031825;stroke-opacity:1"
     inkscape:connector-curvature="0" /><linearGradient
     id="SVGID_21_"
     gradientUnits="userSpaceOnUse"
     x1="145.99409"
     y1="969.87891"
     x2="140.5957"
     y2="969.87891"
     gradientTransform="translate(-0.1797,-875.4102)"><stop
       offset="0"
       style="stop-color:#08406F"
       id="stop142" /><stop
       offset="1"
       style="stop-color:#60C5F5"
       id="stop144" /></linearGradient><path
     d="m 84.899399,69.005641 -0.0474,-21.02614 c 0,0 -0.78102,-1.58064 0.3788,-3.27534 0.35599,-0.004 2.22118,0.25273 2.60478,2.48892 l -6e-4,23.12426 z"
     id="path147"
     style="opacity:1;fill:#ffffff;fill-opacity:1;fill-rule:evenodd;stroke:#ffffff;stroke-width:0.60031825;stroke-opacity:1"
     inkscape:connector-curvature="0" /><linearGradient
     id="SVGID_22_"
     gradientUnits="userSpaceOnUse"
     x1="148.7769"
     y1="907.00983"
     x2="144.28909"
     y2="902.52197"
     gradientTransform="translate(-0.1797,-875.4102)"><stop
       offset="0"
       style="stop-color:#08406F"
       id="stop149" /><stop
       offset="1"
       style="stop-color:#60C5F5"
       id="stop151" /></linearGradient><path
     d="M 100.11447,9.1599179 75.224069,34.050913 c -1.19283,1.192232 -3.0286,1.102185 -3.0286,1.102185 -1.07757,-2.119724 0.1891,-3.640931 0.1891,-3.640931 0,0 30.317871,-30.3100681 30.536391,-30.5381891 0.1987,-0.250332 0.32477,-0.158484 0.32477,-0.158484 z"
     id="path154"
     style="opacity:1;fill:#ffffff;fill-opacity:1;fill-rule:evenodd;stroke:#ffffff;stroke-width:0.60031825;stroke-opacity:1"
     inkscape:connector-curvature="0" /><linearGradient
     id="SVGID_23_"
     gradientUnits="userSpaceOnUse"
     x1="215.8457"
     y1="922.32129"
     x2="211.688"
     y2="918.16357"
     gradientTransform="translate(-0.1797,-875.4102)"><stop
       offset="0"
       style="stop-color:#08406F"
       id="stop156" /><stop
       offset="1"
       style="stop-color:#60C5F5"
       id="stop158" /></linearGradient><path
     d="M 150.26866,8.4611479 105.61939,53.109821 c -0.9305,0.93109 -1.52301,1.02234 -1.52301,1.02234 -2.2698,-1.1274 -0.72819,-3.75499 -0.72819,-3.75499 0,0 48.41687,-48.4066641 48.63539,-48.6347851 0.5661,-0.656148 1.05716,-0.530081 1.05716,-0.530081 z"
     id="path161"
     style="opacity:1;fill:#ffffff;fill-opacity:1;fill-rule:evenodd;stroke:#ffffff;stroke-width:0.60031825;stroke-opacity:1"
     inkscape:connector-curvature="0" /><linearGradient
     id="SVGID_24_"
     gradientUnits="userSpaceOnUse"
     x1="304.31589"
     y1="927.81049"
     x2="299.9317"
     y2="923.42627"
     gradientTransform="translate(-0.1797,-875.4102)"><stop
       offset="0"
       style="stop-color:#08406F"
       id="stop163" /><stop
       offset="1"
       style="stop-color:#60C5F5"
       id="stop165" /></linearGradient><path
     d="M 206.44704,8.6874679 155.92245,59.210851 c -0.85785,0.85966 -2.05549,0.96531 -2.05549,0.96531 -1.86999,-0.93409 -0.46584,-3.70696 -0.46584,-3.70696 0,0 54.39483,-54.3288041 54.61335,-54.5575251 0.5649,-0.65915 1.06916,-0.517475 1.06916,-0.517475 z"
     id="path168"
     style="opacity:1;fill:#ffffff;fill-opacity:1;fill-rule:evenodd;stroke:#ffffff;stroke-width:0.60031825;stroke-opacity:1"
     inkscape:connector-curvature="0" /><linearGradient
     id="SVGID_25_"
     gradientUnits="userSpaceOnUse"
     x1="376.97119"
     y1="906.86133"
     x2="372.76331"
     y2="902.65302"
     gradientTransform="translate(-0.1797,-875.4102)"><stop
       offset="0"
       style="stop-color:#08406F"
       id="stop170" /><stop
       offset="1"
       style="stop-color:#60C5F5"
       id="stop172" /></linearGradient><path
     d="M 237.41625,8.7565039 211.89493,34.278434 c -0.85786,0.859656 -2.02548,0.994727 -2.02548,0.994727 -1.76013,-1.145407 -0.35299,-3.591704 -0.35299,-3.591704 0,0 29.76618,-29.8298131 29.9841,-30.0579341 0.62853,-0.620129 0.82664,-0.39621 0.82664,-0.39621 z"
     id="path175"
     style="opacity:1;fill:#ffffff;fill-opacity:1;fill-rule:evenodd;stroke:#ffffff;stroke-width:0.60031825;stroke-opacity:1"
     inkscape:connector-curvature="0" /><linearGradient
     id="SVGID_26_"
     gradientUnits="userSpaceOnUse"
     x1="488.73779"
     y1="935.26459"
     x2="485.28159"
     y2="931.80859"
     gradientTransform="translate(-0.1797,-875.4102)"><stop
       offset="0"
       style="stop-color:#08406F"
       id="stop177" /><stop
       offset="1"
       style="stop-color:#60C5F5"
       id="stop179" /></linearGradient><path
     d="m 302.23502,28.086151 -17.63075,17.62955 -1.91382,-2.23439 12.84621,-12.845608 6.68455,-3.242319 c 0,0 0.24853,0.176494 0.0138,0.692767 z"
     id="path182"
     style="opacity:1;fill:#ffffff;fill-opacity:1;fill-rule:evenodd;stroke:#ffffff;stroke-width:0.60031825;stroke-opacity:1"
     inkscape:connector-curvature="0" /><linearGradient
     id="SVGID_27_"
     gradientUnits="userSpaceOnUse"
     x1="499.80811"
     y1="979.37701"
     x2="495.84851"
     y2="975.41748"
     gradientTransform="translate(-0.1797,-875.4102)"><stop
       offset="0"
       style="stop-color:#08406F"
       id="stop184" /><stop
       offset="1"
       style="stop-color:#60C5F5"
       id="stop186" /></linearGradient><path
     d="m 308.64401,54.804511 -17.31798,17.19972 -1.95583,-2.68042 12.03578,-12.03578 7.37731,-3.22971 c 6e-4,0.002 0.23832,0.26114 -0.13928,0.74619 z"
     id="path189"
     style="opacity:1;fill:#ffffff;fill-opacity:1;fill-rule:evenodd;stroke:#ffffff;stroke-width:0.60031825;stroke-opacity:1"
     inkscape:connector-curvature="0" /><linearGradient
     id="SVGID_28_"
     gradientUnits="userSpaceOnUse"
     x1="441.8374"
     y1="921.61328"
     x2="437.55469"
     y2="917.33063"
     gradientTransform="translate(-0.1797,-875.4102)"><stop
       offset="0"
       style="stop-color:#08406F"
       id="stop191" /><stop
       offset="1"
       style="stop-color:#60C5F5"
       id="stop193" /></linearGradient><path
     d="M 289.10305,4.8682429 242.93138,51.040521 c -0.85846,0.85965 -2.03808,0.98692 -2.03808,0.98692 -1.47018,-1.85618 -0.41182,-3.5893 -0.41182,-3.5893 l 46.398,-46.4886451 z"
     id="path196"
     style="opacity:1;fill:#ffffff;fill-opacity:1;fill-rule:evenodd;stroke:#ffffff;stroke-width:0.60031825;stroke-opacity:1"
     inkscape:connector-curvature="0" /><linearGradient
     id="SVGID_29_"
     gradientUnits="userSpaceOnUse"
     x1="486.85889"
     y1="916.64941"
     x2="481.74481"
     y2="911.53528"
     gradientTransform="translate(-0.1797,-875.4102)"><stop
       offset="0"
       style="stop-color:#08406F"
       id="stop198" /><stop
       offset="1"
       style="stop-color:#60C5F5"
       id="stop200" /></linearGradient><path
     d="m 296.07515,19.592249 -7.60963,7.675669 c -1.66349,1.369926 -1.08118,3.366584 -1.08118,3.366584 -1.35071,-0.126067 -1.87599,-1.239657 -2.04828,-2.218176 -0.17109,-0.978518 0.18189,-2.054289 0.80923,-2.681621 l 8.686,-8.668596 z"
     id="path203"
     style="opacity:1;fill:#ffffff;fill-opacity:1;fill-rule:evenodd;stroke:#ffffff;stroke-width:0.60031825;stroke-opacity:1"
     inkscape:connector-curvature="0" /><linearGradient
     id="SVGID_30_"
     gradientUnits="userSpaceOnUse"
     x1="185.9771"
     y1="992.33008"
     x2="182.33521"
     y2="988.68817"
     gradientTransform="translate(-0.1797,-875.4102)"><stop
       offset="0"
       style="stop-color:#08406F"
       id="stop205" /><stop
       offset="1"
       style="stop-color:#60C5F5"
       id="stop207" /></linearGradient><path
     d="m 85.647399,92.838281 46.772591,-46.79061 c 0,0 0.86266,-1.12439 2.56156,-1.06316 l -0.27374,3.13546 c 0,0 -47.224641,47.12859 -47.492981,47.39393 z"
     id="path210"
     style="opacity:1;fill:#ffffff;fill-opacity:1;fill-rule:evenodd;stroke:#ffffff;stroke-width:0.60031825;stroke-opacity:1"
     inkscape:connector-curvature="0" /><linearGradient
     id="SVGID_31_"
     gradientUnits="userSpaceOnUse"
     x1="303.0278"
     y1="969.13959"
     x2="299.3873"
     y2="965.49908"
     gradientTransform="translate(-0.1797,-875.4102)"><stop
       offset="0"
       style="stop-color:#08406F"
       id="stop212" /><stop
       offset="1"
       style="stop-color:#60C5F5"
       id="stop214" /></linearGradient><path
     d="m 164.98546,69.838891 28.60096,-28.61057 c 0,0 0.86266,-1.1232 2.56156,-1.06317 l -0.51448,3.37439 -29.01037,28.98937 z"
     id="path217"
     style="opacity:1;fill:#ffffff;fill-opacity:1;fill-rule:evenodd;stroke:#ffffff;stroke-width:0.60031825;stroke-opacity:1"
     inkscape:connector-curvature="0" /><linearGradient
     id="SVGID_32_"
     gradientUnits="userSpaceOnUse"
     x1="349.88919"
     y1="973.08502"
     x2="346.37991"
     y2="969.57562"
     gradientTransform="translate(-0.1797,-875.4102)"><stop
       offset="0"
       style="stop-color:#08406F"
       id="stop219" /><stop
       offset="1"
       style="stop-color:#60C5F5"
       id="stop221" /></linearGradient><path
     d="m 198.48021,66.984971 22.07911,-22.08511 c 0.50547,-0.50607 1.06796,-1.06316 2.03868,-1.06316 l -0.0642,3.30235 -25.8623,25.8395 c -0.34159,0.33798 -0.61173,0.23953 -0.61173,0.23953 z"
     id="path224"
     style="opacity:1;fill:#ffffff;fill-opacity:1;fill-rule:evenodd;stroke:#ffffff;stroke-width:0.60031825;stroke-opacity:1"
     inkscape:connector-curvature="0" /><linearGradient
     id="SVGID_33_"
     gradientUnits="userSpaceOnUse"
     x1="370.8042"
     y1="993.63959"
     x2="366.38129"
     y2="989.21692"
     gradientTransform="translate(-0.1797,-875.4102)"><stop
       offset="0"
       style="stop-color:#08406F"
       id="stop226" /><stop
       offset="1"
       style="stop-color:#60C5F5"
       id="stop228" /></linearGradient><path
     d="m 217.60575,71.671661 4.35231,-4.37092 3.33597,1.39634 -0.44064,0.62853 -2.28901,2.66362 -0.16329,0.18009 h -4.63445 c -0.20411,0.008 -0.31277,-0.16269 -0.31277,-0.16269 0,0 -0.0931,-0.0882 0.15188,-0.33497 z"
     id="path231"
     style="opacity:1;fill:#ffffff;fill-opacity:1;fill-rule:evenodd;stroke:#ffffff;stroke-width:0.60031825;stroke-opacity:1"
     inkscape:connector-curvature="0" /><linearGradient
     id="SVGID_34_"
     gradientUnits="userSpaceOnUse"
     x1="229.457"
     y1="971.76862"
     x2="223.4189"
     y2="971.76862"
     gradientTransform="translate(-0.1797,-875.4102)"><stop
       offset="0"
       style="stop-color:#08406F"
       id="stop233" /><stop
       offset="1"
       style="stop-color:#60C5F5"
       id="stop235" /></linearGradient><path
     d="m 134.76124,71.240031 -0.054,-23.12126 c 0,0 -1.04336,-1.21024 0.27434,-3.13546 0.40402,-0.006 2.52254,0.28695 2.95837,2.8257 l -6e-4,22.02807 -2.73805,2.47031 c 0,0.002 -0.43823,-0.28515 -0.44003,-1.06736 z"
     id="path238"
     style="opacity:1;fill:#ffffff;fill-opacity:1;fill-rule:evenodd;stroke:#ffffff;stroke-width:0.60031825;stroke-opacity:1"
     inkscape:connector-curvature="0" /><linearGradient
     id="SVGID_35_"
     gradientUnits="userSpaceOnUse"
     x1="330.3042"
     y1="968.51862"
     x2="325.09229"
     y2="968.51862"
     gradientTransform="translate(-0.1797,-875.4102)"><stop
       offset="0"
       style="stop-color:#08406F"
       id="stop240" /><stop
       offset="1"
       style="stop-color:#60C5F5"
       id="stop242" /></linearGradient><path
     d="m 195.67313,72.805061 -0.048,-29.26552 c 0,0 -0.88367,-1.60945 0.52288,-3.37439 0.35779,-0.005 1.94683,0.28335 2.33223,2.8227 v 23.99772 l -2.41808,6.23731 c -0.002,-0.001 -0.36319,-0.0858 -0.389,-0.41782 z"
     id="path245"
     style="opacity:1;fill:#ffffff;fill-opacity:1;fill-rule:evenodd;stroke:#ffffff;stroke-width:0.60031825;stroke-opacity:1"
     inkscape:connector-curvature="0" /><linearGradient
     id="SVGID_36_"
     gradientUnits="userSpaceOnUse"
     x1="374.97021"
     y1="967.80658"
     x2="368.7251"
     y2="967.80658"
     gradientTransform="translate(-0.1797,-875.4102)"><stop
       offset="0"
       style="stop-color:#08406F"
       id="stop247" /><stop
       offset="1"
       style="stop-color:#60C5F5"
       id="stop249" /></linearGradient><path
     d="m 221.95806,67.300141 v -19.58779 c 0,0 -1.26847,-2.02847 0.63874,-3.87565 0.41602,-0.005 2.48051,0.14408 2.69663,2.59518 v 22.2646 z"
     id="path252"
     style="opacity:1;fill:#ffffff;fill-opacity:1;fill-rule:evenodd;stroke:#ffffff;stroke-width:0.60031825;stroke-opacity:1"
     inkscape:connector-curvature="0" /><linearGradient
     id="SVGID_37_"
     gradientUnits="userSpaceOnUse"
     x1="440.63721"
     y1="959.6748"
     x2="436.21909"
     y2="955.25677"
     gradientTransform="translate(-0.1797,-875.4102)"><stop
       offset="0"
       style="stop-color:#08406F"
       id="stop254" /><stop
       offset="1"
       style="stop-color:#60C5F5"
       id="stop256" /></linearGradient><path
     d="m 269.78902,45.715701 -8.07488,8.09168 -2.30763,2.88694 c -2.33884,-1.47559 -1.17242,-4.12659 -0.54749,-4.75753 l 8.45728,-8.45188 z"
     id="path259"
     style="opacity:1;fill:#ffffff;fill-opacity:1;fill-rule:evenodd;stroke:#ffffff;stroke-width:0.60031825;stroke-opacity:1"
     inkscape:connector-curvature="0" /><linearGradient
     id="SVGID_38_"
     gradientUnits="userSpaceOnUse"
     x1="472.92041"
     y1="969.50983"
     x2="472.92041"
     y2="963.70801"
     gradientTransform="translate(-0.1797,-875.4102)"><stop
       offset="0"
       style="stop-color:#08406F"
       id="stop261" /><stop
       offset="1"
       style="stop-color:#60C5F5"
       id="stop263" /></linearGradient><path
     d="m 301.40778,57.288631 h -39.85573 c -1.502,-0.11766 -2.14554,-0.59552 -2.14554,-0.59552 -0.007,-2.14373 2.30763,-2.88693 2.30763,-2.88693 l 46.67234,6e-4 c 0.32597,-6e-4 0.39741,0.25334 0.39741,0.25334 z"
     id="path266"
     style="opacity:1;fill:#ffffff;fill-opacity:1;fill-rule:evenodd;stroke:#ffffff;stroke-width:0.60031825;stroke-opacity:1"
     inkscape:connector-curvature="0" /><g
     id="g284"
     style="opacity:1;fill:#ffffff;fill-opacity:1;fill-rule:evenodd;stroke:#ffffff;stroke-opacity:1"
     transform="matrix(0.60031824,0,0,0.60031824,0.30015912,0.7998859)"><path
       d="m 0,142.055 v -9.521 h 2.876 l 1.728,6.494 1.708,-6.494 h 2.883 v 9.521 H 7.41 v -7.496 l -1.89,7.496 H 3.669 l -1.883,-7.496 v 7.496 z"
       id="path268"
       style="fill:#ffffff;fill-opacity:1;fill-rule:evenodd;stroke:#ffffff;stroke-opacity:1"
       inkscape:connector-curvature="0" /><path
       d="m 17.224,132.532 h 1.922 v 5.155 c 0,0.816 0.024,1.35 0.071,1.592 0.083,0.391 0.278,0.701 0.588,0.938 0.31,0.237 0.732,0.354 1.27,0.354 0.545,0 0.957,-0.11 1.234,-0.334 0.277,-0.223 0.443,-0.496 0.5,-0.821 0.056,-0.324 0.084,-0.863 0.084,-1.616 v -5.268 h 1.922 v 5.001 c 0,1.144 -0.052,1.95 -0.155,2.423 -0.104,0.472 -0.296,0.87 -0.575,1.193 -0.279,0.324 -0.652,0.582 -1.12,0.773 -0.468,0.192 -1.078,0.289 -1.832,0.289 -0.909,0 -1.599,-0.104 -2.068,-0.313 -0.47,-0.211 -0.841,-0.482 -1.114,-0.818 -0.273,-0.335 -0.452,-0.688 -0.539,-1.057 -0.125,-0.545 -0.188,-1.353 -0.188,-2.416 z"
       id="path270"
       style="fill:#ffffff;fill-opacity:1;fill-rule:evenodd;stroke:#ffffff;stroke-opacity:1"
       inkscape:connector-curvature="0" /><path
       d="m 33.025,142.055 v -9.443 h 1.922 v 7.84 h 4.78 v 1.604 h -6.702 z"
       id="path272"
       style="fill:#ffffff;fill-opacity:1;fill-rule:evenodd;stroke:#ffffff;stroke-opacity:1"
       inkscape:connector-curvature="0" /><path
       d="m 48.385,142.055 v -7.91 H 45.56 v -1.61 h 7.566 v 1.61 h -2.819 v 7.91 z"
       id="path274"
       style="fill:#ffffff;fill-opacity:1;fill-rule:evenodd;stroke:#ffffff;stroke-opacity:1"
       inkscape:connector-curvature="0" /><path
       d="m 60.438,142.055 v -9.521 h 1.922 v 9.521 z"
       id="path276"
       style="fill:#ffffff;fill-opacity:1;fill-rule:evenodd;stroke:#ffffff;stroke-opacity:1"
       inkscape:connector-curvature="0" /><path
       d="m 70.324,142.055 v -9.521 h 3.085 c 1.169,0 1.931,0.048 2.286,0.144 0.545,0.146 1.002,0.453 1.37,0.935 0.368,0.479 0.552,1.098 0.552,1.854 0,0.584 -0.106,1.075 -0.318,1.477 -0.212,0.396 -0.482,0.711 -0.809,0.938 -0.327,0.229 -0.659,0.378 -0.997,0.452 -0.459,0.09 -1.124,0.136 -1.994,0.136 h -1.253 v 3.594 z m 1.922,-7.91 v 2.701 h 1.052 c 0.757,0 1.264,-0.053 1.52,-0.15 0.256,-0.098 0.456,-0.254 0.601,-0.467 0.145,-0.213 0.217,-0.459 0.217,-0.74 0,-0.346 -0.102,-0.633 -0.305,-0.856 -0.204,-0.225 -0.461,-0.362 -0.773,-0.422 -0.229,-0.043 -0.691,-0.063 -1.383,-0.063 z"
       id="path278"
       style="fill:#ffffff;fill-opacity:1;fill-rule:evenodd;stroke:#ffffff;stroke-opacity:1"
       inkscape:connector-curvature="0" /><path
       d="m 85.378,142.055 v -9.443 H 87.3 v 7.84 h 4.78 v 1.604 h -6.702 z"
       id="path280"
       style="fill:#ffffff;fill-opacity:1;fill-rule:evenodd;stroke:#ffffff;stroke-opacity:1"
       inkscape:connector-curvature="0" /><path
       d="m 99.582,142.055 v -9.521 h 7.059 v 1.609 h -5.137 v 2.108 h 4.78 v 1.604 h -4.78 v 2.592 h 5.319 v 1.604 z"
       id="path282"
       style="fill:#ffffff;fill-opacity:1;fill-rule:evenodd;stroke:#ffffff;stroke-opacity:1"
       inkscape:connector-curvature="0" /></g><g
     id="g298"
     style="opacity:1;fill:#ffffff;fill-opacity:1;fill-rule:evenodd;stroke:#ffffff;stroke-opacity:1"
     transform="matrix(0.60031824,0,0,0.60031824,0.30015912,0.7998859)"><path
       d="m 189.966,142.055 h -2.091 l -0.831,-2.164 h -3.806 l -0.786,2.164 h -2.039 l 3.708,-9.521 h 2.032 z m -3.539,-3.769 -1.313,-3.532 -1.286,3.532 z"
       id="path286"
       style="fill:#ffffff;fill-opacity:1;fill-rule:evenodd;stroke:#ffffff;stroke-opacity:1"
       inkscape:connector-curvature="0" /><path
       d="m 197.124,142.055 v -9.521 h 4.046 c 1.018,0 1.757,0.086 2.218,0.258 0.461,0.171 0.83,0.477 1.107,0.912 0.277,0.438 0.416,0.938 0.416,1.5 0,0.714 -0.21,1.304 -0.63,1.771 -0.419,0.465 -1.047,0.758 -1.883,0.879 0.416,0.242 0.758,0.51 1.029,0.799 0.271,0.291 0.635,0.808 1.094,1.548 l 1.162,1.856 h -2.299 l -1.39,-2.072 c -0.493,-0.739 -0.832,-1.207 -1.013,-1.398 -0.181,-0.189 -0.375,-0.322 -0.578,-0.396 -0.203,-0.069 -0.526,-0.104 -0.968,-0.104 h -0.389 v 3.978 h -1.922 z m 1.922,-5.496 h 1.422 c 0.922,0 1.498,-0.037 1.727,-0.115 0.23,-0.077 0.409,-0.213 0.539,-0.402 0.13,-0.188 0.195,-0.43 0.195,-0.714 0,-0.32 -0.085,-0.579 -0.256,-0.776 -0.171,-0.193 -0.412,-0.318 -0.724,-0.371 -0.156,-0.021 -0.623,-0.031 -1.403,-0.031 h -1.5 z"
       id="path288"
       style="fill:#ffffff;fill-opacity:1;fill-rule:evenodd;stroke:#ffffff;stroke-opacity:1"
       inkscape:connector-curvature="0" /><path
       d="m 218.945,138.552 1.864,0.593 c -0.286,1.041 -0.761,1.813 -1.425,2.313 -0.664,0.504 -1.508,0.757 -2.53,0.757 -1.264,0 -2.303,-0.433 -3.117,-1.296 -0.814,-0.86 -1.221,-2.044 -1.221,-3.542 0,-1.585 0.409,-2.813 1.228,-3.689 0.818,-0.877 1.894,-1.313 3.228,-1.313 1.165,0 2.11,0.344 2.838,1.03 0.433,0.406 0.757,0.992 0.974,1.755 l -1.903,0.452 c -0.113,-0.491 -0.347,-0.881 -0.705,-1.168 -0.358,-0.284 -0.791,-0.428 -1.302,-0.428 -0.706,0 -1.278,0.252 -1.718,0.76 -0.44,0.507 -0.66,1.326 -0.66,2.461 0,1.203 0.217,2.062 0.65,2.572 0.433,0.51 0.996,0.767 1.688,0.767 0.511,0 0.95,-0.162 1.318,-0.486 0.369,-0.33 0.633,-0.84 0.793,-1.538 z"
       id="path290"
       style="fill:#ffffff;fill-opacity:1;fill-rule:evenodd;stroke:#ffffff;stroke-opacity:1"
       inkscape:connector-curvature="0" /><path
       d="m 237.175,142.055 h -2.091 l -0.832,-2.164 h -3.806 l -0.786,2.164 h -2.039 l 3.708,-9.521 h 2.033 z m -3.539,-3.769 -1.313,-3.532 -1.286,3.532 z"
       id="path292"
       style="fill:#ffffff;fill-opacity:1;fill-rule:evenodd;stroke:#ffffff;stroke-opacity:1"
       inkscape:connector-curvature="0" /><path
       d="m 244.32,132.532 h 3.514 c 0.792,0 1.396,0.062 1.812,0.183 0.559,0.165 1.037,0.457 1.435,0.877 0.398,0.419 0.702,0.936 0.91,1.542 0.208,0.608 0.312,1.358 0.312,2.251 0,0.782 -0.098,1.458 -0.292,2.025 -0.238,0.691 -0.578,1.254 -1.02,1.682 -0.333,0.325 -0.784,0.578 -1.351,0.762 -0.424,0.136 -0.991,0.203 -1.701,0.203 h -3.617 v -9.521 z m 1.922,1.613 v 6.307 h 1.435 c 0.537,0 0.924,-0.03 1.163,-0.092 0.312,-0.077 0.57,-0.211 0.776,-0.396 0.206,-0.188 0.374,-0.49 0.503,-0.92 0.13,-0.426 0.195,-1.007 0.195,-1.743 0,-0.733 -0.065,-1.301 -0.195,-1.692 -0.13,-0.396 -0.312,-0.701 -0.545,-0.924 -0.234,-0.223 -0.53,-0.369 -0.89,-0.447 -0.269,-0.063 -0.795,-0.09 -1.578,-0.09 z"
       id="path294"
       style="fill:#ffffff;fill-opacity:1;fill-rule:evenodd;stroke:#ffffff;stroke-opacity:1"
       inkscape:connector-curvature="0" /><path
       d="m 260.063,142.055 v -9.521 h 7.059 v 1.609 h -5.137 v 2.108 h 4.78 v 1.604 h -4.78 v 2.592 h 5.319 v 1.604 z"
       id="path296"
       style="fill:#ffffff;fill-opacity:1;fill-rule:evenodd;stroke:#ffffff;stroke-opacity:1"
       inkscape:connector-curvature="0" /></g><g
     id="g314"
     style="opacity:1;fill:#ffffff;fill-opacity:1;fill-rule:evenodd;stroke:#ffffff;stroke-opacity:1"
     transform="matrix(0.60031824,0,0,0.60031824,0.30015912,0.7998859)"><path
       d="m 283.18,142.055 v -9.521 h 2.877 l 1.729,6.494 1.707,-6.494 h 2.883 v 9.521 h -1.785 v -7.496 l -1.891,7.496 h -1.854 l -1.887,-7.496 v 7.496 z"
       id="path300"
       style="fill:#ffffff;fill-opacity:1;fill-rule:evenodd;stroke:#ffffff;stroke-opacity:1"
       inkscape:connector-curvature="0" /><path
       d="m 309.001,142.055 h -2.09 l -0.832,-2.164 h -3.809 l -0.782,2.164 h -2.04 l 3.709,-9.521 h 2.029 z m -3.539,-3.769 -1.313,-3.532 -1.286,3.532 z"
       id="path302"
       style="fill:#ffffff;fill-opacity:1;fill-rule:evenodd;stroke:#ffffff;stroke-opacity:1"
       inkscape:connector-curvature="0" /><path
       d="m 322.246,138.552 1.863,0.593 c -0.285,1.041 -0.761,1.813 -1.425,2.313 -0.665,0.505 -1.509,0.757 -2.53,0.757 -1.264,0 -2.303,-0.433 -3.115,-1.296 -0.813,-0.86 -1.223,-2.044 -1.223,-3.542 0,-1.585 0.409,-2.813 1.229,-3.689 0.818,-0.877 1.896,-1.313 3.229,-1.313 1.165,0 2.108,0.344 2.839,1.03 0.434,0.406 0.76,0.992 0.977,1.755 l -1.902,0.452 c -0.111,-0.491 -0.35,-0.881 -0.704,-1.168 -0.356,-0.284 -0.791,-0.428 -1.303,-0.428 -0.705,0 -1.277,0.252 -1.718,0.76 -0.439,0.507 -0.66,1.326 -0.66,2.461 0,1.203 0.218,2.062 0.648,2.572 0.434,0.51 0.994,0.767 1.688,0.767 0.51,0 0.946,-0.162 1.313,-0.486 0.369,-0.33 0.633,-0.84 0.794,-1.538 z"
       id="path304"
       style="fill:#ffffff;fill-opacity:1;fill-rule:evenodd;stroke:#ffffff;stroke-opacity:1"
       inkscape:connector-curvature="0" /><path
       d="m 331.897,142.055 v -9.521 h 1.923 v 3.748 h 3.766 v -3.748 h 1.924 v 9.521 h -1.924 v -4.164 h -3.766 v 4.164 z"
       id="path306"
       style="fill:#ffffff;fill-opacity:1;fill-rule:evenodd;stroke:#ffffff;stroke-opacity:1"
       inkscape:connector-curvature="0" /><path
       d="m 347.569,142.055 v -9.521 h 1.923 v 9.521 z"
       id="path308"
       style="fill:#ffffff;fill-opacity:1;fill-rule:evenodd;stroke:#ffffff;stroke-opacity:1"
       inkscape:connector-curvature="0" /><path
       d="m 357.472,142.055 v -9.521 h 1.871 l 3.896,6.357 v -6.357 h 1.786 v 9.521 h -1.929 l -3.839,-6.209 v 6.209 z"
       id="path310"
       style="fill:#ffffff;fill-opacity:1;fill-rule:evenodd;stroke:#ffffff;stroke-opacity:1"
       inkscape:connector-curvature="0" /><path
       d="m 373.19,142.055 v -9.521 h 7.06 v 1.609 h -5.138 v 2.108 h 4.78 v 1.604 h -4.78 v 2.592 h 5.319 v 1.604 z"
       id="path312"
       style="fill:#ffffff;fill-opacity:1;fill-rule:evenodd;stroke:#ffffff;stroke-opacity:1"
       inkscape:connector-curvature="0" /></g><g
     id="g332"
     style="opacity:1;fill:#ffffff;fill-opacity:1;fill-rule:evenodd;stroke:#ffffff;stroke-opacity:1"
     transform="matrix(0.60031824,0,0,0.60031824,0.30015912,0.7998859)"><path
       d="m 397.091,142.055 v -9.521 h 7.06 v 1.609 h -5.137 v 2.108 h 4.78 v 1.604 h -4.78 v 2.592 h 5.319 v 1.604 z"
       id="path316"
       style="fill:#ffffff;fill-opacity:1;fill-rule:evenodd;stroke:#ffffff;stroke-opacity:1"
       inkscape:connector-curvature="0" /><path
       d="m 412.069,142.055 v -9.521 h 2.877 l 1.728,6.494 1.709,-6.494 h 2.883 v 9.521 h -1.783 v -7.496 l -1.893,7.496 h -1.852 l -1.884,-7.496 v 7.496 z"
       id="path318"
       style="fill:#ffffff;fill-opacity:1;fill-rule:evenodd;stroke:#ffffff;stroke-opacity:1"
       inkscape:connector-curvature="0" /><path
       d="m 429.292,132.532 h 1.922 v 5.155 c 0,0.816 0.023,1.35 0.07,1.592 0.082,0.391 0.273,0.701 0.588,0.938 0.311,0.236 0.729,0.354 1.27,0.354 0.547,0 0.957,-0.11 1.234,-0.334 0.277,-0.223 0.443,-0.496 0.5,-0.821 0.057,-0.324 0.084,-0.863 0.084,-1.616 v -5.268 h 1.924 v 5.001 c 0,1.144 -0.053,1.95 -0.156,2.423 -0.104,0.472 -0.297,0.87 -0.574,1.193 -0.279,0.324 -0.652,0.582 -1.121,0.773 -0.467,0.192 -1.078,0.289 -1.83,0.289 -0.91,0 -1.6,-0.104 -2.068,-0.313 -0.471,-0.211 -0.842,-0.482 -1.109,-0.818 -0.271,-0.335 -0.451,-0.688 -0.537,-1.057 -0.127,-0.545 -0.189,-1.353 -0.189,-2.416 v -5.077 z"
       id="path320"
       style="fill:#ffffff;fill-opacity:1;fill-rule:evenodd;stroke:#ffffff;stroke-opacity:1"
       inkscape:connector-curvature="0" /><path
       d="m 445.093,142.055 v -9.443 h 1.922 v 7.84 h 4.781 v 1.604 h -6.703 z"
       id="path322"
       style="fill:#ffffff;fill-opacity:1;fill-rule:evenodd;stroke:#ffffff;stroke-opacity:1"
       inkscape:connector-curvature="0" /><path
       d="m 467.882,142.055 h -2.092 l -0.83,-2.164 h -3.807 l -0.785,2.164 h -2.039 l 3.707,-9.521 h 2.033 z m -3.539,-3.769 -1.313,-3.532 -1.285,3.532 z"
       id="path324"
       style="fill:#ffffff;fill-opacity:1;fill-rule:evenodd;stroke:#ffffff;stroke-opacity:1"
       inkscape:connector-curvature="0" /><path
       d="m 476.191,142.055 v -7.91 h -2.826 v -1.61 h 7.564 v 1.61 h -2.816 v 7.91 z"
       id="path326"
       style="fill:#ffffff;fill-opacity:1;fill-rule:evenodd;stroke:#ffffff;stroke-opacity:1"
       inkscape:connector-curvature="0" /><path
       d="m 487.671,137.352 c 0,-0.972 0.146,-1.783 0.438,-2.44 0.215,-0.484 0.51,-0.92 0.885,-1.308 0.375,-0.387 0.785,-0.67 1.23,-0.854 0.594,-0.251 1.277,-0.376 2.053,-0.376 1.402,0 2.525,0.438 3.367,1.305 0.842,0.87 1.264,2.081 1.264,3.633 0,1.535 -0.418,2.737 -1.254,3.605 -0.836,0.867 -1.953,1.302 -3.352,1.302 -1.416,0 -2.541,-0.433 -3.377,-1.296 -0.836,-0.863 -1.254,-2.057 -1.254,-3.571 z m 1.983,-0.066 c 0,1.078 0.248,1.896 0.746,2.45 0.498,0.558 1.131,0.834 1.896,0.834 0.768,0 1.396,-0.273 1.887,-0.825 0.492,-0.554 0.736,-1.381 0.736,-2.485 0,-1.09 -0.238,-1.902 -0.717,-2.439 -0.48,-0.535 -1.113,-0.805 -1.906,-0.805 -0.793,0 -1.43,0.271 -1.916,0.813 -0.486,0.542 -0.726,1.362 -0.726,2.457 z"
       id="path328"
       style="fill:#ffffff;fill-opacity:1;fill-rule:evenodd;stroke:#ffffff;stroke-opacity:1"
       inkscape:connector-curvature="0" /><path
       d="m 504.544,142.055 v -9.521 h 4.047 c 1.018,0 1.756,0.086 2.217,0.258 0.461,0.171 0.83,0.477 1.107,0.912 0.277,0.438 0.416,0.938 0.416,1.5 0,0.714 -0.211,1.304 -0.631,1.771 -0.42,0.465 -1.047,0.758 -1.883,0.879 0.416,0.242 0.76,0.51 1.021,0.799 0.271,0.291 0.645,0.808 1.102,1.548 l 1.156,1.856 H 510.8 l -1.391,-2.072 c -0.492,-0.739 -0.83,-1.207 -1.012,-1.398 -0.186,-0.189 -0.375,-0.322 -0.578,-0.396 -0.203,-0.069 -0.525,-0.104 -0.971,-0.104 h -0.391 v 3.978 h -1.92 v -0.006 h 0.004 v -0.002 h 0.003 z m 1.922,-5.496 h 1.424 c 0.922,0 1.498,-0.037 1.727,-0.115 0.23,-0.077 0.41,-0.213 0.541,-0.402 0.129,-0.188 0.193,-0.43 0.193,-0.714 0,-0.32 -0.086,-0.579 -0.258,-0.776 -0.17,-0.193 -0.41,-0.318 -0.723,-0.371 -0.156,-0.021 -0.623,-0.031 -1.402,-0.031 h -1.502 z"
       id="path330"
       style="fill:#ffffff;fill-opacity:1;fill-rule:evenodd;stroke:#ffffff;stroke-opacity:1"
       inkscape:connector-curvature="0" /></g></svg>