<?xml version="1.0" encoding="UTF-8" standalone="no"?>
<!-- Generator: Adobe Illustrator 21.1.0, SVG Export Plug-In . SVG Version: 6.00 Build 0)  -->

<svg
   xmlns:dc="http://purl.org/dc/elements/1.1/"
   xmlns:cc="http://creativecommons.org/ns#"
   xmlns:rdf="http://www.w3.org/1999/02/22-rdf-syntax-ns#"
   xmlns:svg="http://www.w3.org/2000/svg"
   xmlns="http://www.w3.org/2000/svg"
   xmlns:sodipodi="http://sodipodi.sourceforge.net/DTD/sodipodi-0.dtd"
   xmlns:inkscape="http://www.inkscape.org/namespaces/inkscape"
   version="1.1"
   id="svg2"
   inkscape:version="0.92.4 (5da689c313, 2019-01-14)"
   sodipodi:docname="msx2.svg"
   x="0px"
   y="0px"
   width="410"
   height="96"
   viewBox="0 0 410 95.999996"
   enable-background="new 0 0 559.5 153.6"
   xml:space="preserve"><metadata
   id="metadata12"><rdf:RDF><cc:Work
       rdf:about=""><dc:format>image/svg+xml</dc:format><dc:type
         rdf:resource="http://purl.org/dc/dcmitype/StillImage" /><dc:title></dc:title></cc:Work></rdf:RDF></metadata>
<defs
   id="defs4">
	
	
		<inkscape:perspective
   id="perspective10"
   inkscape:persp3d-origin="372.04724 : 350.78739 : 1"
   inkscape:vp_x="0 : 526.18109 : 1"
   inkscape:vp_y="0 : 1000 : 0"
   inkscape:vp_z="744.09448 : 526.18109 : 1"
   sodipodi:type="inkscape:persp3d">
		</inkscape:perspective>
	
		<inkscape:perspective
   id="perspective2824"
   inkscape:persp3d-origin="0.5 : 0.33333333 : 1"
   inkscape:vp_x="0 : 0.5 : 1"
   inkscape:vp_y="0 : 1000 : 0"
   inkscape:vp_z="1 : 0.5 : 1"
   sodipodi:type="inkscape:persp3d">
		</inkscape:perspective>
</defs>
<sodipodi:namedview
   bordercolor="#666666"
   borderopacity="1.0"
   fit-margin-bottom="0"
   fit-margin-left="0"
   fit-margin-right="0"
   fit-margin-top="0"
   id="base"
   inkscape:current-layer="layer1"
   inkscape:cx="-70.370882"
   inkscape:cy="110.94999"
   inkscape:document-units="px"
   inkscape:pagecheckerboard="true"
   inkscape:pageopacity="0.0"
   inkscape:pageshadow="2"
   inkscape:window-height="1028"
   inkscape:window-maximized="1"
   inkscape:window-width="1920"
   inkscape:window-x="0"
   inkscape:window-y="28"
   inkscape:zoom="2"
   pagecolor="#ffffff"
   showgrid="false">
	</sodipodi:namedview>
<g
   id="layer1"
   transform="translate(-33.587572,-926.82153)"
   inkscape:groupmode="layer"
   inkscape:label="Ebene 1">
	
		<path
   id="path2830"
   inkscape:connector-curvature="0"
   sodipodi:nodetypes="cccccccccccccccccccccccccccccccccccc"
   d="m 33.587572,1022.4483 24.19542,-95.22667 h 22.45384 l 11.63122,41.54895 12.066608,-41.54895 h 21.08547 l 19.84148,70.1605 48.26644,-0.0622 c 5.03812,-0.0622 5.34912,-10.51164 -0.37319,-10.51164 L 164.6409,986.4351 c -12.06661,0.1244 -24.81741,-12.9374 -24.19542,-30.35312 0.1244,-15.98515 14.05698,-28.54935 31.8459,-28.54935 l 71.71547,-0.0622 18.22431,24.87961 17.78892,-25.06621 29.66893,0.2488 -32.53008,45.71628 35.20464,49.57259 -29.54453,-0.062 -20.40128,-28.48712 -19.46829,28.48712 H 212.84514 L 247.179,973.7465 232.25123,951.97684 h -62.44781 c -6.77969,0.0622 -6.5309,10.76043 0.0622,10.57384 l 26.24798,0.37319 c 11.13363,0.0622 26.74558,11.63122 26.37239,29.60673 0.1866,20.9611 -18.72191,30.4775 -27.80296,29.9799 l -68.79212,0.062 -11.44462,-42.85509 -11.44462,42.73069 H 81.294222 l -11.94221,-42.5441 -10.51164,42.6063 z"
   style="fill:#ffffff;stroke-width:0.6219902" />
</g>
<path
   d="m 500.8,58.599994 c 17.2,0 34.3,0 51.6,0 0,12.4 0,24.8 0,37.3 -0.5,0 -1,0.1 -1.5,0.1 -31.4,0 -62.8,0 -94.2,0 -1.3,0 -1.8,-0.3 -1.8,-1.7 -0.5,-14.2 1.6,-28 7.7,-40.9 5.3,-11.3 12.1,-21.3 22.2,-28.9 8,-6 15.7,-12.5 23.4,-18.9000001 4.1,-3.5 5.7,-8.5 6.6,-13.6 0.7,-3.6999999 0.7,-7.2999999 -0.7,-10.7999999 -1.2,-3 -3.3,-5 -6.6,-5.7 -8.5,-1.7 -14.1,2.8 -14.8,11.9 -0.2,2.9999999 -0.3,5.9999999 -0.5,9.0999999 -12.5,0 -24.9,0 -37.7,0 0,-2.7 0,-5.4 0,-8.0999999 0.1,-13.2 4.2,-24.6 14.3,-33.5 7.7,-6.8 17,-10.4 27,-11.7 13.7,-1.8 26.8,0.4 38.7,7.4 15.3,9 22.6,22.6 21.4,40.3999999 -0.4,6.8 -2.1,13.4 -4.7,19.6000001 -2.5,5.8 -6.5,10.6 -11.3,14.5 -6.7,5.3 -13.7,10.2 -20.7,15.2 -6.6,4.7 -12.9,9.8 -17.6,16.6 -0.3,0.4 -0.5,0.7 -0.7,1.1 -0.1,0.1 0,0.2 -0.1,0.6 z"
   id="path9"
   inkscape:connector-curvature="0"
   style="fill:#ffffff" />
</svg>