<?xml version="1.0" encoding="UTF-8" standalone="no"?>
<!-- Created with Inkscape (http://www.inkscape.org/) -->

<svg
   xmlns:dc="http://purl.org/dc/elements/1.1/"
   xmlns:cc="http://creativecommons.org/ns#"
   xmlns:rdf="http://www.w3.org/1999/02/22-rdf-syntax-ns#"
   xmlns:svg="http://www.w3.org/2000/svg"
   xmlns="http://www.w3.org/2000/svg"
   xmlns:sodipodi="http://sodipodi.sourceforge.net/DTD/sodipodi-0.dtd"
   xmlns:inkscape="http://www.inkscape.org/namespaces/inkscape"
   version="1.0"
   width="410"
   height="96"
   id="svg101576"
   sodipodi:docname="nds.svg"
   inkscape:version="0.92.4 (5da689c313, 2019-01-14)">
  <metadata
     id="metadata21">
    <rdf:RDF>
      <cc:Work
         rdf:about="">
        <dc:format>image/svg+xml</dc:format>
        <dc:type
           rdf:resource="http://purl.org/dc/dcmitype/StillImage" />
        <dc:title></dc:title>
      </cc:Work>
    </rdf:RDF>
  </metadata>
  <sodipodi:namedview
     pagecolor="#ffffff"
     bordercolor="#666666"
     borderopacity="1"
     objecttolerance="10"
     gridtolerance="10"
     guidetolerance="10"
     inkscape:pageopacity="0"
     inkscape:pageshadow="2"
     inkscape:window-width="1920"
     inkscape:window-height="1028"
     id="namedview19"
     showgrid="false"
     inkscape:pagecheckerboard="true"
     fit-margin-top="0"
     fit-margin-left="0"
     fit-margin-right="0"
     fit-margin-bottom="0"
     inkscape:zoom="1.0288022"
     inkscape:cx="87.525788"
     inkscape:cy="25.142986"
     inkscape:window-x="0"
     inkscape:window-y="28"
     inkscape:window-maximized="1"
     inkscape:current-layer="g101650" />
  <defs
     id="defs101578" />
  <g
     transform="translate(-42.623381,-276.4335)"
     id="layer1">
    <g
       transform="translate(7.088693,7.080902)"
       id="g101650">
      <path
         d="m 295.41411,341.28975 c 0,0.60845 -0.50088,1.15605 -1.1178,1.15605 h -21.39079 c -0.62303,0 -1.12391,-0.5476 -1.12391,-1.15605 v -15.39423 c 0,-0.60845 0.50088,-1.09524 1.12391,-1.09524 h 21.39079 c 0.61692,0 1.1178,0.48679 1.1178,1.09524 z m -0.92845,-21.1138 h -21.7756 c -3.15182,0 -5.72335,2.55556 -5.72335,5.71957 v 15.45504 c 0,3.1032 2.57153,5.71961 5.72335,5.71961 h 21.7756 c 3.15792,0 5.72335,-2.61641 5.72335,-5.71961 v -15.45504 c 0,-3.16401 -2.56543,-5.71957 -5.72335,-5.71957"
         style="display:inline;fill:none;fill-opacity:1;fill-rule:nonzero;stroke:#ffffff;stroke-width:0.56485432;stroke-miterlimit:4;stroke-dasharray:none;stroke-opacity:1"
         id="path100608"
         inkscape:connector-curvature="0" />
      <path
         d="m 40.616278,296.28763 c 0,0 0,20.00333 0,20.31394 -0.26712,0 -4.80825,0 -5.08159,0 0,-0.31061 0,-27.14738 0,-27.45798 0.28576,0 4.21188,0 4.34234,0 l 20.58108,20.00333 c 0,0 0,-19.69273 0,-20.00333 0.27954,0 4.069,0 4.069,0 0,0 0.72061,0 0.94425,0 0,0.3106 0,27.14737 0,27.45798 -0.27333,0 -3.83293,0 -3.9696,0 l -20.88548,-20.31394"
         style="display:inline;fill:#fffffe;fill-opacity:1;fill-rule:nonzero;stroke:none;stroke-width:0.57558471"
         id="path100618"
         inkscape:connector-curvature="0" />
      <path
         d="m 91.562678,296.28763 c 0,0 0,20.00333 0,20.31394 -0.27334,0 -4.80205,0 -5.08159,0 0,-0.31061 0,-27.14738 0,-27.45798 0.28576,0 4.20567,0 4.33612,0 l 20.581082,20.00333 c 0,0 0,-19.69273 0,-20.00333 0.27955,0 4.07521,0 4.07521,0 0,0 0.72683,0 0.94427,0 0,0.3106 0,27.14737 0,27.45798 -0.27956,0 -3.83294,0 -3.96961,0 L 91.562678,296.28763"
         style="fill:#fffffe;fill-opacity:1;fill-rule:nonzero;stroke:none;stroke-width:0.02877924;stroke-linecap:butt;stroke-linejoin:miter;stroke-miterlimit:4;stroke-dasharray:none"
         id="path100622"
         inkscape:connector-curvature="0" />
      <path
         d="m 197.15175,296.28763 c 0,0 0,20.00333 0,20.31394 -0.27955,0 -4.80205,0 -5.0816,0 0,-0.31061 0,-27.14738 0,-27.45798 0.28577,0 4.21188,0 4.33613,0 l 20.58108,20.00333 c 0,0 0,-19.69273 0,-20.00333 0.27955,0 4.07521,0 4.07521,0 0,0 0.72683,0 0.94426,0 0,0.3106 0,27.14737 0,27.45798 -0.27956,0 -3.83294,0 -3.9634,0 l -20.89168,-20.31394"
         style="fill:#fffffe;fill-opacity:1;fill-rule:nonzero;stroke:none;stroke-width:0.02877924;stroke-linecap:butt;stroke-linejoin:miter;stroke-miterlimit:4;stroke-dasharray:none"
         id="path100626"
         inkscape:connector-curvature="0" />
      <path
         d="m 77.572758,289.14359 c 0,0 0.72062,0 0.93805,0 0,0.3106 0,27.14737 0,27.45798 -0.26713,0 -4.80826,0 -5.0816,0 0,-0.31061 0,-27.14738 0,-27.45798 0.27955,0 4.14355,0 4.14355,0"
         style="fill:#fffffe;fill-opacity:1;fill-rule:nonzero;stroke:none;stroke-width:0.02877924;stroke-linecap:butt;stroke-linejoin:miter;stroke-miterlimit:4;stroke-dasharray:none"
         id="path100630"
         inkscape:connector-curvature="0" />
      <path
         d="m 151.02603,289.14359 c 0,0 0.70819,0 0.93183,0 0,0.24847 0,4.47278 0,4.72126 -0.29819,0 -12.25049,0 -12.25049,0 0,0 0,22.42611 0,22.73672 -0.27334,0 -5.00705,0 -5.28039,0 0,-0.31061 0,-22.73672 0,-22.73672 0,0 -11.95231,0 -12.25049,0 0,-0.24848 0,-4.47279 0,-4.72126 0.30439,0 28.84954,0 28.84954,0"
         style="fill:#fffffe;fill-opacity:1;fill-rule:nonzero;stroke:none;stroke-width:0.02877924;stroke-linecap:butt;stroke-linejoin:miter;stroke-miterlimit:4;stroke-dasharray:none"
         id="path100634"
         inkscape:connector-curvature="0" />
      <path
         d="m 183.57805,289.14359 c 0,0 0.73304,0 0.95047,0 0,0.24847 0,4.47278 0,4.72126 -0.29198,0 -21.78004,0 -21.78004,0 v 6.1501 c 0,0 16.56177,0 16.84754,0 0,0.31061 0,4.41066 0,4.72131 -0.28577,0 -16.84754,0 -16.84754,0 v 7.14404 c 0,0 21.48806,0 21.78004,0 0,0.24848 0,4.41066 0,4.72127 -0.29198,0 -26.51996,0 -26.81193,0 0,-0.31061 0,-27.14738 0,-27.45798 0.29197,0 25.86146,0 25.86146,0"
         style="fill:#fffffe;fill-opacity:1;fill-rule:nonzero;stroke:none;stroke-width:0.02877924;stroke-linecap:butt;stroke-linejoin:miter;stroke-miterlimit:4;stroke-dasharray:none"
         id="path100638"
         inkscape:connector-curvature="0" />
      <path
         d="M 250.25999,311.8803 H 234.6549 v -18.01545 h 15.60509 c 4.8828,0 6.61602,4.84552 6.61602,9.0077 0,4.10011 -1.73322,9.00775 -6.61602,9.00775 z m 8.3368,-18.69879 c -1.98791,-2.67126 -4.92629,-4.03792 -8.47967,-4.03792 0,0 -20.06547,0 -20.36366,0 0,0.3106 0,27.14737 0,27.45798 0.29819,0 20.36366,0 20.36366,0 3.55338,0 6.49176,-1.42881 8.47967,-4.03793 1.86366,-2.42279 2.85141,-5.77738 2.85141,-9.69109 0,-3.91366 -0.98775,-7.26825 -2.85141,-9.69104"
         style="fill:#fffffe;fill-opacity:1;fill-rule:nonzero;stroke:none;stroke-width:0.02877924;stroke-linecap:butt;stroke-linejoin:miter;stroke-miterlimit:4;stroke-dasharray:none"
         id="path100642"
         inkscape:connector-curvature="0" />
      <path
         d="m 295.6154,310.76211 c 0,0.55907 -0.50941,1.11819 -1.13684,1.11819 h -21.75519 c -0.63364,0 -1.14305,-0.55912 -1.14305,-1.11819 v -15.77907 c 0,-0.6212 0.50941,-1.11819 1.14305,-1.11819 h 21.75519 c 0.62743,0 1.13684,0.49699 1.13684,1.11819 z m -0.94426,-21.61852 h -22.14656 c -3.2055,0 -5.82085,2.60913 -5.82085,5.83945 v 15.77907 c 0,3.23033 2.61535,5.83946 5.82085,5.83946 h 22.14656 c 3.21171,0 5.82085,-2.60913 5.82085,-5.83946 v -15.77907 c 0,-3.23032 -2.60914,-5.83945 -5.82085,-5.83945"
         style="fill:#fffffe;fill-opacity:1;fill-rule:nonzero;stroke:none;stroke-width:0.02877924;stroke-linecap:butt;stroke-linejoin:miter;stroke-miterlimit:4;stroke-dasharray:none"
         id="path100646"
         inkscape:connector-curvature="0" />
      <path
         d="m 386.92257,335.73522 c 5.26796,2.11213 16.39403,3.78945 25.07871,3.78945 9.5047,0 13.43705,-3.23038 13.43705,-7.33043 0,-3.72732 -3.65282,-5.8395 -14.14524,-9.69104 -14.0334,-5.15617 -24.32703,-9.25623 -24.32703,-18.51245 0,-9.50465 12.38717,-15.15776 31.26609,-15.15776 10.13834,0 13.61719,0.6212 20.05304,1.80153 l 0.0497,9.06983 c -6.32407,-1.18032 -11.92748,-3.23038 -20.6308,-3.23038 -9.33073,0 -13.30657,2.98186 -13.30657,6.02585 0,4.41071 6.12526,6.52284 16.8662,10.37442 14.95278,5.34252 23.27094,9.44257 23.27094,18.45027 0,9.31836 -10.41787,16.02754 -33.91247,16.02754 -9.6476,0 -16.30087,-0.6212 -23.69962,-1.86366 v -9.75317"
         style="fill:#ffffff;fill-opacity:1;fill-rule:nonzero;stroke:none;stroke-width:0.02877924;stroke-linecap:butt;stroke-linejoin:miter;stroke-miterlimit:4;stroke-dasharray:none"
         id="path100656"
         inkscape:connector-curvature="0" />
      <path
         d="m 336.91422,296.8467 h -11.18199 v 42.36737 h 11.18199 c 17.16435,0 27.99225,-7.39256 27.99225,-21.12158 0,-13.72896 -10.8279,-21.24579 -27.99225,-21.24579 z m 30.01122,46.28103 c -5.52887,2.48492 -15.99024,4.10006 -25.13463,4.10006 H 306.84087 V 288.9572 h 34.94994 c 9.14439,0 19.60576,1.61519 25.14706,4.10005 13.46188,6.08798 17.8477,15.8412 17.8477,25.03524 0,9.1941 -4.34855,18.94727 -17.86013,25.03524"
         style="fill:#ffffff;fill-opacity:1;fill-rule:nonzero;stroke:none;stroke-width:0.02877924;stroke-linecap:butt;stroke-linejoin:miter;stroke-miterlimit:4;stroke-dasharray:none"
         id="path100660"
         inkscape:connector-curvature="0" />
    </g>
  </g>
</svg>
