<?xml version="1.0" encoding="UTF-8" standalone="no"?>
<!-- Generator: Adobe Illustrator 21.1.0, SVG Export Plug-In . SVG Version: 6.00 Build 0)  -->

<svg
   xmlns:dc="http://purl.org/dc/elements/1.1/"
   xmlns:cc="http://creativecommons.org/ns#"
   xmlns:rdf="http://www.w3.org/1999/02/22-rdf-syntax-ns#"
   xmlns:svg="http://www.w3.org/2000/svg"
   xmlns="http://www.w3.org/2000/svg"
   xmlns:sodipodi="http://sodipodi.sourceforge.net/DTD/sodipodi-0.dtd"
   xmlns:inkscape="http://www.inkscape.org/namespaces/inkscape"
   version="1.0"
   id="Capa_1"
   x="0px"
   y="0px"
   width="410"
   height="96"
   viewBox="0 0 409.99999 95.999997"
   enable-background="new 0 0 408.7 169.1"
   xml:space="preserve"
   sodipodi:docname="nes.svg"
   inkscape:version="0.92.4 (5da689c313, 2019-01-14)"><metadata
     id="metadata202"><rdf:RDF><cc:Work
         rdf:about=""><dc:format>image/svg+xml</dc:format><dc:type
           rdf:resource="http://purl.org/dc/dcmitype/StillImage" /><dc:title></dc:title></cc:Work></rdf:RDF></metadata><defs
     id="defs200" /><sodipodi:namedview
     pagecolor="#ffffff"
     bordercolor="#666666"
     borderopacity="1"
     objecttolerance="10"
     gridtolerance="10"
     guidetolerance="10"
     inkscape:pageopacity="0"
     inkscape:pageshadow="2"
     inkscape:window-width="1920"
     inkscape:window-height="1028"
     id="namedview198"
     showgrid="false"
     fit-margin-top="0"
     fit-margin-left="0"
     fit-margin-right="0"
     fit-margin-bottom="0"
     inkscape:zoom="0.6679716"
     inkscape:cx="41.2033"
     inkscape:cy="48.449997"
     inkscape:window-x="0"
     inkscape:window-y="28"
     inkscape:window-maximized="1"
     inkscape:current-layer="g195"
     inkscape:pagecheckerboard="true" /><g
     id="g195"
     transform="translate(-8.2,-37.000002)"><path
       d="M 347.32848,133 H 55.900722 C 29.586481,133 8.2,111.51496 8.2,85.200724 8.2,58.886483 29.586481,37.500002 55.900722,37.500002 H 347.13137 c 26.31424,0 47.70072,21.386481 47.70072,47.700722 C 394.93065,111.41641 373.54417,133 347.32848,133 Z M 55.900722,48.735296 c -20.006708,0 -36.465428,16.360165 -36.465428,36.465428 0,20.105266 16.360165,36.465426 36.465428,36.465426 H 347.13137 c 20.00671,0 36.46543,-16.36016 36.46543,-36.465426 0,-20.105263 -16.26161,-36.465428 -36.26832,-36.465428 z"
       id="path173"
       inkscape:connector-curvature="0"
       style="fill:#ffffff;stroke-width:0.98555213" /><path
       d="M 93.450258,107.37564 V 63.222912 H 80.145304 V 93.972138 L 60.631373,63.222912 H 46.242312 V 107.17853 H 59.547265 V 75.542314 l 20.598039,31.833326 z"
       id="path175"
       inkscape:connector-curvature="0"
       style="fill:#ffffff;stroke-width:0.98555213" /><path
       d="M 114.93529,107.37564 V 77.611973 h -13.30495 v 29.763667 z"
       id="path177"
       inkscape:connector-curvature="0"
       style="fill:#ffffff;stroke-width:0.98555213" /><path
       d="m 114.93529,71.205884 v -7.982972 h -13.30495 v 7.982972 z"
       id="path179"
       inkscape:connector-curvature="0"
       style="fill:#ffffff;stroke-width:0.98555213" /><path
       id="_x33_162"
       d="M 161.25624,107.37564 V 86.777608 c 0,-4.33643 -8.27864,-10.249742 -12.61507,-10.249742 h -3.9422 c -2.95665,0 -6.20898,2.66099 -9.16563,3.942208 v -2.956656 h -13.30496 v 29.763672 h 13.30496 V 86.777608 c 0,-2.06966 4.63209,-4.33643 6.60319,-4.33643 2.06966,0 5.7162,2.26677 5.7162,4.33643 v 20.598032 z"
       inkscape:connector-curvature="0"
       style="fill:#ffffff;stroke-width:0.98555213" /><path
       id="_x33_162_1_"
       d="M 272.0323,108.3612 V 87.861715 c 0,-4.336429 -8.27864,-10.249742 -12.61507,-10.249742 h -3.9422 c -2.95666,0 -6.20898,2.660991 -9.16563,3.942209 V 78.597525 H 233.00443 V 108.3612 h 13.30496 V 87.861715 c 0,-2.069659 4.63209,-4.336429 6.6032,-4.336429 2.06965,0 5.7162,2.26677 5.7162,4.336429 v 20.598035 z"
       inkscape:connector-curvature="0"
       style="fill:#ffffff;stroke-width:0.98555213" /><path
       d="M 182.74127,107.37564 V 77.611973 h 6.89887 v -3.942208 h -6.89887 v -6.406089 h -13.50206 v 6.208978 h -6.89886 v 3.942209 h 6.89886 v 29.763667 h 13.50206 z"
       id="path183"
       inkscape:connector-curvature="0"
       style="fill:#ffffff;stroke-width:0.98555213" /><path
       d="m 208.26707,76.527866 c -10.5454,0 -19.51392,7.293085 -19.51392,16.26161 0,9.165634 8.96852,16.557274 19.51392,16.557274 9.16564,0 16.95151,-5.32198 18.82405,-12.220845 h -13.50206 v 3.942205 c 0,3.25232 -2.26677,4.33643 -5.32199,4.33643 -3.0552,0 -5.02631,-0.98555 -5.02631,-4.33643 v -8.278634 h 24.54026 c 0,-8.968525 -8.57431,-16.26161 -19.51395,-16.26161 z m 0,2.956656 c 2.95666,0 5.32199,2.06966 5.32199,5.321982 v 2.956656 h -10.24975 v -2.956656 c -0.0985,-3.252322 1.87255,-5.321982 4.92776,-5.321982 z"
       id="path185"
       inkscape:connector-curvature="0"
       style="fill:#ffffff;stroke-width:0.98555213" /><path
       d="m 338.65562,76.527866 c -10.93963,0 -19.51393,7.293085 -19.51393,16.26161 0,9.165634 8.67286,16.557274 19.51393,16.557274 10.54541,0 19.51393,-7.29309 19.51393,-16.557274 0,-8.968525 -8.96852,-16.26161 -19.51393,-16.26161 z m 0,2.956656 c 2.95666,0 5.02632,2.06966 5.02632,5.321982 v 16.261606 c 0,3.25232 -2.06966,4.33643 -5.02632,4.33643 -3.25232,0 -5.32198,-0.98555 -5.32198,-4.33643 V 84.707948 c 0,-3.153766 2.06966,-5.223426 5.32198,-5.223426 z"
       id="path187"
       inkscape:connector-curvature="0"
       style="fill:#ffffff;stroke-width:0.98555213" /><path
       d="m 300.61331,63.222912 v 16.26161 c 0,0 -3.94221,-2.956656 -9.16564,-2.956656 -8.27863,0 -15.1775,7.293085 -15.1775,15.177502 0,8.278638 6.89887,16.557272 15.1775,16.557272 5.32198,0 9.16564,-2.06966 9.16564,-2.06966 v 0.98555 h 13.30496 V 63.222912 Z m -5.02632,18.33127 c 2.95666,0 5.02632,2.266769 5.02632,5.321981 v 12.220846 c 0,2.956651 -2.06966,3.942211 -5.02632,3.942211 -3.25232,0 -5.32198,-0.98556 -5.32198,-3.942211 V 86.777608 c 0,-2.956657 2.06966,-5.223426 5.32198,-5.223426 z"
       id="path189"
       inkscape:connector-curvature="0"
       style="fill:#ffffff;stroke-width:0.98555213" /></g></svg>