<?xml version="1.0" encoding="UTF-8" standalone="no"?>
<!-- Created with Inkscape (http://www.inkscape.org/) -->

<svg
   xmlns:dc="http://purl.org/dc/elements/1.1/"
   xmlns:cc="http://creativecommons.org/ns#"
   xmlns:rdf="http://www.w3.org/1999/02/22-rdf-syntax-ns#"
   xmlns:svg="http://www.w3.org/2000/svg"
   xmlns="http://www.w3.org/2000/svg"
   xmlns:sodipodi="http://sodipodi.sourceforge.net/DTD/sodipodi-0.dtd"
   xmlns:inkscape="http://www.inkscape.org/namespaces/inkscape"
   version="1.0"
   width="410"
   height="96"
   viewBox="0 0 410 96.000002"
   id="Layer_1"
   xml:space="preserve"
   inkscape:version="0.92.4 (5da689c313, 2019-01-14)"
   sodipodi:docname="ps2.svg"><metadata
     id="metadata27"><rdf:RDF><cc:Work
         rdf:about=""><dc:format>image/svg+xml</dc:format><dc:type
           rdf:resource="http://purl.org/dc/dcmitype/StillImage" /><dc:title></dc:title></cc:Work></rdf:RDF></metadata><sodipodi:namedview
     pagecolor="#ffffff"
     bordercolor="#666666"
     borderopacity="1"
     objecttolerance="10"
     gridtolerance="10"
     guidetolerance="10"
     inkscape:pageopacity="0"
     inkscape:pageshadow="2"
     inkscape:window-width="1920"
     inkscape:window-height="1028"
     id="namedview25"
     showgrid="false"
     inkscape:zoom="0.715"
     inkscape:cx="-26.197822"
     inkscape:cy="146.24416"
     inkscape:window-x="0"
     inkscape:window-y="28"
     inkscape:window-maximized="1"
     inkscape:current-layer="g3"
     inkscape:pagecheckerboard="true"
     fit-margin-top="0"
     fit-margin-left="0"
     fit-margin-right="0"
     fit-margin-bottom="0" /><defs
     id="defs46" /><g
     id="g3"
     transform="translate(0,-142.64011)"><polygon
       points="9.143,129.721 9.143,69.021 233.679,69.021 233.679,0 0,0 0,9.149 225.361,9.149 225.361,59.874 0,59.874 0,129.721 "
       style="fill:#fff6ff;fill-opacity:1;fill-rule:evenodd;stroke:none"
       id="polygon5"
       transform="matrix(0.40018421,0,0,0.40018421,0,143.14011)" /><polygon
       points="742.62,9.149 742.62,59.874 517.252,59.874 517.252,129.721 751.764,129.721 751.764,120.584 527.237,120.584 527.237,69.021 751.764,69.021 751.764,0 517.252,0 517.252,9.149 "
       style="fill:#fff6ff;fill-opacity:1;fill-rule:evenodd;stroke:none"
       id="polygon7"
       transform="matrix(0.40018421,0,0,0.40018421,0,143.14011)" /><polygon
       points="233.679,120.584 233.679,129.721 363.407,129.721 363.407,9.149 482.325,9.149 482.325,0 353.431,0 353.431,120.584 "
       style="fill:#fff6ff;fill-opacity:1;fill-rule:evenodd;stroke:none"
       id="polygon9"
       transform="matrix(0.40018421,0,0,0.40018421,0,143.14011)" /></g><g
     inkscape:groupmode="layer"
     id="layer1"
     inkscape:label="Layer"
     style="display:inline"
     transform="translate(0,-142.64011)"><path
       inkscape:connector-curvature="0"
       d="m 75.92362,213.33528 v 18.29265 h 2.85563 v -16.54 h 2.64334 c 0,0 1.92025,0 2.57789,0.85875 0.55868,0.72948 0.66084,2.05275 0.66084,2.94663 0,0.95613 -0.0607,2.43423 -0.3815,2.97534 -0.48685,0.82684 -1.28655,0.99285 -2.01762,0.99285 h -1.74467 v 1.62336 h 2.50926 c 0,0 2.26344,0.0942 3.23713,-0.89548 1.19397,-1.21313 1.49725,-2.84447 1.49725,-5.02809 0,-1.9841 -0.7199,-3.98576 -2.19161,-4.66574 -1.21791,-0.56027 -3.41431,-0.56027 -3.41431,-0.56027 h -6.23163"
       style="fill:#fff6ff;fill-opacity:1;fill-rule:nonzero;stroke:none;stroke-width:0.40018418"
       id="path3003" /><path
       inkscape:connector-curvature="0"
       d="m 90.00545,231.62793 h 2.85514 v -18.29265 h -2.85514 z"
       style="fill:#fff6ff;fill-opacity:1;fill-rule:nonzero;stroke:none;stroke-width:0.40018418"
       id="path3005" /><path
       inkscape:connector-curvature="0"
       d="m 108.05228,217.60196 5.22443,13.69236 -2.99929,7.34579 h 2.37038 l 8.63713,-21.03815 h -2.64653 l -3.76229,10.25411 -3.5005,-10.25411 h -3.32333"
       style="fill:#fff6ff;fill-opacity:1;fill-rule:nonzero;stroke:none;stroke-width:0.40018418"
       id="path3007" /><path
       inkscape:connector-curvature="0"
       d="m 123.43503,231.51939 v -1.7287 c 0,0 3.02004,0.11811 3.64896,0.11811 1.3935,0 2.08944,-0.29689 2.613,-0.85877 0.30967,-0.33679 0.58901,-1.82926 0.58901,-2.3608 0,-0.52994 -0.10216,-1.67602 -0.30967,-2.14532 -0.21389,-0.45971 -0.70074,-0.88909 -1.43021,-0.95134 -0.52037,-0.0447 -1.32486,-0.15004 -2.26503,-0.19314 -1.31848,-0.0623 -2.19001,-0.75022 -2.60982,-1.24505 -0.41661,-0.49483 -0.97369,-1.24026 -0.97369,-3.52125 0,-2.2842 0.5906,-3.56436 1.1828,-4.15815 0.59219,-0.59699 1.45894,-0.85877 2.12457,-0.97689 0.76618,-0.13089 2.01761,-0.13887 2.01761,-0.13887 l 3.99692,0.11659 v 1.7287 c 0,0 -2.91468,-0.11658 -3.54199,-0.11658 -1.3935,0 -1.81172,0.29849 -2.33368,0.85875 -0.30806,0.33362 -0.5491,1.25623 -0.5491,1.78458 0,0.53154 0.0623,1.6042 0.27136,2.06869 0.20751,0.45972 0.69595,0.89069 1.42702,0.95614 0.51877,0.0399 1.32486,0.14526 2.26344,0.18835 1.32486,0.0622 2.1948,0.74863 2.60981,1.24506 0.41981,0.49642 0.97848,1.54194 0.97848,3.82133 0,2.2842 -0.59538,3.91553 -1.1844,4.51092 -0.59378,0.59379 -1.45893,0.85877 -2.12456,0.97369 -0.76778,0.13249 -2.01921,0.14207 -2.01921,0.14207 l -4.38162,-0.11812"
       style="fill:#fff6ff;fill-opacity:1;fill-rule:nonzero;stroke:none;stroke-width:0.40018418"
       id="path3009" /><path
       inkscape:connector-curvature="0"
       d="m 139.01571,215.08793 h -2.85404 v 13.42897 c 0,0 0.0686,1.2259 0.13888,1.65687 0.0702,0.43098 0.69754,1.45416 2.33366,1.45416 l 2.9578,-0.0574 v -1.72232 c 0,0 -0.8013,0.0574 -1.28496,0.0574 -0.49004,0 -1.08384,-0.0319 -1.18439,-0.86036 -0.10701,-0.82684 -0.10701,-1.8149 -0.10701,-1.8149 v -7.90767 h 3.22436 v -1.72072 h -3.22436 v -2.51404"
       style="fill:#fff6ff;fill-opacity:1;fill-rule:nonzero;stroke:none;stroke-width:0.40018418"
       id="path3011" /><path
       inkscape:connector-curvature="0"
       d="m 166.5728,231.62793 h 2.8542 v -14.02516 h -2.8542 z"
       style="fill:#fff6ff;fill-opacity:1;fill-rule:nonzero;stroke:none;stroke-width:0.40018418"
       id="path3013" /><path
       inkscape:connector-curvature="0"
       d="m 166.5728,215.88124 h 2.8542 v -2.54643 h -2.8542 z"
       style="fill:#fff6ff;fill-opacity:1;fill-rule:nonzero;stroke:none;stroke-width:0.40018418"
       id="path3015" /><path
       inkscape:connector-curvature="0"
       d="m 178.44867,217.48225 c 1.9426,0 3.44943,0.43417 4.25871,1.08862 0.81726,0.65605 1.82128,2.03997 1.82128,6.04487 0,4.00491 -1.00402,5.38724 -1.82128,6.04488 -0.80928,0.65445 -2.31611,1.09181 -4.25871,1.09181 -1.94738,0 -3.44783,-0.43736 -4.2635,-1.09181 -0.81566,-0.65764 -1.81489,-2.03997 -1.81489,-6.04488 0,-4.0049 0.99923,-5.38882 1.81489,-6.04487 0.81567,-0.65445 2.31612,-1.08862 4.2635,-1.08862 z m -1.95696,2.68963 c -0.39267,0.48365 -0.87154,1.50044 -0.87154,4.44386 0,2.94183 0.47887,3.96022 0.87154,4.44228 0.39107,0.47886 1.11256,0.8029 2.04635,0.8029 0.93538,0 1.65367,-0.32404 2.04954,-0.8029 0.39107,-0.48206 0.86994,-1.50045 0.86994,-4.44228 0,-2.94342 -0.47887,-3.96021 -0.86994,-4.44386 -0.39587,-0.48047 -1.11416,-0.80131 -2.04954,-0.80131 -0.93379,0 -1.65528,0.32084 -2.04635,0.80131"
       style="fill:#fff6ff;fill-opacity:1;fill-rule:nonzero;stroke:none;stroke-width:0.40018418"
       id="path3017" /><path
       inkscape:connector-curvature="0"
       d="m 190.44265,219.5717 2.79977,-0.11812 c 0.73265,0 1.59461,0.19793 2.01282,0.72787 0.38947,0.49962 0.6353,1.09501 0.6353,2.05433 v 9.37618 h 2.85882 v -9.61242 c 0,-1.81809 -0.56027,-2.87479 -1.39988,-3.53881 -1.19716,-0.94975 -3.34248,-0.85877 -3.34248,-0.85877 l -6.39605,0.11493 v 13.89507 h 2.8317 V 219.5717"
       style="fill:#fff6ff;fill-opacity:1;fill-rule:nonzero;stroke:none;stroke-width:0.40018418"
       id="path3019" /><path
       inkscape:connector-curvature="0"
       d="m 160.88708,215.08793 h -2.85563 v 13.42897 c 0,0 0.067,1.2259 0.13568,1.65687 0.0719,0.43098 0.69435,1.45416 2.33686,1.45416 l 2.95779,-0.0574 v -1.72232 c 0,0 -0.80289,0.0574 -1.28814,0.0574 -0.48525,0 -1.08064,-0.0319 -1.18439,-0.86036 -0.10217,-0.82684 -0.10217,-1.8149 -0.10217,-1.8149 v -7.90767 h 3.21639 v -1.72072 h -3.21639 v -2.51404"
       style="fill:#fff6ff;fill-opacity:1;fill-rule:nonzero;stroke:none;stroke-width:0.40018418"
       id="path3021" /><path
       inkscape:connector-curvature="0"
       d="m 103.6962,222.23578 c 0,-0.95932 -0.24422,-1.55471 -0.63688,-2.05433 -0.41821,-0.52994 -1.27698,-0.72787 -2.01124,-0.72787 l -3.76548,0.11812 v -1.85481 l 4.53167,-0.11493 c 0,0 2.14531,-0.091 3.34407,0.85877 0.83642,0.66402 1.3919,1.72072 1.3919,3.53881 v 9.47834 l -5.47183,0.11812 c 0,0 -2.47733,0.009 -3.72557,-0.49642 -1.21632,-0.49483 -1.88035,-1.85321 -1.88035,-3.73834 0,-1.81969 0.55709,-2.87638 1.3935,-3.5404 1.19876,-0.95136 3.34248,-0.85718 3.34248,-0.85718 h 1.74786 v 1.61538 h -0.98007 c -0.73427,0 -1.48928,0.13567 -1.90908,0.66561 -0.39108,0.49484 -0.60018,0.92421 -0.60018,1.88354 0,1.25942 0.24422,1.82128 0.83642,2.24907 0.52355,0.3815 1.46054,0.4645 2.50606,0.4645 l 1.88672,-0.11493 v -7.49105"
       style="fill:#fff6ff;fill-opacity:1;fill-rule:nonzero;stroke:none;stroke-width:0.40018418"
       id="path3023" /><path
       inkscape:connector-curvature="0"
       d="m 151.84291,222.23578 c 0,-0.95932 -0.23943,-1.55471 -0.6321,-2.05433 -0.42299,-0.52994 -1.28177,-0.72787 -2.01123,-0.72787 l -3.76388,0.11812 v -1.85481 l 4.52847,-0.11493 c 0,0 2.14371,-0.091 3.34088,0.85877 0.83642,0.66402 1.3951,1.72072 1.3951,3.53881 v 9.47834 l -5.47184,0.11812 c 0,0 -2.48052,0.009 -3.72557,-0.49642 -1.21791,-0.49483 -1.88354,-1.85321 -1.88354,-3.73834 0,-1.81969 0.56187,-2.87638 1.3935,-3.5404 1.19717,-0.95136 3.34567,-0.85718 3.34567,-0.85718 h 1.74626 v 1.61538 h -0.98167 c -0.72947,0 -1.48927,0.13567 -1.90429,0.66561 -0.39267,0.49484 -0.60337,0.92421 -0.60337,1.88354 0,1.25942 0.24582,1.82128 0.83642,2.24907 0.52196,0.3815 1.46374,0.4645 2.50925,0.4645 l 1.88194,-0.11493 v -7.49105"
       style="fill:#fff6ff;fill-opacity:1;fill-rule:nonzero;stroke:none;stroke-width:0.40018418"
       id="path3025" /><path
       inkscape:connector-curvature="0"
       d="m 224.36067,215.69768 c 0.0383,2.107 -0.0654,3.21798 -0.77257,4.27786 -0.62571,0.92581 -1.86118,1.77659 -4.59392,1.77659 l -3.39035,-0.10535 c -0.53315,0.007 -1.92345,0.16601 -2.5779,0.87313 -0.56506,0.60018 -0.60177,1.0567 -0.66403,2.67366 v 4.728 h 11.52789 v 2.32409 h -12.60054 l -0.60178,-0.008 c -0.85717,0 -1.69997,-0.58102 -1.69997,-1.74307 v -3.52763 c 0.0575,-4.12941 0.35596,-4.72321 1.25143,-5.80225 0.62094,-0.74543 2.07509,-1.58345 3.85008,-1.67284 0.34798,-0.0192 1.00721,-0.0639 1.92026,-0.0304 0.67679,0.0224 1.34242,0.0399 1.63931,0.043 1.56908,0.0192 2.14212,-0.26975 2.5715,-0.83322 0.49005,-0.6353 0.74863,-1.38073 0.74863,-2.60502 0,-1.14131 -0.22986,-2.22992 -0.66722,-2.73114 -0.53154,-0.57783 -1.03435,-0.9657 -2.51245,-0.9689 -3.72237,-0.0102 -8.07526,0.0862 -8.07526,0.0862 v -2.18682 c 0,0 4.25233,-0.18517 8.59084,-0.24901 2.7024,-0.0415 4.18529,0.67201 4.94349,1.65847 0.79492,1.03435 1.08064,2.00644 1.11256,4.02247"
       style="fill:#fff6ff;fill-opacity:1;fill-rule:nonzero;stroke:none;stroke-width:0.40018418"
       id="path3031" /></g></svg>