<?xml version="1.0" encoding="UTF-8" standalone="no"?>
<!-- Generator: Adobe Illustrator 21.0.2, SVG Export Plug-In . SVG Version: 6.00 Build 0)  -->

<svg
   xmlns:dc="http://purl.org/dc/elements/1.1/"
   xmlns:cc="http://creativecommons.org/ns#"
   xmlns:rdf="http://www.w3.org/1999/02/22-rdf-syntax-ns#"
   xmlns:svg="http://www.w3.org/2000/svg"
   xmlns="http://www.w3.org/2000/svg"
   xmlns:sodipodi="http://sodipodi.sourceforge.net/DTD/sodipodi-0.dtd"
   xmlns:inkscape="http://www.inkscape.org/namespaces/inkscape"
   version="1.1"
   id="Ebene_1"
   x="0px"
   y="0px"
   viewBox="0 0 410 96"
   enable-background="new 0 0 650 170"
   xml:space="preserve"
   sodipodi:docname="sfc.svg"
   width="410"
   height="96"
   inkscape:version="0.92.4 (5da689c313, 2019-01-14)"><metadata
   id="metadata85"><rdf:RDF><cc:Work
       rdf:about=""><dc:format>image/svg+xml</dc:format><dc:type
         rdf:resource="http://purl.org/dc/dcmitype/StillImage" /><dc:title></dc:title></cc:Work></rdf:RDF></metadata><defs
   id="defs83" /><sodipodi:namedview
   pagecolor="#ffffff"
   bordercolor="#666666"
   borderopacity="1"
   objecttolerance="10"
   gridtolerance="10"
   guidetolerance="10"
   inkscape:pageopacity="0"
   inkscape:pageshadow="2"
   inkscape:window-width="1920"
   inkscape:window-height="1028"
   id="namedview81"
   showgrid="false"
   inkscape:pagecheckerboard="true"
   fit-margin-top="0"
   fit-margin-left="0"
   fit-margin-right="0"
   fit-margin-bottom="0"
   inkscape:zoom="0.84"
   inkscape:cx="36.090723"
   inkscape:cy="173.13454"
   inkscape:window-x="0"
   inkscape:window-y="28"
   inkscape:window-maximized="1"
   inkscape:current-layer="g78" />
<g
   id="g78"
   transform="translate(-3.2,-53.6)">
	<path
   d="m 302.18857,108.55772 h -5.77975 V 86.477765 c 0,0 14.41691,0 21.23572,0 3.6367,0 6.55904,2.987288 6.68893,7.143515 v 15.00138 h -5.45505 c 0,0 0,-9.54633 0,-13.7675 0,-2.078114 -1.03906,-3.506817 -2.85741,-3.636699 -0.97411,-0.06494 -1.94823,0 -2.98729,0 0,5.779749 0,17.404199 0,17.404199 h -5.71481 c 0,0 0,-11.62445 0,-17.46914 -1.68846,0 -3.37693,0 -5.0654,0 -0.0649,5.71481 -0.0649,17.4042 -0.0649,17.4042 z"
   id="path2"
   inkscape:connector-curvature="0"
   style="fill:#ffffff;fill-opacity:1;stroke:none;stroke-width:0.64941043" />
	<path
   d="m 390.0538,108.55772 h -5.77975 V 86.477765 c 0,0 14.41691,0 21.23572,0 3.6367,0 6.55905,2.987288 6.68893,7.143515 v 15.00138 h -5.45505 c 0,0 0,-9.54633 0,-13.7675 0,-2.078114 -1.03905,-3.506817 -2.8574,-3.636699 -0.97412,-0.06494 -1.94824,0 -2.98729,0 0,5.779749 0,17.404199 0,17.404199 h -5.71481 c 0,0 0,-11.62445 0,-17.46914 -1.68847,0 -3.37694,0 -5.06541,0 -0.0649,5.71481 -0.0649,17.4042 -0.0649,17.4042 z"
   id="path4"
   inkscape:connector-curvature="0"
   style="fill:#ffffff;fill-opacity:1;stroke:none;stroke-width:0.64941043" />
	<path
   d="m 232.31201,100.18032 c 1.81835,2.72753 3.76658,5.64988 5.64987,8.44234 -2.208,0 -6.42917,0 -6.42917,0 l -5.00046,-8.18257 h -5.51999 c 0,0 0,5.45505 0,8.18257 -1.88329,0 -3.83152,0 -5.71481,0 0,-7.2734 0,-14.741616 0,-22.015013 0.32471,0 0.58447,0 0.77929,0 5.00047,0 10.00093,0 14.8715,0 4.02635,0 6.9487,4.156227 6.1694,8.637163 -0.45458,2.46776 -1.81835,3.9614 -3.89646,4.74069 -0.25976,-0.0649 -0.45459,0 -0.90917,0.19482 z m -11.29975,-3.76658 c 2.46776,0 7.46822,0 7.46822,0 0.38965,0 0.7793,-0.19482 1.16894,-0.38964 0.7793,-0.38965 1.36377,-0.97412 1.36377,-2.143056 0,-1.168939 -0.38965,-2.078113 -1.36377,-2.597642 -0.58447,-0.259764 -1.16894,-0.389646 -1.75341,-0.389646 h -6.88375 c 0,0.06494 0,3.70164 0,5.519984 z"
   id="path6"
   inkscape:connector-curvature="0"
   style="fill:#ffffff;fill-opacity:1;stroke:none;stroke-width:0.64941043" />
	<path
   d="m 293.22671,108.55772 h -14.5468 c -1.104,0 -2.20799,-0.25976 -3.24705,-0.58447 -2.66258,-0.90917 -4.09129,-3.31199 -3.89646,-6.36422 0.12988,-3.11717 1.88329,-5.51999 4.54587,-6.23434 0.58447,-0.19483 1.23388,-0.25977 1.88329,-0.25977 h 9.22163 c 0.19482,0 -0.19482,0 0,0 0,-2.402815 -1.75341,-4.415987 -4.02635,-4.415987 h -10.1308 v -4.221168 h 11.81927 c 4.54587,0 8.05269,3.831522 8.18257,8.961865 v 13.11809 z m -5.77976,-9.28657 c -2.40282,0 -4.74069,0 -7.14351,0 -1.49365,0 -2.46776,0.97412 -2.59764,2.59764 0,1.49365 0.97411,2.46776 2.46776,2.46776 h 7.20845 c 0.0649,-0.12988 0.0649,-3.31199 0.0649,-5.0654 z"
   id="path8"
   inkscape:connector-curvature="0"
   style="fill:#ffffff;fill-opacity:1;stroke:none;stroke-width:0.64941043" />
	<path
   d="m 122.30188,108.55772 v -4.28611 h 12.72844 c 1.16894,0 1.88329,-0.64941 2.14306,-2.01317 0.19482,-0.97412 -0.38965,-2.01317 -1.36377,-2.40282 -0.45458,-0.19482 -0.97411,-0.32471 -1.49364,-0.32471 h -7.85787 c -3.24705,-0.0649 -5.0654,-2.20799 -5.32516,-6.039512 -0.19483,-2.987288 1.75341,-6.364223 4.41599,-6.948692 0,0 11.36468,0 16.81973,0 0,1.298821 0,3.052229 0,4.480932 -0.32471,0 -0.51953,0 -0.77929,0 -3.76658,0 -7.46822,0 -11.2348,0 -0.38965,0 -0.71436,0 -1.03906,0.06494 -0.90918,0.194823 -1.55859,0.844234 -1.68847,1.753408 -0.12988,0.909175 0.19482,1.81835 0.90918,2.402814 0.19482,0.19483 0.58447,0.25977 0.90917,0.25977 h 8.50728 c 2.14305,0.0649 4.09128,0.64941 5.13034,2.98729 1.81835,4.09128 0.45459,9.93598 -5.0654,10.00092 z"
   id="path10"
   inkscape:connector-curvature="0"
   style="fill:#ffffff;fill-opacity:1;stroke:none;stroke-width:0.64941043" />
	<path
   d="m 369.53243,86.023178 c 2.208,0.06494 4.35105,0.324705 6.29928,1.428703 2.79247,1.428703 4.87058,3.701639 5.45505,7.143515 0.71435,4.286104 0.0649,8.377394 -2.98729,11.429624 -1.7534,1.75341 -3.9614,2.46776 -6.16939,2.98729 -3.50682,0.64941 -6.81881,0 -10.00093,-1.75341 -2.92234,-1.68847 -4.15622,-4.61082 -4.54587,-8.11763 -0.12988,-1.81835 -0.12988,-3.57176 0.38965,-5.325167 1.16894,-4.091286 3.89646,-6.104458 7.33834,-7.013633 1.29882,-0.454587 2.07811,-0.714351 4.22116,-0.779292 z m 6.29928,11.494562 c 0,-0.38964 0,-0.84423 -0.0649,-1.23388 -0.12988,-2.987285 -1.7534,-5.325163 -4.15622,-5.974573 -1.49365,-0.389647 -2.85741,-0.389647 -4.35105,0 -2.07812,0.519528 -3.44188,1.88329 -4.02635,4.221167 -0.45459,1.818346 -0.45459,3.701636 -0.19482,5.519986 0.3247,2.14306 1.49364,3.6367 3.31199,4.22117 1.104,0.32471 2.27294,0.51953 3.44188,0.38965 3.9614,-0.12989 6.1694,-2.66259 6.03951,-7.14352 z"
   id="path12"
   inkscape:connector-curvature="0"
   style="fill:#ffffff;fill-opacity:1;stroke:none;stroke-width:0.64941043" />
	<path
   d="m 212.24522,95.37469 c 0,1.4287 0,2.79246 0,4.22117 -4.54587,0 -9.0268,0 -13.57268,0 0,2.66258 1.68847,4.54587 3.96141,4.54587 2.92235,0 9.54633,0 9.54633,0 v 4.48093 h -10.91009 c -5.45505,-0.25976 -8.7021,-4.61081 -8.57222,-10.32563 0.0649,-1.88329 0.12988,-3.701634 0.77929,-5.455043 1.29882,-3.831521 4.41599,-6.23434 8.05269,-6.23434 3.31199,0 10.78021,0 10.78021,0 v 4.480932 c 0,0 -7.40327,0 -9.15668,0 -2.208,0 -3.96141,1.818349 -4.22117,4.415991 4.35105,-0.12988 8.83198,-0.12988 13.31291,-0.12988 z"
   id="path14"
   inkscape:connector-curvature="0"
   style="fill:#ffffff;fill-opacity:1;stroke:none;stroke-width:0.64941043" />
	<path
   d="m 160.74697,104.07679 c 0,0 0,-11.754331 0,-17.534084 1.88329,0 3.6367,0 5.58493,0 0,7.208456 0,22.015014 0,22.015014 h -14.67667 c -1.81835,0 -3.31199,-0.71435 -4.41599,-2.33788 -1.104,-1.49364 -1.75341,-3.05223 -1.68847,-5.13034 0.0649,-4.41599 0,-14.611735 0,-14.611735 h 5.58493 v 14.092205 c -0.0649,2.07811 0.97412,3.31199 2.66258,3.50682 0.0649,0 6.94869,0 6.94869,0 z"
   id="path16"
   inkscape:connector-curvature="0"
   style="fill:#ffffff;fill-opacity:1;stroke:none;stroke-width:0.64941043" />
	<path
   d="m 175.034,101.0895 c 0,2.59764 0,5.00046 0,7.46822 -1.81834,0 -3.57175,0 -5.45504,0 0,-7.20846 0,-22.015014 0,-22.015014 h 14.80655 c 2.66259,-0.06494 5.26023,2.143054 6.03952,5.390107 1.16894,4.805637 -1.81835,9.221627 -6.23434,9.221627 -2.79246,0 -5.58493,0 -8.44233,0 -0.12989,-0.0649 -0.32471,-0.0649 -0.71436,-0.0649 z m 0.19483,-4.22117 h 7.46822 c 0.3247,0 0.64941,-0.25976 0.90917,-0.38964 0.77929,-0.64942 1.36376,-2.337882 1.104,-3.247056 -0.45459,-1.493644 -1.23388,-2.143055 -2.59764,-2.143055 h -6.94869 v 5.779751 z"
   id="path18"
   inkscape:connector-curvature="0"
   style="fill:#ffffff;fill-opacity:1;stroke:none;stroke-width:0.64941043" />
	<path
   d="m 270.04275,86.477765 v 4.221168 h -9.54633 c -1.62353,0.06494 -2.98729,0.909174 -3.9614,2.402818 -0.32471,0.519529 -0.51953,1.168939 -0.58447,2.078109 4.67575,0 9.22162,0 13.7675,0 0,1.55859 0,3.05223 0,4.61082 -4.61082,0 -9.15669,0 -13.83244,0 0,2.79246 0,5.77975 0,8.7021 -1.8833,0 -5.64988,0 -5.64988,0 0,0 0,-9.02681 0,-12.98821 0,-4.740696 3.18212,-8.896923 7.33834,-9.026805 z"
   id="path20"
   inkscape:connector-curvature="0"
   style="fill:#ffffff;fill-opacity:1;stroke:none;stroke-width:0.64941043" />
	<path
   d="m 355.69999,104.20667 v 4.28611 h -10.26068 c -4.22117,0 -7.46822,-2.79247 -8.57222,-7.53316 -0.77929,-3.6367 -0.45459,-7.403281 1.36376,-10.520451 1.55859,-2.662583 3.76658,-3.961404 6.62399,-3.961404 h 10.97503 v 4.415991 h -9.28657 c -1.81835,0 -2.98728,0.974116 -3.57175,2.922347 -0.71436,2.207997 -0.7793,4.805637 -0.12989,7.143517 0.58447,2.14305 2.07812,3.31199 4.09129,3.31199 z"
   id="path22"
   inkscape:connector-curvature="0"
   style="fill:#ffffff;fill-opacity:1;stroke:none;stroke-width:0.64941043" />
	<path
   d="m 232.18212,128.68944 c 0,-1.29882 0,-2.66258 0,-3.9614 4.54588,0 9.02681,0 13.57268,0 0,-2.208 0,-4.41599 0,-6.55905 -4.48093,0 -8.89692,0 -13.37785,0 0,-1.29882 0,-2.59764 0,-3.83152 5.45504,0 10.78021,0 16.3002,0 0,4.80564 0,9.54634 0,14.35197 -5.51999,0 -11.03998,0 -16.49503,0 z"
   id="path24"
   inkscape:connector-curvature="0"
   style="fill:#ffffff;fill-opacity:1;stroke:none;stroke-width:0.64941043" />
	<path
   d="m 121.58752,117.97417 c 0,-1.4287 0,-2.59764 0,-3.89646 4.54588,0 9.02681,0 13.57268,0 0.38965,2.79246 0.12989,5.45505 -0.64941,8.11763 -0.0649,0.25976 -0.19482,0.64941 -0.19482,0.64941 0,0 2.46776,3.9614 3.6367,5.77975 -1.29882,0 -3.83152,0 -3.83152,0 0,0 -1.29882,-2.01317 -1.81835,-2.79246 -0.32471,0.25976 -0.51953,0.38964 -0.71435,0.64941 -1.62353,1.4287 -3.312,2.20799 -5.45505,2.14305 0,0 -3.37694,0 -5.0654,0 v -3.89646 c 0,0 2.33787,0 3.57175,0 1.55859,0 2.98729,-0.19482 4.41599,-0.71435 2.208,-0.97412 3.50682,-3.24705 3.37694,-5.97458 -3.57176,-0.0649 -7.20846,-0.0649 -10.84516,-0.0649 z"
   id="path26"
   inkscape:connector-curvature="0"
   style="fill:#ffffff;fill-opacity:1;stroke:none;stroke-width:0.64941043" />
	<rect
   x="327.77533"
   y="86.477768"
   width="6.0395174"
   height="22.015015"
   id="rect28"
   style="fill:#ffffff;fill-opacity:1;stroke:none;stroke-width:0.64941043" />
	<path
   d="m 183.54128,128.68944 v -3.9614 h 7.01363 c 2.85741,0.19482 5.06541,-1.88329 5.00046,-5.90963 0,-0.25977 0,-0.51953 -0.0649,-0.84424 -4.22116,0 -8.50727,0 -12.85832,0 0,-1.23388 0,-2.46776 0,-3.70164 5.13034,0 15.45597,0 15.45597,0 v 7.14352 c 0,0.64941 -0.19483,1.4287 -0.45459,2.01317 -1.03906,3.11717 -3.18211,5.0654 -6.10446,5.32517 h -7.98775 z"
   id="path30"
   inkscape:connector-curvature="0"
   style="fill:#ffffff;fill-opacity:1;stroke:none;stroke-width:0.64941043" />
	<path
   d="m 199.51678,120.96146 c 0,-1.16894 0,-2.33788 0,-3.37694 4.54587,0 13.63762,0 13.63762,0 v 5.06541 c 0,2.01317 -1.23388,2.92234 -6.29928,2.92234 0,0 -0.0649,0.90918 -0.19483,1.16894 -0.51953,1.49365 -1.55858,2.07812 -3.05223,2.07812 h -3.31199 c 0,-1.16894 0,-2.33788 0,-3.50682 1.104,0 2.208,0 3.24705,0 1.03906,0 1.36377,-0.25976 1.55859,-1.49364 0.0649,-0.32471 0.0649,-0.71436 0.12988,-1.16894 1.36376,0 2.79247,0 4.15623,0 0.97411,0 1.23388,-0.32471 1.23388,-1.55859 -3.6367,-0.12988 -7.33834,-0.12988 -11.10492,-0.12988 z"
   id="path32"
   inkscape:connector-curvature="0"
   style="fill:#ffffff;fill-opacity:1;stroke:none;stroke-width:0.64941043" />
	<path
   d="m 266.53594,114.40241 v 8.11763 c -0.58447,4.54588 -4.15623,6.23435 -6.81881,6.10446 h -9.41645 v -3.89646 h 9.61127 c 1.94823,0.0649 3.9614,-2.01317 3.9614,-4.54587 0,-1.68847 0,-3.312 0,-4.87058 0,-0.25977 0,-0.51953 0,-0.71435 0.97412,-0.19483 1.88329,-0.19483 2.66259,-0.19483 z"
   id="path34"
   inkscape:connector-curvature="0"
   style="fill:#ffffff;fill-opacity:1;stroke:none;stroke-width:0.64941043" />
	<path
   d="m 157.95451,114.07771 c 1.03906,0 1.88329,0 2.92235,0 0,1.55858 0,3.11717 0,4.7407 0,0.3247 0,0.64941 0,0.90917 -0.19483,3.70164 2.14305,4.80564 4.22116,4.80564 0.32471,0 0.58447,0 0.90918,0 0,1.29882 0,2.66258 0,3.9614 -4.7407,0.32471 -7.92281,-2.07811 -8.05269,-7.40328 -0.0649,-2.07811 0,-4.15623 0,-6.23434 0,-0.19482 0,-0.45459 0,-0.77929 z"
   id="path36"
   inkscape:connector-curvature="0"
   style="fill:#ffffff;fill-opacity:1;stroke:none;stroke-width:0.64941043" />
	<polygon
   points="353.4,118.1 328.7,114.6 328.7,109.1 353.4,112.4 "
   id="polygon38"
   style="fill:#ffffff;fill-opacity:1;stroke:none"
   transform="matrix(0.64941045,0,0,0.64941045,1.1218866,47.448197)" />
	<polygon
   points="353.4,110.8 328.7,107.2 328.7,101.9 353.4,105.2 "
   id="polygon40"
   style="fill:#ffffff;fill-opacity:1;stroke:none"
   transform="matrix(0.64941045,0,0,0.64941045,1.1218866,47.448197)" />
	<path
   d="m 230.62354,125.37745 c 0,1.23388 0,2.40282 0,3.6367 -5.32517,-0.71435 -10.71527,-1.49364 -16.04044,-2.33788 0,-1.104 0,-2.33788 0,-3.57176 5.32517,0.64941 10.71527,1.62353 16.04044,2.27294 z"
   id="path42"
   inkscape:connector-curvature="0"
   style="fill:#ffffff;fill-opacity:1;stroke:none;stroke-width:0.64941043" />
	<path
   d="m 148.603,128.55956 c 0,-1.4287 0,-2.66258 0,-3.9614 0.71435,-0.0649 1.36376,-0.0649 2.07811,-0.19482 1.94823,-0.32471 3.05223,-1.8833 3.05223,-4.15623 0,-2.01317 0,-3.96141 0,-6.03952 0.97412,0 1.88329,0 2.98729,0 0,1.68847 0,3.24705 0,4.87058 0,1.104 0,2.20799 -0.12988,3.24705 -0.64941,3.70164 -2.72753,5.64987 -6.1694,5.97458 -0.51953,0.19482 -1.104,0.19482 -1.81835,0.25976 z"
   id="path44"
   inkscape:connector-curvature="0"
   style="fill:#ffffff;fill-opacity:1;stroke:none;stroke-width:0.64941043" />
	<path
   d="m 148.86276,119.53276 c 0,1.23388 0,2.46776 0,3.6367 -4.09128,0 -8.11763,0 -12.27385,0 0,-1.23388 0,-2.40282 0,-3.6367 4.02634,0 8.18257,0 12.27385,0 z"
   id="path46"
   inkscape:connector-curvature="0"
   style="fill:#ffffff;fill-opacity:1;stroke:none;stroke-width:0.64941043" />
	<path
   d="m 166.20202,119.40287 c 4.09129,0 8.18257,0 12.27386,0 0,1.23388 0,2.40282 0,3.6367 -4.09129,0 -8.11763,0 -12.27386,0 0,-1.16894 0,-2.40282 0,-3.6367 z"
   id="path48"
   inkscape:connector-curvature="0"
   style="fill:#ffffff;fill-opacity:1;stroke:none;stroke-width:0.64941043" />
	<path
   d="m 260.10677,114.27253 c 0,1.23388 0,2.59764 0,3.83152 -3.24705,0 -6.42916,0 -9.67621,0 0,-1.16894 0,-2.59764 0,-3.83152 3.11717,0 6.36422,0 9.67621,0 z"
   id="path50"
   inkscape:connector-curvature="0"
   style="fill:#ffffff;fill-opacity:1;stroke:none;stroke-width:0.64941043" />
	<path
   d="m 166.39685,116.54547 c 0,1.49364 -1.104,2.66258 -2.33788,2.66258 -1.23388,0 -2.33788,-1.16894 -2.33788,-2.66258 0,-1.49365 1.03906,-2.72753 2.33788,-2.72753 1.23388,0.12989 2.33788,1.29883 2.33788,2.72753 z m -1.49365,0 c 0,-0.58447 -0.51953,-1.16894 -1.03906,-1.16894 -0.51952,0 -1.03905,0.58447 -0.97411,1.23388 0.0649,0.64941 0.45459,1.104 1.03906,1.104 0.58447,-0.0649 0.90917,-0.45459 0.97411,-1.16894 z"
   id="path52"
   inkscape:connector-curvature="0"
   style="fill:#ffffff;fill-opacity:1;stroke:none;stroke-width:0.64941043" />
	<g
   id="g56"
   transform="matrix(0.64941045,0,0,0.64941045,1.1218866,47.448197)">
		
	</g>
	
	
	<g
   id="g76"
   style="fill:#ffffff;fill-opacity:1;stroke:none"
   transform="matrix(0.64941045,0,0,0.64941045,1.1218866,47.448197)">
		<path
   id="path2842"
   d="m 75,97.3 c 0,11.2 -16,20.3 -35.9,20.3 -19.9,0 -35.9,-9.1 -35.9,-20.3 v 0 C 3.2,86 19.3,77 39.1,77 58.9,77 75,86 75,97.3 Z"
   inkscape:connector-curvature="0"
   style="fill:#ffffff;fill-opacity:1;stroke:none" />
		<path
   id="path3624"
   d="m 136.9,129.3 c 0,11.2 -16,20.3 -35.9,20.3 -19.9,0 -35.9,-9.1 -35.9,-20.3 v 0 c 0,-11.2 16,-20.3 35.9,-20.3 19.9,0 35.9,9.1 35.9,20.3 z"
   inkscape:connector-curvature="0"
   style="fill:#ffffff;fill-opacity:1;stroke:none" />
		<path
   id="path3644"
   d="m 76.4,15.6 c -18.1,0 -32.9,16.3 -33.2,36.7 0.8,0 1.5,-0.1 2.3,-0.1 18.4,0 33.3,16.8 33.3,37.6 0,0.3 0,0.6 0,0.9 17.3,-1.3 30.9,-17.6 30.9,-37.5 -0.1,-20.8 -15,-37.6 -33.3,-37.6 z"
   inkscape:connector-curvature="0"
   style="fill:#ffffff;fill-opacity:1;stroke:none" />
		<path
   id="path3897"
   d="m 139.3,48.5 c -18.4,0 -33.2,16.8 -33.2,37.6 0,0.5 0,0.9 0,1.4 0.5,0 0.9,0 1.4,0 18,0 32.6,16.1 33.2,36.2 17.7,-0.8 32,-17.2 32,-37.5 -0.1,-20.8 -15,-37.7 -33.4,-37.7 z"
   inkscape:connector-curvature="0"
   style="fill:#ffffff;fill-opacity:1;stroke:none" />
	</g>
</g>
</svg>