<?xml version="1.0" encoding="UTF-8" standalone="no"?>
<!-- Created with Inkscape (http://www.inkscape.org/) -->

<svg
   xmlns:dc="http://purl.org/dc/elements/1.1/"
   xmlns:cc="http://creativecommons.org/ns#"
   xmlns:rdf="http://www.w3.org/1999/02/22-rdf-syntax-ns#"
   xmlns:svg="http://www.w3.org/2000/svg"
   xmlns="http://www.w3.org/2000/svg"
   xmlns:sodipodi="http://sodipodi.sourceforge.net/DTD/sodipodi-0.dtd"
   xmlns:inkscape="http://www.inkscape.org/namespaces/inkscape"
   version="1.1"
   id="svg2"
   width="410"
   height="96"
   viewBox="0 0 410 96.000001"
   sodipodi:docname="supergrafx.svg"
   inkscape:version="0.92.4 (5da689c313, 2019-01-14)">
  <metadata
     id="metadata8">
    <rdf:RDF>
      <cc:Work
         rdf:about="">
        <dc:format>image/svg+xml</dc:format>
        <dc:type
           rdf:resource="http://purl.org/dc/dcmitype/StillImage" />
        <dc:title></dc:title>
      </cc:Work>
    </rdf:RDF>
  </metadata>
  <defs
     id="defs6" />
  <sodipodi:namedview
     pagecolor="#ffffff"
     bordercolor="#666666"
     borderopacity="1"
     objecttolerance="10"
     gridtolerance="10"
     guidetolerance="10"
     inkscape:pageopacity="0"
     inkscape:pageshadow="2"
     inkscape:window-width="1920"
     inkscape:window-height="1028"
     id="namedview4"
     showgrid="false"
     inkscape:pagecheckerboard="true"
     fit-margin-top="0"
     fit-margin-left="0"
     fit-margin-right="0"
     fit-margin-bottom="0"
     inkscape:zoom="0.944"
     inkscape:cx="72.123835"
     inkscape:cy="183.31251"
     inkscape:window-x="0"
     inkscape:window-y="28"
     inkscape:window-maximized="1"
     inkscape:current-layer="svg2" />
  <path
     style="fill:#ffffff;fill-opacity:1;stroke:none;stroke-width:0.31924328"
     d="m 29.23979,95.50033 c -2.57988,-0.9239 -2.57074,-0.893747 -2.68046,-8.846601 -0.0646,-4.682524 0.0225,-7.355618 0.25818,-7.924624 0.19561,-0.472253 0.90551,-1.167674 1.57754,-1.54538 1.1851,-0.66606 1.55459,-0.686737 12.27212,-0.686737 h 11.05024 v 1.596216 1.596217 H 41.342 30.9666 v 6.384865 6.384866 h 8.1407 8.1407 v -2.224877 -2.224877 l -3.91073,-0.08964 -3.91073,-0.08964 -0.0965,-1.676027 -0.0965,-1.676027 h 6.2493 6.24929 l -0.0872,5.666568 -0.0872,5.666568 -10.53503,0.06802 c -8.35752,0.05396 -10.79297,-0.02436 -11.78297,-0.378894 z m 26.94703,-9.266422 v -9.73692 h 10.56659 c 11.62789,0 12.27569,0.09511 13.23109,1.942656 0.66461,1.285213 0.64111,6.602378 -0.0334,7.565433 -0.73057,1.043035 -2.10991,1.647513 -4.27603,1.873917 l -1.9171,0.200376 2.60995,2.908188 c 1.43547,1.599505 3.04104,3.375082 3.56793,3.945729 l 0.95799,1.037541 h -2.72929 -2.72929 l -3.47877,-3.968743 -3.47877,-3.968744 -4.07035,-0.0218 -4.07035,-0.0218 v 3.990541 3.990541 h -2.07508 -2.07508 z m 19.91327,-4.150163 0.0394,-2.234703 h -7.82146 -7.82146 l -0.0971,1.879714 c -0.0534,1.033841 -0.021,2.077935 0.072,2.320206 0.13853,0.360994 1.56053,0.425063 7.87909,0.354989 l 7.71005,-0.0855 z m 7.2224,13.56925 c 0,-0.174805 2.11785,-4.556419 4.70633,-9.73692 l 4.70632,-9.419087 4.47192,6.38e-4 4.47192,6.39e-4 4.62903,9.45816 c 2.54596,5.201989 4.67691,9.583319 4.73544,9.736294 0.0585,0.152975 -1.02381,0.278134 -2.40519,0.278134 h -2.51161 l -3.87396,-7.981082 -3.87397,-7.981082 -1.22305,0.0029 -1.22307,0.0029 -3.88502,7.978282 -3.88502,7.97811 h -2.42003 c -1.39336,0 -2.42004,-0.134836 -2.42004,-0.317833 z m 30.32811,-9.404501 v -9.751506 h 11.49276 11.49276 v 1.596216 1.596217 h -9.25806 -9.25805 v 2.394324 2.394325 h 7.98108 7.98108 v 1.755838 1.755838 h -7.97125 -7.97126 l -0.0896,3.91073 -0.0896,3.91073 -2.15489,0.0944 -2.1549,0.0944 z m 29.77318,4.690622 c 2.76339,-2.767443 5.02434,-5.171878 5.02434,-5.343194 0,-0.171315 -1.97339,-2.288658 -4.38532,-4.705208 l -4.38532,-4.393726 h 3.19482 3.19481 l 2.85988,2.873189 c 1.57293,1.580255 3.00952,2.87319 3.19243,2.87319 0.1829,0 1.6195,-1.292935 3.19243,-2.87319 l 2.85988,-2.873189 h 3.19769 3.19769 l -4.54676,4.546755 -4.54675,4.546755 5.18301,5.190165 5.18301,5.190165 -3.1888,-0.009 -3.18881,-0.009 -3.67129,-3.463381 -3.6713,-3.463385 -3.71267,3.472426 -3.71267,3.472425 h -3.14732 -3.14732 z M 4.40893,64.732647 0,59.832036 v -5.87385 -5.873849 h 6.22524 6.22525 v 4.309784 4.309784 h 5.11328 5.11328 l -0.0852,-8.220514 -0.0852,-8.220514 -1.03754,-0.100038 -1.03754,-0.100038 V 34.017406 27.97201 h 3.32556 3.32557 l 4.4942,4.708838 4.4942,4.708839 0.002,10.967264 0.002,10.967261 -4.36688,4.994903 c -2.40178,2.747194 -4.39155,5.033298 -4.42171,5.08023 -0.0302,0.04693 -4.19781,0.118762 -9.26144,0.159621 l -9.20641,0.07429 z m 41.48229,0.04255 -5.02808,-5.045742 V 30.12327 0.5170932 h 6.70411 6.70411 v 28.2530228 28.25303 h 1.75583 1.75584 v 6.330601 6.3306 l -3.43186,0.0683 -3.43187,0.06829 z m 15.72273,-1.407649 v -6.344402 h 1.75584 1.75584 V 28.770116 0.5170932 h 6.54448 6.54449 L 78.2009,30.1269 l -0.0137,29.609814 -4.69511,4.873571 -4.69512,4.873574 -3.59149,0.114047 -3.59148,0.114046 v -6.344404 z m 21.38922,-28.292376 8e-5,-34.5580788 h 6.54449 6.54448 l -9.5e-4,34.5580788 -9.6e-4,34.558084 h -6.54349 -6.54348 l 8e-5,-34.558084 z m 40.86309,0 1.3e-4,-34.5580788 h 14.68519 14.68519 v 6.544481 6.5444868 h -8.1407 -8.14071 v 21.548921 21.548921 h 8.14071 8.1407 l -2.6e-4,6.464676 -2.6e-4,6.464677 h -14.68506 -14.68506 z m 34.15908,0 8e-5,-34.5580788 h 6.70553 6.70554 l -0.0812,34.4702988 -0.0812,34.470309 -6.62438,0.08778 -6.62438,0.08778 z m 23.61749,34.398462 c -0.004,-0.08779 -6.4e-4,-6.301064 0.006,-13.807271 l 0.0129,-13.64765 h -3.51808 -3.51807 v -6.544487 -6.544488 h 3.51168 3.51167 v -7.661839 -7.661838 h -3.51828 -3.51829 l 0.0864,-6.4646758 0.0864,-6.464672 5.0958,-0.0883 5.0958,-0.0883 5.04018,5.032784 5.04017,5.0327898 v 8.020163 8.020167 l -4.18301,4.396871 -4.18301,4.396871 4.1867,4.195326 4.18669,4.195329 -0.0835,12.833656 -0.0835,12.833656 -6.62438,0.08773 c -3.6434,0.04825 -6.62727,0.0159 -6.6308,-0.0719 z M 99.92314,39.624388 V 33.0799 h 2.87319 2.87319 v -9.736919 -9.73692 h -2.87319 -2.87319 V 7.0615742 0.5170932 h 4.7127 4.71271 l 4.86459,4.872198 4.8646,4.8722048 v 13.227219 13.22722 l -4.86846,4.710377 -4.86846,4.71038 -4.70884,0.01609 -4.70884,0.01609 z M 4.54922,35.3329 0,30.585311 v -9.873453 -9.873454 l 4.54922,-5.1600758 4.54921,-5.160075 9.00712,-6.4e-4 9.00712,-6.4e-4 4.48091,4.980424 4.48091,4.9804218 v 5.714227 5.714228 l -5.50695,0.0043 c -3.02882,0.0026 -5.83018,0.09098 -6.22524,0.196858 l -0.7183,0.192494 v -4.347017 -4.347018 h -5.10789 -5.10789 v 7.023352 7.023352 h 1.59621 1.59622 v 6.225245 6.225243 l -3.75111,-0.0114 -3.75111,-0.01137 -4.54921,-4.747588 z m 136.31026,-2.013567 0.0864,-6.464676 h 4.78865 4.78865 l 0.0864,6.464676 0.0864,6.464677 h -4.96149 -4.96149 z"
     id="path819"
     inkscape:connector-curvature="0"
     sodipodi:nodetypes="csccscccccccccccccccccccscccsccscscccccccccccccccccscsccsscccscscccccccsscccccccccccccccccccccssscccssscccccccccccccccsccccccccccccccccccccccscsccccccccccccccccccccccccccccccccccccccccccccccccccccccccccccccccccccccccccccccccccccccccccccccccscccccccccccccccccccccccccccccccccccccccccccccccccccccccccccc" />
</svg>
