<?xml version="1.0" encoding="UTF-8" standalone="no"?>
<!-- Generator: Adobe Illustrator 13.0.0, SVG Export Plug-In . SVG Version: 6.00 Build 14948)  -->

<svg
   xmlns:dc="http://purl.org/dc/elements/1.1/"
   xmlns:cc="http://creativecommons.org/ns#"
   xmlns:rdf="http://www.w3.org/1999/02/22-rdf-syntax-ns#"
   xmlns:svg="http://www.w3.org/2000/svg"
   xmlns="http://www.w3.org/2000/svg"
   xmlns:sodipodi="http://sodipodi.sourceforge.net/DTD/sodipodi-0.dtd"
   xmlns:inkscape="http://www.inkscape.org/namespaces/inkscape"
   version="1.1"
   x="0px"
   y="0px"
   width="410"
   height="96"
   viewBox="-7.371 -3.275 410 96.000003"
   enable-background="new -7.371 -3.275 580 130"
   xml:space="preserve"
   id="svg64"
   sodipodi:docname="tg-cd.svg"
   inkscape:version="0.92.4 (5da689c313, 2019-01-14)"><metadata
   id="metadata70"><rdf:RDF><cc:Work
       rdf:about=""><dc:format>image/svg+xml</dc:format><dc:type
         rdf:resource="http://purl.org/dc/dcmitype/StillImage" /><dc:title></dc:title></cc:Work></rdf:RDF></metadata><defs
   id="defs68" /><sodipodi:namedview
   pagecolor="#ffffff"
   bordercolor="#666666"
   borderopacity="1"
   objecttolerance="10"
   gridtolerance="10"
   guidetolerance="10"
   inkscape:pageopacity="0"
   inkscape:pageshadow="2"
   inkscape:window-width="1920"
   inkscape:window-height="1028"
   id="namedview66"
   showgrid="false"
   inkscape:pagecheckerboard="true"
   fit-margin-top="0"
   fit-margin-left="0"
   fit-margin-right="0"
   fit-margin-bottom="0"
   inkscape:zoom="1.3313114"
   inkscape:cx="111.84859"
   inkscape:cy="-31.646291"
   inkscape:window-x="0"
   inkscape:window-y="28"
   inkscape:window-maximized="1"
   inkscape:current-layer="g59"
   inkscape:snap-bbox="true"
   inkscape:bbox-paths="true"
   inkscape:bbox-nodes="true"
   inkscape:snap-bbox-edge-midpoints="true"
   inkscape:snap-bbox-midpoints="true"
   showguides="true"
   inkscape:guide-bbox="true" />
<g
   id="Layer_2"
   style="display:none"
   transform="translate(-7.371,-29.058997)">
	<g
   id="g30"
   style="opacity:0.5">
		<polygon
   points="-3,2.5 25.081,2.5 25.081,10.765 16.862,10.765 16.862,122.925 6.929,122.925 6.929,10.765 -3,10.765 "
   id="polygon2" />
		<path
   d="M 50.519,114.716 H 61.48 V 36.134 h 9.587 v 78.582 c 0,5.085 -4.622,8.688 -9.36,8.688 H 50.519 c -5.007,0 -9.474,-4.075 -9.474,-8.791 V 36.134 h 9.474 z"
   id="path4"
   inkscape:connector-curvature="0" />
		<path
   d="m 256.674,55.327 h 14.642 v 68.154 h -20.632 c -4.412,0 -9.846,-3.377 -9.846,-8.5 V 11.957 c 0,-4.328 4.535,-8.937 9.629,-8.937 h 11.259 c 4.994,0 9.525,4.566 9.525,8.836 v 24.406 h -9.868 V 12.196 H 250.17 v 102.861 h 11.472 v -51.39 h -4.968 z"
   id="path6"
   inkscape:connector-curvature="0" />
		<path
   d="m 398.255,81.654 v 41.31 h -9.244 V 43.845 c 0,-3.574 3.552,-7.468 8.047,-7.468 h 15.24 v 7.626 h -14.043 v 29.232 h 11.56 v 8.457 z"
   id="path8"
   inkscape:connector-curvature="0" />
		<path
   d="m 431.045,36.399 h 9.703 v 31.512 l 5.479,5.509 5.363,-5.356 V 36.399 h 9.586 V 66.38 c 0,3.661 -9.47,13.306 -9.47,13.306 0,0 9.586,9.64 9.586,13.547 v 29.904 h -9.017 V 92.004 l -5.822,-5.887 -5.821,5.81 v 31.213 h -9.587 V 93.306 c 0,-3.669 10.155,-13.695 10.155,-13.695 0,0 -10.155,-9.537 -10.155,-13.381 z"
   id="path10"
   inkscape:connector-curvature="0" />
		<path
   d="m 112.616,81.849 c 3.253,0 7.578,-3.888 7.578,-9.092 V 44.319 c 0,-4.092 -4.667,-7.901 -9.975,-7.901 H 90.528 v 86.894 h 9.076 V 82.488 h 3.425 l 10.101,40.67 h 8.904 z M 110.82,73.353 H 99.946 V 44.837 h 10.874 z"
   id="path12"
   inkscape:connector-curvature="0" />
		<path
   d="m 313.457,81.622 c 3.254,0 7.581,-3.895 7.581,-9.096 V 44.09 c 0,-4.091 -4.67,-7.905 -9.976,-7.905 h -19.689 v 86.9 h 9.068 v -40.83 h 3.429 l 10.104,40.669 h 8.901 z m -1.928,-8.594 H 300.662 V 44.515 h 10.867 z"
   id="path14"
   inkscape:connector-curvature="0" />
		<path
   d="m 168.712,83.897 c -0.042,-3.894 -4.107,-6.357 -4.107,-6.357 0,0 4.107,-2.658 4.107,-6.354 V 44.66 c 0,-5.007 -4.408,-8.265 -8.901,-8.265 h -20.719 v 86.744 h 20.719 c 4.195,0 8.901,-2.621 8.901,-8.262 0,0.001 0.046,-27.09 0,-30.98 z m -9.331,30.743 H 148.51 V 82.308 h 10.871 z m 0,-41.308 H 148.51 V 44.817 h 10.871 z"
   id="path16"
   inkscape:connector-curvature="0" />
		<path
   d="m 208.392,35.755 h -5.479 -5.308 c -5.437,0 -9.396,4.648 -9.396,8.184 v 70.446 c 0,4.554 5.072,8.683 9.354,8.683 h 11.728 c 4.58,0 9.16,-4.729 9.16,-8.5 V 43.699 c 0,-3.177 -4.325,-7.944 -10.059,-7.944 z m 0.342,78.359 H 198.232 V 44.336 h 10.502 z"
   id="path18"
   inkscape:connector-curvature="0" />
		<path
   d="m 360.691,36.376 h -11.979 c -5.396,0 -8.563,4.447 -8.563,7.943 v 78.645 h 9.074 v -41.31 h 11.47 v 41.31 h 9.075 V 44.795 c -10e-4,-5.189 -3.591,-8.419 -9.077,-8.419 z m -0.259,36.7 h -10.867 v -27.96 h 10.867 z"
   id="path20"
   inkscape:connector-curvature="0" />
		<g
   id="g28">
			<g
   id="g26">
				<rect
   x="515.90198"
   y="82.442001"
   width="28.094"
   height="10.479"
   id="rect22" />
				<path
   d="m 519.37,35.173 c -24.607,0 -44.551,19.946 -44.551,44.553 0,24.607 19.942,44.558 44.551,44.558 24.606,0 44.557,-19.949 44.557,-44.558 C 563.926,55.12 543.977,35.173 519.37,35.173 Z m -15.163,62.86 h -14.128 v -4.949 h 4.554 V 66.938 h -4.47 v -5.113 h 9.58 V 93 h 4.464 z m 44.66,-26.709 h -4.541 v -4.548 h -28.67 v 10.88 h 30.617 l 2.594,2.601 v 14.374 l -3.247,3.247 h -31.341 l -3.248,-3.247 v -29.64 l 3.008,-3.006 h 32.072 l 2.756,2.76 z"
   id="path24"
   inkscape:connector-curvature="0" />
			</g>
		</g>
	</g>
</g>
<g
   id="Ebene_1"
   style="fill:#fffff8;fill-opacity:1"
   transform="translate(-7.371,-29.058997)">
	<g
   id="g61"
   style="fill:#fffff8;fill-opacity:1">
		<polygon
   points="0,0 28.081,0 28.081,8.264 19.862,8.264 19.862,120.425 9.929,120.425 9.929,8.264 0,8.264 "
   id="polygon33"
   style="fill:#fffff8;fill-opacity:1"
   transform="matrix(0.72143303,0,0,0.72143303,0,29.924997)" />
		<path
   d="m 38.610371,110.88133 h 7.90763 V 54.189675 h 6.91638 v 56.691655 c 0,3.66849 -3.33446,6.26781 -6.75261,6.26781 h -8.0714 c -3.61221,0 -6.83485,-2.93984 -6.83485,-6.34212 V 54.189675 h 6.83485 z"
   id="path35"
   inkscape:connector-curvature="0"
   style="fill:#fffff8;fill-opacity:1;stroke-width:0.72143304" />
		<path
   d="m 187.3374,68.03614 h 10.56322 v 49.16855 h -14.8846 c -3.18297,0 -7.10323,-2.43628 -7.10323,-6.13218 V 36.747589 c 0,-3.122362 3.2717,-6.447447 6.94667,-6.447447 h 8.12262 c 3.60284,0 6.87165,3.294785 6.87165,6.374582 V 54.28274 h -7.1191 V 36.920012 h -8.08943 v 74.207318 h 8.27628 V 74.052891 h -3.58408 z"
   id="path37"
   inkscape:connector-curvature="0"
   style="fill:#fffff8;fill-opacity:1;stroke-width:0.72143304" />
		<path
   d="m 289.47861,87.029307 v 29.802403 h -6.66893 V 59.752646 c 0,-2.578402 2.56253,-5.387662 5.80537,-5.387662 h 10.99464 v 5.501648 h -10.13108 v 21.08893 h 8.33977 v 6.101159 z"
   id="path39"
   inkscape:connector-curvature="0"
   style="fill:#fffff8;fill-opacity:1;stroke-width:0.72143304" />
		<path
   d="m 313.1344,54.380855 h 7.00006 v 22.733798 l 3.95273,3.974374 3.86905,-3.863995 V 54.380855 h 6.91566 V 76.01086 c 0,2.641167 -6.83197,9.599388 -6.83197,9.599388 0,0 6.91565,6.954615 6.91565,9.773253 v 21.573739 h -6.50516 V 94.496139 l -4.20018,-4.247076 -4.19946,4.191525 V 116.95868 H 313.1344 V 95.435445 c 0,-2.646938 7.32615,-9.880026 7.32615,-9.880026 0,0 -7.32615,-6.880307 -7.32615,-9.653495 z"
   id="path41"
   inkscape:connector-curvature="0"
   style="fill:#fffff8;fill-opacity:1;stroke-width:0.72143304" />
		<path
   d="m 83.409201,87.169986 c 2.34682,0 5.46702,-2.804931 5.46702,-6.559269 V 60.095326 c 0,-2.952104 -3.36693,-5.700764 -7.19629,-5.700764 h -14.20574 v 62.688208 h 6.54772 V 87.630982 h 2.47091 l 7.2872,29.340688 h 6.42364 z m -1.29569,-6.129295 h -7.84487 V 60.468307 h 7.84487 z"
   id="path43"
   inkscape:connector-curvature="0"
   style="fill:#fffff8;fill-opacity:1;stroke-width:0.72143304" />
		<path
   d="m 228.30253,87.006221 c 2.34754,0 5.46919,-2.809982 5.46919,-6.562155 V 59.929397 c 0,-2.951383 -3.3691,-5.702928 -7.19702,-5.702928 H 212.3704 V 116.919 h 6.54196 V 87.462888 h 2.47379 l 7.28936,29.339962 h 6.42148 z m -1.39092,-6.199995 H 219.0718 V 60.235284 h 7.83981 z"
   id="path45"
   inkscape:connector-curvature="0"
   style="fill:#fffff8;fill-opacity:1;stroke-width:0.72143304" />
		<path
   d="m 123.87871,88.647481 c -0.0303,-2.80926 -2.96293,-4.58615 -2.96293,-4.58615 0,0 2.96293,-1.917568 2.96293,-4.583985 V 60.340614 c 0,-3.612216 -3.18008,-5.961923 -6.42148,-5.961923 h -14.94737 v 62.579989 h 14.94737 c 3.02641,0 6.42148,-1.89088 6.42148,-5.96048 0,0 0.0332,-19.544344 0,-22.350719 z m -6.73169,22.179019 h -7.8427 V 87.501124 h 7.8427 z m 0,-29.800959 h -7.8427 V 60.4546 h 7.8427 z"
   id="path47"
   inkscape:connector-curvature="0"
   style="fill:#fffff8;fill-opacity:1;stroke-width:0.72143304" />
		<path
   d="m 152.50517,53.916252 h -3.95273 -3.82937 c -3.92243,0 -6.77858,3.353221 -6.77858,5.903487 v 50.822791 c 0,3.28541 3.65911,6.26421 6.74828,6.26421 h 8.46097 c 3.30416,0 6.60833,-3.41166 6.60833,-6.13219 V 59.647316 c 0,-2.291271 -3.1202,-5.731064 -7.2569,-5.731064 z m 0.24673,56.530768 h -7.57649 V 60.106869 h 7.57649 z"
   id="path49"
   inkscape:connector-curvature="0"
   style="fill:#fffff8;fill-opacity:1;stroke-width:0.72143304" />
		<path
   d="m 262.3787,54.364262 h -8.64205 c -3.89285,0 -6.17763,3.208213 -6.17763,5.731064 v 56.736384 h 6.54629 V 87.029307 h 8.27483 v 29.802403 h 6.54701 V 60.438007 c -7.2e-4,-3.742795 -2.59067,-6.073745 -6.54845,-6.073745 z m -0.18685,26.476592 h -7.83981 V 60.669587 h 7.83981 z"
   id="path51"
   inkscape:connector-curvature="0"
   style="fill:#fffff8;fill-opacity:1;stroke-width:0.72143304" />
		<g
   id="g59"
   style="fill:#fffff8;fill-opacity:1">
			
		<g
   transform="matrix(0.72143303,0,0,0.72143303,22.372881,-45.274347)"
   id="g58"
   style="display:inline;fill:#ffffff;fill-opacity:1;stroke:none"><g
     id="g56"
     style="display:inline;fill:#ffffff;fill-opacity:1;stroke:none"><path
       d="m 491.3617,136.90906 c -24.60746,0 -44.55442,19.9483 -44.55442,44.55551 0,24.60806 19.94782,44.5555 44.55442,44.5555 24.60663,0 44.55359,-19.9483 44.55359,-44.5555 0,-24.60635 -19.94696,-44.55551 -44.55359,-44.55551 z m -2.22845,33.41727 h -4.45605 v -2.22937 l -2.22759,-2.22678 h -17.82245 v 33.41556 h 17.82245 l 2.22759,-2.22679 v -2.2285 h 4.45605 v 4.45529 l -4.45605,4.45701 h -22.27677 l -2.22845,-2.22851 v -37.87171 l 2.22845,-2.2285 h 22.27677 l 4.45605,4.45701 z m 33.41563,28.95941 -4.45433,4.45701 h -24.5061 v -4.45701 h 2.22931 v -33.41556 h -2.22931 v -4.45701 h 24.5061 l 4.45433,4.45701 z m -22.27679,0 h 17.82246 v -33.41556 h -17.82246 z"
       id="path54"
       inkscape:connector-curvature="0"
       style="display:inline;fill:#ffffff;fill-opacity:1;stroke:none;stroke-width:0.85908961" /></g></g></g>
	</g>
</g>
</svg>