<?xml version="1.0" encoding="UTF-8" standalone="no"?>
<!-- Generator: Adobe Illustrator 21.1.0, SVG Export Plug-In . SVG Version: 6.00 Build 0)  -->

<svg
   xmlns:dc="http://purl.org/dc/elements/1.1/"
   xmlns:cc="http://creativecommons.org/ns#"
   xmlns:rdf="http://www.w3.org/1999/02/22-rdf-syntax-ns#"
   xmlns:svg="http://www.w3.org/2000/svg"
   xmlns="http://www.w3.org/2000/svg"
   xmlns:sodipodi="http://sodipodi.sourceforge.net/DTD/sodipodi-0.dtd"
   xmlns:inkscape="http://www.inkscape.org/namespaces/inkscape"
   version="1.0"
   id="Ebene_1"
   inkscape:version="0.92.4 (5da689c313, 2019-01-14)"
   sodipodi:docname="wonderswancolor.svg"
   x="0px"
   y="0px"
   width="410"
   height="96"
   viewBox="0 0 409.99998 96.000001"
   enable-background="new 0 0 566.9 116.6"
   xml:space="preserve"><metadata
   id="metadata42"><rdf:RDF><cc:Work
       rdf:about=""><dc:format>image/svg+xml</dc:format><dc:type
         rdf:resource="http://purl.org/dc/dcmitype/StillImage" /><dc:title></dc:title></cc:Work></rdf:RDF></metadata><defs
   id="defs40" />
<sodipodi:namedview
   bordercolor="#666666"
   borderopacity="1"
   fit-margin-bottom="0"
   fit-margin-left="0"
   fit-margin-right="0"
   fit-margin-top="0"
   gridtolerance="10"
   guidetolerance="10"
   id="namedview326"
   inkscape:current-layer="Ebene_1"
   inkscape:cx="-27.86017"
   inkscape:cy="6.2246611"
   inkscape:pageopacity="0"
   inkscape:pageshadow="2"
   inkscape:window-height="1028"
   inkscape:window-maximized="1"
   inkscape:window-width="1920"
   inkscape:window-x="0"
   inkscape:window-y="28"
   inkscape:zoom="1.3620754"
   objecttolerance="10"
   pagecolor="#ffffff"
   showgrid="false"
   inkscape:pagecheckerboard="true">
	</sodipodi:namedview>
<g
   id="g25"
   transform="matrix(0.72150761,0,0,0.72150761,0,5.8277074)">
	<g
   id="g23">
		<polygon
   points="56,0 46.3,40.3 56,32.6 61.8,7.7 69.5,0 81.1,0 71.4,38.4 59.9,48 0,48 9.7,7.7 19.3,0 29,0 19.3,40.3 29,34.5 36.7,5.8 42.5,0 "
   id="polygon3"
   style="fill:#ffffff" />
		<polygon
   points="440.6,17.3 434.7,41.9 443.8,35.8 446.4,24.9 454.1,17.3 464.2,17.3 459.2,38.4 446.1,48 390.9,48 395.8,24.9 403.9,17.3 415.2,17.3 409.2,41.9 418.9,36.1 421.3,23 427.1,17.3 "
   id="polygon5"
   style="fill:#ffffff" />
		<path
   d="m 315.6,48 9.6,-9.6 h 41.5 c 0,0 3.6,1.1 5.6,-3.5 1.9,-4.2 -1.7,-4.2 -1.7,-4.2 h -19.3 c 0,0 -5.5,-1.3 -5.6,-8.1 C 345.6,5.9 359.4,1.5 359.4,1.5 H 400 l -8.1,8 h -21.2 c 0,0 -6.7,1.9 -6.9,7.6 -0.1,2.6 3,2 3,2 h 17.4 c 0,0 10,1.7 7.7,12.5 -3,14.2 -13.5,16.3 -13.5,16.3 h -62.8 z"
   id="path7"
   inkscape:connector-curvature="0"
   style="fill:#ffffff" />
		<path
   d="M 282.6,47.2 H 300 L 305.3,28 c 0.6,-2.3 6.7,-4.9 5.1,-4.6 -1.6,0.3 5.5,-1.1 5.5,-1.1 0,0 2.2,0.6 3.4,2.2 1.2,1.5 -1.1,3.8 -1.4,5.5 -0.3,1.8 1.9,1.9 1.9,1.9 h 9.7 c 0,0 5.2,-1.9 6.6,-3.9 1.4,-1.9 3.1,-4 3.1,-5.7 0,-1.7 -3.9,-3.8 -3.9,-3.8 l -3.9,-1.9 h -29 c 0,0 -13.8,7.9 -15.5,9.6 -0.5,0.5 -4.3,21 -4.3,21 z"
   id="path9"
   inkscape:connector-curvature="0"
   style="fill:#ffffff" />
		<path
   d="m 80.1,26 c -1.4,1.6 -5.7,15.1 -4.7,17.3 1,2.2 6.3,4.7 6.3,4.7 H 110 c 0,0 13.2,-8.2 14.1,-9.4 1,-1.2 4.7,-14.3 4.7,-15.7 0,-1.4 -3.1,-6.3 -3.1,-6.3 h -33 c 0,0 -11.2,7.8 -12.6,9.4 z m 22,-3.1 h 8.7 c 0,0 -1,10.4 -3.2,13.3 -2.2,2.9 -7.1,5.5 -7.1,5.5 0,0 -5.5,0.6 -6.3,0 -0.8,-0.6 -0.2,-6.3 -0.2,-6.3 0,0 0.8,-6.1 1.8,-7.9 1,-1.7 6.3,-4.6 6.3,-4.6 z"
   id="path11"
   inkscape:connector-curvature="0"
   style="fill:#ffffff" />
		<path
   d="m 185.3,26 c -1.4,1.6 -5.7,15.1 -4.7,17.3 1,2.2 6.3,4.7 6.3,4.7 h 39.2 c 0,0 1.3,-6.3 2.9,-12.6 1.5,-5.9 3.4,-15 3.4,-15.7 0,-1.4 9.8,-13.7 9.8,-13.7 h -17.1 l -8.6,10.6 h -18.6 c -0.1,0 -11.2,7.8 -12.6,9.4 z m 22,-3.1 h 8.7 c 0,0 -1,10.4 -3.2,13.3 -2.2,2.9 -7.1,5.5 -7.1,5.5 0,0 -5.5,0.6 -6.3,0 -0.8,-0.6 -0.2,-6.3 -0.2,-6.3 0,0 0.8,-6.1 1.8,-7.9 1,-1.7 6.3,-4.6 6.3,-4.6 z"
   id="path13"
   inkscape:connector-curvature="0"
   style="fill:#ffffff" />
		<path
   d="m 125.6,46.4 c 0,0 2,-9.4 3.7,-16.1 1.8,-6.7 4.1,-13.7 4.1,-13.7 h 37.7 c 0,0 4.9,0.5 6.7,3.3 1.7,2.8 1.2,7.6 1.2,7.6 l -4.7,18.8 h -15.7 c 0,0 1.4,-8.4 3.1,-15.7 1.8,-7.3 -3.1,-7.8 -3.1,-7.8 h -9.4 l -4.7,17.3 c 0,0 -4.3,5.5 -6.3,6.3 -2,0.8 -12.6,0 -12.6,0 z"
   id="path15"
   inkscape:connector-curvature="0"
   style="fill:#ffffff" />
		<path
   d="m 511.8,46.4 c 0,0 2.8,-9.5 4.5,-16.2 1.8,-6.7 4.9,-13.6 4.9,-13.6 h 37.7 c 0,0 4.9,0.5 6.7,3.3 1.7,2.8 1.2,7.6 1.2,7.6 l -4.7,18.8 h -17.3 c 0,0 2.9,-8.4 4.7,-15.7 1.8,-7.3 -3.1,-7.8 -3.1,-7.8 H 537 l -4.7,17.3 c 0,0 -4.3,5.5 -6.3,6.3 -2,0.8 -14.2,0 -14.2,0 z"
   id="path17"
   inkscape:connector-curvature="0"
   style="fill:#ffffff" />
		<path
   d="m 237.1,26 c -1.4,1.6 -5.7,15.1 -4.7,17.3 1,2.2 6.3,4.7 6.3,4.7 H 267 c 0,0 5.6,-3.5 9.8,-6.3 0,0 -24,0.2 -25.5,0 -0.6,-0.1 -0.4,-3 -0.3,-4.7 h 19.3 c 0,0 3.7,-0.8 9.3,-5.4 5.6,-4.6 6.3,-5.1 6.3,-8.7 0,-3.6 -3.1,-6.3 -3.1,-6.3 h -33 c -0.2,0 -11.3,7.8 -12.7,9.4 z m 22,-3.1 h 12.7 c 0,0 -1.4,4.8 -8.3,7.8 H 253 c -1.1,-2.8 1.5,-4.9 2.8,-6.1 1.5,-1.3 3.3,-1.7 3.3,-1.7 z"
   id="path19"
   inkscape:connector-curvature="0"
   style="fill:#ffffff" />
		<path
   d="m 491.4,46.4 c 0,0 4.8,-15.3 6.4,-20.7 0.9,-2.9 -1.1,-2.8 -4.8,-2.8 -3.7,0 -5.8,-0.8 -11,7.8 -6,10 8.9,12.7 8.9,12.7 l -1.1,2.9 h -17.3 c 0,0 -9.4,0.4 -9.4,-11 0,-13.9 17.3,-18.8 17.3,-18.8 h 37.7 l -9.4,29.8 h -17.3 z"
   id="path21"
   inkscape:connector-curvature="0"
   style="fill:#ffffff" />
	</g>
</g>
<g
   id="g37"
   transform="matrix(0.72150761,0,0,0.72150761,0,5.8277074)">
	<path
   d="m 289.1,62.4 c -2.8,-0.8 -6.1,3.2 -8.8,9.3 -2.4,10.2 -7.9,25.3 -8.2,35.8 -0.2,4.6 4.1,6 7,7 9.2,3.2 14.5,0.1 17.3,-3.2 2,-2.4 -0.1,-4.4 -2.6,-3.6 -3.5,1 -7.8,1.7 -8.7,-1.7 -1,-3.8 4.2,-19.2 7.8,-30.7 2,-6.3 3.7,-11.5 -3.8,-12.9 z"
   id="path27"
   inkscape:connector-curvature="0"
   style="fill:#ffffff" />
	<path
   d="m 238.5,80.6 c -6.2,0.6 -18.6,3.9 -18.6,19.9 0,0.8 -2.3,18 20,16 22.3,-2 26,-16 26,-16 0,0 5.5,-18.5 -8,-18 -8.3,0.3 -12,4 -12,4 0,0 5.5,1.1 6.7,5 2.3,7.5 1.4,20.1 -10.7,19 -12.2,-1.2 -6.2,-17.2 -2.4,-25.4 1.4,-2.8 1.1,-4.8 -1,-4.5 z"
   id="path29"
   inkscape:connector-curvature="0"
   style="fill:#ffffff" />
	<path
   d="m 318.6,80.6 c -6.2,0.6 -18.6,3.9 -18.6,19.9 0,0.8 -2.3,18 20,16 22.3,-2 26,-16 26,-16 0,0 5.5,-18.5 -8,-18 -8.3,0.3 -12,4 -12,4 0,0 5.5,1.1 6.7,5 2.3,7.5 1.4,20.1 -10.7,19 -12.2,-1.2 -6.2,-17.2 -2.4,-25.4 1.5,-2.8 1.1,-4.8 -1,-4.5 z"
   id="path31"
   inkscape:connector-curvature="0"
   style="fill:#ffffff" />
	<path
   d="m 162.9,92.4 c -1,-19.8 26.3,-28.7 36.1,-29.4 9.7,-0.8 20,1.4 20,1.4 0,0 -1.5,19.5 -6,20 -4.5,0.5 -3.5,-14.8 -12,-14 -15.6,1.4 -21.9,18.4 -22,24 -0.1,2.7 0.8,15 12,14 11.3,-1 13.8,-7 16,-8 2.3,-1 6.6,-3 6,2 -1.2,11 -22,14 -22,14 0,0 -26.8,1.6 -28.1,-24 z"
   id="path33"
   inkscape:connector-curvature="0"
   style="fill:#ffffff" />
	<path
   d="m 359.2,114.5 c -9.5,0.5 -4.3,-11 -2,-18 2.3,-7 1.8,-14.7 10,-14 9,0.7 2,12 2,12 0,0 13.7,-15.1 26,-14 3,0.2 -6,20 -6,20 0,0 -2.3,-7.3 -8,-6 -16.5,3.5 -12.5,19.5 -22,20 z"
   id="path35"
   inkscape:connector-curvature="0"
   style="fill:#ffffff" />
</g>
</svg>