<?xml version="1.0" encoding="UTF-8" standalone="no"?>
<!-- Created with Inkscape (http://www.inkscape.org/) -->

<svg
   xmlns:dc="http://purl.org/dc/elements/1.1/"
   xmlns:cc="http://creativecommons.org/ns#"
   xmlns:rdf="http://www.w3.org/1999/02/22-rdf-syntax-ns#"
   xmlns:svg="http://www.w3.org/2000/svg"
   xmlns="http://www.w3.org/2000/svg"
   xmlns:sodipodi="http://sodipodi.sourceforge.net/DTD/sodipodi-0.dtd"
   xmlns:inkscape="http://www.inkscape.org/namespaces/inkscape"
   version="1.1"
   id="svg901"
   width="410"
   height="96"
   viewBox="0 0 410.00005 96.000001"
   sodipodi:docname="x68000.svg"
   inkscape:version="0.92.4 (5da689c313, 2019-01-14)">
  <metadata
     id="metadata907">
    <rdf:RDF>
      <cc:Work
         rdf:about="">
        <dc:format>image/svg+xml</dc:format>
        <dc:type
           rdf:resource="http://purl.org/dc/dcmitype/StillImage" />
        <dc:title></dc:title>
      </cc:Work>
    </rdf:RDF>
  </metadata>
  <defs
     id="defs905" />
  <sodipodi:namedview
     pagecolor="#ffffff"
     bordercolor="#666666"
     borderopacity="1"
     objecttolerance="10"
     gridtolerance="10"
     guidetolerance="10"
     inkscape:pageopacity="0"
     inkscape:pageshadow="2"
     inkscape:window-width="1920"
     inkscape:window-height="1028"
     id="namedview903"
     showgrid="false"
     inkscape:pagecheckerboard="true"
     fit-margin-top="0"
     fit-margin-left="0"
     fit-margin-right="0"
     fit-margin-bottom="0"
     inkscape:zoom="0.75308257"
     inkscape:cx="133.04658"
     inkscape:cy="196.67172"
     inkscape:window-x="0"
     inkscape:window-y="28"
     inkscape:window-maximized="1"
     inkscape:current-layer="svg901" />
  <path
     style="fill:#ffffff;fill-opacity:1;stroke-width:0.45693767"
     d="M 8.849903e-4,95.790991 C 3.797989,91.622691 25.844772,70.069091 26.070874,70.30418 c 0.534398,0.555658 6.486145,10.588784 8.562659,14.434448 1.06589,1.974007 2.954012,5.210304 4.195819,7.191766 1.241815,1.981471 2.257843,3.707728 2.257843,3.836135 C 41.087195,95.894937 31.799932,96 20.448844,96 9.097747,96 -0.10383101,95.90595 8.849903e-4,95.790991 Z M 34.233132,92.807443 C 34.781269,92.458016 34.809703,92.207757 34.375134,91.55786 34.076265,91.110909 32.754,88.997431 31.436775,86.861245 26.737804,79.240786 25.054491,76.808611 24.479309,76.808611 c -0.320815,0 -4.003081,3.437302 -8.182807,7.638449 -5.788909,5.818571 -7.483546,7.778163 -7.112808,8.224878 0.595332,0.717328 23.938656,0.843609 25.049438,0.135505 z M 45.694934,91.535236 C 44.333791,89.090195 40.532519,82.566028 37.247655,77.037086 33.962791,71.508134 30.887122,66.264779 30.412828,65.385172 29.938534,64.505565 29.207781,63.271838 28.788933,62.643549 28.370076,62.015251 27.434473,60.370282 26.70981,58.98804 c -0.724671,-1.382234 -2.391442,-4.260938 -3.703941,-6.397124 -3.1029,-5.050177 -8.421064,-14.159482 -8.421064,-14.424157 0,-0.113508 10.229693,-0.153055 22.732652,-0.08788 l 22.732652,0.118497 2.05622,3.511491 c 1.130916,1.931319 4.31806,7.359696 7.08254,12.063037 2.76446,4.703359 5.50562,9.394656 6.09143,10.425116 0.58582,1.030452 1.56253,2.640227 2.17046,3.57727 0.60793,0.937052 1.10533,1.786175 1.10533,1.886944 0,0.286291 6.41835,11.343879 7.37236,12.701168 0.46887,0.667083 0.85251,1.319547 0.85251,1.449911 0,0.130364 1.63536,2.925916 3.63412,6.212347 l 3.63414,5.975337 -22.93974,-0.0097 -22.939757,-0.0097 z m 40.172145,-0.383324 c 0,-0.40461 -1.32654,-2.950828 -2.94786,-5.658264 -1.62133,-2.707439 -3.35808,-5.652939 -3.85943,-6.545555 -0.50136,-0.892618 -1.43666,-2.454757 -2.07845,-3.47141 -0.64178,-1.016663 -1.16689,-1.949454 -1.16689,-2.072864 0,-0.123418 -0.95518,-1.823883 -2.12263,-3.778817 -1.16746,-1.954934 -2.35261,-3.965669 -2.6337,-4.468304 -0.28108,-0.502626 -2.924269,-4.954049 -5.873767,-9.892047 -2.949497,-4.937998 -5.362716,-9.111719 -5.362716,-9.274938 0,-0.16322 -0.717116,-1.417809 -1.593606,-2.787972 L 56.634424,40.710537 H 39.02231 c -15.067303,0 -17.649332,0.09698 -17.869657,0.67114 -0.219851,0.572929 2.347042,5.132761 11.780008,20.926031 0.715261,1.197525 1.300471,2.273715 1.300471,2.391527 0,0.117819 1.80984,3.250458 4.021868,6.961438 2.212028,3.710971 5.531857,9.317501 7.377415,12.45894 1.845551,3.141447 3.638832,6.174375 3.985066,6.739834 l 0.629534,1.028105 h 17.810036 c 16.067128,0 17.810028,-0.072 17.810028,-0.73564 z m 36.555021,0.71527 c -9.70047,-0.27091 -11.16098,-0.579858 -13.59837,-2.876494 -2.52436,-2.378585 -3.00437,-6.349733 -1.67241,-13.835735 0.39711,-2.231933 0.90332,-5.188986 1.12489,-6.571219 0.89402,-5.577138 2.0868,-11.836521 3.09111,-16.221283 1.18562,-5.176365 4.06662,-8.64216 8.37294,-10.072487 2.90936,-0.966341 9.4053,-1.54248 17.62405,-1.56313 6.8727,-0.01728 10.26114,0.468635 13.02778,1.868148 3.58863,1.815321 4.33607,3.795122 3.78463,10.024648 l -0.32105,3.626786 h -3.37946 -3.37948 v -2.670804 c 0,-4.449017 0.10759,-4.411732 -12.72799,-4.411732 -10.48266,0 -10.84734,0.03066 -12.25013,1.031299 -1.54947,1.105235 -3.28911,4.243218 -3.83586,6.91924 -0.18488,0.90484 -0.47563,2.262019 -0.64611,3.015971 l -0.30998,1.370808 12.18505,-0.153886 c 12.51768,-0.158095 17.2441,0.230295 19.33682,1.588998 1.47322,0.956483 2.79553,4.084124 2.80754,6.640675 0.0163,3.464888 -1.90625,12.00605 -3.2408,14.397712 -1.98831,3.56332 -4.20332,6.461167 -5.33968,6.985773 -1.07142,0.494639 -9.12478,1.378769 -11.05781,1.213983 -0.37697,-0.0321 -4.69503,-0.170411 -9.59568,-0.307271 z m 15.31947,-7.801219 c 2.58768,-1.216354 3.55749,-2.590551 4.49738,-6.372671 1.05327,-4.238381 0.98799,-7.762908 -0.16673,-9.002352 -1.31593,-1.412489 -3.10736,-1.607039 -12.93644,-1.404908 -8.13519,0.167302 -8.91394,0.257103 -10.44745,1.204869 -2.2513,1.39139 -3.45968,4.170654 -4.13376,9.50768 l -0.55518,4.395622 1.47694,1.319647 1.47693,1.31964 h 9.36499 c 8.58542,0 9.53634,-0.08055 11.42332,-0.967527 z m 21.94124,7.108268 c -3.54005,-1.321443 -5.84678,-4.713015 -5.88212,-8.64841 -0.0241,-2.674499 0.86972,-7.85852 1.83106,-10.620903 0.68294,-1.962413 4.23544,-5.605869 5.46591,-5.605869 0.96366,0 0.73561,-1.281634 -0.52127,-2.929482 -0.96973,-1.271377 -1.14234,-1.98618 -1.14234,-4.730446 0,-6.294127 2.0326,-11.526641 5.60005,-14.416161 4.11404,-3.332246 3.69418,-3.257556 18.38917,-3.271431 15.10201,-0.01423 16.29289,0.170598 18.3404,2.847128 1.24672,1.629722 1.30599,1.923535 1.26664,6.279101 -0.0529,5.854306 -0.86599,8.407011 -3.92967,12.337317 -0.19589,0.251318 -0.87333,1.10349 -1.50541,1.893711 -1.29497,1.618975 -1.402,1.990263 -0.57374,1.990263 1.81107,0 2.98438,6.551247 2.1601,12.061131 -1.06357,7.109446 -3.58447,10.882173 -8.32664,12.461447 -3.37214,1.123023 -28.35132,1.40557 -31.17214,0.352604 z m 27.79373,-6.160908 c 2.11442,-0.993896 2.78441,-2.015707 3.56473,-5.436628 1.36285,-5.974768 0.87793,-9.081437 -1.62793,-10.429545 -2.10548,-1.132711 -20.26878,-1.125774 -22.72784,0.0086 -3.07862,1.420281 -4.95671,4.780936 -5.72694,10.247768 -0.45139,3.203821 0.0462,4.193523 2.71925,5.408497 2.2593,1.026919 2.8816,1.083975 12.09674,1.108936 8.86428,0.02405 9.88889,-0.05548 11.70199,-0.907711 z m 3.24167,-23.31577 c 2.96503,-1.069186 5.28933,-5.523624 5.25632,-10.073529 -0.0157,-2.161326 -0.79612,-3.602486 -1.95086,-3.602486 -0.39727,0 -0.84939,-0.205621 -1.0047,-0.456939 -0.1735,-0.280717 -3.91599,-0.456938 -9.70446,-0.456938 -14.24602,0 -15.27056,0.525589 -16.60913,8.520359 -0.5166,3.085511 -0.49202,3.342436 0.4458,4.659475 0.67927,0.953949 1.60108,1.536881 2.92059,1.846905 2.92993,0.688394 18.4358,0.36032 20.64644,-0.436847 z m 19.64022,29.467488 c -6.18457,-1.501426 -8.09244,-5.513256 -6.62814,-13.937521 0.23663,-1.361313 0.76193,-4.531347 1.16735,-7.044505 0.40542,-2.513159 0.91616,-5.289052 1.13498,-6.168659 0.2188,-0.879607 0.64807,-2.833008 0.95392,-4.340904 2.68185,-13.222219 6.62822,-17.481581 17.20392,-18.568359 5.93221,-0.609604 16.86052,-0.22888 19.91189,0.693696 2.71035,0.819469 5.04958,2.559321 5.99853,4.461536 0.80976,1.623201 1.03111,10.654631 0.31867,13.00224 -0.22112,0.728619 -0.74728,3.278173 -1.16924,5.665668 -0.42197,2.387504 -0.94539,5.060587 -1.16316,5.940194 -0.21778,0.879598 -0.6377,2.833007 -0.93315,4.340904 -0.29545,1.507897 -1.08104,4.386601 -1.74576,6.397124 -1.55952,4.716927 -4.46987,7.939976 -8.29479,9.185985 -3.47022,1.130467 -22.53939,1.396031 -26.75502,0.372601 z m 24.77455,-6.967333 c 1.91866,-0.979004 3.80822,-3.104604 3.80822,-4.283917 0,-0.350749 0.16987,-0.833056 0.37749,-1.071803 0.49958,-0.574505 1.31837,-3.443874 1.94931,-6.831219 0.28087,-1.507896 0.67569,-3.564116 0.87739,-4.569378 0.70057,-3.491527 1.45195,-7.322605 1.83718,-9.36722 0.21307,-1.130925 0.39966,-3.351177 0.41464,-4.933899 0.0236,-2.48602 -0.12509,-3.018859 -1.09201,-3.914975 -1.49499,-1.385503 -5.68936,-2.117636 -12.13194,-2.117636 -6.16298,0 -10.61262,0.72468 -12.8116,2.086526 -2.14471,1.328219 -4.68119,6.513689 -5.4612,11.164668 -0.31612,1.884869 -0.74598,4.24952 -0.95527,5.254782 -2.46309,11.830963 -2.77368,15.267443 -1.53916,17.02996 1.70161,2.429398 3.89854,2.836744 14.37011,2.664461 7.55479,-0.124291 8.65567,-0.242313 10.35684,-1.11035 z m 23.22807,7.026743 c -3.24752,-0.798904 -5.15555,-1.900191 -6.21248,-3.585749 -0.82414,-1.314303 -0.89485,-2.019713 -0.69619,-6.946116 0.1216,-3.015794 0.43233,-6.61418 0.69049,-7.996413 0.4783,-2.560938 1.62936,-8.353896 2.31521,-11.651914 0.20906,-1.005261 0.62629,-3.056501 0.92718,-4.558307 1.29085,-6.442719 5.16439,-11.995353 9.74166,-13.96444 3.85368,-1.657809 14.61383,-2.285633 22.90132,-1.336232 5.32963,0.610561 8.21577,2.096309 9.72925,5.008512 0.97523,1.876466 1.0495,2.475619 0.84961,6.854062 -0.21712,4.756069 -0.35461,5.73575 -1.85971,13.251195 -0.42781,2.136186 -0.94094,4.706459 -1.14029,5.71172 -1.03152,5.201715 -1.41554,6.770478 -2.30008,9.396205 -1.90282,5.648423 -4.72002,8.415889 -9.94557,9.769967 -3.44937,0.89382 -21.42135,0.92798 -25.0004,0.04752 z m 24.2412,-6.817107 c 3.32757,-1.720862 5.36519,-5.871892 6.64584,-13.538917 0.57301,-3.430432 0.93133,-5.299648 1.9271,-10.052633 1.62647,-7.763476 1.42171,-11.207121 -0.72636,-12.216169 -4.5095,-2.118314 -19.83724,-1.950122 -23.95856,0.262905 -2.45511,1.318326 -4.67517,5.797302 -5.81152,11.724799 -0.43362,2.261841 -0.96786,4.934924 -1.1872,5.940185 -1.17998,5.407735 -1.95404,10.353906 -1.99306,12.735456 -0.042,2.566028 0.0325,2.74895 1.71337,4.201917 2.17051,1.876256 2.865,1.96847 13.54273,1.798271 6.60551,-0.105292 8.75813,-0.292364 9.84766,-0.855814 z m 23.2891,6.758196 c -2.88019,-0.711931 -5.24129,-2.061207 -6.14826,-3.513498 -0.5587,-0.894633 -0.78063,-12.281905 -0.25591,-13.130918 0.14699,-0.237842 0.58478,-2.236507 0.97286,-4.441487 2.74042,-15.569904 4.2263,-20.26403 7.66064,-24.201095 2.53806,-2.909578 5.70149,-4.188433 11.81382,-4.775897 6.31587,-0.607021 16.67244,-0.191899 20.03156,0.802919 2.90053,0.85899 5.6001,3.386065 6.12283,5.731557 0.48986,2.198001 0.44799,6.036346 -0.10894,9.980111 -0.8472,5.999629 -2.83869,16.072175 -4.33638,21.933003 -1.47298,5.763803 -4.75052,9.843658 -9.03015,11.240579 -3.47992,1.135878 -22.56026,1.40345 -26.72207,0.374726 z m 24.44666,-6.731846 c 3.36497,-1.455085 4.8419,-4.509112 6.67059,-13.793741 0.396,-2.010523 0.88317,-4.477993 1.0826,-5.483255 1.36006,-6.85551 1.81743,-9.924615 1.8248,-12.244899 0.008,-2.230434 -0.16851,-2.813179 -1.11081,-3.686502 -1.51843,-1.407203 -5.7094,-2.117636 -12.49248,-2.117636 -7.08694,0 -12.22907,1.071777 -13.71141,2.857876 -1.42035,1.711417 -3.34403,6.27711 -3.95371,9.383746 -0.38022,1.937502 -0.90152,4.550836 -1.15843,5.807415 -2.41452,11.809602 -2.78315,15.632109 -1.67115,17.329219 1.6938,2.585079 3.84404,3.001844 14.4581,2.802287 6.273,-0.117946 8.86823,-0.338339 10.0619,-0.85451 z M 78.723349,60.015849 c -1.29024,-2.198849 -2.96427,-5.128822 -3.72006,-6.511056 -0.75579,-1.382234 -2.42464,-4.224635 -3.70854,-6.316437 -1.28389,-2.091803 -2.33436,-3.887904 -2.33436,-3.991342 0,-0.103437 -0.640832,-1.229559 -1.424082,-2.502494 -0.783251,-1.272943 -1.329414,-2.409111 -1.213695,-2.52483 0.11571,-0.115711 9.277187,-0.156816 20.358827,-0.09135 L 106.8299,38.197379 94.028219,51.105872 c -7.04094,7.099671 -12.83708,12.908348 -12.88034,12.908188 -0.0433,-1.7e-4 -1.13429,-1.799363 -2.42453,-3.998211 z m 12.05581,-10.58776 c 4.08388,-4.252535 7.42524,-7.953655 7.42524,-8.224717 0,-0.623165 -25.40912,-0.695822 -25.79358,-0.07377 -0.21999,0.355958 3.99732,7.592168 4.81557,8.26274 0.15334,0.125655 0.36103,0.43412 0.46154,0.685471 0.82533,2.063911 4.31054,7.082443 4.91843,7.082308 0.41116,-8.5e-5 4.08892,-3.4795 8.1728,-7.732043 z m -1.71352,-21.103031 c -2.38749,-0.208687 -4.81322,-0.591656 -5.39051,-0.851037 -0.57728,-0.259389 -1.54185,-0.471617 -2.14348,-0.471617 -0.60164,0 -1.20455,-0.179059 -1.3398,-0.397919 -0.13527,-0.218851 -0.81568,-0.514519 -1.51202,-0.657037 -0.69635,-0.14251 -1.64044,-0.536753 -2.09797,-0.876101 -0.79472,-0.589428 -0.77369,-0.742128 0.47067,-3.418277 1.27525,-2.742538 1.32623,-2.78831 2.43117,-2.182865 2.08771,1.143952 4.23454,2.048944 4.86051,2.048944 0.34177,0 0.97845,0.1837 1.41484,0.40821 2.16794,1.115365 13.34594,2.609675 15.682471,2.096478 2.60283,-0.571675 3.40159,-2.275249 1.77663,-3.789134 -1.49912,-1.396641 -7.480311,-2.766466 -15.294851,-3.502843 -13.73812,-1.294576 -16.54504,-11.3537803 -4.11243,-14.7378052 2.88162,-0.7843484 8.21587,-1.494036 11.22966,-1.494036 4.55451,0 12.192401,1.2774368 15.563831,2.6030534 l 1.66193,0.6534544 -1.12886,2.1414817 c -0.62087,1.1778152 -1.27153,2.291022 -1.44591,2.4737923 -0.17438,0.1827712 -1.7789,-0.1760679 -3.56559,-0.7974187 -9.010761,-3.1336315 -18.877151,-3.2892797 -20.018181,-0.315799 -0.73386,1.9124203 2.10505,3.0580031 11.04817,4.4582461 8.700581,1.362271 10.406811,1.799397 12.604001,3.229076 3.34192,2.174548 4.43652,5.910032 2.72307,9.292955 -1.21861,2.405935 -3.99022,3.549912 -9.97595,4.117529 -5.533291,0.524709 -7.122241,0.521007 -13.441401,-0.03134 z M 116.2383,27.356193 c -0.12576,-0.327735 -0.17381,-6.144612 -0.10676,-12.926388 l 0.1219,-12.3305044 h 4.06361 4.0636 l -0.0925,4.2061671 c -0.14196,6.4580693 -0.68072,6.1181853 9.46454,5.9707003 l 8.54614,-0.124238 0.22847,-5.0263148 0.22848,-5.0263146 h 4.01343 4.01343 V 14.893556 27.687807 h -4.01343 -4.01343 l -0.22848,-5.254781 -0.22847,-5.254781 -8.39385,-0.124757 c -5.97807,-0.08884 -8.5823,0.03168 -9.04863,0.41867 -0.50358,0.417926 -0.63536,1.660216 -0.57066,5.379539 l 0.0841,4.83611 -3.95145,0.132135 c -2.92465,0.0978 -4.01086,-0.0227 -4.18011,-0.463749 z m 37.26572,0.217386 c 0.006,-0.188486 0.41226,-0.856763 0.90371,-1.485052 0.49146,-0.62829 0.89813,-1.294458 0.90372,-1.480369 0.006,-0.18592 0.90122,-1.728171 1.99028,-3.427239 1.08908,-1.699059 2.06578,-3.306276 2.17046,-3.571587 0.10468,-0.26531 2.34034,-3.915005 4.96814,-8.1104387 l 4.77782,-7.6280612 h 4.92563 4.92562 l 1.09522,1.713516 c 2.98338,4.6676238 10.34119,16.6158309 10.34119,16.7928649 0,0.110959 0.92529,1.76682 2.05622,3.679691 1.13091,1.912871 2.05622,3.563769 2.05622,3.668663 0,0.104895 -2.02469,0.190714 -4.49931,0.190714 h -4.4993 l -2.01206,-3.084334 -2.01205,-3.084325 h -9.34624 -9.34624 l -1.77184,3.084325 -1.77183,3.084334 h -2.93276 c -1.61302,0 -2.92819,-0.154216 -2.9226,-0.342702 z m 24.65431,-11.194975 c -0.006,-0.314149 -0.41226,-1.085228 -0.90372,-1.713517 -0.49145,-0.628289 -0.89812,-1.284685 -0.9037,-1.458657 -0.006,-0.173973 -0.84791,-1.652426 -1.87181,-3.2854519 -1.24577,-1.9868779 -2.07718,-2.8864296 -2.51316,-2.7191291 -0.35834,0.1375051 -0.65151,0.3931212 -0.65151,0.5680339 0,0.1749143 -1.13093,2.1192594 -2.51316,4.3207691 -1.38223,2.201509 -2.51316,4.195433 -2.51316,4.430937 0,0.244329 2.55056,0.428191 5.94019,0.428191 4.45294,0 5.93765,-0.14301 5.93003,-0.571176 z m 19.50617,11.233048 c -0.16755,-0.167539 -0.30463,-6.09933 -0.30463,-13.181747 V 1.5527809 l 5.82596,-0.3833738 c 11.58806,-0.7625472 18.86604,-0.4400203 22.73265,1.0074062 4.13318,1.5472176 6.16866,4.0971819 6.16866,7.7278598 0,1.9092309 -0.20987,2.3489009 -1.95346,4.0924929 -1.44877,1.448766 -2.65882,2.154032 -4.68362,2.729798 -4.4758,1.272723 -4.46635,1.333378 0.92659,5.946453 2.63553,2.254421 4.99856,4.167834 5.25118,4.252044 0.25262,0.08419 0.45931,0.341584 0.45931,0.571963 0,0.231565 -2.56011,0.418857 -5.72547,0.418857 h -5.72548 l -4.21292,-3.782044 c -2.3171,-2.080131 -5.28191,-4.673713 -6.58844,-5.763515 -2.29969,-1.918216 -2.35308,-2.015724 -1.67242,-3.054553 0.66622,-1.016769 0.88773,-1.058838 4.22153,-0.801754 5.89213,0.454368 10.56444,-1.546459 10.56444,-4.5240232 0,-1.2808257 -1.65655,-3.4321802 -3.34882,-4.3490788 -1.1472,-0.6215718 -2.63875,-0.7866972 -7.16074,-0.7927466 -3.14145,-0.00423 -6.07156,0.1401232 -6.51137,0.3207227 -0.73091,0.3001377 -0.79963,1.2918547 -0.79963,11.5376769 v 11.209315 h -3.57935 c -1.96864,0 -3.71643,-0.137081 -3.88397,-0.304629 z M 235.74264,14.72781 V 1.5393405 l 5.36902,-0.2905758 c 2.95296,-0.1598163 7.09201,-0.4216241 9.1979,-0.5817944 3.94946,-0.3003901 8.1188,0.1934953 12.96709,1.5360327 6.68307,1.8506095 9.16462,7.943853 5.07761,12.467685 -1.67843,1.857821 -3.9823,2.884097 -8.13515,3.623862 -3.04987,0.543283 -9.81071,0.585693 -13.32573,0.0836 -1.2809,-0.182972 -2.56604,-0.253639 -2.85586,-0.157037 -0.353,0.117668 -0.52694,1.746857 -0.52694,4.935415 v 4.75977 h -3.88398 -3.88396 z m 22.23885,-0.490849 c 2.23626,-1.015351 2.89272,-2.042795 2.89272,-4.5275297 0,-1.4641585 -0.27034,-2.0446459 -1.39159,-2.988117 -0.76537,-0.6440203 -2.25613,-1.4050496 -3.3128,-1.6911769 -2.0239,-0.5480375 -11.13913,-0.3893477 -12.11024,0.2108311 -0.76117,0.4704282 -0.75523,8.3288525 0.007,8.7997215 2.0862,1.289336 11.22396,1.418218 13.91526,0.196271 z"
     id="path1464"
     inkscape:connector-curvature="0" />
</svg>
